<svg width="350" height="350" viewBox="0 0 350 350" fill="none" xmlns="http://www.w3.org/2000/svg">
<g clip-path="url(#clip0_50_1744)">
<path d="M350 0H0V350H350V0Z" fill="#40AE49"/>
<path d="M29.8291 43.6445C28.1236 44.4263 26.3724 45.1042 24.585 45.6745C22.2731 46.4639 20.807 46.9714 20.1868 47.2533V37.7801C22.5335 36.8479 24.8132 35.7552 27.0097 34.5096C29.0741 33.4334 30.9731 32.0661 32.6485 30.4497H42.6292V97.213H29.8291V43.6445Z" fill="white"/>
<path d="M56.3878 95.8597C53.8599 94.2953 52.0092 91.8411 51.2002 88.9804C50.144 85.3179 49.6683 81.5126 49.7905 77.7028H62.1394C61.9805 80.5268 62.3437 83.3559 63.2108 86.0482C63.5377 86.8817 64.1275 87.5858 64.8907 88.0539C65.6538 88.5219 66.5488 88.7284 67.4399 88.6421C68.131 88.7005 68.8256 88.5808 69.4573 88.2946C70.0891 88.0083 70.637 87.565 71.0487 87.0068C71.9053 85.6693 72.4096 84.1369 72.5148 82.5522C72.5148 80.635 72.5148 77.9284 72.5148 74.3195C72.6428 71.2519 72.2617 68.1842 71.387 65.2411C71.0838 64.2908 70.4666 63.4719 69.6367 62.9186C68.8067 62.3653 67.8134 62.1105 66.8196 62.1961C63.8311 62.1961 61.9703 64.2261 61.1808 68.2296H50.7491L51.5385 30.4497H82.2699V41.389H62.0266L61.2372 56.3882C62.3087 55.249 63.675 54.4292 65.1844 54.0199C67.1309 53.378 69.1682 53.0543 71.2179 53.0613C73.2901 52.9611 75.3499 53.4344 77.1705 54.4293C78.9911 55.4242 80.502 56.9019 81.5369 58.7001C84.091 63.453 85.2814 68.8196 84.9765 74.2068C85.0812 78.6289 84.6073 83.0458 83.5668 87.3452C82.7957 90.6157 80.9244 93.5221 78.2664 95.5778C74.958 97.8352 70.9838 98.9083 66.9888 98.6227C63.2623 98.7459 59.5801 97.7862 56.3878 95.8597Z" fill="white"/>
<path d="M111.705 55.9368V30.3931H116.385V52.9482H122.531V56.1624L111.705 55.9368Z" fill="white"/>
<path d="M124.053 55.9368V30.3931H128.677V55.9368H124.053Z" fill="white"/>
<path d="M131.609 55.9368V30.3931H142.098V33.8327H136.459V41.0504H140.97V44.2645H136.233V55.9368H131.609Z" fill="white"/>
<path d="M143.564 55.9368V30.3931H154.277V33.8327H148.244V41.1632H153.037V44.4337H148.244V52.8919H154.39V56.106L143.564 55.9368Z" fill="white"/>
<path d="M118.415 97.9461C116.901 98.0196 115.397 97.668 114.073 96.9311C113.023 96.2495 112.229 95.2378 111.817 94.0553C111.292 92.611 111.043 91.0807 111.084 89.5443V80.0147C111.034 78.5145 111.283 77.0192 111.817 75.6165C112.203 74.4345 113.004 73.4326 114.073 72.7971C115.397 72.0602 116.901 71.7086 118.415 71.7821C119.93 71.6929 121.438 72.0455 122.757 72.7971C123.84 73.4301 124.66 74.4304 125.069 75.6165C125.603 77.0192 125.852 78.5145 125.802 80.0147V89.6007C125.844 91.1004 125.595 92.594 125.069 93.999C124.653 95.2105 123.838 96.2447 122.757 96.9311C121.438 97.6827 119.93 98.0353 118.415 97.9461ZM118.415 94.5064C119.024 94.5678 119.632 94.3853 120.106 93.999C120.497 93.6355 120.772 93.1647 120.896 92.6456C120.957 91.9892 120.957 91.3285 120.896 90.6721V78.9434C120.959 78.3059 120.959 77.6637 120.896 77.0262C120.772 76.5071 120.497 76.0363 120.106 75.6729C119.621 75.3119 119.016 75.1505 118.415 75.2218C117.815 75.1667 117.216 75.3266 116.723 75.6729C116.35 76.0415 116.095 76.5125 115.99 77.0262C115.927 77.6637 115.927 78.3059 115.99 78.9434V90.6721C115.929 91.3285 115.929 91.9892 115.99 92.6456C116.073 93.1672 116.331 93.6448 116.723 93.999C117.203 94.3748 117.807 94.556 118.415 94.5064Z" fill="white"/>
<path d="M128.508 97.6077V72.064H131.722L137.925 86.6121V72.064H141.816V97.6077H138.714L132.455 82.3266V97.6077H128.508Z" fill="white"/>
<path d="M151.458 97.6077V72.064H156.082V94.6192H162.284V97.8333L151.458 97.6077Z" fill="white"/>
<path d="M162.454 97.6077L167.585 72.064H172.547L177.622 97.6077H173.336L172.322 91.9689H167.867L166.852 97.6077H162.454ZM168.374 88.7548H171.814L170.066 78.0411L168.374 88.7548Z" fill="white"/>
<path d="M179.145 97.6077V72.064H182.359L188.561 86.6121V72.064H192.396V97.6077H189.351L183.092 82.3266V97.6077H179.145Z" fill="white"/>
<path d="M195.328 97.6076V72.0639H201.361C203.02 71.9853 204.676 72.2741 206.211 72.9097C207.358 73.4458 208.263 74.391 208.748 75.56C209.262 76.9878 209.51 78.4975 209.481 80.0146V89.3186C209.509 90.8909 209.26 92.4557 208.748 93.9424C208.257 95.1171 207.382 96.091 206.267 96.7054C204.777 97.3622 203.157 97.6707 201.531 97.6076H195.328ZM200.008 94.3371H201.418C202.23 94.4206 203.047 94.2214 203.73 93.7733C204.206 93.3533 204.508 92.7698 204.576 92.138C204.641 91.2558 204.641 90.37 204.576 89.4878V79.6763C204.678 78.8524 204.678 78.019 204.576 77.1952C204.464 76.6431 204.14 76.1569 203.673 75.8419C202.973 75.4992 202.196 75.3437 201.418 75.3908H200.064L200.008 94.3371Z" fill="white"/>
<path d="M144.804 236.942H134.485C134.049 236.942 133.696 237.296 133.696 237.732V263.332C133.696 263.768 134.049 264.121 134.485 264.121H144.804C145.24 264.121 145.594 263.768 145.594 263.332V237.732C145.594 237.296 145.24 236.942 144.804 236.942Z" fill="white"/>
<path d="M258.595 275.117H87.8524C87.6431 275.117 87.4423 275.2 87.2942 275.348C87.1462 275.496 87.063 275.697 87.063 275.906V286.338C87.063 286.547 87.1462 286.748 87.2942 286.896C87.4423 287.044 87.6431 287.127 87.8524 287.127H258.595C258.805 287.127 259.005 287.044 259.153 286.896C259.301 286.748 259.385 286.547 259.385 286.338V275.906C259.385 275.697 259.301 275.496 259.153 275.348C259.005 275.2 258.805 275.117 258.595 275.117Z" fill="white"/>
<path d="M258.595 295.867H87.8524C87.7515 295.86 87.6501 295.873 87.5546 295.906C87.459 295.939 87.3714 295.992 87.2972 296.061C87.2231 296.13 87.164 296.213 87.1237 296.306C87.0834 296.399 87.0627 296.499 87.063 296.6V307.089C87.0627 307.19 87.0834 307.29 87.1237 307.383C87.164 307.476 87.2231 307.559 87.2972 307.628C87.3714 307.697 87.459 307.75 87.5546 307.783C87.6501 307.816 87.7515 307.829 87.8524 307.822H258.595C258.696 307.829 258.797 307.816 258.893 307.783C258.989 307.75 259.076 307.697 259.15 307.628C259.224 307.559 259.284 307.476 259.324 307.383C259.364 307.29 259.385 307.19 259.385 307.089V296.6C259.385 296.499 259.364 296.399 259.324 296.306C259.284 296.213 259.224 296.13 259.15 296.061C259.076 295.992 258.989 295.939 258.893 295.906C258.797 295.873 258.696 295.86 258.595 295.867Z" fill="white"/>
<path d="M226.116 208.635C221.91 205.244 216.738 203.27 211.342 202.997C206.212 203.007 201.291 205.032 197.64 208.635C197.354 208.919 197.191 209.304 197.189 209.707V210.665C197.171 210.875 197.202 211.087 197.281 211.283C197.359 211.478 197.482 211.653 197.64 211.793C197.833 211.888 198.045 211.937 198.26 211.937C198.475 211.937 198.687 211.888 198.88 211.793C199.202 211.672 199.491 211.479 199.726 211.229C201.86 210.175 204.229 209.689 206.605 209.82C213.199 209.94 219.495 212.584 224.199 217.206C224.607 217.602 225.152 217.824 225.721 217.827C225.986 217.826 226.248 217.771 226.491 217.664C226.734 217.557 226.951 217.402 227.131 217.206C231.834 212.584 238.13 209.94 244.724 209.82C247.101 209.681 249.472 210.167 251.603 211.229C251.871 211.494 252.2 211.688 252.562 211.793C252.874 211.889 253.208 211.889 253.52 211.793C253.839 211.718 254.122 211.538 254.327 211.282C254.531 211.027 254.644 210.711 254.648 210.383V209.538C254.655 209.339 254.612 209.143 254.524 208.965C254.435 208.788 254.303 208.636 254.141 208.523C250.569 205.055 245.81 203.079 240.833 202.997C235.452 203.263 230.297 205.238 226.116 208.635Z" fill="white"/>
<path d="M215.515 140.519C215.331 140.602 215.169 140.726 215.042 140.883C214.914 141.04 214.825 141.224 214.782 141.421V142.041C214.722 142.242 214.709 142.454 214.742 142.662C214.775 142.869 214.853 143.066 214.972 143.239C215.091 143.412 215.247 143.556 215.429 143.661C215.61 143.766 215.813 143.829 216.022 143.846H216.868C217.204 143.788 217.547 143.788 217.883 143.846C220.428 144.002 222.889 144.817 225.024 146.211C227.159 147.605 228.895 149.529 230.063 151.796C230.311 152.229 230.714 152.551 231.191 152.698H231.755C232.03 152.782 232.325 152.782 232.6 152.698C234.957 151.491 237.565 150.854 240.213 150.838C243.02 150.706 245.781 151.586 247.994 153.319C248.121 153.574 248.316 153.789 248.558 153.939L249.122 154.221H249.517C249.739 154.272 249.971 154.272 250.193 154.221C250.371 154.128 250.527 154.001 250.653 153.846C250.779 153.69 250.872 153.511 250.926 153.319V152.868C250.926 152.868 250.926 152.586 250.926 152.417C250.984 152.176 250.984 151.924 250.926 151.683C249.857 149.609 248.242 147.867 246.254 146.644C244.266 145.422 241.982 144.766 239.649 144.748C237.552 144.781 235.475 145.162 233.503 145.875C232.224 144.028 230.547 142.491 228.595 141.378C226.643 140.266 224.466 139.606 222.225 139.447C220.007 139.467 217.824 140.008 215.853 141.026" fill="white"/>
<path d="M179.426 166.795V167.585C179.445 167.795 179.508 167.999 179.613 168.182C179.717 168.365 179.86 168.524 180.031 168.647C180.202 168.77 180.398 168.855 180.605 168.895C180.812 168.936 181.026 168.931 181.231 168.882H181.513C181.803 168.763 182.056 168.568 182.246 168.318C184.238 167.259 186.477 166.753 188.73 166.852C193.705 166.917 198.496 168.734 202.263 171.983C202.614 172.314 203.079 172.496 203.56 172.491C203.811 172.471 204.055 172.401 204.278 172.285C204.501 172.169 204.698 172.008 204.857 171.814C206.74 169.682 209.046 167.964 211.628 166.77C214.21 165.576 217.012 164.932 219.857 164.878C221.386 164.823 222.909 165.112 224.311 165.724C224.567 165.919 224.853 166.071 225.157 166.175H225.834H226.172C226.474 166.075 226.733 165.875 226.907 165.609C227.081 165.343 227.16 165.026 227.131 164.709V164.032C227.128 163.836 227.082 163.642 226.994 163.466C226.906 163.291 226.779 163.137 226.623 163.017C223.62 160.34 219.762 158.821 215.74 158.732C210.983 158.938 206.451 160.815 202.94 164.032C199.618 161.723 195.705 160.412 191.663 160.254C189.357 160.28 187.084 160.796 184.994 161.768C182.903 162.74 181.044 164.147 179.539 165.893C179.405 166.036 179.301 166.205 179.233 166.389C179.165 166.573 179.135 166.769 179.144 166.965" fill="white"/>
<path d="M93.0402 180.442C93.0402 175.536 94.9888 170.832 98.4573 167.364C101.926 163.895 106.63 161.946 111.535 161.946H112.776C113.038 158.259 114.113 154.675 115.924 151.452C117.735 148.23 120.237 145.448 123.251 143.307C126.265 141.166 129.716 139.72 133.355 139.071C136.994 138.422 140.732 138.587 144.3 139.554C147.868 140.522 151.178 142.267 153.991 144.665C156.805 147.064 159.052 150.055 160.572 153.425C162.092 156.795 162.846 160.46 162.782 164.156C162.717 167.852 161.835 171.488 160.198 174.803C166.643 176.597 172.24 180.624 175.988 186.165C179.737 191.706 181.393 198.399 180.661 205.049C179.929 211.699 176.856 217.871 171.992 222.464C167.128 227.057 160.789 229.77 154.108 230.119H116.78C112.909 230.128 109.121 229.002 105.884 226.881C102.647 224.759 100.103 221.735 98.5672 218.183C97.031 214.631 96.5701 210.706 97.2414 206.894C97.9127 203.083 99.6868 199.552 102.344 196.738C99.4767 195.103 97.1007 192.728 95.4641 189.862C93.8275 186.995 92.9904 183.742 93.0402 180.442Z" fill="white"/>
</g>
<defs>
<clipPath id="clip0_50_1744">
<rect width="350" height="350" fill="white"/>
</clipPath>
</defs>
</svg>
