<svg width="350" height="350" viewBox="0 0 350 350" fill="none" xmlns="http://www.w3.org/2000/svg">
<g clip-path="url(#clip0_50_1590)">
<path d="M350 0H0V350H350V0Z" fill="#E01A83"/>
<path d="M30.5232 43.6446C29.9037 43.6446 28.1579 44.6583 25.2295 45.6719C22.3011 46.6856 21.4564 46.9672 20.8369 47.2488V37.7878C23.1907 36.8579 25.4689 35.7471 27.6511 34.4652C29.7203 33.426 31.6193 32.0777 33.2826 30.4668H43.2504V97.2005H30.5232V43.6446Z" fill="white"/>
<path d="M54.4571 93.0895C51.1607 89.101 49.5093 84.0056 49.8393 78.8417V49.1636C49.5535 43.9809 51.1316 38.8671 54.2882 34.7468C55.9865 32.9561 58.0565 31.5592 60.3526 30.6544C62.6487 29.7495 65.1152 29.3587 67.5786 29.5095C70.0512 29.3504 72.5286 29.737 74.8351 30.6421C77.1416 31.5472 79.2208 32.9486 80.9253 34.7468C84.082 38.8671 85.66 43.9809 85.3743 49.1636V78.8417C85.6377 83.9111 83.9899 88.8948 80.7564 92.808C79.0901 94.6126 77.0431 96.0238 74.7639 96.9394C72.4847 97.855 70.0303 98.252 67.5786 98.1016C65.16 98.2562 62.7363 97.8886 60.4723 97.0238C58.2083 96.159 56.1568 94.8172 54.4571 93.0895ZM72.5907 78.8417V49.3888C72.6608 47.2823 72.3361 45.1812 71.6333 43.1941C71.3439 42.3789 70.7832 41.6878 70.045 41.2367C69.3069 40.7856 68.4361 40.6019 67.5786 40.7163C66.7238 40.6224 65.8621 40.8148 65.1283 41.2632C64.3946 41.7116 63.8303 42.3907 63.5239 43.1941C62.8503 45.1873 62.545 47.2864 62.6229 49.3888V78.8417C62.6229 84.4733 64.256 87.1764 67.5786 87.1764C70.9012 87.1764 72.5907 84.4733 72.5907 78.8417Z" fill="white"/>
<path d="M111.842 55.9212V30.4103H118.262C119.733 30.3576 121.201 30.5674 122.599 31.0298C123.725 31.3686 124.687 32.1103 125.302 33.1134C125.993 34.3286 126.325 35.7152 126.259 37.1118C126.26 38.0575 126.166 39.0009 125.977 39.9276C125.822 40.6862 125.494 41.399 125.02 42.0113C124.523 42.6094 123.884 43.074 123.162 43.3628L126.71 55.9212H122.035L118.938 44.2076H116.798V55.9212H111.842ZM116.516 41.2792H118.262C118.997 41.3223 119.731 41.1871 120.402 40.8849C120.88 40.5311 121.203 40.0066 121.303 39.4207C121.552 38.6966 121.666 37.9333 121.641 37.1681C121.711 36.1571 121.454 35.1503 120.909 34.296C120.531 34.0248 120.098 33.8389 119.641 33.7514C119.184 33.6639 118.714 33.6768 118.262 33.7892H116.573L116.516 41.2792Z" fill="white"/>
<path d="M128.625 55.921V30.4102H139.381V33.7891H133.299V41.1101H138.085V44.3764H133.299V52.8237H139.437V56.0336L128.625 55.921Z" fill="white"/>
<path d="M141.295 55.9212V30.4103H147.321C148.996 30.3345 150.668 30.6227 152.221 31.255C153.335 31.7879 154.216 32.709 154.698 33.8455C155.238 35.284 155.487 36.8154 155.431 38.3508V47.6428C155.486 49.2149 155.237 50.7828 154.698 52.2607C154.208 53.4339 153.334 54.4065 152.221 55.0201C150.751 55.6714 149.153 55.9795 147.546 55.9212H141.295ZM145.97 52.6549H147.377C148.189 52.7382 149.004 52.5393 149.686 52.0917C150.116 51.7292 150.414 51.2339 150.531 50.6838C150.598 49.784 150.598 48.8805 150.531 47.9807V38.0129C150.634 37.1901 150.634 36.3578 150.531 35.535C150.417 34.9696 150.096 34.4674 149.63 34.1271C148.931 33.7848 148.155 33.6296 147.377 33.6766H146.026L145.97 52.6549Z" fill="white"/>
<path d="M165.06 56.3152C163.504 56.4131 161.953 56.0403 160.612 55.2452C159.572 54.5551 158.813 53.5167 158.472 52.3168C157.976 50.8072 157.71 49.2315 157.683 47.6427V30.4102H162.245V48.2058C162.187 48.9556 162.187 49.7087 162.245 50.4584C162.35 51.0721 162.601 51.6515 162.977 52.1479C163.214 52.3766 163.498 52.5505 163.809 52.6576C164.12 52.7646 164.451 52.8021 164.779 52.7674C165.098 52.8057 165.422 52.7698 165.724 52.6623C166.027 52.5548 166.301 52.3788 166.525 52.1479C166.923 51.6649 167.177 51.0793 167.257 50.4584C167.315 49.7087 167.315 48.9556 167.257 48.2058V30.4102H171.762V47.6427C171.813 49.2057 171.604 50.7663 171.142 52.2605C170.825 53.472 170.06 54.5183 169.002 55.1889C167.818 55.9209 166.453 56.3108 165.06 56.3152Z" fill="white"/>
<path d="M181.898 56.3155C180.354 56.3921 178.823 55.9994 177.506 55.1892C176.458 54.4705 175.684 53.4187 175.31 52.2045C174.815 50.7738 174.567 49.2693 174.577 47.7556V38.6325C174.526 37.1064 174.735 35.5827 175.197 34.1272C175.536 32.8956 176.318 31.8326 177.393 31.1425C178.733 30.3992 180.256 30.0479 181.786 30.1289C183.231 30.0408 184.673 30.3525 185.953 31.0299C186.946 31.5926 187.705 32.4913 188.093 33.5641C188.517 34.8152 188.727 36.1289 188.713 37.4499V39.4209H184.207V37.3935C184.267 36.7379 184.267 36.0782 184.207 35.4225C184.188 34.9022 183.989 34.4047 183.644 34.0146C183.17 33.6288 182.563 33.4465 181.955 33.5078C181.641 33.4739 181.323 33.5066 181.022 33.6036C180.721 33.7006 180.444 33.8599 180.209 34.0709C179.802 34.4592 179.544 34.9769 179.477 35.5351C179.416 36.2284 179.416 36.9256 179.477 37.6188V48.8819C179.404 49.6498 179.404 50.4229 179.477 51.1908C179.616 51.6411 179.868 52.0482 180.209 52.3734C180.674 52.6868 181.226 52.8445 181.786 52.824C182.083 52.8602 182.384 52.8284 182.667 52.7308C182.95 52.6332 183.207 52.4725 183.419 52.2608C183.875 51.8564 184.158 51.2915 184.207 50.684C184.267 50.0095 184.267 49.3311 184.207 48.6566V46.4603H188.713V48.4877C188.726 49.8638 188.517 51.233 188.093 52.5424C187.736 53.6594 186.999 54.616 186.01 55.2455C184.77 55.9885 183.343 56.3599 181.898 56.3155Z" fill="white"/>
<path d="M191.472 55.921V30.4102H202.172V33.7891H195.921V41.1101H200.652V44.3764H195.921V52.8237H202.003V56.0336L191.472 55.921Z" fill="white"/>
<path d="M203.918 55.9209V30.4101H209.944C211.601 30.3316 213.254 30.62 214.787 31.2548C215.914 31.7696 216.801 32.6967 217.265 33.8453C217.805 35.2838 218.054 36.8151 217.997 38.3505V47.6426C218.052 49.2146 217.804 50.7826 217.265 52.2604C216.813 53.4397 215.954 54.4184 214.843 55.0199C213.35 55.6578 211.736 55.9651 210.113 55.9209H203.918ZM208.367 52.6546H209.775C210.586 52.729 211.398 52.5308 212.084 52.0915C212.598 51.7659 212.978 51.2662 213.154 50.6836C213.217 49.7837 213.217 48.8804 213.154 47.9805V38.0127C213.224 37.1882 213.224 36.3592 213.154 35.5348C213.099 35.2471 212.986 34.9737 212.821 34.7315C212.656 34.4894 212.444 34.2836 212.196 34.1269C211.49 33.8129 210.711 33.6961 209.944 33.789H208.367V52.6546Z" fill="white"/>
<path d="M112.011 97.5944V72.0835H116.573V97.5944H112.011Z" fill="white"/>
<path d="M119.727 97.5944V72.0835H122.937L129.131 86.6129V72.0835H133.017V97.5944H129.92L123.894 82.3329V97.5944H119.727Z" fill="white"/>
<path d="M136.058 97.5944V72.0835H146.758V75.3498H140.789V82.6708H145.519V85.9371H140.789V94.3844H146.871V97.5944H136.058Z" fill="white"/>
<path d="M161.175 102.663C160.562 102.367 159.994 101.988 159.485 101.537C158.843 100.999 158.241 100.416 157.683 99.7909C157.128 99.2069 156.637 98.5649 156.219 97.8762H155.656C154.144 97.9495 152.642 97.5984 151.319 96.8625C150.249 96.1912 149.436 95.1796 149.011 93.9904C148.533 92.5375 148.305 91.0143 148.335 89.4852V80.0242C148.299 78.5132 148.527 77.0075 149.011 75.5753C149.447 74.4069 150.259 73.4165 151.319 72.7595C152.688 72.1282 154.177 71.8013 155.684 71.8013C157.191 71.8013 158.68 72.1282 160.048 72.7595C161.088 73.4258 161.879 74.4152 162.301 75.5753C162.831 76.9968 163.079 78.5078 163.033 80.0242V89.5978C163.041 90.7143 162.928 91.8284 162.695 92.9204C162.464 93.8319 162.062 94.6916 161.513 95.4546C161.002 96.1907 160.301 96.7745 159.485 97.1441C159.736 97.4718 160.019 97.7737 160.33 98.0451L161.175 98.9462L162.019 99.6219L161.175 102.663ZM155.543 94.4972C155.833 94.5449 156.13 94.5323 156.414 94.4603C156.699 94.3884 156.966 94.2585 157.199 94.0789C157.431 93.8993 157.624 93.6737 157.765 93.4163C157.907 93.1589 157.994 92.875 158.021 92.5825C158.084 91.9458 158.084 91.3045 158.021 90.6678V78.8416C158.084 78.2049 158.084 77.5635 158.021 76.9268C157.916 76.4138 157.661 75.9435 157.289 75.5753C156.787 75.201 156.167 75.021 155.543 75.0684C154.935 75.0072 154.328 75.1894 153.854 75.5753C153.463 75.9382 153.189 76.4085 153.065 76.9268C153.002 77.5635 153.002 78.2049 153.065 78.8416V90.6678C153.002 91.3045 153.002 91.9458 153.065 92.5825C153.175 93.1224 153.451 93.6146 153.854 93.9904C154.102 94.196 154.391 94.3474 154.701 94.4346C155.011 94.5219 155.337 94.5433 155.656 94.4972H155.543Z" fill="white"/>
<path d="M172.663 97.9322C171.132 98.0258 169.606 97.6737 168.271 96.9186C167.223 96.1999 166.449 95.148 166.074 93.9339C165.641 92.4336 165.432 90.8774 165.455 89.316V72.0835H170.016V90.1044C169.958 90.8542 169.958 91.6073 170.016 92.357C170.096 92.9779 170.35 93.5635 170.748 94.0465C170.974 94.2739 171.249 94.4477 171.551 94.5549C171.853 94.6621 172.175 94.7001 172.494 94.666C172.822 94.7007 173.153 94.6632 173.464 94.5562C173.775 94.4491 174.059 94.2752 174.296 94.0465C174.654 93.5458 174.886 92.9663 174.972 92.357C175.03 91.6073 175.03 90.8542 174.972 90.1044V72.0835H179.477V89.316C179.516 90.8745 179.327 92.4304 178.914 93.9339C178.54 95.148 177.766 96.1999 176.718 96.9186C175.481 97.6125 174.081 97.9625 172.663 97.9322Z" fill="white"/>
<path d="M181.279 97.5944L186.348 72.0835H191.472L196.541 97.5944H192.261L191.247 91.9628H186.798L185.728 97.5944H181.279ZM186.911 88.7528H190.402L188.657 77.9966L186.911 88.7528Z" fill="white"/>
<path d="M198.061 97.5944V72.0835H202.735V94.6096H208.874V97.8196L198.061 97.5944Z" fill="white"/>
<path d="M210.507 97.5944V72.0835H215.068V97.5944H210.507Z" fill="white"/>
<path d="M220.756 97.5944V75.5187H216.702V72.0835H229.429V75.5187H225.262V97.5944H220.756Z" fill="white"/>
<path d="M230.893 97.5944V72.0835H235.511V97.5944H230.893Z" fill="white"/>
<path d="M238.777 97.5944V72.0835H249.477V75.3498H243.452V82.6708H248.182V85.9371H243.452V94.3844H249.534V97.5944H238.777Z" fill="white"/>
<path d="M257.868 97.9324C256.533 97.9899 255.208 97.6782 254.038 97.0313C252.985 96.4271 252.156 95.4987 251.673 94.3845C251.123 93.0441 250.836 91.61 250.828 90.1608L254.827 89.3724C254.841 90.2459 254.954 91.115 255.165 91.9629C255.311 92.6124 255.621 93.2136 256.066 93.7087C256.279 93.921 256.535 94.0859 256.816 94.1927C257.098 94.2994 257.398 94.3456 257.699 94.3282C258.006 94.36 258.316 94.3148 258.601 94.1969C258.886 94.0789 259.137 93.8918 259.332 93.6524C259.639 93.143 259.795 92.5573 259.783 91.9629C259.832 90.9893 259.576 90.0244 259.051 89.2035C258.467 88.4084 257.786 87.6895 257.023 87.0635L253.813 84.2477C252.947 83.5223 252.222 82.6443 251.673 81.6572C251.077 80.5723 250.785 79.3465 250.828 78.1094C250.776 77.2466 250.91 76.3826 251.221 75.5761C251.532 74.7696 252.013 74.0395 252.631 73.4352C253.28 72.8585 254.038 72.417 254.86 72.1366C255.681 71.8561 256.551 71.7424 257.417 71.802C258.442 71.7588 259.463 71.9515 260.402 72.3652C261.175 72.6751 261.84 73.2035 262.317 73.8857C262.83 74.5307 263.195 75.2804 263.387 76.082C263.628 76.9464 263.779 77.8334 263.837 78.7288L259.839 79.4046C259.905 78.6928 259.905 77.9764 259.839 77.2646C259.764 76.7202 259.529 76.2103 259.163 75.8004C258.954 75.6026 258.705 75.4504 258.434 75.3535C258.162 75.2566 257.874 75.217 257.586 75.2373C257.29 75.2238 256.994 75.2776 256.721 75.3946C256.447 75.5116 256.204 75.6889 256.009 75.9131C255.64 76.3985 255.442 76.9926 255.446 77.6025C255.429 78.3546 255.624 79.0964 256.009 79.7425C256.419 80.3862 256.933 80.9571 257.53 81.432L260.74 84.2477C261.786 85.1441 262.697 86.1874 263.443 87.3451C264.215 88.6572 264.606 90.1592 264.569 91.6814C264.591 92.809 264.298 93.9204 263.725 94.8913C263.221 95.8356 262.46 96.617 261.528 97.1439C260.4 97.7272 259.136 97.9993 257.868 97.9324Z" fill="white"/>
<path d="M207.466 229.654H143.041C142.94 229.654 142.84 229.674 142.747 229.714C142.654 229.755 142.571 229.814 142.502 229.888C142.433 229.962 142.381 230.049 142.348 230.145C142.314 230.24 142.301 230.341 142.309 230.442V249.815C142.301 249.915 142.314 250.017 142.348 250.112C142.381 250.208 142.433 250.295 142.502 250.369C142.571 250.443 142.654 250.502 142.747 250.543C142.84 250.583 142.94 250.603 143.041 250.603H207.466C207.567 250.603 207.667 250.583 207.76 250.543C207.852 250.502 207.936 250.443 208.004 250.369C208.073 250.295 208.126 250.208 208.159 250.112C208.192 250.017 208.206 249.915 208.198 249.815V230.442C208.206 230.341 208.192 230.24 208.159 230.145C208.126 230.049 208.073 229.962 208.004 229.888C207.936 229.814 207.852 229.755 207.76 229.714C207.667 229.674 207.567 229.654 207.466 229.654Z" fill="white"/>
<path d="M207.466 188.431H143.041C142.94 188.431 142.84 188.451 142.747 188.492C142.654 188.532 142.571 188.591 142.502 188.665C142.433 188.739 142.381 188.827 142.348 188.922C142.314 189.018 142.301 189.119 142.309 189.22V208.367C142.301 208.468 142.314 208.569 142.348 208.664C142.381 208.76 142.433 208.847 142.502 208.921C142.571 208.995 142.654 209.054 142.747 209.095C142.84 209.135 142.94 209.156 143.041 209.155H207.466C207.58 209.183 207.699 209.183 207.813 209.155C207.927 209.127 208.032 209.072 208.121 208.995C208.209 208.918 208.278 208.82 208.32 208.711C208.363 208.602 208.379 208.484 208.367 208.367V189.22C208.375 189.119 208.361 189.018 208.328 188.922C208.295 188.827 208.242 188.739 208.173 188.665C208.105 188.591 208.021 188.532 207.928 188.492C207.836 188.451 207.736 188.431 207.635 188.431" fill="white"/>
<path d="M206.565 159.147L175.648 128.23C175.542 128.127 175.401 128.069 175.254 128.069C175.106 128.069 174.965 128.127 174.859 128.23L143.942 159.147C143.859 159.214 143.799 159.306 143.771 159.408C143.743 159.511 143.748 159.62 143.786 159.72C143.823 159.82 143.891 159.905 143.98 159.964C144.069 160.023 144.174 160.053 144.28 160.048H206.227C206.333 160.053 206.439 160.023 206.527 159.964C206.616 159.905 206.684 159.82 206.721 159.72C206.759 159.62 206.764 159.511 206.736 159.408C206.708 159.306 206.648 159.214 206.565 159.147Z" fill="white"/>
<path d="M235.623 250.829L266.541 219.912C266.644 219.806 266.701 219.665 266.701 219.517C266.701 219.37 266.644 219.228 266.541 219.123L235.623 188.206C235.545 188.129 235.445 188.076 235.337 188.055C235.229 188.034 235.117 188.045 235.015 188.087C234.913 188.129 234.825 188.2 234.763 188.291C234.701 188.383 234.668 188.49 234.666 188.6V250.547C234.686 250.648 234.733 250.741 234.803 250.817C234.872 250.893 234.961 250.949 235.059 250.978C235.158 251.007 235.263 251.008 235.362 250.982C235.462 250.956 235.552 250.903 235.623 250.829Z" fill="white"/>
<path d="M143.942 279.887L174.859 310.804C174.965 310.907 175.106 310.965 175.254 310.965C175.401 310.965 175.543 310.907 175.648 310.804L206.565 279.887C206.654 279.818 206.718 279.721 206.746 279.612C206.774 279.502 206.765 279.386 206.72 279.283C206.674 279.179 206.596 279.094 206.496 279.04C206.397 278.986 206.282 278.967 206.171 278.986H144.224C144.122 278.993 144.025 279.031 143.945 279.094C143.865 279.157 143.806 279.243 143.776 279.341C143.745 279.438 143.745 279.542 143.774 279.64C143.804 279.737 143.863 279.823 143.942 279.887Z" fill="white"/>
<path d="M114.883 188.206L83.9662 219.123C83.863 219.228 83.8052 219.37 83.8052 219.517C83.8052 219.665 83.863 219.806 83.9662 219.911L114.883 250.829C114.952 250.918 115.049 250.982 115.159 251.01C115.268 251.038 115.384 251.029 115.488 250.983C115.591 250.938 115.677 250.859 115.731 250.76C115.784 250.66 115.803 250.546 115.784 250.434V188.488C115.777 188.386 115.74 188.289 115.676 188.209C115.613 188.129 115.527 188.07 115.43 188.039C115.333 188.009 115.228 188.008 115.131 188.038C115.033 188.068 114.947 188.126 114.883 188.206Z" fill="white"/>
</g>
<defs>
<clipPath id="clip0_50_1590">
<rect width="350" height="350" fill="white"/>
</clipPath>
</defs>
</svg>
