<svg width="350" height="350" viewBox="0 0 350 350" fill="none" xmlns="http://www.w3.org/2000/svg">
<g clip-path="url(#clip0_50_1620)">
<path d="M350 0H0V350H350V0Z" fill="#F99D25"/>
<path d="M30.5158 43.6021C29.8953 43.9405 28.1467 44.6174 25.2136 45.6891L20.8704 47.2685V37.7923C23.204 36.8479 25.4662 35.7356 27.6391 34.4643C29.7202 33.4377 31.6243 32.0857 33.2797 30.4595H43.2636V97.1879H30.5158V43.6021Z" fill="white"/>
<path d="M58.4367 43.6021C57.8162 43.9405 56.0677 44.6174 53.1345 45.6891C50.2014 46.7608 49.4117 46.9865 48.7913 47.2685V37.7923C51.1389 36.8385 53.4192 35.7266 55.6164 34.4643C57.6799 33.4084 59.5798 32.0595 61.257 30.4595H71.1845V97.1879H58.4367V43.6021Z" fill="white"/>
<path d="M100.854 56.4061C99.4992 56.4626 98.1541 56.1507 96.9622 55.5036C95.9374 54.9037 95.1281 53.9957 94.6496 52.9089C94.109 51.5411 93.8038 50.0917 93.7471 48.622L97.7519 47.8323C97.7837 48.728 97.9162 49.6173 98.1467 50.4834C98.2826 51.1376 98.5947 51.7423 99.0492 52.232C99.2669 52.4391 99.5237 52.6007 99.8045 52.7073C100.085 52.8138 100.385 52.8632 100.685 52.8525C100.984 52.8852 101.287 52.84 101.564 52.7214C101.84 52.6029 102.082 52.4149 102.264 52.1756C102.622 51.6649 102.801 51.05 102.772 50.427C102.805 49.4633 102.528 48.5145 101.982 47.7195C101.42 46.9227 100.756 46.2022 100.008 45.5761L96.793 42.6994C95.9118 41.9717 95.1669 41.0931 94.5932 40.1047C94.049 39.0207 93.7779 37.8202 93.8035 36.6075C93.7399 35.7472 93.8633 34.8833 94.1652 34.0752C94.467 33.2671 94.9401 32.5338 95.5521 31.9258C96.6567 31.0886 97.9585 30.5501 99.3318 30.3624C100.705 30.1747 102.104 30.344 103.393 30.8541C104.157 31.1802 104.819 31.7063 105.31 32.3771C105.782 33.0414 106.126 33.7873 106.326 34.5769C106.567 35.4427 106.718 36.3311 106.777 37.228L102.828 37.9049C102.773 37.1858 102.679 36.4703 102.546 35.7614C102.456 35.2097 102.2 34.6983 101.813 34.2949C101.394 33.8982 100.839 33.6771 100.262 33.6771C99.6849 33.6771 99.1298 33.8982 98.7108 34.2949C98.3196 34.7696 98.1186 35.3726 98.1467 35.9871C98.1091 36.7426 98.3062 37.4913 98.7108 38.1305C99.121 38.7752 99.6357 39.3471 100.234 39.8227L103.393 42.643C104.455 43.5257 105.369 44.5731 106.1 45.7453C106.875 47.0385 107.266 48.5252 107.228 50.0322C107.242 51.1715 106.971 52.2962 106.438 53.3037C105.911 54.2365 105.128 54.9995 104.182 55.5036C103.175 56.0991 102.025 56.411 100.854 56.4061Z" fill="white"/>
<path d="M115.689 56.4061C114.138 56.4917 112.594 56.1399 111.233 55.3907C110.204 54.6618 109.45 53.6093 109.089 52.4012C108.651 50.9188 108.442 49.378 108.469 47.8323V30.4028H112.812V48.1708C112.75 48.9215 112.75 49.6762 112.812 50.427C112.841 51.0618 113.102 51.664 113.545 52.1192C113.769 52.3539 114.042 52.5362 114.344 52.6533C114.646 52.7703 114.971 52.819 115.294 52.7961C115.618 52.8274 115.945 52.7826 116.249 52.6651C116.552 52.5475 116.824 52.3606 117.043 52.1192C117.463 51.6486 117.72 51.0552 117.776 50.427C117.838 49.6762 117.838 48.9215 117.776 48.1708V30.4028H122.288V47.6631C122.316 49.2088 122.106 50.7495 121.668 52.232C121.347 53.4591 120.584 54.524 119.524 55.2215C118.368 55.9379 117.048 56.3457 115.689 56.4061Z" fill="white"/>
<path d="M131.652 56.4059C130.315 56.4636 128.988 56.1513 127.816 55.5034C126.771 54.9128 125.941 54.0038 125.447 52.9087C124.901 51.545 124.614 50.091 124.601 48.6218L128.606 47.8322C128.621 48.7256 128.734 49.6147 128.944 50.4832C129.104 51.1289 129.413 51.728 129.847 52.2318C130.293 52.6398 130.878 52.8618 131.483 52.8523C131.79 52.8792 132.099 52.8317 132.383 52.7139C132.668 52.5961 132.92 52.4114 133.119 52.1754C133.433 51.6476 133.59 51.0408 133.57 50.4268C133.603 49.4631 133.326 48.5143 132.78 47.7193C132.248 46.8981 131.581 46.1733 130.806 45.5759L127.591 42.6992C126.711 41.9855 125.982 41.1034 125.447 40.1045C124.858 39.0355 124.565 37.8278 124.601 36.6073C124.549 35.7432 124.683 34.8778 124.994 34.07C125.306 33.2622 125.787 32.5309 126.406 31.9256C127.057 31.348 127.815 30.9058 128.639 30.6249C129.462 30.344 130.333 30.2301 131.201 30.2899C132.227 30.2466 133.25 30.4396 134.19 30.8539C134.955 31.18 135.617 31.7061 136.108 32.3769C136.576 33.0509 136.937 33.7929 137.18 34.5767C137.402 35.4445 137.534 36.3329 137.575 37.2278L133.626 37.9047C133.599 37.183 133.505 36.4654 133.344 35.7612C133.277 35.2021 133.018 34.6836 132.611 34.2947C132.416 34.0917 132.178 33.9355 131.914 33.8378C131.65 33.7401 131.368 33.7035 131.088 33.7306C130.791 33.7171 130.494 33.771 130.221 33.8882C129.947 34.0054 129.704 34.1829 129.509 34.4075C129.139 34.8937 128.94 35.4888 128.944 36.0997C128.936 36.8519 129.131 37.5925 129.509 38.2431C129.919 38.8878 130.433 39.4597 131.032 39.9353L134.247 42.7556C135.277 43.6551 136.17 44.7003 136.898 45.8579C137.697 47.1406 138.09 48.6348 138.026 50.1448C138.04 51.2842 137.768 52.4089 137.236 53.4164C136.708 54.3491 135.926 55.1122 134.98 55.6162C133.964 56.1804 132.813 56.4537 131.652 56.4059Z" fill="white"/>
<path d="M142.031 55.8984V33.8436H137.969V30.4028H150.717V33.8436H146.656V55.8984H142.031Z" fill="white"/>
<path d="M149.815 55.8984L154.948 30.4028H159.911L164.988 55.8984H160.701L159.686 50.2578H155.23L154.214 55.8984H149.815ZM155.737 47.0426H159.178L157.43 36.3255L155.737 47.0426Z" fill="white"/>
<path d="M166.285 55.8984V30.4028H170.854V55.8984H166.285Z" fill="white"/>
<path d="M173.505 55.8984V30.4028H176.777L182.981 45.1248V30.4028H186.817V55.8984H183.715L177.454 40.6687V55.8984H173.505Z" fill="white"/>
<path d="M188.115 55.8984L193.191 30.4028H198.155L203.062 55.8984H198.719L197.704 50.2578H193.304L192.232 55.8984H188.115ZM193.755 47.0426H197.422L195.673 36.3255L193.755 47.0426Z" fill="white"/>
<path d="M204.416 55.8984V30.4028H210.677C211.717 30.405 212.755 30.4993 213.779 30.6849C214.622 30.861 215.413 31.2276 216.092 31.7566C216.78 32.2902 217.324 32.9885 217.671 33.7872C218.045 34.7968 218.218 35.87 218.179 36.9459C218.207 37.8462 218.074 38.7442 217.784 39.597C217.499 40.2759 217.054 40.8758 216.487 41.3456C215.91 41.8258 215.203 42.1207 214.456 42.1917C215.353 42.288 216.205 42.6356 216.913 43.1943C217.622 43.7531 218.158 44.5005 218.461 45.3505C218.801 46.348 218.954 47.3997 218.912 48.4528C218.949 49.561 218.796 50.6674 218.461 51.7243C218.202 52.5928 217.738 53.3861 217.107 54.037C216.494 54.6728 215.741 55.1558 214.907 55.4472C213.883 55.7552 212.818 55.9073 211.749 55.8984H204.416ZM209.097 40.838H210.677C211.418 40.8659 212.154 40.7109 212.82 40.3867C213.063 40.257 213.278 40.0806 213.452 39.8676C213.626 39.6547 213.757 39.4093 213.836 39.1458C214.144 38.4716 214.317 37.7432 214.343 37.0023C214.386 36.2716 214.209 35.5447 213.836 34.9153C213.682 34.631 213.465 34.3862 213.2 34.2002C212.936 34.0142 212.632 33.8921 212.313 33.8436C211.545 33.7399 210.767 33.7399 210 33.8436H209.097V40.838ZM209.097 52.6268H210.846C211.372 52.6946 211.906 52.6381 212.405 52.4617C212.905 52.2854 213.356 51.9941 213.723 51.6115C214.232 50.6412 214.448 49.5436 214.343 48.4528C214.476 47.6119 214.476 46.7554 214.343 45.9145C214.092 45.3407 213.68 44.8513 213.159 44.5044C212.461 44.1538 211.681 43.998 210.902 44.0531H209.323L209.097 52.6268Z" fill="white"/>
<path d="M220.661 55.8984V30.4028H225.624V52.9653H231.265V56.1804L220.661 55.8984Z" fill="white"/>
<path d="M232.506 55.8984V30.4028H243.223V33.8436H237.188V41.1764H241.926V44.448H237.188V52.6833H243.28V55.8984H232.506Z" fill="white"/>
<path d="M257.945 56.4062C256.482 56.3936 255.054 55.9631 253.828 55.1653C252.768 54.4312 251.991 53.3562 251.628 52.1194C251.152 50.7217 250.923 49.2521 250.951 47.7761V38.6383C250.915 37.1064 251.144 35.5798 251.628 34.1258C252.003 32.9097 252.778 31.8561 253.828 31.1363C255.17 30.3917 256.694 30.0399 258.227 30.121C259.657 30.0314 261.084 30.344 262.345 31.0235C263.342 31.5831 264.104 32.4847 264.488 33.5617C264.913 34.8148 265.123 36.1307 265.109 37.4538V39.4844H260.653V37.3974C260.653 36.6641 260.653 36.0436 260.653 35.4231C260.584 35.0888 260.442 34.7738 260.237 34.5007C260.033 34.2276 259.77 34.0033 259.468 33.8438C259.238 33.6438 258.969 33.495 258.677 33.4075C258.385 33.32 258.078 33.2956 257.776 33.3361C257.461 33.3057 257.144 33.34 256.843 33.437C256.543 33.5341 256.265 33.6917 256.027 33.9002C255.661 34.3107 255.425 34.8214 255.351 35.3667C255.29 36.0611 255.29 36.7594 255.351 37.4538V48.735C255.249 49.4837 255.249 50.2426 255.351 50.9912C255.448 51.5206 255.727 51.9994 256.14 52.345C256.596 52.6789 257.156 52.839 257.72 52.7962C258.329 52.8576 258.937 52.6751 259.412 52.2886C259.842 51.8783 260.137 51.3472 260.258 50.7656C260.258 50.1451 260.258 49.4683 260.258 48.6786V46.4223H265.109V48.5094C265.144 49.8664 264.954 51.2198 264.545 52.5142C264.168 53.6536 263.411 54.6291 262.401 55.2781C261.077 56.1258 259.513 56.5216 257.945 56.4062Z" fill="white"/>
<path d="M266.914 55.8984V30.4028H271.539V55.8984H266.914Z" fill="white"/>
<path d="M276.728 55.8984V33.8436H272.667V30.4028H285.359V33.8436H281.354V55.8984H276.728Z" fill="white"/>
<path d="M286.543 55.8984V30.4028H291.169V55.8984H286.543Z" fill="white"/>
<path d="M293.763 55.8984V30.4028H304.593V33.8436H298.445V41.1764H303.183V44.448H298.445V52.6833H304.593V55.8984H293.763Z" fill="white"/>
<path d="M312.434 56.4061C311.079 56.4626 309.733 56.1507 308.542 55.5036C307.517 54.9037 306.707 53.9957 306.229 52.9089C305.688 51.5411 305.383 50.0917 305.326 48.622L309.331 47.8323C309.363 48.728 309.496 49.6173 309.726 50.4834C309.862 51.1376 310.174 51.7423 310.629 52.232C310.846 52.4391 311.103 52.6007 311.384 52.7073C311.665 52.8138 311.964 52.8632 312.264 52.8525C312.564 52.8852 312.866 52.84 313.143 52.7214C313.42 52.6029 313.661 52.4149 313.844 52.1756C314.202 51.6649 314.38 51.05 314.351 50.427C314.384 49.4633 314.107 48.5145 313.562 47.7195C312.992 46.9109 312.308 46.189 311.531 45.5761L308.372 42.6994C307.491 41.9717 306.746 41.0931 306.172 40.1047C305.628 39.0207 305.357 37.8202 305.383 36.6075C305.319 35.7472 305.443 34.8833 305.744 34.0752C306.046 33.2671 306.519 32.5338 307.131 31.9258C308.236 31.0886 309.538 30.5501 310.911 30.3624C312.284 30.1747 313.683 30.344 314.972 30.8541C315.736 31.1802 316.399 31.7063 316.89 32.3771C317.361 33.0414 317.705 33.7873 317.905 34.5769C318.146 35.4427 318.298 36.3311 318.356 37.228L314.408 37.9049C314.353 37.1858 314.259 36.4703 314.126 35.7614C314.035 35.2097 313.78 34.6983 313.392 34.2949C312.973 33.8982 312.418 33.6771 311.841 33.6771C311.264 33.6771 310.709 33.8982 310.29 34.2949C309.899 34.7696 309.698 35.3726 309.726 35.9871C309.688 36.7426 309.885 37.4913 310.29 38.1305C310.7 38.7752 311.215 39.3471 311.813 39.8227L314.972 42.643C316.034 43.5257 316.949 44.5731 317.679 45.7453C318.454 47.0385 318.845 48.5252 318.807 50.0322C318.821 51.1715 318.55 52.2962 318.018 53.3037C317.49 54.2365 316.707 54.9995 315.762 55.5036C314.754 56.0991 313.604 56.411 312.434 56.4061Z" fill="white"/>
<path d="M93.1265 97.5825L98.203 72.0869H103.167L108.3 97.5825H103.956L102.998 91.9419H98.5414L97.4697 97.5825H93.1265ZM98.7671 88.7267H102.264L100.516 78.0096L98.7671 88.7267Z" fill="white"/>
<path d="M109.428 97.5825V72.0869H112.812L119.017 86.6397V72.0869H122.853V97.5825H119.75L113.376 82.3528V97.5825H109.428Z" fill="white"/>
<path d="M125.334 97.5826V72.0871H131.314C132.991 72.0112 134.665 72.2998 136.221 72.9332C137.337 73.4669 138.219 74.3895 138.703 75.5279C139.216 76.9758 139.464 78.5044 139.436 80.0403V89.3474C139.463 90.9201 139.215 92.4855 138.703 93.9727C138.224 95.142 137.344 96.1022 136.221 96.6801C134.757 97.359 133.15 97.6689 131.539 97.5826H125.334ZM129.96 94.3675H131.37C132.18 94.4219 132.988 94.2249 133.683 93.8034C134.159 93.3595 134.459 92.7587 134.529 92.1112C134.596 91.2288 134.596 90.3426 134.529 89.4602V79.7019C134.631 78.8778 134.631 78.0441 134.529 77.22C134.415 76.6538 134.093 76.1507 133.626 75.8099C132.926 75.467 132.148 75.3116 131.37 75.3586H129.734L129.96 94.3675Z" fill="white"/>
<path d="M154.778 97.9212C153.237 98.0148 151.704 97.6413 150.379 96.8495C149.319 96.1154 148.543 95.0404 148.179 93.8035C147.751 92.396 147.542 90.9312 147.558 89.4603V80.3225C147.534 78.7955 147.744 77.2738 148.179 75.81C148.554 74.5938 149.329 73.5403 150.379 72.8205C151.721 72.0759 153.246 71.724 154.778 71.8052C156.226 71.7169 157.67 72.0292 158.953 72.7077C159.932 73.2738 160.673 74.1755 161.04 75.2459C161.511 76.4883 161.741 77.8093 161.716 79.1379V81.2814H157.204V78.9687C157.263 78.312 157.263 77.6512 157.204 76.9945C157.185 76.4734 156.985 75.9751 156.64 75.5844C156.165 75.1979 155.557 75.0153 154.948 75.0767C154.633 75.0428 154.315 75.0755 154.013 75.1727C153.712 75.2699 153.435 75.4293 153.199 75.6408C152.792 76.0297 152.533 76.5482 152.466 77.1073C152.405 77.8017 152.405 78.5 152.466 79.1944V90.4756C152.396 91.2261 152.396 91.9813 152.466 92.7318C152.583 93.2674 152.882 93.7458 153.312 94.0856C153.765 94.4242 154.327 94.5847 154.891 94.5368C155.184 94.5659 155.48 94.5359 155.761 94.4487C156.042 94.3615 156.302 94.2189 156.527 94.0292C156.889 93.6217 157.107 93.1063 157.148 92.5626C157.208 91.8683 157.208 91.1699 157.148 90.4756V88.2193H161.66V90.25C161.674 91.6099 161.464 92.9629 161.04 94.2548C160.685 95.39 159.947 96.367 158.953 97.0187C157.667 97.6864 156.225 97.9981 154.778 97.9212Z" fill="white"/>
<path d="M170.572 97.921C169.076 97.9961 167.589 97.6439 166.285 96.9057C165.214 96.2333 164.399 95.2201 163.973 94.029C163.493 92.5934 163.264 91.0861 163.296 89.5729V80.0403C163.26 78.5268 163.489 77.0187 163.973 75.5842C164.41 74.4139 165.223 73.4219 166.285 72.7639C167.605 72.0724 169.084 71.7416 170.572 71.805C172.097 71.7376 173.613 72.068 174.972 72.7639C176.013 73.4313 176.805 74.4222 177.228 75.5842C177.759 77.008 178.008 78.5214 177.961 80.0403V89.5729C178.003 91.0914 177.755 92.604 177.228 94.029C176.816 95.2118 176.022 96.2239 174.972 96.9057C173.63 97.6503 172.105 98.0021 170.572 97.921ZM170.572 94.4802C171.188 94.5175 171.8 94.3595 172.321 94.029C172.675 93.6251 172.927 93.1412 173.054 92.6188C173.115 91.981 173.115 91.3388 173.054 90.701V78.9685C173.115 78.3119 173.115 77.651 173.054 76.9943C172.925 76.506 172.673 76.0591 172.321 75.697C171.818 75.3221 171.197 75.1418 170.572 75.1893C169.981 75.137 169.394 75.3193 168.936 75.697C168.527 76.022 168.247 76.4818 168.147 76.9943C168.086 77.651 168.086 78.3119 168.147 78.9685V90.701C168.086 91.3388 168.086 91.981 168.147 92.6188C168.226 93.1579 168.484 93.6546 168.88 94.029C169.383 94.3516 169.975 94.5093 170.572 94.4802Z" fill="white"/>
<path d="M180.048 97.5825L180.5 72.0869H185.294L188.904 89.742L192.683 72.0869H197.421L197.873 97.5825H194.432L194.037 79.871L190.427 97.5825H187.607L183.94 79.8146L183.602 97.5825H180.048Z" fill="white"/>
<path d="M200.242 97.5825L200.693 72.0869H205.544L209.154 89.742L212.933 72.0869H217.558L218.066 97.5825H214.343V79.871L210.677 97.5825H207.913L204.19 79.8146L203.852 97.5825H200.242Z" fill="white"/>
<path d="M227.542 97.9209C226.008 98.0146 224.48 97.662 223.143 96.9056C222.066 96.2144 221.282 95.1497 220.943 93.9161C220.525 92.4303 220.335 90.8899 220.379 89.3472V72.0869H224.891V89.8548C224.829 90.6056 224.829 91.3603 224.891 92.1111C224.947 92.7393 225.204 93.3327 225.624 93.8033C225.848 94.0379 226.121 94.2203 226.423 94.3373C226.725 94.4543 227.05 94.5031 227.373 94.4801C227.697 94.5115 228.024 94.4667 228.328 94.3491C228.631 94.2316 228.903 94.0447 229.122 93.8033C229.542 93.3327 229.799 92.7393 229.855 92.1111C229.917 91.3603 229.917 90.6056 229.855 89.8548V72.0869H234.367V89.3472C234.411 90.8899 234.221 92.4303 233.803 93.9161C233.464 95.1497 232.68 96.2144 231.604 96.9056C230.365 97.6006 228.962 97.9512 227.542 97.9209Z" fill="white"/>
<path d="M236.906 97.5825V72.0869H240.177L246.382 86.6397V72.0869H250.218V97.5825H247.115L240.911 82.3528V97.5825H236.906Z" fill="white"/>
<path d="M253.094 97.5825V72.0869H257.663V97.5825H253.094Z" fill="white"/>
<path d="M262.909 97.5825V75.5277H258.848V72.0869H271.539V75.5277H267.534V97.5825H262.909Z" fill="white"/>
<path d="M272.724 97.5825V72.0869H277.293V97.5825H272.724Z" fill="white"/>
<path d="M279.944 97.5825V72.0869H290.661V75.3585H284.625V82.6913H289.363V85.9628H284.625V94.3673H290.717V97.5825H279.944Z" fill="white"/>
<path d="M298.558 97.9212C297.22 97.9789 295.893 97.6666 294.722 97.0187C293.697 96.4188 292.888 95.5108 292.409 94.424C291.843 93.064 291.537 91.6099 291.507 90.1371L295.512 89.3475C295.544 90.2432 295.676 91.1324 295.907 91.9985C296.042 92.6528 296.354 93.2574 296.809 93.7471C297.027 93.9543 297.283 94.1158 297.564 94.2224C297.845 94.3289 298.145 94.3783 298.445 94.3676C298.744 94.3949 299.044 94.3473 299.32 94.2292C299.596 94.111 299.838 93.9259 300.024 93.6907C300.366 93.1748 300.525 92.5591 300.475 91.9421C300.533 90.9838 300.275 90.033 299.742 89.2346C299.172 88.4261 298.488 87.7041 297.712 87.0912L294.496 84.2145C293.632 83.4853 292.906 82.6064 292.353 81.6198C291.802 80.5181 291.531 79.2976 291.563 78.0662C291.491 77.1967 291.611 76.322 291.913 75.5035C292.215 74.685 292.692 73.9425 293.312 73.3281C293.972 72.7488 294.741 72.306 295.574 72.0252C296.406 71.7444 297.286 71.6313 298.163 71.6923C299.189 71.655 300.21 71.8477 301.152 72.2564C301.91 72.5675 302.559 73.0978 303.014 73.7794C303.528 74.4254 303.893 75.1763 304.085 75.9792C304.37 76.9526 304.541 77.9559 304.593 78.9687L300.645 79.6456C300.683 78.9316 300.683 78.2161 300.645 77.5022C300.529 76.959 300.276 76.4543 299.911 76.0356C299.492 75.6389 298.937 75.4178 298.36 75.4178C297.783 75.4178 297.228 75.6389 296.809 76.0356C296.418 76.5103 296.217 77.1133 296.245 77.7278C296.219 78.4748 296.395 79.2151 296.753 79.8712C297.201 80.5032 297.732 81.0723 298.332 81.5634L301.491 84.3837C302.553 85.2664 303.467 86.3138 304.198 87.4861C304.973 88.7792 305.364 90.2659 305.326 91.7729C305.34 92.9123 305.069 94.037 304.537 95.0445C303.993 95.9646 303.214 96.7238 302.28 97.2443C301.133 97.8317 299.838 98.0671 298.558 97.9212Z" fill="white"/>
<path d="M59.6776 266.914H112.812C112.987 266.914 113.161 266.878 113.322 266.81C113.483 266.741 113.629 266.64 113.75 266.514C113.871 266.387 113.966 266.238 114.027 266.074C114.089 265.91 114.117 265.735 114.11 265.56C114.082 265.251 113.965 264.956 113.771 264.714L87.4294 230.87V230.588C87.1874 230.354 86.8638 230.223 86.5269 230.223C86.1901 230.223 85.8664 230.354 85.6244 230.588H85.3424L59.6776 264.432L59.2828 264.939C59.2278 265.162 59.2278 265.394 59.2828 265.616C59.2225 265.848 59.2275 266.092 59.2972 266.321C59.3669 266.55 59.4985 266.755 59.6776 266.914Z" fill="white"/>
<path d="M112.417 271.708H59.4521C59.108 271.708 58.7781 271.845 58.5348 272.088C58.2915 272.332 58.1548 272.662 58.1548 273.006V314.464C58.1548 314.808 58.2915 315.138 58.5348 315.382C58.7781 315.625 59.108 315.762 59.4521 315.762H76.374V289.646C76.374 289.302 76.5106 288.972 76.7539 288.728C76.9972 288.485 77.3272 288.348 77.6713 288.348H93.6342C93.9739 288.362 94.2958 288.503 94.5362 288.744C94.7766 288.984 94.9177 289.306 94.9316 289.646V315.875H112.417C112.762 315.875 113.092 315.738 113.335 315.495C113.578 315.251 113.715 314.921 113.715 314.577V273.006C113.715 272.662 113.578 272.332 113.335 272.088C113.092 271.845 112.762 271.708 112.417 271.708Z" fill="white"/>
<path d="M295.568 260.822H243.11C242.781 260.822 242.466 260.953 242.233 261.186C242 261.418 241.869 261.734 241.869 262.063V315.028C241.869 315.357 242 315.673 242.233 315.906C242.466 316.139 242.781 316.269 243.11 316.269H295.568C295.736 316.277 295.903 316.25 296.06 316.192C296.217 316.133 296.361 316.042 296.482 315.926C296.603 315.81 296.7 315.671 296.766 315.517C296.832 315.362 296.866 315.196 296.865 315.028V262.063C296.866 261.895 296.832 261.729 296.766 261.575C296.7 261.42 296.603 261.281 296.482 261.165C296.361 261.049 296.217 260.959 296.06 260.9C295.903 260.841 295.736 260.814 295.568 260.822ZM266.857 295.399C266.857 295.728 266.727 296.044 266.494 296.276C266.261 296.509 265.945 296.64 265.616 296.64H249.935C249.768 296.648 249.6 296.621 249.443 296.562C249.286 296.503 249.143 296.413 249.021 296.297C248.9 296.181 248.804 296.042 248.738 295.887C248.672 295.733 248.638 295.567 248.638 295.399V285.866C248.638 285.699 248.672 285.532 248.738 285.378C248.804 285.224 248.9 285.084 249.021 284.968C249.143 284.852 249.286 284.762 249.443 284.703C249.6 284.644 249.768 284.618 249.935 284.625H265.616C265.945 284.625 266.261 284.756 266.494 284.989C266.727 285.222 266.857 285.537 266.857 285.866V295.399ZM266.857 277.8C266.857 278.129 266.727 278.445 266.494 278.678C266.261 278.911 265.945 279.041 265.616 279.041H249.935C249.768 279.049 249.6 279.022 249.443 278.963C249.286 278.905 249.143 278.814 249.021 278.698C248.9 278.582 248.804 278.443 248.738 278.289C248.672 278.134 248.638 277.968 248.638 277.8V268.268C248.638 268.1 248.672 267.934 248.738 267.779C248.804 267.625 248.9 267.486 249.021 267.37C249.143 267.254 249.286 267.163 249.443 267.105C249.6 267.046 249.768 267.019 249.935 267.027H265.616C265.945 267.027 266.261 267.157 266.494 267.39C266.727 267.623 266.857 267.939 266.857 268.268V277.8ZM290.83 295.399C290.83 295.567 290.796 295.733 290.73 295.887C290.664 296.042 290.568 296.181 290.447 296.297C290.325 296.413 290.182 296.503 290.025 296.562C289.868 296.621 289.7 296.648 289.533 296.64H273.852C273.523 296.64 273.207 296.509 272.974 296.276C272.741 296.044 272.611 295.728 272.611 295.399V285.866C272.611 285.537 272.741 285.222 272.974 284.989C273.207 284.756 273.523 284.625 273.852 284.625H289.533C289.7 284.618 289.868 284.644 290.025 284.703C290.182 284.762 290.325 284.852 290.447 284.968C290.568 285.084 290.664 285.224 290.73 285.378C290.796 285.532 290.83 285.699 290.83 285.866V295.399ZM290.83 277.8C290.83 277.968 290.796 278.134 290.73 278.289C290.664 278.443 290.568 278.582 290.447 278.698C290.325 278.814 290.182 278.905 290.025 278.963C289.868 279.022 289.7 279.049 289.533 279.041H273.852C273.523 279.041 273.207 278.911 272.974 278.678C272.741 278.445 272.611 278.129 272.611 277.8V268.268C272.611 267.939 272.741 267.623 272.974 267.39C273.207 267.157 273.523 267.027 273.852 267.027H289.533C289.7 267.019 289.868 267.046 290.025 267.105C290.182 267.163 290.325 267.254 290.447 267.37C290.568 267.486 290.664 267.625 290.73 267.779C290.796 267.934 290.83 268.1 290.83 268.268V277.8Z" fill="white"/>
<path d="M173.675 137.913H122.345C122.177 137.905 122.01 137.932 121.853 137.991C121.696 138.05 121.552 138.14 121.431 138.256C121.31 138.372 121.213 138.511 121.147 138.666C121.081 138.82 121.047 138.986 121.048 139.154V314.577C121.047 314.745 121.081 314.911 121.147 315.065C121.213 315.22 121.31 315.359 121.431 315.475C121.552 315.591 121.696 315.681 121.853 315.74C122.01 315.799 122.177 315.825 122.345 315.818H173.675C174.004 315.818 174.319 315.687 174.552 315.454C174.785 315.222 174.915 314.906 174.915 314.577V139.154C174.915 138.825 174.785 138.509 174.552 138.276C174.319 138.044 174.004 137.913 173.675 137.913ZM143.102 295.85C143.102 296.03 143.031 296.202 142.904 296.329C142.777 296.456 142.605 296.527 142.426 296.527H130.693C130.514 296.527 130.341 296.456 130.214 296.329C130.088 296.202 130.016 296.03 130.016 295.85V282.764C130.016 282.584 130.088 282.412 130.214 282.285C130.341 282.158 130.514 282.087 130.693 282.087H142.426C142.605 282.087 142.777 282.158 142.904 282.285C143.031 282.412 143.102 282.584 143.102 282.764V295.85ZM143.102 265.786C143.102 265.965 143.031 266.137 142.904 266.264C142.777 266.391 142.605 266.462 142.426 266.462H130.693C130.514 266.462 130.341 266.391 130.214 266.264C130.088 266.137 130.016 265.965 130.016 265.786V252.643C130.016 252.557 130.034 252.471 130.068 252.392C130.103 252.313 130.154 252.241 130.217 252.183C130.281 252.125 130.356 252.08 130.438 252.052C130.52 252.025 130.607 252.015 130.693 252.022H142.426C142.512 252.015 142.598 252.025 142.68 252.052C142.762 252.08 142.837 252.125 142.901 252.183C142.965 252.241 143.016 252.313 143.05 252.392C143.085 252.471 143.103 252.557 143.102 252.643V265.786ZM143.102 235.665C143.102 235.844 143.031 236.016 142.904 236.143C142.777 236.27 142.605 236.342 142.426 236.342H130.693C130.514 236.342 130.341 236.27 130.214 236.143C130.088 236.016 130.016 235.844 130.016 235.665V222.578C130.016 222.399 130.088 222.227 130.214 222.1C130.341 221.973 130.514 221.902 130.693 221.902H142.426C142.605 221.902 142.777 221.973 142.904 222.1C143.031 222.227 143.102 222.399 143.102 222.578V235.665ZM143.102 205.6C143.102 205.78 143.031 205.952 142.904 206.079C142.777 206.206 142.605 206.277 142.426 206.277H130.693C130.514 206.277 130.341 206.206 130.214 206.079C130.088 205.952 130.016 205.78 130.016 205.6V192.514C130.016 192.335 130.088 192.162 130.214 192.035C130.341 191.908 130.514 191.837 130.693 191.837H142.426C142.605 191.837 142.777 191.908 142.904 192.035C143.031 192.162 143.102 192.335 143.102 192.514V205.6ZM143.102 175.536C143.102 175.715 143.031 175.887 142.904 176.014C142.777 176.141 142.605 176.213 142.426 176.213H130.693C130.514 176.213 130.341 176.141 130.214 176.014C130.088 175.887 130.016 175.715 130.016 175.536V162.45C130.016 162.27 130.088 162.098 130.214 161.971C130.341 161.844 130.514 161.773 130.693 161.773H142.426C142.605 161.773 142.777 161.844 142.904 161.971C143.031 162.098 143.102 162.27 143.102 162.45V175.536ZM166.173 295.85C166.159 296.025 166.084 296.19 165.96 296.314C165.836 296.438 165.671 296.514 165.496 296.527H153.763C153.584 296.527 153.411 296.456 153.285 296.329C153.158 296.202 153.086 296.03 153.086 295.85V282.764C153.086 282.584 153.158 282.412 153.285 282.285C153.411 282.158 153.584 282.087 153.763 282.087H165.496C165.675 282.087 165.847 282.158 165.974 282.285C166.101 282.412 166.173 282.584 166.173 282.764V295.85ZM166.173 265.786C166.159 265.961 166.084 266.125 165.96 266.25C165.836 266.374 165.671 266.449 165.496 266.462H153.763C153.584 266.462 153.411 266.391 153.285 266.264C153.158 266.137 153.086 265.965 153.086 265.786V252.643C153.086 252.557 153.104 252.471 153.138 252.392C153.173 252.313 153.224 252.241 153.287 252.183C153.351 252.125 153.426 252.08 153.508 252.052C153.59 252.025 153.677 252.015 153.763 252.022H165.496C165.666 252.022 165.83 252.085 165.955 252.2C166.081 252.315 166.158 252.473 166.173 252.643V265.786ZM166.173 235.665C166.173 235.844 166.101 236.016 165.974 236.143C165.847 236.27 165.675 236.342 165.496 236.342H153.763C153.584 236.342 153.411 236.27 153.285 236.143C153.158 236.016 153.086 235.844 153.086 235.665V222.578C153.086 222.399 153.158 222.227 153.285 222.1C153.411 221.973 153.584 221.902 153.763 221.902H165.496C165.671 221.915 165.836 221.99 165.96 222.114C166.084 222.239 166.159 222.403 166.173 222.578V235.665ZM166.173 205.6C166.173 205.78 166.101 205.952 165.974 206.079C165.847 206.206 165.675 206.277 165.496 206.277H153.763C153.584 206.277 153.411 206.206 153.285 206.079C153.158 205.952 153.086 205.78 153.086 205.6V192.514C153.086 192.335 153.158 192.162 153.285 192.035C153.411 191.908 153.584 191.837 153.763 191.837H165.496C165.675 191.837 165.847 191.908 165.974 192.035C166.101 192.162 166.173 192.335 166.173 192.514V205.6ZM166.173 175.536C166.159 175.711 166.084 175.876 165.96 176C165.836 176.124 165.671 176.2 165.496 176.213H153.763C153.584 176.213 153.411 176.141 153.285 176.014C153.158 175.887 153.086 175.715 153.086 175.536V162.45C153.086 162.27 153.158 162.098 153.285 161.971C153.411 161.844 153.584 161.773 153.763 161.773H165.496C165.675 161.773 165.847 161.844 165.974 161.971C166.101 162.098 166.173 162.27 166.173 162.45V175.536Z" fill="white"/>
<path d="M295.737 243.9H242.998C242.406 243.9 241.926 244.38 241.926 244.972V255.52C241.926 256.111 242.406 256.591 242.998 256.591H295.737C296.329 256.591 296.809 256.111 296.809 255.52V244.972C296.809 244.38 296.329 243.9 295.737 243.9Z" fill="white"/>
<path d="M235.665 171.023C235.582 170.739 235.413 170.489 235.18 170.306C234.947 170.124 234.663 170.02 234.367 170.008C234.098 170.016 233.839 170.115 233.634 170.29L233.239 170.854L182.643 234.875V235.213C182.498 235.327 182.382 235.473 182.304 235.639C182.226 235.806 182.187 235.988 182.192 236.172V315.141C182.192 315.309 182.225 315.475 182.291 315.629C182.357 315.783 182.454 315.923 182.575 316.039C182.696 316.155 182.84 316.245 182.997 316.304C183.154 316.363 183.321 316.389 183.489 316.382H234.762C235.091 316.382 235.407 316.251 235.64 316.018C235.872 315.786 236.003 315.47 236.003 315.141V171.531C235.923 171.342 235.808 171.17 235.665 171.023ZM214.343 205.769L214.738 205.318C218.179 200.862 223.989 194.037 226.809 190.258L227.204 189.806C227.341 189.642 227.514 189.51 227.709 189.422C227.905 189.334 228.118 189.292 228.332 189.299C228.657 189.312 228.969 189.428 229.222 189.631C229.476 189.834 229.658 190.113 229.742 190.427V206.615C229.742 206.995 229.596 207.36 229.333 207.633C229.07 207.906 228.711 208.067 228.332 208.082H215.528C215.149 208.067 214.79 207.906 214.527 207.633C214.264 207.36 214.117 206.995 214.118 206.615C214.108 206.317 214.187 206.023 214.343 205.769ZM206.446 295.399C206.447 295.566 206.413 295.733 206.347 295.887C206.281 296.041 206.184 296.181 206.063 296.297C205.942 296.413 205.798 296.503 205.641 296.562C205.484 296.621 205.317 296.647 205.149 296.64H189.863C189.534 296.64 189.218 296.509 188.986 296.276C188.753 296.043 188.622 295.728 188.622 295.399V285.81C188.622 285.48 188.753 285.165 188.986 284.932C189.218 284.699 189.534 284.569 189.863 284.569H205.149C205.317 284.561 205.484 284.587 205.641 284.646C205.798 284.705 205.942 284.796 206.063 284.912C206.184 285.028 206.281 285.167 206.347 285.321C206.413 285.476 206.447 285.642 206.446 285.81V295.399ZM206.446 277.687C206.446 278.031 206.31 278.361 206.066 278.604C205.823 278.848 205.493 278.984 205.149 278.984H189.863C189.695 278.985 189.529 278.951 189.375 278.885C189.22 278.819 189.081 278.723 188.965 278.601C188.849 278.48 188.759 278.336 188.7 278.179C188.641 278.022 188.614 277.855 188.622 277.687V268.154C188.614 267.987 188.641 267.819 188.7 267.662C188.759 267.505 188.849 267.362 188.965 267.24C189.081 267.119 189.22 267.023 189.375 266.957C189.529 266.891 189.695 266.857 189.863 266.857H205.149C205.493 266.857 205.823 266.994 206.066 267.237C206.31 267.48 206.446 267.81 206.446 268.154V277.687ZM206.446 260.032C206.447 260.2 206.413 260.366 206.347 260.52C206.281 260.675 206.184 260.814 206.063 260.93C205.942 261.046 205.798 261.136 205.641 261.195C205.484 261.254 205.317 261.281 205.149 261.273H189.863C189.534 261.273 189.218 261.142 188.986 260.909C188.753 260.677 188.622 260.361 188.622 260.032V250.443C188.622 250.114 188.753 249.798 188.986 249.565C189.218 249.333 189.534 249.202 189.863 249.202H205.149C205.317 249.194 205.484 249.221 205.641 249.28C205.798 249.339 205.942 249.429 206.063 249.545C206.184 249.661 206.281 249.8 206.347 249.955C206.413 250.109 206.447 250.275 206.446 250.443V260.032ZM206.446 221.225V242.546C206.446 242.875 206.316 243.191 206.083 243.424C205.85 243.656 205.535 243.787 205.205 243.787H189.919C189.59 243.787 189.275 243.656 189.042 243.424C188.809 243.191 188.678 242.875 188.678 242.546V239.895C188.646 239.746 188.646 239.592 188.678 239.444C190.653 236.623 199.452 225.737 203.175 221.225L203.57 220.773C203.739 220.564 203.964 220.408 204.219 220.322C204.474 220.237 204.748 220.226 205.009 220.291C205.27 220.357 205.506 220.495 205.691 220.69C205.876 220.886 206.001 221.13 206.052 221.394L206.446 221.225ZM229.799 295.399C229.799 295.728 229.668 296.043 229.435 296.276C229.202 296.509 228.887 296.64 228.558 296.64H213.272C212.942 296.64 212.627 296.509 212.394 296.276C212.161 296.043 212.031 295.728 212.031 295.399V285.81C212.031 285.48 212.161 285.165 212.394 284.932C212.627 284.699 212.942 284.569 213.272 284.569H228.558C228.887 284.569 229.202 284.699 229.435 284.932C229.668 285.165 229.799 285.48 229.799 285.81V295.399ZM229.799 277.687C229.806 277.855 229.78 278.022 229.721 278.179C229.662 278.336 229.572 278.48 229.456 278.601C229.34 278.723 229.2 278.819 229.046 278.885C228.892 278.951 228.725 278.985 228.558 278.984H213.272C213.104 278.985 212.938 278.951 212.783 278.885C212.629 278.819 212.489 278.723 212.373 278.601C212.257 278.48 212.167 278.336 212.108 278.179C212.049 278.022 212.023 277.855 212.031 277.687V268.154C212.023 267.987 212.049 267.819 212.108 267.662C212.167 267.505 212.257 267.362 212.373 267.24C212.489 267.119 212.629 267.023 212.783 266.957C212.938 266.891 213.104 266.857 213.272 266.857H228.558C228.725 266.857 228.892 266.891 229.046 266.957C229.2 267.023 229.34 267.119 229.456 267.24C229.572 267.362 229.662 267.505 229.721 267.662C229.78 267.819 229.806 267.987 229.799 268.154V277.687ZM229.799 260.032C229.799 260.361 229.668 260.677 229.435 260.909C229.202 261.142 228.887 261.273 228.558 261.273H213.272C212.942 261.273 212.627 261.142 212.394 260.909C212.161 260.677 212.031 260.361 212.031 260.032V250.443C212.023 250.278 212.049 250.113 212.109 249.959C212.168 249.804 212.259 249.664 212.376 249.548C212.493 249.431 212.633 249.34 212.787 249.28C212.941 249.221 213.106 249.194 213.272 249.202H228.558C228.887 249.202 229.202 249.333 229.435 249.565C229.668 249.798 229.799 250.114 229.799 250.443V260.032ZM229.799 242.32C229.799 242.65 229.668 242.965 229.435 243.198C229.202 243.431 228.887 243.561 228.558 243.561H213.272C212.942 243.561 212.627 243.431 212.394 243.198C212.161 242.965 212.031 242.65 212.031 242.32V232.731C212.031 232.402 212.161 232.087 212.394 231.854C212.627 231.621 212.942 231.49 213.272 231.49H228.558C228.887 231.49 229.202 231.621 229.435 231.854C229.668 232.087 229.799 232.402 229.799 232.731V242.32ZM229.799 224.609C229.799 224.938 229.668 225.254 229.435 225.486C229.202 225.719 228.887 225.85 228.558 225.85H213.272C212.942 225.85 212.627 225.719 212.394 225.486C212.161 225.254 212.031 224.938 212.031 224.609V215.02C212.031 214.691 212.161 214.375 212.394 214.142C212.627 213.91 212.942 213.779 213.272 213.779H228.558C228.887 213.779 229.202 213.91 229.435 214.142C229.668 214.375 229.799 214.691 229.799 215.02V224.609Z" fill="white"/>
</g>
<defs>
<clipPath id="clip0_50_1620">
<rect width="350" height="350" fill="white"/>
</clipPath>
</defs>
</svg>
