<svg width="350" height="350" viewBox="0 0 350 350" fill="none" xmlns="http://www.w3.org/2000/svg">
<g clip-path="url(#clip0_50_1703)">
<path d="M350 0H0V350H350V0Z" fill="#48773C"/>
<path d="M30.9933 43.616C30.3734 43.9541 28.6265 44.6303 25.6963 45.701L21.3572 47.2225V37.7554C23.7082 36.8371 25.9874 35.7446 28.1757 34.487C30.2524 33.4337 32.1533 32.0651 33.8109 30.4297H43.7288V97.15H30.9933V43.616Z" fill="white"/>
<path d="M54.5483 93.0367C51.4639 88.7146 49.9705 83.458 50.3219 78.1598V75.8494H63.0574V78.0471C62.9397 80.5447 63.3427 83.0394 64.2408 85.3729C64.6462 86.1219 65.2632 86.7351 66.0147 87.1359C66.7663 87.5367 67.6192 87.7075 68.4671 87.6269C69.2928 87.7113 70.1244 87.5404 70.8499 87.1373C71.5754 86.7343 72.1599 86.1184 72.5244 85.3729C73.3855 83.0121 73.75 80.4989 73.5951 77.9908C73.7542 75.2511 73.2111 72.5162 72.0173 70.0452C71.386 69.1519 70.537 68.4345 69.5509 67.9612C68.5647 67.4878 67.474 67.2741 66.3821 67.3403H64.0717V57.986H66.1004C67.1553 58.073 68.2159 57.909 69.1954 57.5074C70.1748 57.1058 71.0453 56.4781 71.7355 55.6755C72.9875 53.3473 73.5172 50.6988 73.257 48.0681C73.4163 45.8731 72.9884 43.6753 72.0173 41.7003C71.6137 40.9878 71.0214 40.4004 70.3056 40.0027C69.5898 39.605 68.7781 39.4125 67.96 39.4463C67.1576 39.3728 66.3518 39.5433 65.648 39.9355C64.9442 40.3276 64.3751 40.9231 64.0153 41.644C63.1642 43.7335 62.7796 45.9836 62.8883 48.2371V51.2238H50.3219V47.8427C50.157 45.3901 50.4861 42.9294 51.2895 40.6063C52.0929 38.2832 53.3543 36.145 54.9991 34.3183C56.7381 32.6563 58.8026 31.3726 61.0624 30.5482C63.3222 29.7238 65.7283 29.3766 68.129 29.5284C70.551 29.3661 72.981 29.6915 75.275 30.4852C77.569 31.2789 79.6805 32.5248 81.4844 34.1492C83.1237 35.9223 84.3841 38.0113 85.1883 40.2883C85.9925 42.5653 86.3237 44.9825 86.1615 47.3919C86.2908 50.7801 85.4711 54.137 83.7948 57.0843C82.4832 59.4498 80.2992 61.2091 77.7088 61.9869C83.344 64.0532 86.1615 69.2939 86.1615 77.709C86.493 83.1012 84.9829 88.4461 81.8788 92.8676C80.2185 94.8096 78.1231 96.3322 75.7632 97.3114C73.4033 98.2906 70.8455 98.6988 68.2981 98.5028C65.7386 98.7285 63.1618 98.3516 60.7741 97.4024C58.3864 96.4532 56.2542 94.9581 54.5483 93.0367Z" fill="white"/>
<path d="M119.691 56.3517C118.15 56.4561 116.615 56.0822 115.295 55.281C114.237 54.5477 113.461 53.4737 113.098 52.2381C112.713 50.7683 112.579 49.2441 112.703 47.7299V38.6573C112.656 37.112 112.865 35.5696 113.323 34.0928C113.675 32.8812 114.456 31.8394 115.521 31.1625C116.841 30.3614 118.376 29.9875 119.916 30.0919C121.323 30.0476 122.718 30.3577 123.974 30.9935C124.932 31.6082 125.663 32.5181 126.059 33.5857C126.538 34.8246 126.768 36.1459 126.735 37.4739V39.4462H122.227V35.2762C122.183 34.7609 121.987 34.2703 121.663 33.8674C121.43 33.6735 121.16 33.5286 120.87 33.4415C120.579 33.3543 120.274 33.3267 119.973 33.3603C119.392 33.3139 118.813 33.4735 118.338 33.8111C117.931 34.2222 117.673 34.7578 117.606 35.3326C117.55 36.0264 117.55 36.7237 117.606 37.4176V48.6879C117.549 49.4382 117.549 50.1917 117.606 50.942C117.72 51.4647 117.996 51.9381 118.395 52.2944C118.867 52.6365 119.448 52.7966 120.029 52.7452C120.321 52.7742 120.617 52.7443 120.897 52.6572C121.178 52.5701 121.438 52.4276 121.663 52.2381C121.906 51.7688 122.022 51.2445 122.001 50.7166V46.4338H126.509V48.5188C126.529 49.8778 126.319 51.2304 125.889 52.5198C125.501 53.6361 124.772 54.602 123.804 55.281C122.555 56.0023 121.133 56.3722 119.691 56.3517Z" fill="white"/>
<path d="M128.876 55.9008V30.3735H133.553V52.9142H139.752V56.3516L128.876 55.9008Z" fill="white"/>
<path d="M141.217 55.9008V30.3735H145.782V55.9008H141.217Z" fill="white"/>
<path d="M148.712 55.9008L149.163 30.3735H154.009L157.785 48.0679L161.56 30.3735H166.237L166.688 55.9008H163.42L162.856 38.1501L159.25 55.9008H156.432L152.769 38.0937L152.149 55.9008H148.712Z" fill="white"/>
<path d="M168.097 55.9008L173.169 30.3735H178.184L183.256 55.9008H178.973L177.958 50.2657H173.507L172.436 55.9008H168.097ZM173.732 47.0536H177.226L175.479 36.3468L173.732 47.0536Z" fill="white"/>
<path d="M186.242 55.9008V33.811H182.185V30.3735H194.864V33.811H190.863V55.9008H186.242Z" fill="white"/>
<path d="M196.273 55.9008V30.3735H206.98V33.811H200.95V41.024H205.683V44.236H200.95V52.6888H207.036V55.9008H196.273Z" fill="white"/>
<path d="M111.52 97.601L116.648 72.0737H121.607L126.735 97.601H122.396L121.381 91.6841H116.93L115.915 97.601H111.52ZM117.437 88.7538H120.874L119.184 78.047L117.437 88.7538Z" fill="white"/>
<path d="M134.906 97.9389C133.363 97.9952 131.836 97.6038 130.51 96.8119C129.462 96.0928 128.687 95.0402 128.313 93.8252C127.855 92.4066 127.645 90.9197 127.693 89.4298V80.3008C127.646 78.774 127.855 77.2501 128.313 75.7927C128.687 74.5778 129.462 73.5252 130.51 72.8061C131.859 72.0813 133.376 71.7311 134.906 71.7918C136.351 71.7204 137.789 72.0314 139.076 72.6934C140.042 73.2739 140.778 74.1694 141.161 75.2292C141.613 76.4754 141.842 77.7917 141.837 79.1175V81.2588H137.329V76.9197C137.286 76.4045 137.09 75.9138 136.766 75.511C136.532 75.317 136.262 75.1722 135.972 75.085C135.681 74.9979 135.376 74.9703 135.075 75.0038C134.443 74.9669 133.82 75.1679 133.328 75.5673C132.921 75.9558 132.662 76.4738 132.596 77.0325C132.539 77.7263 132.539 78.4236 132.596 79.1175V90.3878C132.539 91.1569 132.539 91.9291 132.596 92.6982C132.745 93.2063 133.016 93.6704 133.384 94.0507C133.871 94.3618 134.441 94.5189 135.019 94.5015C135.315 94.5263 135.614 94.489 135.895 94.3919C136.176 94.2949 136.435 94.1403 136.653 93.9379C137.005 93.5246 137.221 93.0132 137.273 92.4728V88.1337H141.781V90.1624C141.8 91.5398 141.591 92.9109 141.161 94.2197C140.784 95.3268 140.051 96.2779 139.076 96.9246C137.811 97.6529 136.364 98.0048 134.906 97.9389Z" fill="white"/>
<path d="M146.514 97.601V75.5112H142.57V72.0737H155.305V75.5112H151.304V97.601H146.514Z" fill="white"/>
<path d="M156.827 97.601V72.0737H161.447V97.601H156.827Z" fill="white"/>
<path d="M171.365 97.939C169.853 98.0064 168.352 97.6554 167.026 96.9246C165.956 96.2529 165.142 95.2407 164.716 94.0507C164.24 92.5963 164.012 91.0725 164.04 89.5426V80.0191C163.979 78.5057 164.209 76.9947 164.716 75.5674C165.153 74.3982 165.965 73.4072 167.026 72.7498C168.386 72.1192 169.867 71.7925 171.365 71.7925C172.864 71.7925 174.345 72.1192 175.704 72.7498C176.765 73.4072 177.578 74.3982 178.015 75.5674C178.513 76.9982 178.761 78.5041 178.747 80.0191V89.5989C178.761 91.0955 178.513 92.5831 178.015 93.9943C177.6 95.2052 176.785 96.2386 175.704 96.9246C174.379 97.6554 172.878 98.0064 171.365 97.939ZM171.365 94.5015C171.667 94.535 171.972 94.5074 172.262 94.4203C172.553 94.3331 172.823 94.1883 173.056 93.9943C173.472 93.636 173.734 93.1317 173.788 92.5856C173.898 91.9516 173.898 91.3036 173.788 90.6696V78.8921C173.898 78.2581 173.898 77.6101 173.788 76.9761C173.72 76.4502 173.459 75.9682 173.056 75.6237C172.823 75.4298 172.553 75.2849 172.262 75.1978C171.972 75.1106 171.667 75.083 171.365 75.1165C170.76 75.0826 170.162 75.2621 169.675 75.6237C169.302 75.9921 169.047 76.4628 168.942 76.9761C168.923 77.6169 168.961 78.258 169.055 78.8921V90.6132C168.946 91.2472 168.946 91.8952 169.055 92.5292C169.11 93.0753 169.372 93.5796 169.788 93.938C170.224 94.3166 170.787 94.5177 171.365 94.5015Z" fill="white"/>
<path d="M181.227 97.601V72.0737H184.439L190.694 86.6125V72.0737H194.526V97.601H191.596L185.34 82.3297V97.601H181.227Z" fill="white"/>
<path d="M306.609 219.771C291.677 199.621 272.238 183.243 249.846 171.948C227.453 160.653 202.729 154.753 177.649 154.72C152.569 154.687 127.829 160.522 105.407 171.759C82.9856 182.995 63.5035 199.322 48.5187 219.433L47.5044 220.842L48.5187 222.307C63.4508 242.457 82.89 258.835 105.282 270.13C127.675 281.426 152.399 287.325 177.479 287.358C202.559 287.391 227.299 281.556 249.72 270.319C272.142 259.083 291.624 242.756 306.609 222.645L307.624 221.236L306.609 219.771ZM134.173 187.482C134.849 186.467 137.216 183.481 137.498 183.143C138.189 182.461 139.119 182.077 140.09 182.072C140.935 182.072 142.006 182.072 142.175 182.974C142.189 184.16 141.938 185.334 141.443 186.411C139.936 187.923 137.936 188.843 135.807 189.003C134.511 189.003 134.004 187.82 134.286 187.482M131.468 193.117L131.75 192.779C132.975 191.814 134.474 191.261 136.033 191.201C137.385 191.201 139.188 191.652 139.414 192.553C139.639 193.455 136.033 195.089 135.357 195.709C133.497 197.456 130.567 200.95 128.82 201.344C128.365 201.512 127.866 201.512 127.411 201.344C128.524 198.544 129.882 195.848 131.468 193.286M160.546 253.131C160.011 255.675 158.87 258.053 157.221 260.063C155.166 261.875 152.522 262.876 149.783 262.88C147.303 262.88 147.021 256.118 147.021 252.737C147.021 251.553 145.331 255.047 144.486 247.947C143.922 243.439 141.048 248.454 140.823 245.411C140.597 242.368 139.188 243.044 137.667 241.128C136.146 239.213 134.286 241.128 132.032 242.255C129.778 243.383 130.792 243.721 127.805 242.763C124.979 236.096 123.522 228.928 123.523 221.687C123.385 219.811 123.385 217.928 123.523 216.052L123.861 215.601C126.735 212.164 126.678 211.375 126.678 211.375L129.89 210.304C132.891 210.81 135.849 211.545 138.738 212.502C141.893 213.685 146.852 216.39 149.726 215.207C152.6 214.023 153.445 213.234 153.276 211.487C153.107 209.741 151.304 208.783 149.219 210.248C148.487 210.811 146.852 206.979 145.556 207.148C144.26 207.317 147.134 211.657 146.063 211.826C144.993 211.995 142.795 207.374 142.401 206.585C142.006 205.796 140.372 203.993 138.85 205.402C135.638 208.445 130.454 208.219 129.383 209.008C126.228 211.375 125.382 208.219 125.439 206.303C125.408 206.071 125.427 205.836 125.495 205.612C125.563 205.389 125.679 205.182 125.833 205.007C126.713 204.401 127.729 204.023 128.791 203.905C129.853 203.787 130.928 203.933 131.919 204.331C133.272 205.289 134.286 204.331 134.849 203.542C135.096 203.218 135.23 202.822 135.23 202.415C135.23 202.008 135.096 201.612 134.849 201.288C134.511 200.555 135.582 199.992 136.315 199.823C137.886 199.05 139.41 198.184 140.879 197.231C143.556 196.384 146.429 196.384 149.106 197.231C150.021 197.745 151.088 197.92 152.119 197.724C153.15 197.528 154.079 196.974 154.742 196.16C155.827 194.82 157.168 193.709 158.686 192.891C159.475 192.497 156.77 189.961 154.516 192.891C152.262 195.822 151.135 195.878 150.064 195.878C148.994 195.878 142.739 194.3 142.006 192.328C141.274 190.356 143.922 188.89 146.289 187.763C149.457 186.866 152.702 186.262 155.981 185.96C159.25 185.228 163.476 183.593 165.561 185.002C167.646 186.411 156.714 188.89 160.32 190.637C161.616 191.314 167.364 187.313 169.393 186.298C174.07 183.875 164.828 183.086 166.068 178.184C167.308 173.281 154.798 174.803 148.487 175.253C155.787 170.607 164.092 167.774 172.71 166.991C181.328 166.208 190.008 167.497 198.027 170.751C206.045 174.004 213.169 179.128 218.805 185.695C224.44 192.262 228.423 200.081 230.422 208.501C230.535 209.324 230.535 210.158 230.422 210.98C230.259 211.41 230.014 211.803 229.699 212.137C229.384 212.472 229.007 212.741 228.588 212.929C228.17 213.117 227.718 213.221 227.259 213.235C226.8 213.249 226.343 213.172 225.914 213.009C225.149 212.735 224.509 212.195 224.11 211.487C223.547 210.699 221.236 208.501 221.293 212.276C221.349 216.052 224.956 216.39 221.293 218.644C219.598 219.802 217.678 220.589 215.658 220.955C214.684 221.713 213.915 222.704 213.423 223.836C212.931 224.968 212.73 226.205 212.84 227.435C213.235 229.52 218.193 235.155 214.531 234.93C211.125 233.285 208.225 230.755 206.134 227.604C205.007 224.561 203.767 221.631 202.866 219.377C202.595 218.569 202.019 217.899 201.261 217.509C200.503 217.12 199.623 217.042 198.809 217.292C198.442 217.424 198.1 217.614 197.794 217.855C195.822 219.208 198.301 220.504 196.949 223.49C195.596 226.477 194.526 229.126 192.497 226.533C187.2 220.447 179.536 223.434 178.297 216.672C177.677 213.009 174.521 213.347 171.872 211.037C169.224 208.726 167.759 207.881 167.308 209.346C166.857 210.811 175.592 217.573 176.212 219.32C177.113 221.969 173.619 224.279 171.027 224.956C168.435 225.632 167.308 223.49 164.828 220.842C162.349 218.193 161.166 216.334 160.997 218.419C161.119 220.184 161.626 221.9 162.483 223.448C163.34 224.996 164.525 226.338 165.956 227.379C168.153 228.787 170.633 229.407 169.9 231.661C169.168 233.915 169.9 232.676 167.421 235.099C166.375 235.816 165.559 236.819 165.069 237.989C164.579 239.158 164.437 240.444 164.659 241.692C164.53 243.823 164.113 245.927 163.42 247.947C162.913 250.765 161.673 248.341 160.602 252.455M218.644 231.042C220.504 231.042 223.209 233.465 222.138 234.423C221.326 234.842 220.409 235.018 219.499 234.928C218.589 234.838 217.725 234.486 217.01 233.915C215.601 232.901 217.855 231.098 218.644 231.042ZM216.39 229.407C215.77 229.407 215.263 228.618 214.812 227.266C214.362 225.914 215.489 225.181 216.616 225.744C217.227 226.062 217.766 226.5 218.202 227.033C218.638 227.566 218.961 228.182 219.151 228.844C219.151 229.745 216.954 229.633 216.39 229.407ZM192.441 229.407C191.62 229.82 190.7 229.996 189.785 229.917C188.869 229.837 187.994 229.505 187.256 228.957C185.848 227.886 188.102 226.139 188.891 226.083C190.75 226.083 193.455 228.449 192.441 229.407ZM170.238 240.17C169.506 241.41 167.421 250.539 166.068 249.468C164.716 248.398 166.632 238.874 167.026 238.198C169.168 234.254 173.845 234.479 170.238 240.227M177.564 275.616C172.413 275.617 167.289 274.876 162.349 273.418C161.962 273.112 161.686 272.686 161.564 272.208C161.441 271.729 161.48 271.224 161.673 270.769C162.704 268.833 164.236 267.21 166.11 266.07C167.984 264.93 170.13 264.315 172.323 264.289C181.114 263.444 192.666 269.924 194.526 268.966C196.385 268.008 200.161 263.331 205.514 263.331C207.252 263.257 208.975 263.688 210.473 264.571C201.05 271.859 189.477 275.822 177.564 275.841M215.883 260.063C215.251 259.897 214.658 259.61 214.136 259.217C211.206 257.696 211.544 260.119 210.079 259.612C208.614 259.105 211.769 255.667 207.374 258.541C202.979 261.415 204.162 258.09 202.302 253.244C201.702 250.955 201.94 248.527 202.974 246.398C204.007 244.269 205.768 242.58 207.938 241.636C211.147 240.514 214.446 239.666 217.799 239.1C224.279 237.466 225.688 233.465 226.872 235.944C226.872 236.395 227.322 236.789 227.492 237.184C227.997 238.303 228.284 239.508 228.337 240.734C225.595 247.917 221.349 254.43 215.883 259.837M231.042 232.225C229.577 231.83 223.491 223.378 228.337 217.855C229.126 216.954 226.703 214.249 227.379 214.192C228.504 214.081 229.629 214.413 230.513 215.118C231.397 215.823 231.971 216.846 232.112 217.968V221.124C232.103 224.908 231.725 228.683 230.985 232.394" fill="white"/>
</g>
<defs>
<clipPath id="clip0_50_1703">
<rect width="350" height="350" fill="white"/>
</clipPath>
</defs>
</svg>
