<svg width="350" height="350" viewBox="0 0 350 350" fill="none" xmlns="http://www.w3.org/2000/svg">
<g clip-path="url(#clip0_50_1722)">
<path d="M350 0H0V350H350V0Z" fill="#007DBB"/>
<path d="M30.0033 43.5951C28.2985 44.3955 26.547 45.0924 24.7583 45.6818C22.4461 46.4713 20.9797 46.9789 20.3594 47.2609V37.7862C22.7116 36.8437 24.9923 35.7317 27.1834 34.4588C29.2466 33.4031 31.1462 32.0544 32.8231 30.4546H42.8054V97.1723H30.0033V43.5951Z" fill="white"/>
<path d="M68.466 81.3811H48.3887V71.286L65.759 30.4546H80.0274V71.7372H86.6823V81.3811H80.0274V97.1723H68.748L68.466 81.3811ZM68.466 71.7372V43.5387L58.3709 71.7372H68.466Z" fill="white"/>
<path d="M111.835 55.8894V30.3979H116.516V52.9568H122.72V56.1714L111.835 55.8894Z" fill="white"/>
<path d="M124.073 55.8894V30.3979H128.641V55.8894H124.073Z" fill="white"/>
<path d="M131.744 55.8894V30.3979H142.233V33.8382H136.594V41.057H140.993V44.2716H136.255V55.8894H131.744Z" fill="white"/>
<path d="M143.756 55.8894V30.3979H154.471V33.8382H148.38V41.1698H153.174V44.4408H148.38V52.6748H154.528V55.8894H143.756Z" fill="white"/>
<path d="M111.835 97.5667V72.0752H118.434C119.456 72.0745 120.475 72.1689 121.479 72.3572C122.333 72.5508 123.139 72.9153 123.848 73.4287C124.535 73.9503 125.062 74.6535 125.371 75.459C125.741 76.4696 125.913 77.5417 125.878 78.6173C125.907 79.5173 125.773 80.4152 125.484 81.2679C125.239 81.954 124.81 82.5591 124.243 83.0162C123.655 83.4771 122.953 83.7695 122.213 83.8622C123.114 84.0129 123.966 84.3807 124.694 84.9337C125.354 85.4914 125.859 86.2102 126.16 87.0204C126.52 88.0139 126.693 89.0658 126.668 90.1222C126.679 91.2288 126.527 92.331 126.217 93.3933C125.915 94.2423 125.456 95.0268 124.863 95.7056C124.223 96.3346 123.453 96.8158 122.607 97.1155C121.609 97.4515 120.558 97.6044 119.505 97.5667H111.835ZM116.516 82.5087H118.096C118.836 82.5366 119.572 82.3816 120.239 82.0575C120.746 81.8023 121.132 81.356 121.31 80.8167C121.411 80.106 121.411 79.3844 121.31 78.6737C121.341 77.951 121.185 77.2325 120.859 76.587C120.544 76.0971 120.064 75.7367 119.505 75.5718C118.732 75.3741 117.935 75.2793 117.137 75.2898H116.234L116.516 82.5087ZM116.516 94.2956H118.434C118.959 94.3634 119.493 94.3068 119.993 94.1305C120.492 93.9542 120.944 93.663 121.31 93.2805C121.898 92.3366 122.174 91.2317 122.1 90.1222C122.111 89.2786 121.977 88.4393 121.705 87.6408C121.508 87.0208 121.085 86.4975 120.521 86.1745C119.867 85.8727 119.154 85.7187 118.434 85.7233H116.798L116.516 94.2956Z" fill="white"/>
<path d="M128.473 97.5667V72.0752H139.188V75.3462H133.097V82.6778H137.891V85.9489H133.097V94.352H139.244V97.5667H128.473Z" fill="white"/>
<path d="M140.993 97.5667V72.0752H145.674V94.634H151.821V97.8486L140.993 97.5667Z" fill="white"/>
<path d="M159.942 97.9052C158.436 97.9679 156.939 97.6375 155.599 96.9465C154.518 96.2599 153.702 95.2256 153.287 94.0138C152.808 92.5785 152.579 91.0714 152.61 89.5585V80.0274C152.574 78.5141 152.803 77.0062 153.287 75.572C153.724 74.4019 154.537 73.4101 155.599 72.7521C156.939 72.0611 158.436 71.7307 159.942 71.7934C161.448 71.7254 162.946 72.0561 164.284 72.7521C165.346 73.4101 166.159 74.4019 166.597 75.572C167.08 77.0062 167.309 78.5141 167.273 80.0274V89.5585C167.309 91.0717 167.08 92.5796 166.597 94.0138C166.17 95.2048 165.356 96.2178 164.284 96.8901C162.962 97.6328 161.456 97.9848 159.942 97.9052ZM159.942 94.5214C160.551 94.5828 161.159 94.4002 161.634 94.0138C162.029 93.6395 162.288 93.1429 162.367 92.6039C162.456 91.9679 162.456 91.3224 162.367 90.6864V78.9558C162.459 78.32 162.459 77.6741 162.367 77.0383C162.284 76.5166 162.025 76.039 161.634 75.6848C161.159 75.2984 160.551 75.1158 159.942 75.1772C159.335 75.1383 158.735 75.3185 158.25 75.6848C157.858 76.039 157.599 76.5166 157.517 77.0383C157.424 77.6741 157.424 78.32 157.517 78.9558V90.6864C157.456 91.3241 157.456 91.9662 157.517 92.6039C157.615 93.1488 157.893 93.6451 158.306 94.0138C158.766 94.3861 159.352 94.5678 159.942 94.5214Z" fill="white"/>
<path d="M172.462 97.5667L168.853 72.0752H172.744L174.831 88.5995L177.481 72.1316H180.47L183.177 88.5995L185.264 72.0752H189.099L185.546 97.5667H181.767L178.891 80.6475L176.128 97.5667H172.462Z" fill="white"/>
<path d="M200.604 97.5667L196.995 72.0752H200.886L203.029 88.5995L205.68 72.1316H208.669L211.376 88.5995L213.463 72.0752H217.298L213.745 97.5667H209.966L207.09 80.6475L204.326 97.5667H200.604Z" fill="white"/>
<path d="M217.298 97.5667L222.43 72.0752H227.393L232.525 97.5667H228.182L227.167 91.9269H222.712L221.697 97.5667H217.298ZM222.938 88.7123H226.378L224.686 77.9969L222.938 88.7123Z" fill="white"/>
<path d="M235.458 97.5667V75.5154H231.228V72.0752H243.974V75.5154H239.97V97.5667H235.458Z" fill="white"/>
<path d="M245.496 97.5667V72.0752H256.212V75.3462H250.177V82.6778H254.914V85.9489H250.177V94.352H256.268V97.5667H245.496Z" fill="white"/>
<path d="M258.073 97.5668V72.0753H264.164C265.637 72.0226 267.107 72.2326 268.506 72.6957C269.634 73.035 270.598 73.7778 271.213 74.7824C271.906 75.9993 272.238 77.388 272.172 78.7866C272.267 79.7242 272.267 80.6689 272.172 81.6064C271.98 82.3539 271.655 83.0607 271.213 83.6931C270.727 84.2913 270.082 84.7407 269.352 84.9903L272.905 97.5668H268.224L265.066 85.8926H262.923V97.5668H258.073ZM262.697 82.96H264.164C264.899 83.0032 265.635 82.8677 266.307 82.5652C266.846 82.3187 267.27 81.8746 267.491 81.3245C267.74 80.5993 267.855 79.8348 267.829 79.0686C267.899 78.056 267.642 77.0478 267.096 76.1923C266.75 75.8336 266.326 75.5602 265.856 75.3939C265.386 75.2275 264.884 75.1726 264.389 75.2336H262.697V82.96Z" fill="white"/>
<path d="M269.127 255.704C264.728 249.726 236.135 213.293 195.811 213.293C161.014 213.293 123.792 244.876 123.792 244.876C123.792 244.876 109.805 216.226 81.2119 213.519H80.5352C79.9148 213.519 79.3508 214.139 79.4072 214.647C79.5089 215.023 79.6607 215.383 79.8584 215.719C87.5704 228.039 92.069 242.097 92.9425 256.606C92.0591 271.149 87.562 285.241 79.8584 297.607V298.002C79.833 298.208 79.833 298.416 79.8584 298.622C79.8707 298.908 79.986 299.179 80.183 299.387C80.3799 299.594 80.6453 299.723 80.9299 299.75H81.5503C110.256 297.099 124.243 268.393 124.243 268.393C124.243 268.393 161.465 299.919 196.262 299.919C236.36 299.919 264.953 263.487 269.578 257.509L269.916 257.114C269.948 256.965 269.948 256.811 269.916 256.663C269.944 256.533 269.944 256.398 269.916 256.268L269.578 255.817M218.821 261.457C216.496 261.468 214.22 260.788 212.282 259.503C210.345 258.218 208.832 256.387 207.938 254.241C207.043 252.095 206.806 249.732 207.257 247.451C207.707 245.171 208.826 243.075 210.47 241.431C212.114 239.787 214.209 238.669 216.49 238.218C218.77 237.767 221.134 238.004 223.279 238.899C225.425 239.794 227.257 241.306 228.541 243.244C229.826 245.182 230.506 247.457 230.495 249.782C230.48 252.874 229.245 255.835 227.059 258.021C224.873 260.207 221.912 261.442 218.821 261.457Z" fill="white"/>
<path d="M121.423 180.47V180.132C121.627 180.082 121.839 180.082 122.043 180.132C122.298 180.037 122.578 180.037 122.833 180.132C144.715 200.942 167.612 184.08 172.349 180.132L172.857 179.681H173.759L174.831 180.47C179.568 184.418 202.522 201.281 224.347 180.47C224.602 180.375 224.882 180.375 225.137 180.47C225.286 180.44 225.439 180.44 225.588 180.47L225.927 180.809C230.156 184.982 248.485 200.717 267.773 183.911C267.884 183.812 267.971 183.69 268.03 183.553C268.088 183.417 268.116 183.269 268.111 183.121V174.831C268.111 174.683 268.082 174.536 268.026 174.399C267.969 174.262 267.886 174.138 267.781 174.033C267.676 173.928 267.552 173.845 267.415 173.789C267.278 173.732 267.132 173.703 266.984 173.703L266.363 174.041C259.795 177.571 252.276 178.926 244.889 177.913C237.501 176.899 230.625 173.569 225.25 168.401L224.742 167.95H224.235H223.896C223.779 167.969 223.667 168.015 223.569 168.083C223.471 168.151 223.39 168.241 223.332 168.345C218.369 172.18 195.416 187.689 175 168.627L174.718 168.345C174.608 168.233 174.476 168.145 174.331 168.087C174.185 168.028 174.029 168.001 173.872 168.007C173.575 168.011 173.291 168.132 173.082 168.345L172.8 168.627C152.385 187.689 129.431 172.18 124.468 168.345C124.41 168.241 124.329 168.151 124.232 168.083C124.134 168.015 124.022 167.969 123.904 167.95H123.566H123.058L122.551 168.401C117.175 173.569 110.299 176.899 102.912 177.913C95.5244 178.926 88.0058 177.571 81.4373 174.041L80.8169 173.703C80.5178 173.703 80.2309 173.822 80.0194 174.033C79.8078 174.245 79.689 174.531 79.689 174.831V182.839C79.6843 182.987 79.7121 183.135 79.7706 183.271C79.829 183.408 79.9167 183.53 80.0274 183.629C99.3716 200.548 117.701 184.7 121.93 180.527" fill="white"/>
<path d="M80.5349 144.827C80.2357 144.827 79.9488 144.946 79.7373 145.158C79.5258 145.369 79.407 145.656 79.407 145.955V153.964C79.4014 154.121 79.4287 154.277 79.4869 154.422C79.5452 154.568 79.6332 154.7 79.7453 154.81C99.0895 171.729 117.419 155.825 121.648 151.651C121.629 151.559 121.629 151.462 121.648 151.37C121.853 151.323 122.064 151.323 122.269 151.37C122.418 151.361 122.566 151.387 122.703 151.445C122.841 151.504 122.962 151.594 123.058 151.708C144.94 172.575 167.838 155.712 172.575 151.708L173.082 151.313H173.477H173.985L174.436 151.708C179.173 155.712 202.127 172.575 223.953 151.708C224.049 151.594 224.17 151.504 224.307 151.445C224.444 151.387 224.593 151.361 224.742 151.37C224.945 151.314 225.159 151.314 225.362 151.37L225.701 151.651C229.931 155.825 248.26 171.616 267.547 154.81C267.66 154.7 267.748 154.568 267.806 154.422C267.864 154.277 267.891 154.121 267.886 153.964V145.899C267.886 145.6 267.767 145.313 267.555 145.101C267.344 144.89 267.057 144.771 266.758 144.771L266.138 145.053C259.574 148.6 252.051 149.965 244.659 148.951C237.267 147.937 230.39 144.597 225.024 139.413L224.517 138.906H224.009H223.671C223.449 139.009 223.256 139.163 223.107 139.357C218.087 143.192 195.19 158.701 174.774 139.357H174.492C174.272 139.147 173.979 139.029 173.675 139.029C173.37 139.029 173.077 139.147 172.857 139.357H172.575C152.159 158.419 129.206 142.91 124.243 139.357C124.094 139.163 123.9 139.009 123.679 138.906H123.34H122.833L122.325 139.413C116.959 144.597 110.082 147.937 102.69 148.951C95.2982 149.965 87.7756 148.6 81.2117 145.053L80.5913 144.771" fill="white"/>
</g>
<defs>
<clipPath id="clip0_50_1722">
<rect width="350" height="350" fill="white"/>
</clipPath>
</defs>
</svg>
