<svg width="350" height="350" viewBox="0 0 350 350" fill="none" xmlns="http://www.w3.org/2000/svg">
<g clip-path="url(#clip0_50_1662)">
<path d="M350 0H0V350H350V0Z" fill="#CD8B2A"/>
<path d="M29.9933 43.6375C28.2881 44.4191 26.5372 45.0969 24.7501 45.6671C22.4386 46.4564 20.9727 46.9638 20.3525 47.2457V37.7741C22.694 36.8309 24.9726 35.7387 27.1744 34.5041C29.2384 33.428 31.1371 32.061 32.8123 30.4448H42.7913V97.1974H29.9933V43.6375Z" fill="white"/>
<path d="M49.8389 88.1764L66.0196 63.257L66.978 61.7347C68.7158 59.2437 70.2613 56.6239 71.6011 53.8981C72.6859 51.7255 73.2642 49.3353 73.2925 46.9071C73.3856 45.1842 72.9531 43.4736 72.0521 42.0021C71.6448 41.4498 71.1076 41.0065 70.4881 40.7115C69.8685 40.4165 69.1857 40.2788 68.5003 40.3107C67.5285 40.2259 66.5536 40.4326 65.6999 40.9046C64.8463 41.3766 64.1528 42.0924 63.7081 42.9606C62.583 45.2191 62.0037 47.7102 62.0167 50.2334V53.2779H49.8389V49.9515C49.5665 44.6255 51.1396 39.3685 54.2928 35.0675C56.0049 33.142 58.1342 31.6332 60.5183 30.6561C62.9025 29.679 65.4783 29.2595 68.0492 29.4296C70.4427 29.2601 72.8457 29.5774 75.1131 30.3623C77.3806 31.1472 79.4654 32.3834 81.2419 33.9963C82.8109 35.7633 84.0127 37.8247 84.7773 40.0606C85.542 42.2965 85.8542 44.6621 85.6958 47.0198C85.7149 49.5075 85.3342 51.9822 84.5682 54.3491C83.8633 56.434 82.9371 58.4375 81.8057 60.3252C80.7909 62.1294 79.1559 64.61 76.9571 67.8236L64.1027 87.1052H83.9481V97.197H49.8389V88.1764Z" fill="white"/>
<path d="M111.348 55.9278V30.3882H117.493C118.964 30.3634 120.43 30.5727 121.835 31.0084C122.951 31.3699 123.907 32.1071 124.541 33.0944C125.235 34.3307 125.567 35.7374 125.499 37.1537C125.498 38.0816 125.403 39.0071 125.217 39.9162C125.037 40.6674 124.711 41.3761 124.259 42.0022C123.751 42.6145 123.089 43.0813 122.342 43.3553L125.95 55.9278H121.271L118.396 44.201H116.253V55.9278H111.348ZM116.028 41.2693H117.493C118.229 41.3125 118.964 41.1771 119.636 40.8747C119.901 40.7602 120.139 40.5903 120.334 40.3763C120.528 40.1624 120.675 39.9095 120.763 39.6343C121.06 38.9409 121.195 38.189 121.158 37.4356C121.21 36.4072 120.955 35.3867 120.425 34.5039C120.054 34.195 119.618 33.9738 119.149 33.8567C118.681 33.7395 118.192 33.7295 117.719 33.8273H116.028V41.2693Z" fill="white"/>
<path d="M128.037 55.9278V30.3882H138.749V33.8273H132.716V41.1565H137.452V44.4265H132.716V52.8834H138.805V56.0969L128.037 55.9278Z" fill="white"/>
<path d="M146.98 56.3788C145.646 56.4094 144.326 56.0989 143.146 55.4767C142.136 54.815 141.365 53.8467 140.947 52.7142C140.348 51.3853 140.04 49.9435 140.045 48.4857L144.048 47.6964C144.078 48.5733 144.211 49.4437 144.443 50.2899C144.542 50.9562 144.859 51.5709 145.345 52.0376C145.562 52.2446 145.819 52.4061 146.1 52.5126C146.38 52.6191 146.679 52.6685 146.98 52.6578C147.278 52.6851 147.579 52.6375 147.855 52.5194C148.13 52.4013 148.372 52.2163 148.558 51.9812C148.892 51.483 149.05 50.8881 149.009 50.2899C149.059 49.3151 148.803 48.3492 148.276 47.5273C147.692 46.7313 147.01 46.0116 146.247 45.3849L143.033 42.566C142.187 41.8348 141.48 40.9561 140.947 39.9725C140.37 38.8809 140.097 37.654 140.158 36.4207C140.094 35.5608 140.218 34.6973 140.519 33.8896C140.821 33.0818 141.294 32.3489 141.905 31.7412C143.208 30.6336 144.876 30.0507 146.585 30.1062C147.629 30.0642 148.669 30.2569 149.629 30.67C150.387 30.981 151.035 31.511 151.49 32.1922C151.991 32.846 152.355 33.5937 152.561 34.391C152.798 35.2574 152.949 36.1449 153.012 37.0408L149.009 37.7174C149.074 37.0047 149.074 36.2877 149.009 35.575C148.893 35.0321 148.641 34.5276 148.276 34.1091C148.03 33.945 147.753 33.835 147.461 33.7864C147.169 33.7378 146.871 33.7517 146.585 33.8272C146.287 33.8095 145.99 33.8614 145.716 33.9788C145.442 34.0963 145.199 34.276 145.006 34.5038C144.615 34.9782 144.414 35.581 144.443 36.1951C144.408 36.9427 144.584 37.6849 144.95 38.3375C145.411 38.9761 145.94 39.5622 146.529 40.0853L149.686 42.8479C150.666 43.6575 151.52 44.6074 152.223 45.6668C152.996 46.9804 153.387 48.4841 153.35 50.008C153.366 51.1362 153.074 52.2472 152.505 53.2216C152.014 54.1621 151.246 54.9295 150.306 55.4203C149.303 56.0328 148.154 56.3639 146.98 56.3788Z" fill="white"/>
<path d="M154.929 55.9279V30.3882H162.428C163.721 30.3339 165.006 30.6259 166.149 31.2339C167.115 31.8043 167.867 32.6757 168.291 33.7146C168.778 34.9717 169.008 36.3136 168.968 37.6611C169.025 39.0451 168.734 40.4214 168.122 41.664C167.593 42.6558 166.736 43.433 165.698 43.8628C164.556 44.3396 163.326 44.5701 162.089 44.5393H159.609V55.8151L154.929 55.9279ZM159.609 41.2694H161.356C162.087 41.3281 162.822 41.2121 163.499 40.9311C163.733 40.8125 163.94 40.6458 164.105 40.4417C164.27 40.2376 164.39 40.0009 164.457 39.7471C164.661 39.0517 164.756 38.3291 164.739 37.6047C164.84 36.8564 164.84 36.0979 164.739 35.3496C164.689 35.0076 164.547 34.6856 164.329 34.4176C164.11 34.1496 163.824 33.9457 163.499 33.8274C162.793 33.6713 162.062 33.6713 161.356 33.8274H159.609V41.2694Z" fill="white"/>
<path d="M177.537 56.379C176.024 56.4525 174.52 56.101 173.196 55.3642C172.115 54.6779 171.299 53.6439 170.884 52.4325C170.401 50.9987 170.172 49.4913 170.208 47.9786V38.3378C170.165 36.8062 170.394 35.2791 170.884 33.8275C171.342 32.67 172.15 31.6845 173.196 31.0085C174.556 30.3776 176.037 30.0508 177.537 30.0508C179.036 30.0508 180.518 30.3776 181.878 31.0085C182.923 31.6845 183.732 32.67 184.19 33.8275C184.673 35.2613 184.902 36.7687 184.866 38.2814V47.9222C184.898 49.4162 184.669 50.9044 184.19 52.3198C183.735 53.5094 182.929 54.5322 181.878 55.2515C180.566 56.0275 179.061 56.4183 177.537 56.379ZM177.537 52.9399C178.144 52.9894 178.748 52.8083 179.228 52.4325C179.463 52.2181 179.649 51.9566 179.775 51.6651C179.902 51.3737 179.965 51.0588 179.961 50.7411C180.054 50.1055 180.054 49.4599 179.961 48.8243V37.2666C180.054 36.631 180.054 35.9853 179.961 35.3497C179.918 34.768 179.656 34.2242 179.228 33.8275C178.748 33.4517 178.144 33.2706 177.537 33.3201C176.931 33.2812 176.33 33.4613 175.846 33.8275C175.454 34.1816 175.195 34.6591 175.113 35.1806C175.02 35.8162 175.02 36.4618 175.113 37.0975V48.9934C175.049 49.6308 175.049 50.2729 175.113 50.9103C175.197 51.4891 175.503 52.0126 175.965 52.3703C176.428 52.7279 177.012 52.8917 177.593 52.8272L177.537 52.9399Z" fill="white"/>
<path d="M187.403 55.9278V30.3882H190.617L196.819 45.1031V30.3882H200.652V55.9278H197.608L191.35 40.6491V55.9278H187.403Z" fill="white"/>
<path d="M210.011 56.3787C208.677 56.4092 207.358 56.0988 206.178 55.4766C205.144 54.8624 204.334 53.9339 203.866 52.8268C203.251 51.4633 202.943 49.9813 202.964 48.4856L206.967 47.6963C206.997 48.5732 207.13 49.4436 207.362 50.2898C207.461 50.9561 207.778 51.5708 208.264 52.0375C208.481 52.2445 208.738 52.406 209.019 52.5125C209.299 52.619 209.598 52.6684 209.899 52.6577C210.197 52.685 210.498 52.6374 210.774 52.5193C211.049 52.4012 211.291 52.2162 211.477 51.9811C211.811 51.4829 211.969 50.8879 211.928 50.2898C211.978 49.315 211.722 48.3491 211.195 47.5272C210.611 46.7312 209.929 46.0115 209.166 45.3848L205.952 42.5659C205.085 41.8396 204.359 40.9606 203.81 39.9724C203.213 38.8863 202.921 37.6591 202.964 36.4206C202.9 35.5607 203.024 34.6972 203.325 33.8895C203.627 33.0817 204.1 32.3488 204.712 31.7411C206.043 30.6066 207.757 30.0219 209.504 30.1061C210.548 30.0641 211.588 30.2568 212.548 30.6699C213.306 30.9809 213.954 31.5109 214.409 32.1921C214.91 32.8459 215.274 33.5936 215.48 34.3909C215.717 35.2573 215.868 36.1448 215.931 37.0407L211.928 37.7173C211.993 37.0046 211.993 36.2875 211.928 35.5749C211.812 35.032 211.56 34.5275 211.195 34.109C210.992 33.9181 210.753 33.7698 210.491 33.673C210.23 33.5761 209.952 33.5327 209.673 33.5452C209.375 33.5275 209.078 33.5794 208.804 33.6968C208.53 33.8143 208.287 33.994 208.094 34.2218C207.703 34.6962 207.503 35.299 207.531 35.9131C207.496 36.6607 207.672 37.4029 208.038 38.0555C208.499 38.6941 209.028 39.2802 209.617 39.8033L212.774 42.5659C213.836 43.4481 214.75 44.495 215.48 45.6667C216.253 46.9803 216.644 48.484 216.608 50.0079C216.623 51.136 216.331 52.2471 215.762 53.2215C215.271 54.162 214.504 54.9294 213.563 55.4202C212.495 56.073 211.263 56.4056 210.011 56.3787Z" fill="white"/>
<path d="M218.073 55.9278V30.3882H222.696V55.9278H218.073Z" fill="white"/>
<path d="M225.516 55.9277V30.3881H231.774C232.817 30.3799 233.858 30.4935 234.875 30.7264C235.724 30.9014 236.53 31.2466 237.242 31.7412C237.897 32.2933 238.418 32.9874 238.765 33.7708C239.129 34.7824 239.301 35.8532 239.272 36.9281C239.342 37.7804 239.266 38.6385 239.047 39.4651C238.795 40.147 238.367 40.75 237.806 41.2128C237.196 41.6804 236.479 41.9902 235.72 42.1149C236.636 42.24 237.508 42.5885 238.257 43.1297C238.899 43.704 239.4 44.4176 239.723 45.2158C240.083 46.2286 240.254 47.2985 240.231 48.373C240.246 49.4653 240.074 50.5521 239.723 51.5866C239.48 52.4612 239.014 53.2577 238.37 53.8981C237.776 54.5559 237.017 55.0426 236.171 55.3076C235.157 55.6634 234.088 55.8352 233.014 55.815L225.516 55.9277ZM230.195 40.8182H231.774C232.509 40.8614 233.244 40.726 233.916 40.4235C234.162 40.285 234.379 40.0991 234.553 39.8766C234.727 39.654 234.856 39.3992 234.931 39.1268C235.181 38.4413 235.296 37.7137 235.269 36.9844C235.3 36.262 235.144 35.5438 234.818 34.8984C234.545 34.4051 234.106 34.0253 233.578 33.8272C232.773 33.7167 231.958 33.7167 231.154 33.8272H230.251L230.195 40.8182ZM230.195 52.6014H231.943C232.468 52.6691 233.002 52.6126 233.501 52.4363C234.001 52.2601 234.452 51.969 234.818 51.5866C235.39 50.638 235.646 49.5327 235.551 48.4293C235.578 47.5893 235.464 46.7508 235.213 45.9487C234.98 45.3491 234.566 44.8368 234.029 44.4828C233.322 44.1599 232.55 44.0055 231.774 44.0318H230.195V52.6014Z" fill="white"/>
<path d="M242.429 55.9278V30.3882H247.109V52.9397H253.31V56.1533L242.429 55.9278Z" fill="white"/>
<path d="M254.494 55.9278V30.3882H264.981V33.8273H259.343V41.1565H264.135V44.4265H259.343V52.8834H265.488V56.0969L254.494 55.9278Z" fill="white"/>
<path d="M118.395 97.9303C116.849 98.0069 115.316 97.6138 113.998 96.8027C112.949 96.0832 112.174 95.0301 111.799 93.8146C111.341 92.3953 111.131 90.9077 111.179 89.417V80.3401C111.132 78.794 111.341 77.2508 111.799 75.7734C112.141 74.5563 112.925 73.5109 113.998 72.8417C115.323 72.0502 116.855 71.6769 118.395 71.7705C119.84 71.7169 121.274 72.0271 122.568 72.6725C123.538 73.2745 124.274 74.1893 124.654 75.266C125.13 76.4867 125.36 77.7897 125.33 79.0997V81.2421H120.82V78.9306C120.879 78.293 120.879 77.6513 120.82 77.0137C120.784 76.4965 120.587 76.0036 120.256 75.6042C119.782 75.2179 119.173 75.0355 118.565 75.0968C117.939 75.0384 117.314 75.2198 116.817 75.6042C116.42 76.0226 116.163 76.555 116.084 77.1265C116.021 77.8204 116.021 78.5186 116.084 79.2125V90.4882C116.011 91.257 116.011 92.031 116.084 92.7998C116.201 93.3351 116.5 93.8133 116.93 94.1529C117.389 94.478 117.946 94.6371 118.508 94.6039C118.806 94.6402 119.108 94.6084 119.391 94.5107C119.674 94.413 119.931 94.2521 120.143 94.0401C120.492 93.6247 120.708 93.114 120.763 92.5743C120.763 92.0105 120.763 91.2775 120.763 90.5446V88.2331H125.274V90.2064C125.283 91.5653 125.073 92.9168 124.654 94.2092C124.276 95.3169 123.543 96.2684 122.568 96.9154C121.304 97.6501 119.855 98.0026 118.395 97.9303Z" fill="white"/>
<path d="M134.351 97.93C132.855 98.005 131.369 97.6531 130.066 96.9152C128.995 96.2431 128.181 95.2304 127.755 94.0399C127.276 92.5853 127.048 91.0604 127.078 89.5296V80.0015C127.041 78.5072 127.271 77.0182 127.755 75.604C128.163 74.4181 128.983 73.418 130.066 72.785C131.369 72.0471 132.855 71.6952 134.351 71.7702C135.883 71.6891 137.407 72.0408 138.748 72.785C139.789 73.4521 140.581 74.4426 141.004 75.604C141.538 77.0064 141.787 78.5015 141.736 80.0015V89.5859C141.778 91.0854 141.53 92.5787 141.004 93.9835C140.603 95.1865 139.808 96.2194 138.748 96.9152C137.407 97.6594 135.883 98.0111 134.351 97.93ZM134.351 94.4909C134.976 94.5384 135.596 94.3582 136.099 93.9835C136.471 93.6149 136.726 93.144 136.832 92.6304C136.892 91.974 136.892 91.3135 136.832 90.6571V78.9303C136.895 78.2929 136.895 77.6508 136.832 77.0134C136.726 76.4998 136.471 76.029 136.099 75.6604C135.589 75.3056 134.969 75.1455 134.351 75.2093C133.768 75.1412 133.181 75.303 132.716 75.6604C132.307 76.0088 132.029 76.4859 131.927 77.0134C131.863 77.6508 131.863 78.2929 131.927 78.9303V90.6571C131.866 91.3135 131.866 91.974 131.927 92.6304C132.009 93.1519 132.268 93.6294 132.659 93.9835C133.144 94.3497 133.744 94.5298 134.351 94.4909Z" fill="white"/>
<path d="M144.217 97.5919V72.0522H147.487L153.689 86.598V72.0522H157.523V97.5919H154.422L148.22 82.3132V97.5919H144.217Z" fill="white"/>
<path d="M166.881 97.9302C165.545 97.9878 164.218 97.6757 163.048 97.0281C161.993 96.4232 161.163 95.4937 160.68 94.3783C160.128 93.0364 159.841 91.6006 159.834 90.1499L163.837 89.3606C163.849 90.2353 163.962 91.1056 164.175 91.954C164.321 92.6043 164.632 93.2061 165.077 93.7018C165.291 93.9143 165.547 94.0794 165.829 94.1863C166.11 94.2931 166.411 94.3393 166.712 94.3219C167.019 94.3488 167.328 94.3014 167.612 94.1836C167.897 94.0658 168.149 93.8812 168.347 93.6454C168.654 93.1354 168.81 92.5491 168.798 91.954C168.82 90.9823 168.566 90.0243 168.065 89.1915C167.466 88.4077 166.786 87.6896 166.036 87.0491L162.822 84.2301C161.955 83.5039 161.229 82.6249 160.68 81.6367C160.083 80.5505 159.791 79.3233 159.834 78.0848C159.785 77.2215 159.921 76.3576 160.232 75.5507C160.543 74.7439 161.022 74.0125 161.638 73.4054C162.731 72.5684 164.023 72.0296 165.387 71.8419C166.751 71.6541 168.14 71.8237 169.418 72.3342C170.168 72.6832 170.825 73.2049 171.335 73.8564C171.804 74.5297 172.165 75.2714 172.406 76.0552C172.625 76.9234 172.757 77.8109 172.801 78.705L168.855 79.3815C168.824 78.6605 168.729 77.9436 168.573 77.2391C168.493 76.6841 168.236 76.1698 167.84 75.7733C167.632 75.5924 167.391 75.4545 167.129 75.3674C166.868 75.2803 166.592 75.2458 166.317 75.2659C166.02 75.2524 165.724 75.3062 165.451 75.4234C165.177 75.5406 164.934 75.718 164.739 75.9424C164.369 76.4284 164.171 77.0232 164.175 77.6338C164.165 78.368 164.361 79.0905 164.739 79.7198C165.161 80.3717 165.673 80.9602 166.261 81.4676L169.475 84.2301C170.519 85.1365 171.413 86.2021 172.125 87.3873C172.923 88.6694 173.316 90.1629 173.252 91.6721C173.294 92.796 173.02 93.909 172.463 94.8857C171.944 95.8388 171.161 96.6219 170.208 97.1409C169.183 97.6797 168.039 97.9512 166.881 97.9302Z" fill="white"/>
<path d="M182.047 97.9302C180.515 98.0112 178.992 97.6595 177.65 96.9153C176.601 96.1959 175.826 95.1428 175.451 93.9272C175.038 92.4221 174.848 90.8645 174.887 89.3042V72.0522H179.398V89.868C179.34 90.6186 179.34 91.3725 179.398 92.1231C179.478 92.7447 179.732 93.331 180.131 93.8145C180.354 94.0491 180.627 94.2313 180.929 94.3483C181.231 94.4653 181.555 94.514 181.878 94.491C182.211 94.5226 182.546 94.4781 182.858 94.3609C183.171 94.2437 183.453 94.0568 183.682 93.8145C184.059 93.3176 184.31 92.7375 184.415 92.1231C184.473 91.3725 184.473 90.6186 184.415 89.868V72.0522H188.926V89.3042C188.948 90.8674 188.739 92.4253 188.306 93.9272C187.945 95.1347 187.191 96.1867 186.163 96.9153C184.902 97.6047 183.484 97.9544 182.047 97.9302Z" fill="white"/>
<path d="M191.688 97.5919L192.139 72.0522H197.326L200.934 89.7552L204.712 72.0522H209.391L209.842 97.5919H206.403L206.008 79.8325L202.4 97.5919H199.581L195.916 79.7761L195.522 97.5919H191.688Z" fill="white"/>
<path d="M212.323 97.5919V72.0523H219.878C221.171 71.998 222.456 72.2899 223.599 72.898C224.565 73.4684 225.317 74.3398 225.741 75.3787C226.222 76.6374 226.452 77.9781 226.417 79.3252C226.475 80.7092 226.184 82.0854 225.572 83.3281C225.043 84.3198 224.186 85.0971 223.148 85.5269C222.019 86.0502 220.783 86.3012 219.539 86.2598H217.059V97.5355L212.323 97.5919ZM217.002 82.9898H218.75C219.429 83.0085 220.104 82.8736 220.723 82.5951C220.957 82.4766 221.164 82.3098 221.329 82.1058C221.494 81.9017 221.614 81.665 221.682 81.4112C221.791 80.7012 221.791 79.9788 221.682 79.2688C221.78 78.5203 221.78 77.7622 221.682 77.0136C221.646 76.7558 221.551 76.5097 221.404 76.2945C221.257 76.0794 221.063 75.901 220.836 75.7733C220.175 75.4349 219.435 75.2792 218.694 75.3223H216.946L217.002 82.9898Z" fill="white"/>
<path d="M230.533 97.5919V75.4914H226.474V72.0522H239.216V75.4914H235.213V97.5919H230.533Z" fill="white"/>
<path d="M240.681 97.5919V72.0522H245.304V97.5919H240.681Z" fill="white"/>
<path d="M255.227 97.9299C253.732 98.0049 252.246 97.6529 250.942 96.915C249.871 96.243 249.057 95.2303 248.631 94.0397C248.132 92.589 247.884 91.0636 247.898 89.5294V80.0014C247.878 78.5036 248.127 77.0143 248.631 75.6038C249.039 74.4179 249.86 73.4178 250.942 72.7849C252.283 72.1193 253.759 71.7729 255.255 71.7729C256.752 71.7729 258.228 72.1193 259.568 72.7849C260.651 73.4178 261.471 74.4179 261.88 75.6038C262.415 77.0063 262.664 78.5014 262.613 80.0014V89.5858C262.655 91.0852 262.406 92.5786 261.88 93.9833C261.465 95.1947 260.65 96.2287 259.568 96.915C258.25 97.6665 256.742 98.019 255.227 97.9299ZM255.227 94.4907C255.852 94.5383 256.473 94.358 256.975 93.9833C257.329 93.6011 257.581 93.1357 257.708 92.6302C257.769 91.9739 257.769 91.3133 257.708 90.657V78.9302C257.771 78.2928 257.771 77.6507 257.708 77.0133C257.581 76.5078 257.329 76.0425 256.975 75.6602C256.465 75.3054 255.845 75.1454 255.227 75.2092C254.628 75.1541 254.028 75.314 253.536 75.6602C253.163 76.0288 252.908 76.4997 252.803 77.0133C252.74 77.6507 252.74 78.2928 252.803 78.9302V90.657C252.742 91.3133 252.742 91.9739 252.803 92.6302C252.886 93.1517 253.144 93.6293 253.536 93.9833C254.021 94.3496 254.621 94.5296 255.227 94.4907Z" fill="white"/>
<path d="M264.98 97.5919V72.0522H268.194L274.452 86.598V72.0522H278.286V97.5919H275.185L269.04 82.3132V97.5919H264.98Z" fill="white"/>
<path d="M110.052 139.256L115.182 113.716H120.144L125.274 139.256H120.933L119.918 133.618H115.521L114.449 139.256H110.052ZM115.972 130.404H119.411L117.719 119.692L115.972 130.404Z" fill="white"/>
<path d="M126.74 139.256V113.716H130.01L136.211 128.318V113.716H140.045V139.256H136.944L130.686 124.034V139.256H126.74Z" fill="white"/>
<path d="M142.977 139.256V113.716H149.009C150.672 113.655 152.328 113.963 153.858 114.618C154.986 115.133 155.874 116.062 156.338 117.212C156.88 118.632 157.13 120.147 157.071 121.665V131.024C157.123 132.598 156.874 134.167 156.338 135.647C155.878 136.827 154.993 137.793 153.858 138.354C152.395 139.032 150.788 139.342 149.178 139.256H142.977ZM147.6 136.042H149.065C149.867 136.11 150.667 135.89 151.321 135.422C151.58 135.235 151.793 134.99 151.939 134.706C152.086 134.422 152.164 134.107 152.166 133.787C152.234 132.905 152.234 132.019 152.166 131.137V121.384C152.272 120.56 152.272 119.726 152.166 118.903C152.128 118.616 152.028 118.341 151.872 118.098C151.716 117.854 151.509 117.648 151.264 117.493C150.584 117.15 149.825 116.995 149.065 117.042H147.656L147.6 136.042Z" fill="white"/>
<path d="M166.261 139.256V113.716H173.76C175.058 113.679 176.343 113.991 177.481 114.618C178.443 115.168 179.196 116.02 179.623 117.043C180.1 118.303 180.33 119.642 180.3 120.989C180.357 122.373 180.066 123.749 179.454 124.992C178.905 125.961 178.081 126.746 177.086 127.247C175.943 127.719 174.714 127.95 173.478 127.924H170.941V139.2L166.261 139.256ZM170.941 124.654H172.688C173.429 124.653 174.154 124.438 174.774 124.034C175.007 123.927 175.213 123.771 175.379 123.576C175.544 123.382 175.665 123.153 175.733 122.906C175.959 122.196 176.055 121.451 176.015 120.707C176.082 119.957 176.082 119.202 176.015 118.452C175.882 117.939 175.56 117.496 175.113 117.212C174.445 116.895 173.707 116.759 172.97 116.817H171.223L170.941 124.654Z" fill="white"/>
<path d="M181.822 139.256V113.716H187.911C189.382 113.686 190.848 113.896 192.252 114.336C193.397 114.701 194.376 115.46 195.014 116.479C195.66 117.711 195.971 119.091 195.916 120.482C196.012 121.4 196.012 122.326 195.916 123.244C195.773 124.008 195.444 124.724 194.958 125.33C194.491 125.961 193.842 126.433 193.098 126.683L196.649 139.256H191.688L188.587 127.585H186.445V139.256H181.822ZM186.445 124.654H187.911C188.644 124.663 189.371 124.529 190.053 124.259C190.327 124.133 190.573 123.953 190.776 123.731C190.98 123.508 191.136 123.247 191.237 122.962C191.485 122.257 191.6 121.511 191.575 120.764C191.662 119.75 191.404 118.737 190.842 117.888C190.505 117.534 190.09 117.263 189.63 117.097C189.171 116.931 188.678 116.873 188.193 116.93H186.445V124.654Z" fill="white"/>
<path d="M205.332 139.594C203.836 139.676 202.348 139.323 201.047 138.579C199.976 137.907 199.162 136.895 198.736 135.704C198.236 134.273 197.988 132.766 198.003 131.25V121.666C197.988 120.168 198.236 118.68 198.736 117.268C199.144 116.082 199.964 115.082 201.047 114.449C202.348 113.705 203.836 113.353 205.332 113.434C206.847 113.345 208.355 113.698 209.673 114.449C210.756 115.082 211.576 116.082 211.985 117.268C212.511 118.673 212.759 120.166 212.717 121.666V131.25C212.754 132.768 212.506 134.278 211.985 135.704C211.558 136.895 210.744 137.907 209.673 138.579C208.355 139.331 206.847 139.683 205.332 139.594ZM205.332 136.155C205.957 136.203 206.577 136.022 207.08 135.648C207.434 135.265 207.686 134.8 207.813 134.295C207.871 133.657 207.871 133.015 207.813 132.378V120.595C207.873 119.957 207.873 119.315 207.813 118.678C207.686 118.172 207.434 117.707 207.08 117.325C206.559 116.994 205.947 116.836 205.332 116.874C204.735 116.844 204.144 117.002 203.64 117.325C203.268 117.693 203.013 118.164 202.908 118.678C202.847 119.315 202.847 119.957 202.908 120.595V132.378C202.849 133.015 202.849 133.657 202.908 134.295C202.99 134.816 203.249 135.294 203.64 135.648C204.125 136.014 204.725 136.194 205.332 136.155Z" fill="white"/>
<path d="M215.198 139.256V113.716H221.231C222.894 113.655 224.55 113.963 226.079 114.618C227.208 115.133 228.095 116.062 228.56 117.212C229.102 118.632 229.351 120.147 229.293 121.665V131.024C229.344 132.598 229.096 134.167 228.56 135.647C228.105 136.812 227.244 137.773 226.136 138.354C224.651 139.026 223.028 139.335 221.4 139.256H215.198ZM219.878 136.042H221.287C222.105 136.1 222.919 135.881 223.599 135.422C224.085 135.009 224.388 134.422 224.444 133.787C224.444 133.054 224.444 132.208 224.444 131.137V121.384C224.517 120.558 224.517 119.728 224.444 118.903C224.386 118.616 224.272 118.344 224.107 118.101C223.943 117.859 223.731 117.653 223.486 117.493C222.806 117.15 222.047 116.995 221.287 117.042H219.878V136.042Z" fill="white"/>
<path d="M238.764 139.594C237.232 139.675 235.708 139.324 234.367 138.579C233.339 137.851 232.585 136.799 232.224 135.591C231.79 134.109 231.581 132.569 231.604 131.025V113.716H236.115V131.532C236.054 132.283 236.054 133.037 236.115 133.787C236.188 134.349 236.423 134.878 236.791 135.309C237.017 135.541 237.29 135.721 237.591 135.838C237.893 135.955 238.216 136.005 238.539 135.986C238.871 136.018 239.206 135.973 239.519 135.856C239.832 135.739 240.113 135.552 240.343 135.309C240.739 134.824 240.993 134.239 241.076 133.618C241.136 132.868 241.136 132.113 241.076 131.363V113.716H245.586V131.025C245.61 132.569 245.401 134.109 244.966 135.591C244.606 136.799 243.852 137.851 242.824 138.579C241.58 139.259 240.182 139.609 238.764 139.594Z" fill="white"/>
<path d="M255.565 139.594C254.024 139.695 252.49 139.321 251.168 138.523C250.087 137.799 249.291 136.723 248.913 135.479C248.481 134.053 248.272 132.57 248.292 131.081V122.004C248.273 120.459 248.482 118.921 248.913 117.437C249.313 116.234 250.108 115.201 251.168 114.506C252.5 113.733 254.027 113.361 255.565 113.434C256.992 113.381 258.408 113.691 259.681 114.336C260.666 114.936 261.421 115.849 261.823 116.93C262.248 118.182 262.458 119.498 262.443 120.82V122.962H257.99V120.764C258.023 120.106 258.023 119.448 257.99 118.79C257.934 118.268 257.717 117.775 257.369 117.381C256.863 117.034 256.264 116.849 255.65 116.849C255.036 116.849 254.437 117.034 253.93 117.381C253.54 117.775 253.301 118.294 253.254 118.847C253.191 119.541 253.191 120.239 253.254 120.933V132.209C253.152 132.957 253.152 133.715 253.254 134.464C253.289 134.73 253.377 134.987 253.513 135.219C253.648 135.452 253.828 135.655 254.043 135.817C254.496 136.155 255.058 136.316 255.622 136.268C256.23 136.329 256.839 136.147 257.313 135.76C257.624 135.328 257.818 134.823 257.877 134.295C257.94 133.601 257.94 132.902 257.877 132.209V129.671H262.331V131.758C262.345 133.117 262.135 134.469 261.711 135.76C261.356 136.895 260.619 137.872 259.625 138.523C258.396 139.248 256.991 139.619 255.565 139.594Z" fill="white"/>
<path d="M267.292 139.256V117.155H263.233V113.716H276.256V117.155H272.254V139.256H267.292Z" fill="white"/>
<path d="M277.497 139.256V113.716H281.894V139.256H277.497Z" fill="white"/>
<path d="M291.986 139.594C290.491 139.669 289.004 139.317 287.701 138.579C286.63 137.907 285.816 136.894 285.39 135.704C284.89 134.273 284.642 132.766 284.657 131.25V121.665C284.642 120.168 284.89 118.68 285.39 117.268C285.798 116.082 286.618 115.082 287.701 114.449C289.042 113.783 290.518 113.437 292.014 113.437C293.511 113.437 294.987 113.783 296.327 114.449C297.41 115.082 298.23 116.082 298.639 117.268C299.165 118.673 299.414 120.166 299.372 121.665V131.25C299.408 132.767 299.16 134.278 298.639 135.704C298.213 136.894 297.398 137.907 296.327 138.579C295.009 139.331 293.501 139.683 291.986 139.594ZM291.986 136.155C292.611 136.202 293.232 136.022 293.734 135.647C294.088 135.265 294.34 134.8 294.467 134.294C294.525 133.657 294.525 133.015 294.467 132.377V120.594C294.528 119.957 294.528 119.315 294.467 118.677C294.34 118.172 294.088 117.707 293.734 117.324C293.213 116.994 292.602 116.836 291.986 116.873C291.389 116.844 290.798 117.002 290.295 117.324C289.922 117.693 289.667 118.164 289.562 118.677C289.501 119.315 289.501 119.957 289.562 120.594V132.377C289.504 133.015 289.504 133.657 289.562 134.294C289.644 134.816 289.903 135.293 290.295 135.647C290.78 136.014 291.38 136.194 291.986 136.155Z" fill="white"/>
<path d="M301.853 139.256V113.716H305.066L311.324 128.318V113.716H315.158V139.256H312.057L305.799 124.034V139.256H301.853Z" fill="white"/>
<path d="M264.191 181.596C258.003 176.985 250.953 173.661 243.458 171.821C235.962 169.981 228.174 169.662 220.554 170.884H219.708C211.026 172.914 197.157 176.522 180.976 196.424V196.762C180.801 196.989 180.702 197.265 180.694 197.552C180.643 197.774 180.643 198.005 180.694 198.228L181.089 198.848C183.118 202.231 185.712 206.629 187.854 210.631C187.968 210.864 188.145 211.061 188.363 211.201C188.582 211.34 188.835 211.416 189.095 211.421C189.449 211.401 189.787 211.262 190.053 211.026V210.575C204.43 190.73 215.705 188.024 223.317 186.219H224.275C234.849 184.87 245.539 187.613 254.156 193.887C262.669 200.596 266.954 211.308 266.954 225.628C266.954 249.646 255.283 259.061 245.474 262.726C235.633 265.959 224.923 265.251 215.593 260.752L214.916 260.414C206.572 256.806 194.112 249.138 182.386 225.685C158.706 178.157 138.917 173.647 126.007 170.715H125.33C117.821 169.501 110.143 169.82 102.76 171.651C95.3773 173.482 88.4411 176.788 82.3695 181.371C73.8562 188.193 63.7081 201.385 63.7081 225.685C62.9954 238.251 66.8611 250.649 74.5892 260.583C80.8195 268.328 89.1066 274.161 98.5001 277.412C107.894 280.662 118.013 281.2 127.698 278.963C135.295 277.349 142.427 274.033 148.558 269.265L155.888 276.256C156.117 276.47 156.419 276.589 156.733 276.589C157.047 276.589 157.349 276.47 157.579 276.256C157.779 276.022 157.881 275.719 157.861 275.411L163.499 242.26V241.922C163.485 241.582 163.344 241.26 163.104 241.02C162.998 240.922 162.874 240.847 162.738 240.798C162.602 240.75 162.458 240.729 162.315 240.738H161.695L129.671 249.42H129.108C128.875 249.476 128.66 249.593 128.487 249.758C128.257 249.991 128.127 250.305 128.127 250.632C128.127 250.96 128.257 251.274 128.487 251.506L128.826 251.844L135.929 258.272C132.409 260.637 128.466 262.302 124.315 263.177C117.627 264.815 110.614 264.56 104.062 262.439C97.5098 260.318 91.6776 256.416 87.218 251.168C81.6226 244.013 78.9075 235.023 79.6069 225.967C79.6069 211.59 83.8353 200.934 92.1794 194.225C100.634 188.023 111.154 185.317 121.553 186.67H122.229C132.998 189.095 147.713 192.308 167.953 233.127C178.495 254.269 191.688 268.082 208.263 275.354C216.156 279.097 224.786 281.023 233.521 280.992C239.522 281.007 245.477 279.957 251.111 277.891C260.696 274.283 283.078 261.993 283.078 225.685C283.078 201.385 272.761 188.136 264.135 181.314" fill="white"/>
</g>
<defs>
<clipPath id="clip0_50_1662">
<rect width="350" height="350" fill="white"/>
</clipPath>
</defs>
</svg>
