<svg width="350" height="350" viewBox="0 0 350 350" fill="none" xmlns="http://www.w3.org/2000/svg">
<g clip-path="url(#clip0_50_1867)">
<path d="M350 0H0V350H350V0Z" fill="#1A3668"/>
<path d="M30.4765 43.602C28.7671 44.3861 27.0184 45.0818 25.2375 45.6863C22.9278 46.475 21.4632 46.982 20.8435 47.2636V37.7996C23.1826 36.8348 25.4592 35.7247 27.6599 34.4759C29.7458 33.4394 31.6486 32.0694 33.2932 30.4199H43.2642V97.1751H30.4765V43.602Z" fill="white"/>
<path d="M68.9522 40.1656H50.7002V30.4199H81.2329V38.7573L67.6002 97.1751H54.9815L68.9522 40.1656Z" fill="white"/>
<path d="M111.878 30.4199H119.371C123.708 30.4199 125.905 32.7859 125.905 37.6306C126.047 38.5681 125.967 39.5256 125.672 40.4267C125.377 41.3278 124.876 42.1476 124.209 42.8206C123.541 43.4937 122.725 44.0015 121.827 44.3034C120.928 44.6053 119.971 44.6931 119.033 44.5596H116.498V55.8263H111.878V30.4199ZM118.3 41.2923C118.754 41.3421 119.214 41.2977 119.65 41.1621C120.086 41.0264 120.49 40.8022 120.835 40.5036C121.365 39.644 121.602 38.6361 121.511 37.6306C121.618 36.8455 121.618 36.0497 121.511 35.2646C121.367 34.7728 121.046 34.3517 120.61 34.0816C119.885 33.7609 119.081 33.6629 118.3 33.7999H116.498V41.2923H118.3Z" fill="white"/>
<path d="M130.299 30.4199H135.2L140.27 55.8827H135.989L134.975 50.2493H130.525L129.511 55.8827H125.117L130.299 30.4199ZM134.581 47.0383L132.834 36.3349L131.088 47.0383H134.581Z" fill="white"/>
<path d="M142.242 30.4205H148.382C150.504 30.2601 152.619 30.7939 154.41 31.9415C155.141 32.5904 155.706 33.4043 156.058 34.3155C156.411 35.2267 156.541 36.2089 156.438 37.1805C156.467 38.5313 156.218 39.8735 155.706 41.1239C155.468 41.6327 155.132 42.089 154.716 42.4662C154.3 42.8435 153.813 43.134 153.283 43.3209L156.833 55.8832H152.1L149.058 44.2222H146.861V55.8832H142.186L142.242 30.4205ZM148.382 41.3492C148.893 41.3921 149.406 41.3292 149.891 41.1644C150.375 40.9996 150.821 40.7365 151.199 40.3915C151.869 39.5477 152.192 38.4796 152.1 37.4059C152.167 36.377 151.911 35.3531 151.368 34.4765C150.987 34.1668 150.541 33.9455 150.064 33.8286C149.587 33.7117 149.089 33.7021 148.608 33.8005H146.918V41.3492H148.382Z" fill="white"/>
<path d="M161.734 33.7999H157.734V30.4199H170.803V33.7999H166.578V55.8827H161.959L161.734 33.7999Z" fill="white"/>
<path d="M171.93 30.4199H175.141L181.338 45.0666V30.4199H185.225V55.8827H182.126L175.873 40.6726V55.8827H171.93V30.4199Z" fill="white"/>
<path d="M188.379 30.4199H199.083V33.7999H192.998V41.1233H197.787V44.3906H192.998V52.8407H199.139V55.9953H188.379V30.4199Z" fill="white"/>
<path d="M201.167 30.4205H207.307C209.428 30.2601 211.544 30.7939 213.335 31.9415C214.055 32.596 214.61 33.4124 214.953 34.3233C215.295 35.2342 215.417 36.2135 215.307 37.1805C215.352 38.5273 215.122 39.869 214.631 41.1239C214.128 42.1552 213.236 42.9452 212.152 43.3209L215.757 55.8832H211.082L208.04 44.2222H205.786V55.8832H201.167V30.4205ZM207.307 41.3492C207.817 41.3921 208.331 41.3292 208.816 41.1644C209.3 40.9996 209.746 40.7365 210.124 40.3915C210.774 39.5395 211.076 38.4722 210.969 37.4059C211.048 36.368 210.77 35.3344 210.18 34.4765C209.82 34.1689 209.394 33.9481 208.935 33.8309C208.476 33.7137 207.996 33.7033 207.533 33.8005H205.786V41.3492H207.307Z" fill="white"/>
<path d="M219.701 54.3052C218.443 52.6983 217.768 50.7123 217.785 48.6718L221.785 47.8831C221.804 49.1437 222.072 50.3881 222.574 51.5448C222.768 51.9436 223.074 52.2779 223.453 52.5077C223.833 52.7374 224.271 52.853 224.714 52.8405C225.013 52.8678 225.313 52.8202 225.589 52.7022C225.864 52.5842 226.106 52.3994 226.292 52.1645C226.657 51.6584 226.836 51.0413 226.799 50.4181C226.833 49.5244 226.598 48.641 226.123 47.8831C225.53 47.0272 224.829 46.251 224.038 45.5735L220.827 42.7568C219.931 41.9867 219.17 41.0729 218.574 40.0528C218.043 38.9675 217.792 37.7671 217.842 36.5601C217.786 35.7101 217.914 34.8582 218.215 34.0614C218.516 33.2647 218.984 32.5416 219.588 31.9408C220.935 30.7539 222.696 30.1466 224.489 30.2508C225.364 30.1839 226.242 30.3223 227.054 30.6548C227.865 30.9873 228.588 31.5048 229.165 32.1661C230.214 33.6497 230.784 35.419 230.798 37.2361L226.799 37.9121C226.792 36.8408 226.621 35.7769 226.292 34.7574C226.101 34.3877 225.793 34.0924 225.415 33.9188C225.037 33.7452 224.612 33.7033 224.207 33.7998C223.893 33.7813 223.579 33.8324 223.287 33.9492C222.995 34.066 222.732 34.2458 222.517 34.4758C222.098 34.9588 221.876 35.5826 221.898 36.2221C221.869 36.9327 222.045 37.6365 222.405 38.2501C222.828 38.9335 223.361 39.5425 223.982 40.0528L227.193 42.8695C228.272 43.8348 229.203 44.9549 229.953 46.1931C230.642 47.4323 230.992 48.8315 230.967 50.2491C230.981 51.387 230.71 52.5103 230.179 53.5165C229.651 54.448 228.87 55.2101 227.925 55.7135C226.571 56.3283 225.063 56.5228 223.597 56.2717C222.131 56.0207 220.773 55.3356 219.701 54.3052Z" fill="white"/>
<path d="M233.108 30.4199H237.727V41.067H242.91V30.4199H247.867V55.8827H243.192V44.616H237.727V55.8827H233.108V30.4199Z" fill="white"/>
<path d="M250.909 30.4199H255.529V55.8827H250.909V30.4199Z" fill="white"/>
<path d="M258.74 30.4199H266.288C270.626 30.4199 272.767 32.7859 272.767 37.6306C272.906 38.5627 272.826 39.5144 272.535 40.4107C272.243 41.3069 271.747 42.1231 271.087 42.7949C270.426 43.4668 269.618 43.9759 268.726 44.2822C267.835 44.5884 266.885 44.6834 265.95 44.5596H263.415V55.8263H258.74V30.4199ZM265.218 41.2923C265.672 41.3421 266.132 41.2977 266.568 41.1621C267.004 41.0264 267.407 40.8022 267.753 40.5036C268.283 39.644 268.52 38.6361 268.429 37.6306C268.507 36.8439 268.507 36.0513 268.429 35.2646C268.284 34.7728 267.963 34.3517 267.528 34.0816C266.8 33.7704 265.999 33.6727 265.218 33.7999H263.415V41.2923H265.218Z" fill="white"/>
<path d="M276.034 54.3056C274.82 52.6793 274.167 50.702 274.175 48.6722L278.175 47.8836C278.152 49.1426 278.402 50.3918 278.907 51.5452C279.102 51.944 279.407 52.2783 279.787 52.5081C280.166 52.7378 280.604 52.8534 281.048 52.8409C281.346 52.8682 281.647 52.8207 281.922 52.7026C282.198 52.5846 282.439 52.3998 282.625 52.1649C283.035 51.6792 283.237 51.052 283.189 50.4186C283.223 49.5248 282.987 48.6414 282.513 47.8836C281.897 47.028 281.178 46.2522 280.372 45.5739L277.161 42.7572C276.265 41.9871 275.503 41.0733 274.907 40.0532C274.403 38.959 274.153 37.765 274.175 36.5605C274.109 35.6743 274.242 34.7846 274.563 33.9562C274.885 33.1279 275.388 32.3817 276.034 31.7722C276.688 31.1809 277.453 30.7267 278.285 30.4364C279.117 30.1461 279.999 30.0257 280.879 30.0822C281.763 30.0063 282.652 30.1402 283.474 30.4731C284.297 30.8059 285.029 31.3282 285.611 31.9975C286.613 33.5043 287.178 35.2591 287.245 37.0675L283.245 37.7435C283.196 36.6719 283.006 35.6113 282.682 34.5888C282.473 34.2718 282.172 34.0263 281.819 33.8853C281.467 33.7443 281.08 33.7146 280.71 33.8002C280.397 33.7925 280.086 33.8485 279.795 33.9647C279.505 34.0809 279.241 34.2549 279.02 34.4762C278.6 34.9592 278.379 35.5831 278.4 36.2225C278.372 36.9331 278.548 37.6369 278.907 38.2505C279.348 38.9206 279.879 39.5271 280.485 40.0532L283.696 42.8699C284.791 43.8346 285.74 44.9544 286.512 46.1935C287.158 47.4469 287.487 48.8396 287.47 50.2496C287.51 51.3902 287.237 52.5202 286.681 53.5169C286.17 54.4607 285.384 55.2269 284.428 55.7139C283.053 56.3664 281.511 56.5812 280.01 56.3294C278.509 56.0775 277.121 55.3711 276.034 54.3056Z" fill="white"/>
<path d="M111.878 72.0508H122.356V75.2618H116.723V82.6978H121.511V85.9652H116.723V97.5699H112.104L111.878 72.0508Z" fill="white"/>
<path d="M125.229 95.767C123.978 93.9325 123.382 91.7291 123.539 89.514V79.9936C123.39 77.8144 123.986 75.6492 125.229 73.8532C126.805 72.5228 128.801 71.793 130.863 71.793C132.925 71.793 134.92 72.5228 136.496 73.8532C137.739 75.6492 138.335 77.8144 138.186 79.9936V89.5703C138.339 91.7675 137.743 93.9517 136.496 95.767C135.787 96.5352 134.909 97.1283 133.931 97.4998C132.954 97.8712 131.903 98.0108 130.863 97.9076C129.823 97.998 128.777 97.8525 127.801 97.4818C126.826 97.1111 125.947 96.5249 125.229 95.767ZM132.947 93.4573C133.375 92.5829 133.569 91.6124 133.51 90.6406V78.8669C133.577 77.9188 133.403 76.9692 133.003 76.1066C132.788 75.7606 132.475 75.4855 132.105 75.3152C131.734 75.145 131.322 75.0872 130.919 75.1489C129.849 75.1489 129.116 75.4306 128.778 76.1066C128.395 76.974 128.221 77.9197 128.271 78.8669V90.697C128.216 91.6627 128.39 92.6278 128.778 93.5136C129.001 93.8695 129.321 94.1541 129.7 94.3338C130.08 94.5135 130.503 94.5808 130.919 94.5276C131.32 94.5798 131.727 94.5112 132.088 94.3305C132.449 94.1499 132.748 93.8654 132.947 93.5136V93.4573Z" fill="white"/>
<path d="M140.834 72.051H146.974C149.103 71.8858 151.226 72.4413 153.002 73.6283C153.711 74.291 154.258 75.1085 154.6 76.0172C154.942 76.9259 155.07 77.9013 154.973 78.8673C155.018 80.2141 154.788 81.5558 154.297 82.8107C153.794 83.8421 152.903 84.6321 151.819 85.0077L155.368 97.5701H150.748L147.65 85.909H145.34V97.5701H140.834V72.051ZM146.974 82.9797C147.48 83.0336 147.992 82.9812 148.477 82.826C148.962 82.6708 149.41 82.4162 149.791 82.0784C150.388 81.2031 150.667 80.1489 150.579 79.0927C150.675 78.0614 150.417 77.0284 149.847 76.1633C149.502 75.8231 149.085 75.5653 148.627 75.4093C148.168 75.2532 147.68 75.2028 147.199 75.262H145.34V82.9797H146.974Z" fill="white"/>
<path d="M166.634 75.4871H162.409V72.0508H175.479V75.4871H171.254V97.5699H166.634V75.4871Z" fill="white"/>
<path d="M176.662 72.0508H181.281V82.6978H186.464V72.0508H191.14V97.5699H186.464V86.3032H181.281V97.5699H176.662V72.0508Z" fill="white"/>
<path d="M194.069 72.0508H204.772V75.3745H198.745V82.6978H203.533V85.9088H198.745V94.4152H204.885V97.5699H194.069V72.0508Z" fill="white"/>
<path d="M214.518 95.7668C213.339 93.7998 212.789 91.5201 212.94 89.2321V80.6131C212.759 78.2973 213.332 75.9851 214.574 74.0221C216.075 72.5776 218.06 71.743 220.142 71.6805C222.225 71.6181 224.256 72.3322 225.841 73.6841C227.079 75.2873 227.663 77.3005 227.475 79.3174V80.6694H223.024V78.8667C223.094 78.136 223.094 77.4004 223.024 76.6697C222.991 76.4248 222.909 76.1891 222.783 75.9763C222.657 75.7635 222.49 75.5779 222.292 75.4304C221.827 75.0733 221.241 74.9116 220.658 74.9797C220.344 74.9493 220.027 74.9836 219.727 75.0805C219.426 75.1774 219.149 75.3348 218.912 75.5431C218.536 75.9535 218.282 76.4608 218.18 77.0077C218.11 77.7572 218.11 78.5116 218.18 79.2611V90.1334C218.135 91.25 218.327 92.3634 218.743 93.4008C218.977 93.7622 219.305 94.0529 219.692 94.2416C220.08 94.4302 220.511 94.5095 220.94 94.4711C221.382 94.5123 221.826 94.4219 222.217 94.2115C222.608 94.001 222.928 93.6798 223.137 93.2881C223.607 92.2259 223.819 91.0678 223.757 89.9081V87.5421H220.996V84.5001H227.925V97.4005H224.94L224.602 94.9218C224.289 95.7957 223.705 96.5463 222.934 97.0634C222.163 97.5806 221.247 97.8369 220.32 97.7948C219.26 98.0023 218.164 97.9238 217.144 97.5674C216.124 97.211 215.218 96.5895 214.518 95.7668Z" fill="white"/>
<path d="M231.305 95.7669C230.054 93.9324 229.458 91.7291 229.615 89.5139V79.9935C229.466 77.8143 230.062 75.6491 231.305 73.8532C232.028 73.1053 232.909 72.5297 233.884 72.1688C234.86 71.808 235.903 71.6713 236.939 71.7688C237.973 71.6871 239.012 71.8313 239.985 72.1912C240.957 72.5511 241.84 73.1182 242.572 73.8532C243.815 75.6491 244.411 77.8143 244.262 79.9935V89.5702C244.415 91.7674 243.819 93.9516 242.572 95.7669C241.017 97.1411 239.014 97.8996 236.939 97.8996C234.864 97.8996 232.86 97.1411 231.305 95.7669ZM239.023 93.4572C239.451 92.5828 239.645 91.6123 239.586 90.6405V78.8668C239.653 77.9187 239.478 76.9691 239.079 76.1065C238.849 75.761 238.526 75.4876 238.147 75.3182C237.769 75.1487 237.349 75.09 236.939 75.1488C236.536 75.0871 236.123 75.1449 235.753 75.3152C235.382 75.4854 235.07 75.7605 234.854 76.1065C234.449 76.9685 234.256 77.915 234.291 78.8668V90.6969C234.249 91.6674 234.442 92.6338 234.854 93.5136C235.068 93.8648 235.378 94.1473 235.747 94.3271C236.117 94.5069 236.531 94.5765 236.939 94.5276C237.347 94.5838 237.764 94.5175 238.135 94.337C238.506 94.1565 238.815 93.8699 239.023 93.5136V93.4572Z" fill="white"/>
<path d="M250.628 72.0508H255.585L260.711 97.5699H256.374L255.36 91.9365H250.909L249.895 97.5699H245.501L250.628 72.0508ZM254.853 88.9508L253.106 78.2475L251.416 88.9508H254.853Z" fill="white"/>
<path d="M262.289 72.0508H266.908V94.5842H273.105V97.7389H262.289V72.0508Z" fill="white"/>
<path d="M276.034 95.7666C274.78 94.161 274.123 92.1697 274.175 90.1333L278.175 89.3446C278.146 90.6224 278.396 91.8913 278.907 93.0626C279.102 93.4614 279.407 93.7957 279.787 94.0254C280.167 94.2552 280.604 94.3708 281.048 94.3583C281.346 94.3855 281.647 94.338 281.922 94.22C282.198 94.102 282.439 93.9171 282.625 93.6823C282.991 93.1761 283.17 92.5591 283.132 91.9359C283.167 91.0422 282.931 90.1588 282.456 89.4009C281.863 88.545 281.163 87.7688 280.372 87.0912L277.161 84.2746C276.249 83.4981 275.486 82.5629 274.908 81.5142C274.377 80.4491 274.125 79.2668 274.175 78.0779C274.124 77.1847 274.263 76.2908 274.584 75.4556C274.904 74.6203 275.399 73.8628 276.034 73.2332C277.402 72.0874 279.154 71.5035 280.935 71.5995C281.812 71.5039 282.7 71.6291 283.516 71.9636C284.333 72.2981 285.053 72.8313 285.611 73.5149C286.653 74.9811 287.222 76.7301 287.245 78.5285L283.245 79.2609C283.244 78.1891 283.073 77.1244 282.738 76.1062C282.58 75.7672 282.323 75.4836 282.002 75.2927C281.68 75.1017 281.308 75.0122 280.935 75.0359C280.621 75.0174 280.307 75.0685 280.015 75.1853C279.723 75.3021 279.46 75.4819 279.245 75.7119C278.826 76.1949 278.604 76.8188 278.626 77.4582C278.606 78.1678 278.782 78.8692 279.133 79.4862C279.556 80.1696 280.089 80.7786 280.71 81.2889L283.921 84.1056C285 85.0709 285.93 86.191 286.681 87.4292C287.37 88.6685 287.72 90.0676 287.695 91.4853C287.735 92.6259 287.463 93.7559 286.907 94.7526C286.395 95.6964 285.61 96.4625 284.653 96.9496C283.274 97.6824 281.7 97.9624 280.153 97.7501C278.606 97.5378 277.165 96.8438 276.034 95.7666Z" fill="white"/>
<path d="M264.373 212.433C264.353 200.588 259.749 189.21 251.526 180.683C243.304 172.156 232.101 167.141 220.264 166.69C217.107 157.761 211.259 150.03 203.526 144.562C195.793 139.094 186.555 136.158 177.084 136.158C167.613 136.158 158.375 139.094 150.642 144.562C142.909 150.03 137.062 157.761 133.905 166.69C124.513 167.024 115.451 170.242 107.953 175.907C100.454 181.572 94.8828 189.41 91.9959 198.353C89.1091 207.297 89.0471 216.913 91.8183 225.893C94.5896 234.873 100.059 242.781 107.484 248.543C106.259 252.676 105.633 256.963 105.625 261.274C105.655 273.416 110.499 285.051 119.096 293.626C127.692 302.201 139.339 307.017 151.481 307.017C160.697 307.051 169.701 304.26 177.281 299.018C184.822 304.089 193.713 306.778 202.801 306.735C209.87 306.726 216.842 305.078 223.167 301.921C229.493 298.764 235.001 294.184 239.258 288.54C243.516 282.896 246.407 276.342 247.706 269.392C249.004 262.443 248.674 255.287 246.741 248.487C252.227 244.213 256.667 238.744 259.722 232.497C262.777 226.25 264.368 219.388 264.373 212.433ZM213.673 181.957C213.648 190.713 210.486 199.17 204.76 205.795C199.034 212.42 191.124 216.773 182.464 218.066C182.172 216.203 182.021 214.32 182.013 212.433C182.025 203.682 185.175 195.226 190.891 188.6C196.608 181.974 204.511 177.618 213.166 176.323C213.479 178.185 213.649 180.069 213.673 181.957ZM177.225 287.3C173.74 283.925 170.963 279.888 169.056 275.427C167.15 270.965 166.151 266.169 166.12 261.317C166.088 256.465 167.024 251.656 168.873 247.17C170.722 242.685 173.446 238.612 176.887 235.192C180.386 238.56 183.175 242.593 185.091 247.056C187.006 251.518 188.009 256.319 188.041 261.175C188.072 266.031 187.132 270.844 185.274 275.331C183.417 279.818 180.68 283.888 177.225 287.3ZM140.834 176.323C149.488 177.618 157.392 181.974 163.108 188.6C168.824 195.226 171.974 203.682 171.986 212.433C171.978 214.32 171.828 216.203 171.535 218.066C166.745 217.417 162.134 215.81 157.977 213.342C153.82 210.875 150.202 207.596 147.338 203.702C144.473 199.807 142.422 195.377 141.304 190.673C140.187 185.97 140.027 181.09 140.834 176.323ZM168.099 228.826C165.054 234.883 160.387 239.975 154.618 243.536C148.849 247.097 142.205 248.986 135.426 248.994C129.54 249.034 123.735 247.622 118.526 244.881C121.558 238.81 126.221 233.703 131.991 230.131C137.762 226.559 144.413 224.664 151.199 224.658C157.088 224.648 162.89 226.079 168.099 228.826ZM185.619 228.826C189.936 226.561 194.663 225.185 199.522 224.779C204.38 224.374 209.27 224.947 213.903 226.465C218.536 227.983 222.817 230.415 226.493 233.617C230.169 236.819 233.166 240.726 235.305 245.107C230.984 247.317 226.265 248.643 221.425 249.005C216.585 249.367 211.721 248.759 207.119 247.216C202.517 245.674 198.27 243.227 194.626 240.021C190.983 236.815 188.016 232.913 185.9 228.545M177.056 145.34C184.225 145.312 191.245 147.383 197.251 151.297C203.257 155.211 207.987 160.797 210.856 167.366C203.565 168.617 196.684 171.611 190.799 176.093C184.914 180.576 180.199 186.414 177.056 193.111C173.948 186.443 169.279 180.622 163.444 176.141C157.61 171.66 150.782 168.65 143.538 167.366C146.376 160.832 151.059 155.268 157.013 151.356C162.967 147.443 169.932 145.353 177.056 145.34ZM99.0342 212.433C99.0496 203.425 102.385 194.739 108.402 188.035C114.42 181.332 122.697 177.082 131.651 176.098C131.413 177.967 131.281 179.848 131.257 181.731C131.265 188.098 132.602 194.393 135.182 200.213C137.763 206.033 141.529 211.251 146.242 215.531C138.904 216.379 131.88 218.988 125.769 223.138C119.657 227.287 114.641 232.853 111.146 239.361C107.332 235.94 104.282 231.754 102.196 227.075C100.109 222.397 99.0314 217.331 99.0342 212.208M114.864 261.049C114.871 258.513 115.135 255.983 115.653 253.5C122.238 256.682 129.49 258.24 136.802 258.044C144.113 257.848 151.271 255.903 157.677 252.374C156.272 259.614 156.645 267.088 158.764 274.153C160.884 281.218 164.686 287.662 169.845 292.934C164.295 296.191 157.983 297.923 151.547 297.955C145.112 297.987 138.783 296.317 133.201 293.114C127.619 289.911 122.983 285.29 119.763 279.718C116.543 274.146 114.853 267.822 114.864 261.387M239.305 261.049C239.324 267.457 237.659 273.757 234.476 279.318C231.293 284.88 226.705 289.507 221.17 292.736C215.636 295.966 209.35 297.684 202.942 297.718C196.534 297.753 190.23 296.103 184.661 292.934C192.757 284.389 197.238 273.046 197.167 261.274C197.176 258.324 196.893 255.381 196.322 252.486C203.12 256.225 210.76 258.164 218.518 258.12C225.452 258.151 232.298 256.569 238.516 253.5C239.035 255.907 239.299 258.362 239.305 260.824M208.434 215.475C213.096 211.173 216.807 205.944 219.329 200.123C221.852 194.302 223.129 188.019 223.081 181.675C223.075 179.792 222.962 177.912 222.743 176.042C229.749 176.788 236.39 179.546 241.864 183.983C247.338 188.42 251.411 194.347 253.591 201.047C255.771 207.748 255.965 214.936 254.149 221.745C252.334 228.553 248.587 234.691 243.361 239.417C239.884 232.919 234.897 227.352 228.818 223.185C222.74 219.018 215.748 216.374 208.434 215.475Z" fill="white"/>
</g>
<defs>
<clipPath id="clip0_50_1867">
<rect width="350" height="350" fill="white"/>
</clipPath>
</defs>
</svg>
