<svg width="350" height="350" viewBox="0 0 350 350" fill="none" xmlns="http://www.w3.org/2000/svg">
<g clip-path="url(#clip0_50_1818)">
<path d="M350 0H0V350H350V0Z" fill="#00558A"/>
<path d="M30.0033 43.6515C29.3829 43.6515 27.6346 44.6666 24.7583 45.6818C21.8821 46.6969 20.9797 46.9789 20.3594 47.2609V37.7862C22.7116 36.8437 24.9923 35.7317 27.1834 34.4588C29.2466 33.4031 31.1462 32.0544 32.8231 30.4546H42.8054V97.1723H30.0033V43.6515Z" fill="white"/>
<path d="M54.1974 92.1528C51.0499 87.4456 49.507 81.8476 49.7984 76.1925V52.4493C49.437 46.5454 50.8092 40.6645 53.7462 35.5302C55.3724 33.4395 57.5053 31.7983 59.9429 30.7621C62.3806 29.7259 65.0423 29.3288 67.6762 29.6085C69.9953 29.3905 72.3343 29.6536 74.547 30.3814C76.7596 31.1093 78.7981 32.2861 80.5348 33.8383C83.4623 37.3926 84.9156 41.9341 84.5954 46.5276V47.6556H72.5264C72.6722 45.4547 72.3651 43.2474 71.624 41.1699C71.21 40.5261 70.6128 40.021 69.9092 39.7194C69.2057 39.4179 68.428 39.3338 67.6762 39.478C67.0903 39.4329 66.5018 39.5211 65.9548 39.736C65.4078 39.9509 64.9166 40.2869 64.518 40.7187C63.5751 41.8928 63.023 43.3323 62.9389 44.8357C62.5715 47.5264 62.4206 50.2421 62.4877 52.9569V59.7245C63.297 58.4352 64.5049 57.4452 65.9279 56.9047C67.7042 56.1308 69.6313 55.7646 71.5676 55.8331C73.6528 55.675 75.7426 56.0718 77.6247 56.9831C79.5068 57.8944 81.1141 59.2878 82.2831 61.0217C84.7278 65.282 85.8837 70.1602 85.6105 75.0645C85.9341 80.9866 84.5019 86.8724 81.4935 91.9836C79.9038 94.0961 77.7987 95.7653 75.3795 96.8317C72.9604 97.8982 70.308 98.326 67.6762 98.0745C65.117 98.2614 62.5509 97.8195 60.2015 96.7873C57.8522 95.7552 55.7909 94.1641 54.1974 92.1528ZM71.8496 85.8364C72.6606 82.997 73.0034 80.0445 72.8648 77.0948C72.8648 74.275 72.8648 72.1319 72.8648 70.5528C72.7814 69.2153 72.2892 67.9356 71.4548 66.887C71.0469 66.3958 70.5259 66.011 69.9365 65.7654C69.3472 65.5199 68.707 65.4209 68.071 65.477C66.9684 65.4478 65.8841 65.7632 64.9692 66.3794C64.1237 66.9306 63.411 67.6626 62.8825 68.5225V78.9559C62.8825 85.2724 64.6308 88.4306 68.1274 88.4306C68.9393 88.4334 69.7323 88.1859 70.3984 87.7216C71.0645 87.2574 71.5713 86.5991 71.8496 85.8364Z" fill="white"/>
<path d="M111.892 55.8895V30.398H119.392C120.686 30.3437 121.971 30.6357 123.115 31.244C124.085 31.8461 124.821 32.7613 125.201 33.8382C125.682 35.0777 125.912 36.4005 125.878 37.7296C125.942 39.1328 125.651 40.5294 125.032 41.7902C124.51 42.7672 123.676 43.5414 122.663 43.9897C121.521 44.4667 120.291 44.6973 119.054 44.6665H116.516V55.9459L111.892 55.8895ZM116.516 41.2826H118.434C119.09 41.3108 119.744 41.1953 120.351 40.9443C120.594 40.829 120.81 40.664 120.985 40.46C121.159 40.2559 121.29 40.0174 121.366 39.7599C121.57 39.0643 121.665 38.3414 121.648 37.6168C121.724 36.8668 121.724 36.111 121.648 35.3609C121.574 35.0283 121.423 34.7177 121.207 34.4534C120.992 34.1891 120.718 33.9785 120.408 33.8382C119.76 33.6735 119.081 33.6735 118.434 33.8382H116.629L116.516 41.2826Z" fill="white"/>
<path d="M127.739 55.8894V30.3979H138.398V33.8382H132.364V41.1698H137.158V44.4408H132.364V52.6748H138.511V55.8894H127.739Z" fill="white"/>
<path d="M139.301 55.8894L144.377 30.3979H149.339L154.472 55.8894H150.129L149.114 50.2497H144.715L143.643 55.8894H139.301ZM144.94 47.0351H148.381L146.689 36.3196L144.94 47.0351Z" fill="white"/>
<path d="M162.987 56.397C161.441 56.4737 159.907 56.0805 158.588 55.2691C157.536 54.54 156.745 53.4923 156.333 52.28C155.909 50.8524 155.7 49.37 155.712 47.881V38.6319C155.693 37.1055 155.902 35.5847 156.333 34.1202C156.722 32.896 157.518 31.8415 158.588 31.1311C159.93 30.3867 161.455 30.0349 162.987 30.116C164.416 30.0353 165.84 30.3474 167.104 31.0183C168.116 31.6767 168.857 32.6779 169.191 33.8382C169.616 35.0911 169.826 36.4068 169.811 37.7296V39.4779H165.356V37.3912C165.356 36.658 165.356 36.0377 165.356 35.4173C165.293 34.8352 165.058 34.2852 164.679 33.8382C164.173 33.4914 163.573 33.3059 162.959 33.3059C162.345 33.3059 161.746 33.4914 161.239 33.8382C160.86 34.2402 160.622 34.7551 160.562 35.3045C160.502 35.9988 160.502 36.697 160.562 37.3912V48.6706C160.464 49.4383 160.464 50.2152 160.562 50.9829C160.664 51.5106 160.943 51.9879 161.352 52.3364C161.817 52.6502 162.37 52.8082 162.931 52.7876C163.236 52.8103 163.543 52.7721 163.834 52.6753C164.124 52.5785 164.392 52.425 164.623 52.2236C164.964 51.803 165.179 51.2947 165.243 50.7573C165.304 50.0819 165.304 49.4024 165.243 48.727V46.4711H169.699V48.5014C169.717 49.8614 169.507 51.2149 169.078 52.5056C168.724 53.6407 167.986 54.6175 166.992 55.2691C165.796 56.0298 164.404 56.4221 162.987 56.397Z" fill="white"/>
<path d="M172.462 55.8894V30.3979H183.177V33.8382H177.143V41.1698H181.88V44.4408H177.143V52.6748H183.234V55.8894H172.462Z" fill="white"/>
<path d="M185.377 60.1756L184.982 58.5965C185.517 58.4392 186.002 58.148 186.392 57.7505C186.82 57.2269 187.041 56.5648 187.013 55.8894H184.757V51.6597H188.93V55.5511C189.001 56.6762 188.683 57.7915 188.028 58.7093C187.356 59.5085 186.411 60.0308 185.377 60.1756Z" fill="white"/>
<path d="M196.826 56.397V53.2387C197.388 53.303 197.955 53.303 198.518 53.2387C198.897 53.2069 199.255 53.0479 199.533 52.7876C199.779 52.5154 199.954 52.1858 200.04 51.8288C200.108 51.2669 200.108 50.6989 200.04 50.1369V30.3979H204.665V50.2497C204.696 51.4541 204.524 52.6551 204.157 53.8027C203.854 54.6913 203.231 55.4352 202.409 55.8894C201.316 56.3968 200.116 56.6291 198.912 56.5662L196.826 56.397Z" fill="white"/>
<path d="M215.098 56.397C213.542 56.4686 211.997 56.097 210.643 55.3254C209.667 54.5555 208.973 53.4849 208.669 52.28C208.235 50.7775 208.026 49.2191 208.049 47.6554V30.3979H212.617V48.2194C212.617 49.009 212.617 49.7421 212.617 50.4189C212.703 51.0665 212.977 51.6746 213.406 52.1672C213.9 52.5703 214.517 52.7905 215.155 52.7905C215.792 52.7905 216.409 52.5703 216.903 52.1672C217.312 51.6679 217.566 51.0604 217.636 50.4189C217.696 49.687 217.696 48.9513 217.636 48.2194V30.3979H222.148V47.6554C222.17 49.2191 221.961 50.7775 221.527 52.28C221.156 53.4671 220.403 54.4982 219.384 55.2126C218.096 56.0041 216.61 56.4147 215.098 56.397Z" fill="white"/>
<path d="M231.735 56.3968C230.383 56.4247 229.046 56.1146 227.844 55.4945C226.813 54.8417 226.021 53.872 225.588 52.731C225.054 51.3812 224.749 49.9516 224.686 48.5013L228.69 47.7117C228.72 48.5889 228.852 49.4595 229.085 50.306C229.22 50.9601 229.532 51.5646 229.987 52.0543C230.204 52.2613 230.461 52.4229 230.742 52.5294C231.023 52.6359 231.322 52.6853 231.622 52.6746C231.922 52.7073 232.224 52.6622 232.501 52.5436C232.777 52.425 233.019 52.2371 233.201 51.9979C233.559 51.4872 233.738 50.8724 233.709 50.2496C233.742 49.286 233.465 48.3373 232.92 47.5425C232.35 46.734 231.666 46.0122 230.889 45.3994L227.675 42.5796C226.841 41.8137 226.137 40.9187 225.588 39.9289C225.03 38.85 224.758 37.6461 224.798 36.4323C224.735 35.5721 224.858 34.7084 225.16 33.9004C225.462 33.0924 225.935 32.3593 226.547 31.7513C227.855 30.6527 229.52 30.071 231.228 30.1158C232.254 30.0726 233.277 30.2655 234.217 30.6798C234.981 31.0059 235.643 31.5319 236.134 32.2025C236.605 32.8667 236.95 33.6125 237.149 34.402C237.391 35.2676 237.542 36.1559 237.6 37.0527L233.653 37.7294C233.691 37.0156 233.691 36.3002 233.653 35.5863C233.562 35.0346 233.307 34.5234 232.92 34.12C232.674 33.9558 232.396 33.8457 232.104 33.7971C231.812 33.7485 231.513 33.7625 231.228 33.838C230.93 33.8202 230.632 33.8722 230.358 33.9897C230.084 34.1071 229.841 34.2869 229.648 34.5148C229.257 34.9894 229.056 35.5923 229.085 36.2067C229.039 36.9629 229.237 37.7138 229.648 38.3498C230.059 38.9944 230.573 39.5662 231.171 40.0417L234.329 42.8615C235.31 43.6714 236.165 44.6216 236.867 45.6814C237.636 46.9767 238.027 48.4615 237.995 49.9676C238.009 51.1067 237.738 52.2313 237.206 53.2386C236.678 54.1712 235.895 54.9341 234.95 55.4381C233.981 56.034 232.872 56.3647 231.735 56.3968Z" fill="white"/>
<path d="M242.789 55.8894V33.8382H238.729V30.3979H251.418V33.8382H247.414V55.8894H242.789Z" fill="white"/>
<path d="M253.279 55.8894V30.3979H257.847V55.8894H253.279Z" fill="white"/>
<path d="M268.055 56.3969C266.507 56.4883 264.969 56.0939 263.656 55.269C262.604 54.5399 261.813 53.4921 261.4 52.2799C260.977 50.8523 260.768 49.3699 260.78 47.8809V38.6318C260.76 37.1054 260.969 35.5846 261.4 34.1201C261.79 32.8959 262.586 31.8414 263.656 31.131C264.994 30.3748 266.522 30.0222 268.055 30.1159C269.484 30.0352 270.908 30.3473 272.172 31.0182C273.154 31.5964 273.91 32.4914 274.315 33.5561C274.74 34.809 274.95 36.1247 274.936 37.4475V39.4778H270.706V37.3911C270.706 36.6579 270.706 36.0376 270.706 35.4172C270.565 34.8013 270.229 34.2474 269.747 33.8381C269.241 33.4913 268.641 33.3058 268.027 33.3058C267.413 33.3058 266.814 33.4913 266.307 33.8381C265.928 34.2401 265.69 34.755 265.63 35.3044C265.57 35.9987 265.57 36.6968 265.63 37.3911V48.6705C265.532 49.4382 265.532 50.2151 265.63 50.9828C265.732 51.5105 266.011 51.9878 266.42 52.3363C266.885 52.6501 267.438 52.8081 267.999 52.7875C268.296 52.8159 268.596 52.7803 268.878 52.683C269.16 52.5857 269.418 52.429 269.634 52.2235C270.017 51.8239 270.255 51.3078 270.311 50.7572C270.372 50.0818 270.372 49.4023 270.311 48.7269V46.471H274.767V48.5013C274.785 49.8613 274.575 51.2148 274.146 52.5055C273.792 53.6406 273.054 54.6174 272.059 55.269C270.86 56.0207 269.47 56.4122 268.055 56.3969Z" fill="white"/>
<path d="M277.53 55.8894V30.3979H288.245V33.8382H281.985V41.1698H286.723V44.4408H281.985V52.6748H288.076V55.8894H277.53Z" fill="white"/>
<path d="M110.595 97.5667L115.67 72.0752H120.633L125.766 97.5667H121.423L120.464 91.9269H116.009L114.937 97.5667H110.595ZM116.234 88.7687H119.731L118.434 78.0533L116.234 88.7687Z" fill="white"/>
<path d="M127.57 97.5667V72.0752H130.785L136.989 86.6256V72.0752H140.993V97.5667H137.891L131.631 82.3395V97.5667H127.57Z" fill="white"/>
<path d="M144.094 97.5671V72.0756H150.129C151.788 71.997 153.444 72.2859 154.979 72.9216C156.094 73.4552 156.977 74.3777 157.46 75.5158C158.001 76.9564 158.25 78.49 158.193 80.0276V89.3331C158.249 90.9075 158 92.4777 157.46 93.9577C157.008 95.1386 156.147 96.1188 155.035 96.7211C153.535 97.3406 151.919 97.6292 150.298 97.5671H144.094ZM148.775 94.3525H150.185C150.997 94.4269 151.811 94.2284 152.497 93.7885C152.962 93.3589 153.261 92.7802 153.343 92.153C153.41 91.2519 153.41 90.347 153.343 89.4459V79.6892C153.418 78.8637 153.418 78.0332 153.343 77.2078C153.215 76.6328 152.872 76.1285 152.385 75.7978C151.698 75.4766 150.94 75.3405 150.185 75.403H148.832L148.775 94.3525Z" fill="white"/>
<path d="M174.492 97.9614C173.14 97.9893 171.803 97.6792 170.601 97.0591C169.567 96.4446 168.757 95.5159 168.289 94.4084C167.748 93.0605 167.443 91.6298 167.386 90.1786L171.39 89.3891C171.421 90.2663 171.553 91.1369 171.785 91.9834C171.921 92.6375 172.233 93.242 172.688 93.7317C172.905 93.9388 173.162 94.1003 173.443 94.2068C173.724 94.3133 174.023 94.3627 174.323 94.352C174.622 94.3847 174.925 94.3396 175.201 94.221C175.478 94.1024 175.719 93.9145 175.902 93.6753C176.26 93.1646 176.439 92.5498 176.41 91.927C176.431 90.9649 176.155 90.0196 175.62 89.2199C175.035 88.4237 174.353 87.7037 173.59 87.0768L170.375 84.257C169.535 83.5042 168.813 82.6297 168.232 81.6627C167.681 80.5611 167.41 79.3409 167.443 78.1097C167.362 77.2311 167.477 76.3457 167.78 75.5169C168.082 74.6881 168.564 73.9365 169.191 73.3159C170.543 72.1774 172.276 71.5931 174.041 71.6804C175.067 71.6372 176.09 71.8301 177.03 72.2444C177.794 72.5705 178.457 73.0965 178.948 73.7671C179.408 74.4373 179.752 75.1811 179.963 75.9666C180.248 76.9398 180.418 77.9429 180.47 78.9556L176.523 79.6324C176.467 78.9135 176.373 78.198 176.241 77.4893C176.15 76.9376 175.894 76.4264 175.507 76.023C175.304 75.832 175.065 75.6837 174.803 75.5868C174.542 75.4899 174.263 75.4465 173.985 75.459C173.687 75.4413 173.389 75.4932 173.115 75.6107C172.841 75.7281 172.598 75.9079 172.406 76.1358C172.014 76.6104 171.813 77.2133 171.842 77.8277C171.796 78.5839 171.994 79.3348 172.406 79.9708C172.816 80.6154 173.33 81.1872 173.928 81.6627L177.087 84.4825C178.149 85.3651 179.063 86.4123 179.794 87.5844C180.562 88.8797 180.953 90.3645 180.922 91.8706C180.936 93.0097 180.664 94.1343 180.132 95.1416C179.604 96.0742 178.822 96.8371 177.876 97.3411C176.825 97.8487 175.655 98.063 174.492 97.9614Z" fill="white"/>
<path d="M185.546 97.5667V75.5154H181.486V72.0752H194.175V75.5154H190.171V97.5667H185.546Z" fill="white"/>
<path d="M195.867 97.5667V72.0752H202.014C203.485 72.0504 204.951 72.2598 206.357 72.6956C207.473 73.0573 208.43 73.7947 209.064 74.7823C209.758 76.019 210.09 77.4262 210.022 78.8429C210.021 79.7711 209.927 80.6969 209.74 81.6063C209.56 82.3578 209.234 83.0667 208.782 83.693C208.261 84.2927 207.603 84.7571 206.864 85.0465L210.417 97.5667H205.793L202.691 85.8925H200.548V97.5667H195.867ZM200.548 82.9598H202.014C202.75 83.0031 203.485 82.8676 204.157 82.5651C204.423 82.4505 204.661 82.2806 204.855 82.0666C205.05 81.8526 205.196 81.5995 205.285 81.3243C205.562 80.6248 205.696 79.877 205.68 79.1248C205.732 78.0962 205.477 77.0753 204.947 76.1922C204.601 75.8335 204.176 75.5601 203.706 75.3937C203.236 75.2273 202.734 75.1725 202.24 75.2335H200.548V82.9598Z" fill="white"/>
<path d="M219.948 97.9615C218.452 98.0365 216.966 97.6845 215.662 96.9463C214.581 96.2597 213.765 95.2255 213.35 94.0137C212.866 92.5794 212.637 91.0715 212.673 89.5583V80.0272C212.637 78.514 212.866 77.0061 213.35 75.5718C213.787 74.4018 214.6 73.4099 215.662 72.752C216.982 72.0606 218.46 71.7299 219.948 71.7932C221.473 71.7259 222.989 72.0563 224.347 72.752C225.388 73.4193 226.181 74.41 226.603 75.5718C227.134 76.9955 227.383 78.5086 227.336 80.0272V89.6147C227.378 91.1146 227.129 92.6085 226.603 94.0137C226.191 95.1963 225.398 96.2082 224.347 96.8899C223.022 97.6816 221.489 98.0551 219.948 97.9615ZM219.948 94.5213C220.239 94.569 220.536 94.5564 220.821 94.4843C221.106 94.4122 221.373 94.2822 221.606 94.1023C221.839 93.9224 222.032 93.6965 222.174 93.4387C222.316 93.1809 222.403 92.8967 222.43 92.6038C222.491 91.966 222.491 91.324 222.43 90.6863V78.9557C222.493 78.3181 222.493 77.6758 222.43 77.0382C222.325 76.5244 222.07 76.0534 221.697 75.6846C221.194 75.3098 220.573 75.1295 219.948 75.1771C219.358 75.1247 218.77 75.3071 218.313 75.6846C217.904 76.0332 217.625 76.5105 217.523 77.0382C217.46 77.6758 217.46 78.3181 217.523 78.9557V90.6863C217.462 91.324 217.462 91.966 217.523 92.6038C217.589 93.1471 217.849 93.6482 218.256 94.0137C218.741 94.38 219.342 94.5601 219.948 94.5213Z" fill="white"/>
<path d="M229.931 97.5667V72.0752H233.145L239.349 86.6256V72.0752H243.184V97.5667H240.139L233.878 82.3395V97.5667H229.931Z" fill="white"/>
<path d="M252.828 97.9616C251.417 98.0069 250.024 97.6341 248.824 96.8901C247.821 96.1232 247.09 95.0562 246.737 93.8447C246.259 92.3315 246.03 90.7504 246.06 89.1637V80.5914C246.038 79.0091 246.247 77.4322 246.681 75.9104C247.059 74.6654 247.856 73.5895 248.937 72.865C250.262 72.0733 251.795 71.6998 253.335 71.7934C254.764 71.7127 256.188 72.0248 257.452 72.6958C258.492 73.2339 259.296 74.138 259.708 75.2336C260.194 76.5112 260.424 77.8717 260.385 79.2378V80.535H255.93V78.9558C255.995 78.243 255.995 77.5256 255.93 76.8128C255.844 76.3043 255.608 75.8331 255.253 75.4592C254.756 75.1215 254.16 74.9624 253.561 75.008C253.234 74.984 252.905 75.0266 252.595 75.1332C252.285 75.2399 252 75.4083 251.756 75.6284C251.389 76.0821 251.155 76.6287 251.08 77.2075C251.017 77.9205 251.017 78.6376 251.08 79.3506V90.2352C251.013 91.0046 251.013 91.7782 251.08 92.5475C251.21 93.1255 251.504 93.6539 251.926 94.0702C252.411 94.4366 253.011 94.6167 253.617 94.5778C254.248 94.5994 254.867 94.3999 255.366 94.0139C255.789 93.5765 256.082 93.0296 256.212 92.4347C256.281 91.6278 256.281 90.8165 256.212 90.0097V87.641H253.787V84.5955H260.723V97.5669H257.734L257.396 95.0854C257.088 95.8909 256.56 96.5942 255.873 97.1157C255.003 97.7753 253.914 98.0779 252.828 97.9616Z" fill="white"/>
<path d="M112.004 139.301V113.753H116.573V139.301H112.004Z" fill="white"/>
<path d="M119.9 139.301V113.753H123.171L129.375 128.303V113.753H133.21V139.301H130.108L124.073 124.074V139.301H119.9Z" fill="white"/>
<path d="M142.854 139.639C141.519 139.669 140.199 139.359 139.019 138.736C137.985 138.122 137.175 137.193 136.706 136.086C136.107 134.757 135.799 133.314 135.804 131.856L139.808 131.066C139.851 131.939 139.964 132.807 140.147 133.661C140.265 134.293 140.558 134.879 140.993 135.353C141.202 135.555 141.449 135.715 141.72 135.821C141.991 135.928 142.281 135.979 142.572 135.973C142.879 136.005 143.19 135.96 143.475 135.842C143.761 135.723 144.012 135.536 144.207 135.296C144.541 134.798 144.7 134.203 144.658 133.604C144.708 132.629 144.452 131.663 143.925 130.841C143.341 130.045 142.658 129.325 141.895 128.698L138.68 125.878C137.813 125.152 137.087 124.272 136.537 123.284C135.96 122.192 135.687 120.964 135.748 119.731C135.684 118.871 135.808 118.007 136.109 117.199C136.411 116.391 136.884 115.658 137.496 115.05C138.828 113.915 140.542 113.33 142.29 113.414C143.334 113.372 144.375 113.565 145.335 113.978C146.093 114.289 146.741 114.819 147.196 115.501C147.697 116.155 148.062 116.903 148.268 117.7C148.505 118.567 148.656 119.455 148.719 120.351L144.715 121.028C144.779 120.315 144.779 119.598 144.715 118.885C144.599 118.342 144.347 117.837 143.982 117.418C143.778 117.227 143.539 117.079 143.277 116.982C143.016 116.885 142.738 116.842 142.459 116.854C142.156 116.839 141.854 116.897 141.578 117.025C141.303 117.153 141.063 117.346 140.88 117.588C140.487 118.039 140.285 118.626 140.316 119.223C140.281 119.971 140.457 120.713 140.823 121.366C141.284 122.005 141.814 122.591 142.403 123.115L145.561 125.878C146.623 126.761 147.537 127.808 148.268 128.98C149.041 130.294 149.432 131.798 149.396 133.322C149.411 134.451 149.119 135.562 148.55 136.537C148.059 137.478 147.291 138.246 146.35 138.736C145.293 139.359 144.081 139.672 142.854 139.639Z" fill="white"/>
<path d="M153.907 139.301V117.193H149.847V113.753H162.592V117.193H158.588V139.301H153.907Z" fill="white"/>
<path d="M164.397 139.301V113.753H169.191V139.301H164.397Z" fill="white"/>
<path d="M174.831 139.301V117.193H170.77V113.753H183.459V117.193H179.455V139.301H174.831Z" fill="white"/>
<path d="M192.258 139.639C190.699 139.737 189.146 139.364 187.802 138.568C186.784 137.853 186.031 136.822 185.659 135.635C185.225 134.133 185.016 132.574 185.039 131.01V113.753H189.607V131.574C189.607 132.364 189.607 133.097 189.607 133.83C189.706 134.457 189.98 135.043 190.396 135.522C190.89 135.925 191.508 136.146 192.145 136.146C192.782 136.146 193.4 135.925 193.893 135.522C194.292 135.039 194.546 134.452 194.626 133.83C194.684 133.079 194.684 132.325 194.626 131.574V113.753H199.138V131.01C199.161 132.574 198.951 134.133 198.518 135.635C198.146 136.822 197.393 137.853 196.375 138.568C195.133 139.312 193.704 139.684 192.258 139.639Z" fill="white"/>
<path d="M205.003 139.301V117.193H200.943V113.753H213.632V117.193H209.628V139.301H205.003Z" fill="white"/>
<path d="M215.493 139.301V113.753H219.949V139.301H215.493Z" fill="white"/>
<path d="M230.325 139.639C228.811 139.712 227.307 139.361 225.983 138.624C224.922 137.928 224.128 136.894 223.727 135.691C223.196 134.267 222.947 132.754 222.994 131.236V121.705C222.947 120.186 223.196 118.673 223.727 117.249C224.149 116.087 224.942 115.097 225.983 114.429C227.323 113.738 228.819 113.408 230.325 113.471C231.832 113.403 233.33 113.733 234.668 114.429C235.73 115.087 236.543 116.079 236.98 117.249C237.484 118.68 237.733 120.188 237.713 121.705V131.292C237.728 132.79 237.48 134.279 236.98 135.691C236.542 136.89 235.732 137.918 234.668 138.624C233.346 139.366 231.84 139.718 230.325 139.639ZM230.325 136.199C230.934 136.26 231.543 136.077 232.017 135.691C232.425 135.326 232.685 134.824 232.75 134.281C232.843 133.645 232.843 132.999 232.75 132.364V120.633C232.843 119.997 232.843 119.351 232.75 118.716C232.668 118.194 232.409 117.716 232.017 117.362C231.543 116.976 230.934 116.793 230.325 116.854C229.719 116.816 229.118 116.996 228.633 117.362C228.261 117.731 228.005 118.202 227.9 118.716C227.837 119.353 227.837 119.995 227.9 120.633V132.364C227.837 133.001 227.837 133.644 227.9 134.281C227.966 134.824 228.226 135.326 228.633 135.691C229.114 136.067 229.718 136.248 230.325 136.199Z" fill="white"/>
<path d="M240.477 139.301V113.753H243.748L249.952 128.303V113.753H253.787V139.301H250.685L244.481 124.074V139.301H240.477Z" fill="white"/>
<path d="M263.487 139.639C262.078 139.696 260.679 139.385 259.427 138.737C258.393 138.122 257.583 137.194 257.114 136.086C256.568 134.74 256.263 133.308 256.212 131.856L260.216 131.067C260.246 131.944 260.379 132.815 260.611 133.661C260.735 134.319 261.049 134.927 261.513 135.409C261.731 135.616 261.988 135.778 262.268 135.885C262.549 135.991 262.849 136.04 263.149 136.03C263.499 136.131 263.872 136.12 264.216 135.999C264.56 135.877 264.857 135.652 265.066 135.353C265.416 134.86 265.594 134.265 265.574 133.661C265.603 132.68 265.327 131.715 264.784 130.898C264.2 130.101 263.517 129.381 262.754 128.755L259.596 125.935C258.712 125.21 257.967 124.331 257.396 123.34C256.845 122.239 256.574 121.019 256.607 119.787C256.543 118.927 256.667 118.064 256.968 117.256C257.27 116.448 257.743 115.714 258.355 115.106C259.707 113.968 261.44 113.384 263.205 113.471C264.232 113.428 265.254 113.621 266.194 114.035C266.959 114.361 267.621 114.887 268.112 115.558C268.573 116.228 268.916 116.972 269.127 117.757C269.364 118.624 269.515 119.512 269.578 120.408L265.63 121.085C265.669 120.371 265.669 119.655 265.63 118.941C265.54 118.39 265.284 117.878 264.897 117.475C264.694 117.284 264.454 117.136 264.193 117.039C263.931 116.942 263.653 116.899 263.374 116.911C263.072 116.9 262.771 116.961 262.497 117.088C262.222 117.216 261.982 117.406 261.795 117.644C261.403 118.096 261.201 118.682 261.231 119.28C261.186 120.036 261.384 120.787 261.795 121.423C262.217 122.075 262.73 122.664 263.318 123.171L266.476 125.935C267.539 126.817 268.453 127.864 269.183 129.037C269.957 130.351 270.347 131.855 270.311 133.379C270.318 134.499 270.047 135.604 269.522 136.594C268.994 137.526 268.211 138.289 267.266 138.793C266.122 139.453 264.803 139.749 263.487 139.639Z" fill="white"/>
<path d="M232.638 155.261C230.72 157.834 229.853 161.04 230.213 164.228C231.252 167.262 233.41 169.783 236.247 171.278C238.14 168.695 238.986 165.492 238.616 162.311C237.59 159.287 235.453 156.767 232.638 155.261Z" fill="white"/>
<path d="M227.054 181.147C228.957 178.567 229.822 175.367 229.479 172.18C228.428 169.168 226.271 166.668 223.445 165.187C221.52 167.735 220.652 170.926 221.02 174.098C222.059 177.131 224.218 179.653 227.054 181.147Z" fill="white"/>
<path d="M241.097 176.297C243.142 178.327 245.887 179.498 248.767 179.568C251.672 178.962 254.235 177.267 255.93 174.831C253.83 172.836 251.043 171.725 248.147 171.729C245.289 172.306 242.753 173.937 241.041 176.297" fill="white"/>
<path d="M246.963 156.897C244.879 159.552 243.872 162.894 244.143 166.258C247.441 166.574 250.735 165.605 253.336 163.551C255.424 160.897 256.45 157.559 256.212 154.19C252.874 153.924 249.561 154.954 246.963 157.066" fill="white"/>
<path d="M239.631 189.776C242.558 189.824 245.39 188.732 247.527 186.731C245.937 184.341 243.497 182.647 240.702 181.993C237.77 181.95 234.929 183.018 232.75 184.982C234.343 187.405 236.807 189.122 239.631 189.776Z" fill="white"/>
<path d="M243.24 255.535H212.673C211.521 255.535 210.417 255.993 209.602 256.807C208.788 257.621 208.331 258.726 208.331 259.878C208.331 261.029 208.788 262.134 209.602 262.948C210.417 263.763 211.521 264.22 212.673 264.22H243.24C244.392 264.22 245.497 263.763 246.311 262.948C247.125 262.134 247.583 261.029 247.583 259.878C247.583 258.726 247.125 257.621 246.311 256.807C245.497 255.993 244.392 255.535 243.24 255.535Z" fill="white"/>
<path d="M243.24 303.247H212.673C211.614 303.368 210.636 303.875 209.927 304.671C209.217 305.466 208.825 306.495 208.825 307.561C208.825 308.627 209.217 309.656 209.927 310.452C210.636 311.248 211.614 311.754 212.673 311.876H243.24C243.848 311.945 244.464 311.886 245.048 311.701C245.631 311.516 246.168 311.209 246.625 310.802C247.082 310.395 247.447 309.895 247.697 309.337C247.948 308.778 248.077 308.173 248.077 307.561C248.077 306.949 247.948 306.344 247.697 305.786C247.447 305.227 247.082 304.728 246.625 304.321C246.168 303.913 245.631 303.607 245.048 303.422C244.464 303.237 243.848 303.177 243.24 303.247Z" fill="white"/>
<path d="M105.744 245.045L103.658 244.481C104.342 244.709 105.038 244.898 105.744 245.045Z" fill="white"/>
<path d="M242.169 267.209H213.97C213.312 267.209 212.681 267.47 212.216 267.936C211.75 268.401 211.489 269.032 211.489 269.69V278.263L193.047 280.293L165.976 279.673V263.148C169.612 262.685 173.212 261.969 176.748 261.005C202.747 253.617 208.443 237.431 207.879 222.543C207.316 207.654 212.166 201.506 219.159 198.912C220.988 198.232 222.876 197.722 224.799 197.389C224.953 201.889 225.79 206.338 227.28 210.586H229.141C227.568 206.354 226.673 201.901 226.49 197.389C228.554 197.207 230.63 197.207 232.694 197.389C230.692 196.171 228.805 194.774 227.054 193.216C228.343 186.749 231.806 180.918 236.868 176.692C239.444 174.222 241.767 171.501 243.804 168.571L242.225 167.612C240.271 170.42 238.041 173.027 235.57 175.395C230.649 179.578 227.127 185.167 225.475 191.411C224.065 190.114 222.599 188.648 221.02 186.9C214.591 179.737 206.357 184.982 194.57 195.98C182.783 206.977 168.007 207.259 153.513 192.483C134.451 172.97 117.757 173.082 106.365 174.154C114.148 177.481 116.911 184.813 120.859 203.368C124.976 222.825 135.466 231.566 149.734 232.863C143.136 233.935 141.387 234.837 130.728 242.169C123.162 246.305 114.283 247.336 105.97 245.045C114.712 247.752 125.032 256.888 134.169 260.047C139.636 261.93 145.322 263.105 151.088 263.543V279.334L99.8228 278.206V289.486L193.103 287.399L211.545 289.429V297.776C211.545 298.434 211.807 299.065 212.272 299.531C212.737 299.996 213.369 300.258 214.027 300.258H242.225C242.874 300.243 243.49 299.975 243.944 299.511C244.397 299.047 244.651 298.425 244.65 297.776V269.578C244.621 268.939 244.347 268.337 243.885 267.895C243.423 267.454 242.808 267.208 242.169 267.209ZM155.317 263.769C157.348 263.769 159.378 263.769 161.352 263.769V279.729H155.317V263.769Z" fill="white"/>
<path d="M96.9465 287.625C97.0245 288.663 96.6889 289.691 96.0128 290.483C95.3367 291.275 94.375 291.768 93.3371 291.855H91.1376C90.0997 291.768 89.1379 291.275 88.4619 290.483C87.7858 289.691 87.4502 288.663 87.5282 287.625V279.786C87.4656 278.756 87.8082 277.744 88.4827 276.964C89.1572 276.184 90.1101 275.699 91.1376 275.612H93.3371C94.3645 275.699 95.3174 276.184 95.9919 276.964C96.6664 277.744 97.009 278.756 96.9465 279.786V287.625Z" fill="white"/>
</g>
<defs>
<clipPath id="clip0_50_1818">
<rect width="350" height="350" fill="white"/>
</clipPath>
</defs>
</svg>
