<svg width="350" height="350" viewBox="0 0 350 350" fill="none" xmlns="http://www.w3.org/2000/svg">
<g clip-path="url(#clip0_48_74)">
<path d="M350 0H0V350H350V0Z" fill="#EA1D2D"/>
<path d="M30.5126 43.6385C29.8979 43.9729 28.1655 44.6417 25.2595 45.7006C22.3536 46.7595 21.4594 46.9825 20.8447 47.2611V37.7866C23.2792 36.8447 25.65 35.7463 27.942 34.4984C30.0086 33.4452 31.8948 32.072 33.5303 30.4299H43.31V97.3089H30.5126V43.6385Z" fill="white"/>
<path d="M71.4194 30.3741H74.6607L80.8638 44.9203V30.3741H84.7198V55.7324H81.6462L75.3872 40.6847V55.7324H71.4194V30.3741Z" fill="white"/>
<path d="M89.414 54.1163C88.1724 52.3014 87.5817 50.1216 87.7374 47.93V38.344C87.572 36.1689 88.1641 34.0036 89.414 32.2134C90.1326 31.4732 91.0058 30.8997 91.9716 30.5337C92.9374 30.1677 93.9721 30.0181 95.0023 30.0956C96.0336 30.0062 97.0718 30.1502 98.0395 30.5169C99.0071 30.8836 99.8792 31.4635 100.591 32.2134C101.887 33.9837 102.501 36.1594 102.323 38.344V47.93C102.472 50.129 101.86 52.3123 100.591 54.1163C99.8869 54.8763 99.0159 55.4631 98.0462 55.8306C97.0766 56.1981 96.0346 56.3362 95.0023 56.2341C93.9711 56.3236 92.9328 56.1796 91.9652 55.8128C90.9975 55.4461 90.1254 54.8662 89.414 54.1163ZM97.2377 51.8313C97.6277 50.9366 97.8 49.9627 97.7406 48.9889V37.2851C97.7938 36.3117 97.6218 35.3392 97.2377 34.4427C96.9754 34.1368 96.6497 33.8912 96.2831 33.7228C95.9165 33.5544 95.5177 33.4672 95.1141 33.4672C94.7105 33.4672 94.3117 33.5544 93.9451 33.7228C93.5785 33.8912 93.2528 34.1368 92.9905 34.4427C92.6051 35.3191 92.4328 36.2739 92.4876 37.2294V48.9332C92.4281 49.9069 92.6005 50.8809 92.9905 51.7755C93.2473 52.0901 93.5711 52.3437 93.9384 52.5178C94.3058 52.692 94.7074 52.7823 95.1141 52.7823C95.5208 52.7823 95.9224 52.692 96.2898 52.5178C96.6571 52.3437 96.9809 52.0901 97.2377 51.7755V51.8313Z" fill="white"/>
<path d="M71.4194 72.0621H78.9079C83.2668 72.0621 85.4463 74.5144 85.4463 79.3074C85.5836 80.2442 85.5015 81.2 85.2064 82.0999C84.9113 82.9998 84.4112 83.8193 83.7454 84.4942C83.0795 85.1691 82.2659 85.681 81.3685 85.9897C80.471 86.2985 79.514 86.3958 78.5726 86.2739H76.0578V97.4204H71.4194V72.0621ZM77.8461 83.2086C78.3096 83.2621 78.7793 83.215 79.223 83.0707C79.6666 82.9264 80.0738 82.6883 80.4167 82.3726C80.9579 81.5288 81.1945 80.5262 81.0873 79.5303C81.165 78.752 81.165 77.9679 81.0873 77.1895C80.9425 76.6732 80.6018 76.2334 80.1373 75.9634C79.4958 75.6501 78.7815 75.5154 78.0696 75.5733H76.2813V83.2086H77.8461Z" fill="white"/>
<path d="M89.4139 95.8041C88.1275 94.0081 87.5144 91.8186 87.6815 89.6178V80.0318C87.5144 77.831 88.1275 75.6415 89.4139 73.8455C90.1376 73.1153 91.0131 72.5522 91.9786 72.1959C92.9442 71.8396 93.9763 71.6988 95.0023 71.7834C96.028 71.7026 97.059 71.8452 98.024 72.2012C98.989 72.5573 99.8647 73.1184 100.591 73.8455C101.832 75.6604 102.423 77.8403 102.267 80.0318V89.6178C102.432 91.8102 101.84 93.9929 100.591 95.8041C99.8896 96.5676 99.019 97.1568 98.0486 97.5246C97.0782 97.8923 96.0349 98.0284 95.0023 97.9219C93.9704 98.0197 92.9297 97.8796 91.9607 97.5124C90.9917 97.1452 90.1203 96.5607 89.4139 95.8041ZM97.1818 93.5191C97.5718 92.6244 97.7441 91.6505 97.6847 90.6767V78.9172C97.7395 77.9617 97.5672 77.0069 97.1818 76.1305C96.9581 75.798 96.6466 75.5335 96.2817 75.3663C95.9169 75.1991 95.5128 75.1357 95.1141 75.1831C94.707 75.1314 94.2935 75.1925 93.919 75.3596C93.5444 75.5267 93.2232 75.7934 92.9905 76.1305C92.5659 76.9957 92.3734 77.9557 92.4317 78.9172V90.6767C92.3635 91.6567 92.5563 92.6373 92.9905 93.5191C93.2418 93.8327 93.5606 94.0859 93.9234 94.26C94.2862 94.434 94.6836 94.5244 95.0861 94.5244C95.4887 94.5244 95.8861 94.434 96.2489 94.26C96.6116 94.0859 96.9305 93.8327 97.1818 93.5191Z" fill="white"/>
<path d="M104.335 72.0621H108.414L111.768 90.1195L115.009 72.0621H119.2L114.059 97.5876H109.476L104.335 72.0621Z" fill="white"/>
<path d="M121.659 72.0621H132.389V75.3504H126.297V82.707H131.103V85.9395H126.297V94.4109H132.445V97.5876H121.659V72.0621Z" fill="white"/>
<path d="M135.015 72.0621H141.162C143.292 71.899 145.416 72.4481 147.198 73.6226C147.927 74.2731 148.49 75.0879 148.84 75.9991C149.19 76.9102 149.317 77.8916 149.21 78.8614C149.265 80.2179 149.017 81.5696 148.483 82.8184C147.986 83.8526 147.104 84.6524 146.024 85.0477L149.601 97.5876H144.907L141.889 85.8837H139.709V97.5876H135.071L135.015 72.0621ZM141.162 83.2086C141.665 83.2619 142.173 83.2101 142.654 83.0566C143.135 82.903 143.579 82.6511 143.957 82.3169C144.595 81.4496 144.894 80.3789 144.795 79.3073C144.889 78.287 144.633 77.265 144.068 76.4092C143.721 76.0615 143.299 75.796 142.835 75.632C142.371 75.4681 141.876 75.4099 141.386 75.4618H139.709V83.2086H141.162Z" fill="white"/>
<path d="M155.078 75.5175H150.886V72.0621H163.963V75.5175H159.772V97.8105H155.133L155.078 75.5175Z" fill="white"/>
<path d="M169.384 87.8344L164.187 72.0621H168.545L171.731 82.2054L174.693 72.0621H178.828L173.743 87.8344V97.5876H169.272L169.384 87.8344Z" fill="white"/>
<path d="M270.254 167.197C270.243 165.266 270.807 163.375 271.875 161.764C272.943 160.153 274.466 158.894 276.252 158.147C278.038 157.4 280.006 157.199 281.907 157.569C283.808 157.939 285.555 158.864 286.929 160.225C288.302 161.587 289.239 163.325 289.621 165.218C290.003 167.112 289.812 169.076 289.074 170.861C288.335 172.647 287.082 174.173 285.473 175.247C283.863 176.321 281.97 176.895 280.033 176.895C277.449 176.895 274.97 175.875 273.138 174.058C271.305 172.241 270.269 169.775 270.254 167.197Z" fill="white"/>
<path d="M291.434 180.462C294.665 180.755 297.669 182.245 299.852 184.639C302.035 187.033 303.239 190.156 303.225 193.392V220.366C303.113 221.285 302.667 222.131 301.972 222.745C301.278 223.359 300.381 223.697 299.453 223.697C298.525 223.697 297.629 223.359 296.934 222.745C296.239 222.131 295.793 221.285 295.681 220.366V197.182C295.681 196.29 295.681 195.119 293.837 195.119C291.993 195.119 292.496 196.29 292.44 197.014V266.513C292.158 267.744 291.466 268.844 290.476 269.631C289.486 270.419 288.257 270.848 286.991 270.848C285.725 270.848 284.496 270.419 283.506 269.631C282.516 268.844 281.824 267.744 281.542 266.513V226.497C281.567 226.288 281.546 226.077 281.48 225.877C281.415 225.677 281.306 225.494 281.163 225.341C281.019 225.187 280.844 225.066 280.649 224.987C280.454 224.907 280.244 224.871 280.034 224.881C279.819 224.873 279.604 224.909 279.404 224.988C279.204 225.066 279.022 225.185 278.87 225.337C278.718 225.488 278.599 225.67 278.52 225.869C278.442 226.069 278.405 226.282 278.413 226.497V266.513C278.11 267.718 277.412 268.787 276.43 269.552C275.448 270.316 274.238 270.731 272.992 270.731C271.747 270.731 270.537 270.316 269.554 269.552C268.572 268.787 267.874 267.718 267.572 266.513V197.014C267.572 196.29 267.292 195.119 266.23 195.119C265.169 195.119 264.386 196.29 264.386 197.182V220.366C264.386 221.371 263.986 222.335 263.273 223.046C262.56 223.757 261.594 224.156 260.586 224.156C259.578 224.156 258.612 223.757 257.899 223.046C257.186 222.335 256.786 221.371 256.786 220.366V193.392C256.774 190.147 257.985 187.017 260.18 184.621C262.375 182.226 265.392 180.741 268.633 180.462H291.434Z" fill="white"/>
<path d="M212.358 172.046C212.347 170.23 211.797 168.457 210.777 166.952C209.757 165.448 208.313 164.278 206.628 163.59C204.942 162.903 203.089 162.728 201.304 163.09C199.52 163.451 197.882 164.331 196.598 165.619C195.314 166.907 194.441 168.546 194.09 170.328C193.739 172.111 193.924 173.957 194.624 175.634C195.323 177.311 196.505 178.744 198.02 179.752C199.536 180.76 201.316 181.298 203.137 181.298C204.353 181.298 205.557 181.058 206.679 180.592C207.801 180.127 208.82 179.444 209.677 178.585C210.534 177.725 211.212 176.704 211.672 175.582C212.133 174.46 212.366 173.258 212.358 172.046Z" fill="white"/>
<path d="M184.416 192.946L176.649 217.914C176.649 217.914 175.307 222.484 179.163 223.487C183.019 224.49 184.249 220.143 184.249 220.143L190.452 199.355C190.452 199.355 190.787 197.739 191.961 198.073C193.134 198.408 192.743 200.135 192.743 200.135L181.958 239.148H191.961V267.014C191.961 268.285 192.467 269.505 193.368 270.403C194.27 271.302 195.492 271.807 196.767 271.807C198.041 271.807 199.264 271.302 200.165 270.403C201.066 269.505 201.573 268.285 201.573 267.014V239.148H204.311V267.014C204.439 268.204 205.004 269.303 205.896 270.103C206.789 270.902 207.946 271.344 209.145 271.344C210.344 271.344 211.501 270.902 212.394 270.103C213.286 269.303 213.851 268.204 213.979 267.014V239.148H223.982L213.197 200.135C213.197 200.135 212.749 198.463 213.979 198.073C215.208 197.683 215.488 199.355 215.488 199.355L221.691 220.143C221.691 220.143 222.864 224.658 226.776 223.487C230.688 222.317 229.291 217.914 229.291 217.914L221.579 192.946C221.579 192.946 218.841 185.756 212.749 185.756H193.19C187.099 185.756 184.361 192.946 184.361 192.946" fill="white"/>
<path d="M156.866 172.046C156.866 170.216 156.322 168.428 155.302 166.906C154.283 165.385 152.834 164.199 151.139 163.499C149.444 162.799 147.579 162.615 145.779 162.972C143.98 163.329 142.327 164.21 141.029 165.504C139.732 166.798 138.848 168.447 138.491 170.241C138.133 172.036 138.316 173.896 139.018 175.587C139.721 177.277 140.91 178.722 142.435 179.739C143.961 180.755 145.754 181.298 147.589 181.298C148.809 181.305 150.019 181.071 151.148 180.609C152.277 180.146 153.302 179.465 154.165 178.605C155.028 177.744 155.711 176.721 156.175 175.595C156.638 174.47 156.873 173.263 156.866 172.046Z" fill="white"/>
<path d="M128.98 192.946L121.324 217.914C121.324 217.914 119.927 222.484 123.838 223.487C127.75 224.49 128.868 220.143 128.868 220.143L135.071 199.355C135.071 199.355 135.406 197.739 136.58 198.073C137.753 198.408 137.362 200.135 137.362 200.135L126.577 239.148H136.58V267.014C136.708 268.204 137.273 269.303 138.165 270.103C139.057 270.902 140.214 271.344 141.414 271.344C142.613 271.344 143.77 270.902 144.662 270.103C145.555 269.303 146.119 268.204 146.248 267.014V239.148H148.986V267.014C148.986 268.285 149.492 269.505 150.394 270.403C151.295 271.302 152.517 271.807 153.792 271.807C155.067 271.807 156.289 271.302 157.19 270.403C158.092 269.505 158.598 268.285 158.598 267.014V239.148H168.657L157.872 200.135C157.872 200.135 157.425 198.463 158.598 198.073C159.772 197.683 160.163 199.355 160.163 199.355L166.366 220.143C166.366 220.143 167.539 224.658 171.395 223.487C175.251 222.317 173.91 217.914 173.91 217.914L166.198 192.946C166.198 192.946 163.46 185.756 157.425 185.756H137.809C131.718 185.756 128.98 192.946 128.98 192.946Z" fill="white"/>
<path d="M243.262 223.654C244.787 223.654 246.278 223.203 247.547 222.358C248.815 221.513 249.803 220.312 250.387 218.907C250.971 217.501 251.123 215.955 250.826 214.463C250.528 212.971 249.794 211.601 248.715 210.525C247.637 209.449 246.262 208.717 244.766 208.42C243.271 208.123 241.72 208.276 240.311 208.858C238.902 209.44 237.697 210.426 236.85 211.69C236.002 212.955 235.55 214.442 235.55 215.963C235.543 216.975 235.737 217.979 236.122 218.915C236.507 219.852 237.075 220.703 237.792 221.418C238.51 222.134 239.363 222.7 240.302 223.084C241.241 223.468 242.247 223.662 243.262 223.654Z" fill="white"/>
<path d="M224.82 247.508C224.647 247.817 224.538 248.158 224.5 248.511C224.463 248.863 224.497 249.219 224.602 249.558C224.706 249.897 224.879 250.21 225.108 250.481C225.338 250.751 225.62 250.972 225.938 251.131C226.521 251.396 227.182 251.434 227.792 251.238C228.402 251.042 228.917 250.626 229.235 250.072L233.426 236.752C233.426 236.752 234.153 235.86 234.153 236.752V268.073C234.086 268.629 234.139 269.192 234.306 269.725C234.474 270.259 234.753 270.751 235.125 271.169C235.498 271.587 235.955 271.922 236.466 272.151C236.978 272.381 237.532 272.499 238.093 272.499C238.653 272.499 239.208 272.381 239.719 272.151C240.231 271.922 240.688 271.587 241.06 271.169C241.432 270.751 241.711 270.259 241.879 269.725C242.047 269.192 242.099 268.629 242.032 268.073V255.756C242.032 255.756 242.032 253.973 243.206 253.973C244.38 253.973 244.435 255.756 244.435 255.756V268.073C244.428 268.59 244.524 269.104 244.717 269.583C244.91 270.063 245.197 270.5 245.561 270.868C245.925 271.236 246.359 271.529 246.837 271.728C247.316 271.928 247.829 272.03 248.347 272.03C249.4 272.03 250.409 271.613 251.153 270.871C251.897 270.129 252.315 269.123 252.315 268.073V236.752C252.315 235.86 252.818 236.752 252.818 236.752L256.115 245.836C256.57 247.312 257.189 248.732 257.959 250.072C258.311 250.226 258.689 250.308 259.073 250.312C259.457 250.317 259.838 250.244 260.193 250.098C260.547 249.953 260.869 249.737 261.138 249.464C261.408 249.192 261.619 248.867 261.759 248.511C261.953 248.061 262.029 247.569 261.98 247.082C261.931 246.595 261.759 246.128 261.48 245.725C261.48 245.725 256.562 233.686 255.892 232.07C254.159 226.998 251.03 227.054 247.956 226.943C244.883 226.831 243.094 226.943 243.094 226.943C243.094 226.943 241.194 226.943 237.171 226.943C233.147 226.943 231.582 229.116 227.447 240.486C226.832 242.102 224.708 247.397 224.653 247.731L224.82 247.508Z" fill="white"/>
<path d="M74.3255 167.197C74.3366 165.266 73.7724 163.375 72.7046 161.764C71.6367 160.153 70.1133 158.894 68.3273 158.147C66.5413 157.4 64.5732 157.199 62.6724 157.569C60.7717 157.939 59.0239 158.864 57.6506 160.225C56.2773 161.587 55.3403 163.325 54.9584 165.218C54.5765 167.112 54.7669 169.076 55.5054 170.861C56.2439 172.647 57.4974 174.173 59.1068 175.247C60.7163 176.321 62.6093 176.895 64.5459 176.895C67.1299 176.895 69.609 175.875 71.4414 174.058C73.2739 172.241 74.3108 169.775 74.3255 167.197Z" fill="white"/>
<path d="M53.1455 180.462C49.9043 180.741 46.8869 182.226 44.6922 184.621C42.4976 187.017 41.2861 190.147 41.2982 193.392V220.366C41.2982 221.371 41.6986 222.335 42.4112 223.046C43.1239 223.757 44.0904 224.156 45.0983 224.156C46.1061 224.156 47.0727 223.757 47.7854 223.046C48.498 222.335 48.8984 221.371 48.8984 220.366V197.182C48.8984 196.29 48.8984 195.119 50.7425 195.119C52.5867 195.119 52.0838 196.29 52.1396 197.014V266.513C51.9331 267.335 51.9172 268.193 52.093 269.021C52.2689 269.85 52.6319 270.628 53.1546 271.296C53.6772 271.964 54.3456 272.504 55.109 272.876C55.8725 273.248 56.7108 273.441 57.5604 273.441C58.4099 273.441 59.2482 273.248 60.0117 272.876C60.7751 272.504 61.4435 271.964 61.9662 271.296C62.4888 270.628 62.8518 269.85 63.0277 269.021C63.2035 268.193 63.1876 267.335 62.9811 266.513V226.497C62.9652 226.285 62.9943 226.073 63.0665 225.873C63.1387 225.674 63.2525 225.492 63.4002 225.339C63.548 225.186 63.7265 225.067 63.9239 224.988C64.1213 224.909 64.3333 224.872 64.5458 224.881C64.7584 224.872 64.9703 224.909 65.1678 224.988C65.3652 225.067 65.5437 225.186 65.6914 225.339C65.8392 225.492 65.9529 225.674 66.0252 225.873C66.0974 226.073 66.1265 226.285 66.1106 226.497V266.513C65.9041 267.335 65.8881 268.193 66.064 269.021C66.2399 269.85 66.6029 270.628 67.1255 271.296C67.6481 271.964 68.3165 272.504 69.08 272.876C69.8434 273.248 70.6818 273.441 71.5313 273.441C72.3808 273.441 73.2192 273.248 73.9826 272.876C74.7461 272.504 75.4145 271.964 75.9371 271.296C76.4597 270.628 76.8228 269.85 76.9986 269.021C77.1745 268.193 77.1586 267.335 76.952 266.513V197.014C76.952 196.29 77.2314 195.119 78.3491 195.119C79.4668 195.119 80.1933 196.29 80.1933 197.182V220.366C80.3056 221.285 80.7513 222.131 81.4462 222.745C82.1412 223.359 83.0372 223.697 83.9654 223.697C84.8936 223.697 85.7897 223.359 86.4846 222.745C87.1796 222.131 87.6252 221.285 87.7376 220.366V193.392C87.7509 190.156 86.5472 187.033 84.3641 184.639C82.1811 182.245 79.1774 180.755 75.9461 180.462H53.1455Z" fill="white"/>
<path d="M35.9332 272.142H35.5979C35.3241 272.095 35.0625 271.994 34.8288 271.844C34.5951 271.695 34.394 271.5 34.2375 271.271C34.081 271.042 33.9724 270.784 33.9181 270.512C33.8638 270.241 33.8649 269.961 33.9214 269.689L42.5834 223.877C42.63 223.612 42.7299 223.358 42.8772 223.131C43.0244 222.905 43.2159 222.711 43.4402 222.56C43.6646 222.409 43.9172 222.305 44.1828 222.253C44.4485 222.202 44.7218 222.205 44.9864 222.261C45.2579 222.301 45.5185 222.396 45.7519 222.54C45.9853 222.684 46.1868 222.874 46.3438 223.098C46.5008 223.323 46.6102 223.577 46.665 223.845C46.7199 224.113 46.7192 224.39 46.6629 224.658L38.0009 270.47C37.9089 270.947 37.651 271.376 37.2728 271.682C36.8945 271.988 36.4201 272.15 35.9332 272.142Z" fill="white"/>
<path d="M92.3759 219.642C92.0517 219.141 91.5749 218.756 91.0155 218.546C90.4561 218.335 89.8436 218.309 89.2682 218.471C88.6928 218.633 88.1847 218.975 87.8187 219.447C87.4526 219.918 87.2479 220.495 87.2346 221.091C87.2758 221.51 87.3697 221.921 87.514 222.317L95.0025 236.361C95.2963 236.933 95.4676 237.559 95.5054 238.201V268.24C95.5054 269.246 95.9058 270.21 96.6184 270.92C97.3311 271.631 98.2977 272.03 99.3055 272.03C100.313 272.03 101.28 271.631 101.993 270.92C102.705 270.21 103.106 269.246 103.106 268.24V256.369C103.106 256.369 103.106 254.697 104.223 254.697C105.341 254.697 105.397 256.369 105.397 256.369V268.24C105.332 268.773 105.381 269.313 105.541 269.825C105.7 270.337 105.967 270.81 106.324 271.212C106.681 271.613 107.118 271.935 107.609 272.155C108.099 272.375 108.631 272.489 109.169 272.489C109.707 272.489 110.239 272.375 110.729 272.155C111.219 271.935 111.657 271.613 112.014 271.212C112.371 270.81 112.638 270.337 112.797 269.825C112.957 269.313 113.006 268.773 112.941 268.24V238.201C112.979 237.559 113.15 236.933 113.444 236.361L120.597 223.432C120.97 222.682 121.27 221.898 121.491 221.091C121.497 220.478 121.301 219.88 120.931 219.39C120.562 218.9 120.042 218.545 119.45 218.38C118.858 218.215 118.228 218.249 117.657 218.477C117.087 218.705 116.608 219.115 116.294 219.642C116.294 219.642 112.438 226.162 111.265 227.389C110.974 227.728 110.615 228.003 110.21 228.196C109.806 228.388 109.365 228.492 108.918 228.503H99.8085C99.353 228.49 98.905 228.384 98.4919 228.193C98.0787 228.001 97.709 227.727 97.4055 227.389C96.2319 226.162 92.6554 219.809 92.4318 219.642H92.3759Z" fill="white"/>
<path d="M104.447 223.654C105.972 223.654 107.463 223.203 108.731 222.358C110 221.513 110.988 220.312 111.572 218.907C112.155 217.501 112.308 215.955 112.011 214.463C111.713 212.971 110.979 211.601 109.9 210.525C108.821 209.449 107.447 208.717 105.951 208.42C104.455 208.123 102.905 208.276 101.496 208.858C100.086 209.44 98.882 210.426 98.0346 211.69C97.1872 212.955 96.7349 214.442 96.7349 215.963C96.7349 218.003 97.5474 219.959 98.9937 221.402C100.44 222.844 102.401 223.654 104.447 223.654Z" fill="white"/>
<path d="M104.447 234.411L113.165 240.764L117.3 255.924H104.447H91.6494L95.7848 240.764L104.447 234.411Z" fill="white"/>
</g>
<defs>
<clipPath id="clip0_48_74">
<rect width="350" height="350" fill="white"/>
</clipPath>
</defs>
</svg>
