<svg width="350" height="350" viewBox="0 0 350 350" fill="none" xmlns="http://www.w3.org/2000/svg">
<g clip-path="url(#clip0_50_119)">
<path d="M350 0H0V350H350V0Z" fill="#D19F2A"/>
<path d="M28.2579 88.2206L44.4214 63.2408L45.2126 61.7714C46.942 59.2571 48.4725 56.6117 49.7903 53.8592C50.8845 51.7041 51.4648 49.3248 51.4858 46.9078C51.5792 45.1808 51.1456 43.4661 50.2424 41.991C49.8216 41.4549 49.2792 41.0267 48.6601 40.7417C48.0409 40.4567 47.3629 40.3232 46.682 40.3521C45.7139 40.2619 44.7409 40.4608 43.8859 40.9235C43.0308 41.3862 42.3321 42.092 41.8782 42.9518C40.913 45.2565 40.4691 47.746 40.5783 50.2423V53.2376H28.2579V49.9597C27.9678 44.6449 29.5253 39.3933 32.6661 35.0961C34.3884 33.1581 36.5321 31.6409 38.9325 30.6612C41.3329 29.6814 43.926 29.2652 46.5124 29.4446C48.8945 29.2737 51.2864 29.5916 53.5412 30.3788C55.7959 31.166 57.8659 32.4059 59.624 34.0223C61.2052 35.7788 62.4196 37.8333 63.196 40.0655C63.9724 42.2976 64.2951 44.6623 64.1452 47.0209C64.1609 49.445 63.7594 51.8538 62.9584 54.1418C62.2945 56.257 61.384 58.2866 60.2457 60.189C59.2284 61.9409 57.5894 64.4276 55.3853 67.7055L42.4998 87.1468H62.1672V97.1501H28.2579V88.2206Z" fill="white"/>
<path d="M91.2725 52.8984L98.1108 33.9092H91.6116V30.4053H102.915V32.7789L95.6807 52.7289H102.802V55.8937H91.4985L91.2725 52.8984Z" fill="white"/>
<path d="M105.345 30.4053H116.026V33.9092H109.979V41.2562H114.783V44.4776H109.979V52.9549H116.083V56.1198H105.345V30.4053Z" fill="white"/>
<path d="M118.683 30.4053H124.786C126.913 30.2525 129.033 30.7875 130.833 31.9312C131.545 32.5961 132.094 33.4162 132.437 34.3278C132.78 35.2395 132.908 36.218 132.811 37.1872C132.869 38.5445 132.618 39.8971 132.077 41.1433C131.844 41.6573 131.508 42.1182 131.09 42.4973C130.672 42.8764 130.181 43.1657 129.647 43.3474L133.207 55.8938H128.573L125.521 44.1951H123.317V55.8938H118.683V30.4053ZM124.786 41.3128C125.294 41.3669 125.808 41.3143 126.295 41.1587C126.781 41.003 127.23 40.7475 127.612 40.4086C128.234 39.541 128.516 38.4749 128.403 37.4132C128.499 36.3786 128.24 35.3423 127.669 34.4744C127.328 34.126 126.91 33.8626 126.448 33.7055C125.987 33.5485 125.495 33.5021 125.012 33.5702H123.317V41.3128H124.786Z" fill="white"/>
<path d="M137.445 54.1418C136.198 52.3188 135.601 50.1289 135.75 47.9251V38.3174C135.59 36.1479 136.19 33.9902 137.445 32.2138C139.026 30.8791 141.028 30.1469 143.097 30.1469C145.166 30.1469 147.168 30.8791 148.748 32.2138C150.004 33.9902 150.604 36.1479 150.444 38.3174V47.9251C150.577 50.1179 149.959 52.2907 148.692 54.0852C147.989 54.8668 147.109 55.4693 146.126 55.8428C145.143 56.2163 144.085 56.35 143.04 56.2328C142.011 56.318 140.976 56.1747 140.009 55.8132C139.042 55.4517 138.166 54.881 137.445 54.1418ZM145.245 51.8246C145.634 50.9359 145.809 49.9677 145.753 48.9989V37.2437C145.82 36.2924 145.645 35.3398 145.245 34.4744C145.028 34.1273 144.715 33.8513 144.343 33.6805C143.971 33.5097 143.558 33.4517 143.153 33.5136C142.789 33.5158 142.43 33.6039 142.106 33.7709C141.782 33.9378 141.502 34.1788 141.288 34.4744C140.903 35.3446 140.729 36.2934 140.78 37.2437V48.9989C140.724 49.9677 140.899 50.9359 141.288 51.8246C141.517 52.1768 141.838 52.4585 142.218 52.6382C142.597 52.8179 143.019 52.8884 143.436 52.8419C143.798 52.8338 144.152 52.7368 144.467 52.5594C144.783 52.382 145.05 52.1296 145.245 51.8246Z" fill="white"/>
<path d="M92.1768 72.0571H96.811V82.7385H102.01V72.0571H106.645V97.6021H102.01V86.299H96.811V97.6021H92.1768V72.0571Z" fill="white"/>
<path d="M113.031 96.9239C111.999 96.2315 111.225 95.2185 110.827 94.0416C110.379 92.5193 110.17 90.9371 110.205 89.3509V72.0571H114.783V89.8595C114.732 91.012 114.904 92.1636 115.291 93.2504C115.452 93.661 115.744 94.0063 116.123 94.2316C116.502 94.4568 116.945 94.5491 117.382 94.4937C117.834 94.5466 118.291 94.4546 118.687 94.2312C119.083 94.0078 119.398 93.6643 119.587 93.2504C119.974 92.1636 120.146 91.012 120.095 89.8595V72.0571H124.334V89.3509C124.393 90.9383 124.183 92.5243 123.712 94.0416C123.352 95.2383 122.569 96.2628 121.508 96.9239C120.187 97.6772 118.675 98.0306 117.156 97.9412C115.715 97.9734 114.292 97.6224 113.031 96.9239Z" fill="white"/>
<path d="M128.064 72.0571H131.342L137.558 86.6381V72.0571H141.288V97.6021H138.18L131.963 82.3429V97.6021H127.951L128.064 72.0571Z" fill="white"/>
<path d="M146.262 95.6806C145.091 93.7235 144.539 91.4578 144.68 89.1813V80.591C144.545 78.2897 145.117 76.0022 146.319 74.0352C147.001 73.2218 147.875 72.5898 148.861 72.1954C149.847 71.801 150.915 71.6564 151.97 71.7746C152.991 71.6517 154.027 71.755 155.004 72.0774C155.98 72.3997 156.874 72.933 157.622 73.6396C158.825 75.2673 159.407 77.272 159.261 79.2911V80.591H154.796V79.1216C154.871 78.3888 154.871 77.6503 154.796 76.9175C154.73 76.4049 154.466 75.9383 154.061 75.6176C153.557 75.2893 152.968 75.1145 152.366 75.1145C151.764 75.1145 151.175 75.2893 150.67 75.6176C150.305 76.0371 150.052 76.5428 149.936 77.087C149.866 77.8579 149.866 78.6333 149.936 79.4042V90.4247C149.889 91.5267 150.082 92.6257 150.501 93.6461C150.726 94.0181 151.054 94.3172 151.445 94.5077C151.835 94.6982 152.273 94.7718 152.705 94.7198C153.142 94.7593 153.58 94.674 153.971 94.4739C154.361 94.2739 154.686 93.9672 154.909 93.5895C155.38 92.5239 155.593 91.3621 155.531 90.1986V87.7684H152.761V84.7731H159.713V97.7152H156.661L156.378 95.2285C156.052 96.1043 155.453 96.852 154.67 97.3609C153.886 97.8698 152.959 98.1129 152.027 98.0543C150.939 98.2675 149.812 98.1562 148.787 97.7342C147.762 97.3121 146.884 96.598 146.262 95.6806Z" fill="white"/>
<path d="M162.539 72.0571H173.277V75.335H167.173V82.682H171.977V85.9599H167.173V94.3807H173.333V97.6021H162.539V72.0571Z" fill="white"/>
<path d="M175.876 72.0571H182.036C184.146 71.9003 186.249 72.4361 188.027 73.5831C188.749 74.2397 189.306 75.0587 189.65 75.9725C189.993 76.8863 190.115 77.8688 190.005 78.839C190.055 80.1904 189.824 81.5375 189.327 82.7951C188.822 83.8298 187.928 84.6223 186.84 84.9992L190.4 97.6021H185.766L182.714 85.9034H180.51V97.6021H175.876V72.0571ZM181.98 83.0211C183.003 83.0977 184.016 82.7735 184.805 82.1169C185.443 81.2548 185.744 80.1899 185.653 79.1216C185.728 78.0887 185.47 77.0591 184.918 76.1828C184.57 75.8448 184.151 75.5884 183.692 75.4321C183.233 75.2757 182.744 75.2232 182.262 75.2785H180.51V83.0211H181.98Z" fill="white"/>
<path d="M139.424 297.949V303.149C139.466 303.739 139.727 304.292 140.155 304.7C140.584 305.107 141.149 305.34 141.741 305.353H199.952C200.556 305.338 201.131 305.087 201.554 304.654C201.976 304.222 202.212 303.641 202.212 303.036V297.384C217.961 292.6 232.105 283.609 243.119 271.379C254.134 259.149 261.602 244.144 264.718 227.983C264.745 227.872 264.745 227.756 264.718 227.644C264.718 227.335 264.657 227.029 264.537 226.744C264.417 226.459 264.241 226.201 264.02 225.985C263.799 225.769 263.536 225.6 263.249 225.487C262.961 225.374 262.654 225.319 262.345 225.327H77.5958C77.2868 225.319 76.9794 225.374 76.6917 225.487C76.404 225.6 76.1419 225.769 75.9207 225.985C75.6995 226.201 75.5238 226.459 75.4038 226.744C75.2838 227.029 75.2221 227.335 75.2222 227.644V228.718C78.5066 245.052 86.2402 260.162 97.5694 272.379C108.899 284.595 123.383 293.444 139.424 297.949Z" fill="white"/>
<path d="M202.156 146.262C201.421 147.336 183.562 173.05 202.551 193.848C205.85 196.697 208.17 200.51 209.184 204.749C210.198 208.988 209.855 213.438 208.203 217.471H220.41C221.846 212.215 221.815 206.665 220.321 201.425C218.827 196.184 215.926 191.453 211.933 187.744C197.917 172.429 211.933 151.687 212.329 151.348C212.719 150.793 212.979 150.158 213.09 149.488C213.202 148.819 213.161 148.133 212.971 147.482C212.781 146.83 212.447 146.23 211.993 145.725C211.539 145.221 210.978 144.825 210.351 144.566C209.024 143.873 207.498 143.663 206.033 143.972C204.569 144.282 203.258 145.091 202.325 146.262" fill="white"/>
<path d="M171.242 217.471H183.449C184.906 212.234 184.908 206.699 183.454 201.461C182 196.223 179.146 191.481 175.198 187.744C161.182 172.429 175.198 151.687 175.537 151.348C175.927 150.793 176.188 150.158 176.299 149.488C176.41 148.819 176.369 148.133 176.179 147.482C175.989 146.83 175.655 146.23 175.201 145.725C174.748 145.221 174.186 144.825 173.559 144.566C172.233 143.873 170.706 143.663 169.242 143.972C167.777 144.282 166.466 145.091 165.534 146.262C164.799 147.336 146.94 173.05 165.929 193.848C169.235 196.692 171.56 200.505 172.575 204.746C173.59 208.987 173.242 213.439 171.581 217.471" fill="white"/>
<path d="M128.629 146.262C127.838 147.336 109.979 173.05 129.025 193.848C132.323 196.697 134.644 200.51 135.658 204.749C136.672 208.988 136.328 213.438 134.676 217.471H146.94C148.37 212.219 148.342 206.676 146.858 201.438C145.375 196.201 142.492 191.466 138.519 187.744C124.504 172.429 138.519 151.687 138.915 151.348C139.293 150.787 139.542 150.148 139.644 149.478C139.746 148.809 139.697 148.125 139.503 147.476C139.308 146.827 138.972 146.23 138.518 145.727C138.065 145.223 137.506 144.827 136.88 144.566C135.568 143.854 134.044 143.634 132.583 143.945C131.123 144.255 129.821 145.077 128.912 146.262" fill="white"/>
</g>
<defs>
<clipPath id="clip0_50_119">
<rect width="350" height="350" fill="white"/>
</clipPath>
</defs>
</svg>
