<svg width="350" height="350" viewBox="0 0 350 350" fill="none" xmlns="http://www.w3.org/2000/svg">
<g clip-path="url(#clip0_50_138)">
<path d="M350 0H0V350H350V0Z" fill="#2D9A47"/>
<path d="M31.9365 93.0394C28.8836 88.708 27.4073 83.4612 27.7537 78.1734V75.8559H40.4152V78.0604C40.2926 80.5709 40.7169 83.0781 41.6587 85.4085C42.0639 86.1449 42.6761 86.7462 43.4196 87.138C44.163 87.5298 45.0051 87.695 45.8415 87.613C46.6778 87.7015 47.5211 87.5324 48.2585 87.1283C48.996 86.7242 49.5924 86.1044 49.9678 85.352C50.7399 82.9838 51.047 80.4886 50.8722 78.0038C51.0293 75.2559 50.4847 72.5132 49.2895 70.0339C48.6654 69.1318 47.8138 68.4109 46.8211 67.9443C45.8283 67.4777 44.7298 67.2821 43.6371 67.3772C42.866 67.3106 42.0906 67.3106 41.3196 67.3772V57.9376H43.411C44.509 58.064 45.6214 57.9245 46.6543 57.5311C47.6872 57.1376 48.6104 56.5016 49.346 55.6766C50.5721 53.351 51.1019 50.7213 50.8722 48.1023C51.009 45.908 50.6012 43.7138 49.6852 41.7151C49.2477 41.0252 48.6357 40.4632 47.911 40.086C47.1864 39.7088 46.375 39.5298 45.5589 39.5671C44.752 39.477 43.937 39.641 43.2277 40.0361C42.5185 40.4313 41.9502 41.038 41.6022 41.7716C40.7444 43.8676 40.3399 46.1215 40.4152 48.385V51.4373H27.7537V47.8197C27.5916 45.3731 27.9179 42.9186 28.7136 40.5993C29.5094 38.2799 30.7586 36.1421 32.3887 34.3104C34.1416 32.659 36.2152 31.3854 38.4807 30.5687C40.7463 29.7519 43.1555 29.4094 45.5589 29.5623C50.4062 29.1908 55.2032 30.7559 58.8987 33.9147C60.5349 35.6988 61.7938 37.795 62.6 40.0776C63.4062 42.3601 63.743 44.782 63.5902 47.198C63.7167 50.5855 62.8735 53.9388 61.1597 56.8637C60.5579 58.1086 59.7126 59.2202 58.6737 60.1328C57.6349 61.0455 56.4236 61.7405 55.1116 62.177C60.764 64.2684 63.5902 69.5251 63.5902 77.8908C63.8832 83.2776 62.3715 88.6083 59.2944 93.0394C57.6232 94.9803 55.5204 96.5026 53.1548 97.4842C50.7891 98.4658 48.2263 98.8794 45.672 98.6918C43.1 98.8885 40.5178 98.4796 38.1325 97.498C35.7471 96.5163 33.625 94.9893 31.9365 93.0394Z" fill="white"/>
<path d="M93.2654 53.981C92.0941 52.0235 91.5423 49.7575 91.6827 47.4806V38.9454C91.536 36.6249 92.1084 34.3155 93.3219 32.3321C94.0227 31.5439 94.9004 30.9331 95.883 30.5499C96.8656 30.1667 97.925 30.022 98.9744 30.1276C99.9962 29.9925 101.035 30.0901 102.014 30.4131C102.993 30.7361 103.886 31.2762 104.627 31.9929C105.845 33.614 106.428 35.6243 106.266 37.6454V39.002H101.744V37.4193C101.814 36.6861 101.814 35.948 101.744 35.2148C101.68 34.929 101.549 34.6624 101.362 34.4365C101.176 34.2106 100.939 34.0319 100.67 33.9148C100.203 33.5565 99.6153 33.3942 99.0309 33.4626C98.7242 33.4295 98.414 33.4629 98.1214 33.5604C97.8288 33.6579 97.5606 33.8174 97.3351 34.0278C96.9423 34.4364 96.6687 34.9446 96.5438 35.4974C96.4742 36.2495 96.4742 37.0064 96.5438 37.7584V48.4981C96.4841 49.625 96.6974 50.7497 97.1656 51.7765C97.3866 52.1392 97.7053 52.4323 98.0852 52.6222C98.4651 52.8122 98.8908 52.8913 99.3135 52.8505C99.757 52.8918 100.203 52.8011 100.595 52.59C100.987 52.3788 101.308 52.0565 101.518 51.6635C101.989 50.5976 102.202 49.4357 102.14 48.272V45.898H99.4266V42.9587H106.323V55.9028H103.327L102.988 53.4157C102.68 54.2924 102.093 55.0439 101.317 55.5545C100.541 56.0652 99.6185 56.3067 98.6917 56.2419C97.6688 56.3687 96.6305 56.2269 95.679 55.8305C94.7275 55.434 93.8957 54.7966 93.2654 53.981Z" fill="white"/>
<path d="M110.845 54.1505C109.597 52.3272 109 50.137 109.149 47.9328V38.3236C108.999 36.137 109.597 33.9645 110.845 32.1624C111.579 31.4288 112.467 30.866 113.444 30.5143C114.421 30.1626 115.463 30.0306 116.497 30.1276C117.532 30.0184 118.578 30.1447 119.556 30.4971C120.535 30.8495 121.422 31.4188 122.149 32.1624C123.397 33.9645 123.995 36.137 123.845 38.3236V47.9328C123.995 50.1194 123.397 52.2919 122.149 54.094C121.446 54.8756 120.566 55.4782 119.583 55.8518C118.6 56.2253 117.542 56.3591 116.497 56.2419C115.458 56.3439 114.409 56.2087 113.43 55.8464C112.451 55.4841 111.567 54.9042 110.845 54.1505ZM118.701 51.833C119.131 50.9556 119.326 49.9818 119.267 49.0068V37.2496C119.316 36.2934 119.121 35.3404 118.701 34.4799C118.48 34.1379 118.166 33.8659 117.795 33.6957C117.425 33.5256 117.014 33.4643 116.61 33.519C116.199 33.4729 115.783 33.5376 115.405 33.7066C115.027 33.8756 114.702 34.1426 114.462 34.4799C114.077 35.3503 113.903 36.2992 113.953 37.2496V49.0068C113.898 49.9757 114.072 50.9441 114.462 51.833C114.69 52.1852 115.012 52.467 115.392 52.6467C115.771 52.8264 116.193 52.8969 116.61 52.8504C117.021 52.9148 117.441 52.8518 117.815 52.6699C118.189 52.488 118.499 52.1959 118.701 51.833Z" fill="white"/>
<path d="M128.424 54.1505C127.176 52.3272 126.579 50.137 126.728 47.9328V38.3236C126.579 36.137 127.176 33.9645 128.424 32.1624C129.159 31.4288 130.046 30.866 131.023 30.5143C132 30.1626 133.043 30.0306 134.076 30.1276C135.111 30.0184 136.157 30.1447 137.136 30.4971C138.115 30.8495 139.001 31.4188 139.729 32.1624C140.936 33.9788 141.494 36.1501 141.311 38.3236V47.9328C141.461 50.1194 140.863 52.2919 139.616 54.094C138.912 54.8756 138.032 55.4782 137.049 55.8518C136.066 56.2253 135.008 56.3591 133.963 56.2419C132.943 56.3265 131.916 56.1827 130.958 55.821C130 55.4592 129.134 54.8886 128.424 54.1505ZM136.168 51.833C136.597 50.9556 136.792 49.9818 136.733 49.0068V37.2496C136.8 36.2983 136.625 35.3455 136.224 34.4799C136.003 34.1379 135.688 33.8659 135.318 33.6957C134.948 33.5256 134.537 33.4643 134.133 33.519C133.722 33.4729 133.306 33.5376 132.928 33.7066C132.55 33.8756 132.225 34.1426 131.985 34.4799C131.6 35.3503 131.425 36.2992 131.476 37.2496V49.0068C131.421 49.9757 131.595 50.9441 131.985 51.833C132.213 52.1852 132.535 52.467 132.914 52.6467C133.294 52.8264 133.716 52.8969 134.133 52.8504C134.535 52.9028 134.943 52.8339 135.306 52.6526C135.668 52.4714 135.968 52.186 136.168 51.833Z" fill="white"/>
<path d="M144.703 30.4102H150.751C152.408 30.3518 154.06 30.6207 155.612 31.2015C156.815 31.7291 157.767 32.7013 158.269 33.9147C158.82 35.3561 159.07 36.895 159.004 38.4367V47.6502C159.064 49.2468 158.814 50.8399 158.269 52.3417C157.805 53.5096 156.917 54.4587 155.782 54.9984C154.315 55.6786 152.704 55.9892 151.09 55.9027H144.703V30.4102ZM150.808 52.6808C151.603 52.747 152.398 52.5483 153.069 52.1156C153.485 51.8101 153.784 51.3712 153.916 50.8721C153.993 49.9127 153.993 48.9487 153.916 47.9893V38.041C153.993 37.176 153.993 36.3059 153.916 35.4409C153.88 35.1309 153.775 34.833 153.609 34.5689C153.443 34.3048 153.219 34.0813 152.955 33.9147C152.233 33.7229 151.473 33.7229 150.751 33.9147H149.338V52.6808H150.808Z" fill="white"/>
<path d="M169.574 30.4102H174.209V41.0368H179.409V30.4102H184.044V55.9027H179.409V44.5978H174.209V55.9027H169.574V30.4102Z" fill="white"/>
<path d="M187.944 30.4102H198.627V33.9147H192.523V41.2629H197.327V44.4848H192.523V52.9635H198.684V56.1288H187.944V30.4102Z" fill="white"/>
<path d="M205.071 30.4102H210.045L215.132 55.9027H210.836L209.819 50.2503H205.354L204.336 55.9027H199.927L205.071 30.4102ZM209.31 47.3675L207.558 36.6279L205.862 47.3675H209.31Z" fill="white"/>
<path d="M217.506 30.4102H222.141V53.02H228.359V56.1853H217.506V30.4102Z" fill="white"/>
<path d="M232.485 33.9148H228.246V30.5233H241.303V33.9148H237.403V55.9028H232.768L232.485 33.9148Z" fill="white"/>
<path d="M243.056 30.4102H247.691V41.0368H252.891V30.4102H257.526V55.9027H252.891V44.5978H247.691V55.9027H243.056V30.4102Z" fill="white"/>
<path d="M96.0916 72.0688H101.066L106.153 97.6179H101.744L100.727 91.6829H96.0916L95.0177 97.6179H90.6653L96.0916 72.0688ZM100.331 88.7436L98.6352 78.0039L96.883 88.7436H100.331Z" fill="white"/>
<path d="M108.414 72.0688H111.636L117.854 86.6522V72.0688H121.697V97.6179H118.702L112.484 82.3563V97.6179H108.527L108.414 72.0688Z" fill="white"/>
<path d="M125.428 72.0688H131.42C133.083 71.99 134.743 72.2796 136.281 72.9167C137.408 73.4102 138.3 74.3222 138.768 75.4603C139.326 76.9193 139.577 78.4782 139.503 80.0388V89.3088C139.567 90.9057 139.317 92.4997 138.768 94.0003C138.311 95.1682 137.448 96.1317 136.337 96.7135C134.859 97.3562 133.257 97.6649 131.646 97.6179H125.428V72.0688ZM131.476 94.3395C132.264 94.3994 133.051 94.2222 133.737 93.8308C134.199 93.4446 134.501 92.9008 134.585 92.3046C134.696 91.3658 134.696 90.4172 134.585 89.4784V79.6996C134.693 78.8363 134.693 77.9629 134.585 77.0995C134.522 76.8286 134.404 76.5735 134.239 76.3499C134.074 76.1263 133.865 75.939 133.624 75.7994C132.936 75.4775 132.176 75.3411 131.42 75.4038H130.006V94.3395H131.476Z" fill="white"/>
<path d="M149.394 72.0688H153.238L155.386 88.6305L158.269 72.1254H161.377L163.921 88.6305L166.013 72.0688H169.856L166.295 97.6179H162.508L159.682 80.6606L156.856 97.6179H152.955L149.394 72.0688Z" fill="white"/>
<path d="M172.626 72.0688H183.309V75.3473H177.261V82.6955H182.009V85.9174H177.261V94.396H183.366V97.6179H172.626V72.0688Z" fill="white"/>
<path d="M185.909 72.0688H190.544V94.396H196.762V97.6179H185.909V72.0688Z" fill="white"/>
<path d="M199.023 72.0688H203.488V94.396H209.706V97.6179H199.023V72.0688Z" fill="white"/>
<path d="M212.024 85.8043H219.598V88.7436H212.024V85.8043Z" fill="white"/>
<path d="M223.159 72.0688H229.49C231.485 71.9114 233.476 72.4289 235.142 73.5385C235.849 74.134 236.399 74.8937 236.744 75.751C237.088 76.6083 237.218 77.5371 237.121 78.4561C237.121 81.678 235.877 83.4868 233.446 84.1085C236.386 84.6738 237.855 86.7652 237.855 90.3828C237.953 91.3984 237.843 92.4233 237.532 93.395C237.221 94.3668 236.716 95.2651 236.047 96.0352C235.343 96.7067 234.507 97.2244 233.592 97.5553C232.677 97.8861 231.704 98.023 230.733 97.9571H223.159V72.0688ZM229.433 82.5259C229.924 82.578 230.42 82.5242 230.888 82.3682C231.356 82.2122 231.785 81.9576 232.146 81.6215C232.718 80.7535 232.977 79.7169 232.881 78.6822C232.952 78.1945 232.901 77.6969 232.734 77.2335C232.566 76.7701 232.287 76.3552 231.92 76.0255C230.954 75.4957 229.854 75.2599 228.755 75.3472H227.794V82.5259H229.433ZM229.433 94.3395C229.951 94.3983 230.475 94.3372 230.965 94.1607C231.455 93.9843 231.898 93.6973 232.259 93.322C232.864 92.3824 233.142 91.2701 233.051 90.1567C233.134 88.965 232.837 87.7777 232.203 86.7652C231.818 86.3871 231.356 86.0957 230.849 85.9104C230.342 85.7252 229.802 85.6505 229.264 85.6912H227.794V94.3395H229.433Z" fill="white"/>
<path d="M240.569 72.0688H251.252V75.3473H245.204V82.6955H250.008V85.9174H245.204V94.396H251.308V97.6179H240.569V72.0688Z" fill="white"/>
<path d="M254.021 72.0688H258.6V97.6179H254.021V72.0688Z" fill="white"/>
<path d="M262.387 72.0688H265.665L271.827 86.6522V72.0688H275.67V97.6179H272.618L266.344 82.3563V97.6179H262.387V72.0688Z" fill="white"/>
<path d="M280.588 95.696C279.417 93.7386 278.865 91.4725 279.005 89.1957V80.604C278.858 78.2834 279.431 75.974 280.644 73.9906C281.339 73.195 282.216 72.5791 283.2 72.1953C284.184 71.8115 285.247 71.6711 286.297 71.7862C287.319 71.6468 288.359 71.7424 289.339 72.0657C290.318 72.3889 291.211 72.9312 291.949 73.6515C293.187 75.2627 293.772 77.2807 293.589 79.3039V80.604H289.18V79.1343C289.249 78.4012 289.249 77.6631 289.18 76.9299C289.073 76.4477 288.816 76.012 288.445 75.6864C287.961 75.3639 287.386 75.2053 286.806 75.2342C286.172 75.2025 285.549 75.4036 285.053 75.7994C284.668 76.2057 284.412 76.7172 284.319 77.269C284.247 78.0399 284.247 78.8157 284.319 79.5865V90.4393C284.25 91.5428 284.444 92.6468 284.884 93.6612C285.109 94.0332 285.437 94.3325 285.828 94.5229C286.219 94.7134 286.656 94.7871 287.088 94.7351C287.524 94.7679 287.961 94.6797 288.35 94.4802C288.739 94.2808 289.065 93.9778 289.293 93.6046C289.76 92.5376 289.973 91.3766 289.914 90.2132V87.7826H287.145V84.7868H294.097V97.7309H291.045L290.762 95.2438C290.429 96.1146 289.828 96.8573 289.046 97.3651C288.264 97.873 287.341 98.1198 286.41 98.0701C285.315 98.2526 284.191 98.1273 283.162 97.7081C282.134 97.2889 281.243 96.5923 280.588 95.696Z" fill="white"/>
<path d="M293.136 218.976C293.322 216.723 293.044 214.455 292.32 212.314C291.597 210.172 290.442 208.201 288.927 206.522C287.413 204.843 285.571 203.492 283.514 202.553C281.458 201.613 279.231 201.104 276.97 201.058C272.166 201.058 266.4 206.315 263.235 209.537C260.069 206.315 254.643 201.058 249.839 201.058C247.581 201.137 245.363 201.666 243.313 202.615C241.263 203.563 239.423 204.911 237.901 206.58C236.379 208.249 235.207 210.206 234.451 212.334C233.696 214.463 233.374 216.721 233.503 218.976C233.487 223.698 235.312 228.24 238.59 231.638L263.235 256.339L288.275 231.751C291.494 228.286 293.237 223.704 293.136 218.976Z" fill="white"/>
<path d="M188.17 296.641C187.248 296.589 186.37 296.226 185.682 295.609C184.994 294.993 184.536 294.161 184.383 293.249L171.665 220.446L152.616 255.491C152.222 256.215 151.615 256.801 150.877 257.168C150.138 257.535 149.305 257.665 148.489 257.542C147.674 257.418 146.917 257.047 146.32 256.478C145.723 255.908 145.317 255.169 145.155 254.36L137.072 197.836L122.319 230.903C122.01 231.622 121.498 232.235 120.845 232.667C120.193 233.099 119.428 233.331 118.645 233.333H61.3856C60.3961 233.216 59.484 232.74 58.8221 231.995C58.1603 231.25 57.7947 230.288 57.7947 229.292C57.7947 228.295 58.1603 227.334 58.8221 226.589C59.484 225.844 60.3961 225.368 61.3856 225.25H116.045L135.659 181.783C136.011 180.968 136.624 180.292 137.402 179.863C138.179 179.433 139.077 179.273 139.955 179.409C140.825 179.534 141.631 179.938 142.252 180.559C142.874 181.181 143.277 181.987 143.403 182.857L151.712 240.851L170.365 206.202C170.772 205.461 171.397 204.863 172.155 204.489C172.914 204.115 173.769 203.982 174.604 204.11C175.433 204.24 176.2 204.625 176.799 205.213C177.397 205.801 177.796 206.562 177.939 207.389L189.244 275.218L231.751 134.585C231.986 133.802 232.452 133.109 233.087 132.595C233.722 132.081 234.497 131.77 235.312 131.702C236.12 131.649 236.927 131.835 237.63 132.237C238.334 132.639 238.904 133.239 239.268 133.963L261.483 180.087C261.743 180.579 261.901 181.117 261.947 181.671C261.994 182.225 261.928 182.783 261.754 183.311C261.58 183.839 261.301 184.326 260.934 184.743C260.566 185.161 260.119 185.5 259.617 185.74C259.124 186.006 258.581 186.168 258.023 186.215C257.464 186.262 256.902 186.193 256.371 186.013C255.841 185.832 255.353 185.544 254.939 185.167C254.525 184.789 254.193 184.33 253.965 183.818L236.273 146.964L192.183 293.928C191.879 294.74 191.329 295.438 190.61 295.924C189.891 296.41 189.038 296.661 188.17 296.641Z" fill="white"/>
</g>
<defs>
<clipPath id="clip0_50_138">
<rect width="350" height="350" fill="white"/>
</clipPath>
</defs>
</svg>
