<svg width="350" height="350" viewBox="0 0 350 350" fill="none" xmlns="http://www.w3.org/2000/svg">
<g clip-path="url(#clip0_50_941)">
<path d="M350 0H0V350H350V0Z" fill="#C22033"/>
<path d="M46.8514 81.3823H26.7319V71.3226L44.1387 30.4619H58.3806V71.7182H65.0494V81.3823H58.3806V97.1501H47.0775L46.8514 81.3823ZM46.8514 71.7182V43.4605L36.7352 71.7182H46.8514Z" fill="white"/>
<path d="M102.011 59.0587C101.107 58.201 100.293 57.2543 99.5804 56.2329H99.0717C98.0335 56.3266 96.9874 56.1876 96.0097 55.8258C95.032 55.4641 94.1474 54.8888 93.4202 54.1418C92.1729 52.3188 91.5756 50.129 91.7247 47.9251V38.3175C91.5751 36.1313 92.173 33.9591 93.4202 32.1573C94.1593 31.4301 95.0473 30.8716 96.0229 30.5204C96.9985 30.1692 98.0386 30.0335 99.0717 30.1228C100.106 30.0218 101.149 30.152 102.127 30.5039C103.104 30.8557 103.991 31.4205 104.723 32.1573C105.97 33.9591 106.568 36.1313 106.419 38.3175V47.9251C106.419 51.8247 105.232 54.3679 102.858 55.4417C103.584 56.3871 104.44 57.2245 105.401 57.9284L104.554 60.9802C103.584 60.5188 102.719 59.8651 102.011 59.0587ZM101.163 51.8247C101.57 50.94 101.763 49.9721 101.728 48.9989V37.2437C101.763 36.2888 101.569 35.3393 101.163 34.4745C100.898 34.1738 100.571 33.933 100.206 33.768C99.8407 33.6031 99.4444 33.5178 99.0435 33.5178C98.6425 33.5178 98.2462 33.6031 97.8808 33.768C97.5154 33.933 97.1893 34.1738 96.9241 34.4745C96.5237 35.3399 96.3487 36.2925 96.4155 37.2437V48.9989C96.3601 49.9678 96.5344 50.936 96.9241 51.8247C97.1524 52.1769 97.4742 52.4586 97.8535 52.6383C98.2328 52.818 98.6546 52.8885 99.0717 52.842C99.4811 52.8911 99.896 52.8212 100.267 52.6408C100.638 52.4605 100.949 52.1771 101.163 51.8247Z" fill="white"/>
<path d="M112.352 55.2155C111.285 54.5888 110.496 53.5781 110.148 52.3898C109.702 50.848 109.492 49.2473 109.527 47.6425V30.6878H114.048V48.2076C113.997 49.3602 114.17 50.5117 114.557 51.5986C114.786 51.9604 115.103 52.2583 115.479 52.4648C115.854 52.6712 116.276 52.7795 116.704 52.7795C117.133 52.7795 117.554 52.6712 117.93 52.4648C118.305 52.2583 118.622 51.9604 118.852 51.5986C119.239 50.5117 119.411 49.3602 119.36 48.2076V30.4053H123.882V47.6425C123.917 49.2287 123.707 50.8109 123.26 52.3333C122.891 53.5252 122.109 54.5469 121.056 55.2155C119.702 55.8834 118.213 56.2308 116.704 56.2308C115.195 56.2308 113.706 55.8834 112.352 55.2155Z" fill="white"/>
<path d="M131.172 30.4053H136.146L141.289 55.8937H136.937L135.92 50.2422H131.511L130.438 55.8937H126.086L131.172 30.4053ZM135.467 47.3599L133.716 36.622L131.964 47.3599H135.467Z" fill="white"/>
<path d="M143.662 30.4053H148.296V53.0114H154.513V56.1763H143.662V30.4053Z" fill="white"/>
<path d="M156.887 30.4053H161.464V55.8937H156.887V30.4053Z" fill="white"/>
<path d="M167.738 33.9092H163.499V30.5183H176.554V33.9092H172.372V55.8937H167.738V33.9092Z" fill="white"/>
<path d="M182.036 46.1731L176.837 30.4053H181.189L184.353 40.5215L187.349 30.4053H191.587L186.501 46.1731V55.8937H182.093L182.036 46.1731Z" fill="white"/>
<path d="M92.1201 72.0571H102.802V75.335H96.7544V82.682H101.728V85.9034H96.9804V94.3807H102.858V97.6021H92.1201V72.0571Z" fill="white"/>
<path d="M105.401 72.0571H111.449C113.111 71.9783 114.771 72.2678 116.309 72.9048C117.411 73.4339 118.291 74.3343 118.796 75.448C119.354 76.9068 119.604 78.4655 119.53 80.0258V89.2943C119.595 90.8909 119.345 92.4846 118.796 93.9851C118.321 95.1594 117.438 96.1228 116.309 96.6978C114.834 97.3514 113.23 97.6606 111.618 97.6021H105.401V72.0571ZM111.505 94.3242C112.292 94.3773 113.077 94.2006 113.766 93.8155C114.227 93.4294 114.53 92.8857 114.613 92.2896C114.69 91.3493 114.69 90.4042 114.613 89.4638V79.6867C114.688 78.8217 114.688 77.9519 114.613 77.087C114.464 76.5501 114.122 76.0872 113.653 75.7871C112.965 75.4652 112.205 75.3288 111.449 75.3915H110.036V94.3242H111.505Z" fill="white"/>
<path d="M125.464 96.9239C124.404 96.2628 123.62 95.2383 123.26 94.0416C122.79 92.5243 122.58 90.9383 122.639 89.3509V72.0571H127.16V89.8595C127.109 91.012 127.281 92.1636 127.668 93.2504C127.898 93.6122 128.215 93.9102 128.591 94.1166C128.966 94.3231 129.388 94.4314 129.816 94.4314C130.245 94.4314 130.666 94.3231 131.042 94.1166C131.417 93.9102 131.734 93.6122 131.964 93.2504C132.351 92.1636 132.523 91.012 132.472 89.8595V72.0571H136.994V89.3509C137.024 90.9369 136.815 92.5184 136.372 94.0416C135.974 95.2185 135.199 96.2315 134.168 96.9239C132.841 97.6624 131.333 98.0148 129.816 97.9412C128.298 98.0306 126.786 97.6772 125.464 96.9239Z" fill="white"/>
<path d="M141.741 95.6805C140.501 93.8328 139.905 91.6279 140.045 89.4073V80.3083C139.901 78.0775 140.475 75.859 141.684 73.9786C142.385 73.1906 143.262 72.5799 144.245 72.1968C145.227 71.8136 146.287 71.6689 147.336 71.7745C148.283 71.6458 149.247 71.7313 150.156 72.0247C151.066 72.3181 151.898 72.812 152.592 73.47C153.809 75.089 154.373 77.1059 154.174 79.1215V81.2691H149.766V79.1215C149.805 78.4062 149.805 77.6892 149.766 76.9739C149.738 76.708 149.657 76.4505 149.527 76.2169C149.397 75.9833 149.221 75.7784 149.01 75.6147C148.799 75.4509 148.557 75.3317 148.298 75.2642C148.039 75.1967 147.77 75.1823 147.505 75.2219C147.199 75.1889 146.889 75.2223 146.596 75.3198C146.303 75.4173 146.035 75.5767 145.81 75.7871C145.417 76.142 145.158 76.6207 145.075 77.1435C145.006 77.8954 145.006 78.6521 145.075 79.4041V90.7072C144.993 91.7747 145.187 92.8454 145.64 93.8155C145.853 94.1529 146.157 94.4226 146.517 94.5929C146.878 94.7631 147.279 94.8267 147.675 94.7763C148.249 94.8197 148.816 94.6372 149.257 94.2676C149.613 93.893 149.849 93.4207 149.935 92.9113C149.974 92.1771 149.974 91.4413 149.935 90.7072V88.39H154.4V90.4246C154.425 92.4545 153.79 94.4376 152.592 96.0761C151.099 97.4544 149.142 98.2197 147.11 98.2197C145.078 98.2197 143.121 97.4544 141.628 96.0761L141.741 95.6805Z" fill="white"/>
<path d="M161.125 72.0571H166.099L171.242 97.6021H166.89L165.929 91.668H161.465L160.447 97.6021H156.039L161.125 72.0571ZM165.421 88.7292L163.895 78.0478L162.143 88.7292H165.421Z" fill="white"/>
<path d="M175.198 75.5046H170.903V72.0571H184.014V75.5046H179.832V97.6021H175.198V75.5046Z" fill="white"/>
<path d="M186.105 72.0571H190.74V97.6021H186.105V72.0571Z" fill="white"/>
<path d="M195.769 96.0763C194.522 94.2533 193.925 92.0635 194.074 89.8596V80.0259C193.915 77.8388 194.514 75.6636 195.769 73.8658C196.497 73.1188 197.381 72.5435 198.359 72.1818C199.337 71.82 200.383 71.6809 201.421 71.7747C202.46 71.6727 203.508 71.8079 204.487 72.1701C205.466 72.5324 206.35 73.1121 207.072 73.8658C208.328 75.6636 208.927 77.8388 208.768 80.0259V89.5771C208.928 91.7904 208.308 93.9899 207.016 95.7938C206.304 96.5644 205.423 97.1595 204.443 97.5322C203.462 97.9048 202.408 98.0449 201.364 97.9413C200.352 98.0557 199.327 97.9481 198.361 97.6261C197.395 97.304 196.51 96.7751 195.769 96.0763ZM203.569 93.8157C203.952 92.9252 204.126 91.9584 204.077 90.9899V79.1217C204.133 78.1529 203.958 77.1846 203.569 76.2959C203.342 75.9587 203.027 75.6905 202.658 75.521C202.289 75.3514 201.881 75.2871 201.477 75.3352C201.066 75.289 200.65 75.3538 200.273 75.5227C199.895 75.6917 199.569 75.9586 199.33 76.2959C198.946 77.1865 198.772 78.1533 198.821 79.1217V90.8769C198.772 91.8454 198.946 92.8121 199.33 93.7027C199.569 94.04 199.895 94.3069 200.273 94.4759C200.65 94.6448 201.066 94.7096 201.477 94.6634C201.878 94.667 202.272 94.5643 202.619 94.3657C202.967 94.1671 203.255 93.8798 203.455 93.5331L203.569 93.8157Z" fill="white"/>
<path d="M212.103 72.0571H215.324L221.541 86.6381V72.0571H225.384V97.6021H222.275L216.059 82.3429V97.6021H212.103V72.0571Z" fill="white"/>
<path d="M155.078 187.688L92.0635 151.292V269.07L155.078 288.116V187.688Z" fill="white"/>
<path d="M162.03 187.97V288.172L225.497 269.07V151.292L162.03 187.97Z" fill="white"/>
<path d="M261.949 266.979H260.084L267.544 293.089L275.004 266.979H273.139H275.004V162.199H273.139H271.274H269.353H265.622H263.757H261.949H260.084V266.979H261.949Z" fill="white"/>
<path d="M239.06 156.378L232.279 151.009V272.291L162.199 294.898H158.978H158.356H155.079L85.3385 275.4V151.009L78.5566 156.378V280.204L154.796 301.284H158.356H158.978H162.539L232.844 278.96L239.06 277.095V156.378Z" fill="white"/>
<path d="M275.004 148.296C275.004 146.318 274.218 144.42 272.819 143.021C271.42 141.622 269.523 140.836 267.544 140.836C265.565 140.836 263.668 141.622 262.269 143.021C260.87 144.42 260.084 146.318 260.084 148.296V156.378H275.004V148.296Z" fill="white"/>
</g>
<defs>
<clipPath id="clip0_50_941">
<rect width="350" height="350" fill="white"/>
</clipPath>
</defs>
</svg>
