<svg width="350" height="350" viewBox="0 0 350 350" fill="none" xmlns="http://www.w3.org/2000/svg">
<g clip-path="url(#clip0_50_1111)">
<path d="M350 0H0V350H350V0Z" fill="#EF412A"/>
<path d="M35.0906 95.82C32.5643 94.2375 30.7104 91.779 29.8836 88.9151C28.817 85.2403 28.3395 81.4198 28.4686 77.5955H40.8069C40.6814 80.4287 41.0452 83.2624 41.8823 85.972C42.2254 86.7977 42.8206 87.494 43.5828 87.9616C44.3451 88.4291 45.2355 88.6439 46.1271 88.5755C46.8259 88.6278 47.5264 88.499 48.1609 88.2016C48.7955 87.9042 49.3426 87.4481 49.7494 86.8775C50.4807 85.5786 50.8883 84.1226 50.9379 82.6327C51.178 79.9041 51.2725 77.1647 51.2209 74.4261C51.3605 71.3504 50.9973 68.2725 50.1456 65.3138C49.8426 64.4046 49.2555 63.6168 48.4709 63.0665C47.6863 62.5163 46.7456 62.2327 45.7875 62.2576C42.7879 62.2576 40.9201 64.2951 40.1278 68.3135H29.1478L30.0534 30.3931H60.7859V41.373H40.524L39.6184 56.145C40.6815 55.0266 42.033 54.2235 43.5236 53.8245C45.4707 53.1531 47.5203 52.8274 49.5796 52.8623C51.6502 52.7723 53.7057 53.2525 55.5221 54.2505C57.3385 55.2486 58.846 56.7261 59.8804 58.5221C62.4174 63.2822 63.6109 68.6431 63.3328 74.0299C63.5372 78.3785 63.1757 82.7353 62.2575 86.9907C61.382 90.3162 59.3821 93.236 56.5977 95.254C53.259 97.4758 49.279 98.5305 45.2782 98.2537C41.7217 98.409 38.1928 97.566 35.0906 95.82Z" fill="white"/>
<path d="M93.2731 53.9941C92.1002 52.0341 91.5478 49.7651 91.6883 47.4853V38.9391C91.5414 36.6155 92.1146 34.3031 93.3297 32.3172C94.0285 31.5243 94.9069 30.9102 95.8915 30.5262C96.8761 30.1422 97.9384 29.9994 98.9894 30.1098C100.013 29.9704 101.054 30.0661 102.035 30.3897C103.016 30.7134 103.91 31.2564 104.649 31.9776C105.893 33.5883 106.48 35.611 106.291 37.6373V38.9957H101.876V37.4109C101.946 36.6768 101.946 35.9377 101.876 35.2036C101.792 34.916 101.64 34.6527 101.434 34.436C101.227 34.2193 100.971 34.0555 100.687 33.9585C100.206 33.6279 99.6284 33.4684 99.046 33.5057C98.7304 33.4752 98.4119 33.5096 98.1101 33.607C97.8084 33.7043 97.5298 33.8625 97.2915 34.0717C96.9139 34.484 96.659 34.9937 96.5557 35.5432C96.486 36.2962 96.486 37.0541 96.5557 37.8071V48.5041C96.4761 49.6096 96.6705 50.7178 97.1217 51.7302C97.3804 52.0703 97.7143 52.3461 98.0972 52.5359C98.4801 52.7257 98.9016 52.8245 99.329 52.8245C99.7564 52.8245 100.178 52.7257 100.561 52.5359C100.944 52.3461 101.278 52.0703 101.536 51.7302C102.008 50.663 102.221 49.4995 102.159 48.3343V45.9006H99.3856V42.9575H106.347V55.9184H103.291V53.4281C102.957 54.3 102.355 55.0437 101.572 55.5521C100.789 56.0606 99.8652 56.3077 98.9328 56.258C97.8718 56.46 96.775 56.3542 95.7721 55.9531C94.7692 55.5519 93.9021 54.8722 93.2731 53.9941Z" fill="white"/>
<path d="M109.573 30.3931H120.27V33.9587H114.214V41.3164H118.855V44.5425H114.101V53.0321H120.214V56.2016H109.46L109.573 30.3931Z" fill="white"/>
<path d="M122.874 30.3931H126.1L132.325 44.9387V30.3931H136.174V55.9186H133.061L126.835 40.6372V55.9186H122.874V30.3931Z" fill="white"/>
<path d="M139.909 30.3931H145.909C147.574 30.3142 149.236 30.6041 150.776 31.242C151.892 31.755 152.779 32.662 153.266 33.7889C153.818 35.2321 154.069 36.7731 154.002 38.3167V47.5987C154.073 49.198 153.823 50.7952 153.266 52.2963C152.805 53.481 151.916 54.45 150.776 55.013C149.308 55.6942 147.695 56.0051 146.079 55.9186H139.909V30.3931ZM145.965 52.6359C146.754 52.6959 147.542 52.5185 148.229 52.1266C148.636 51.835 148.934 51.4171 149.078 50.938C149.158 49.9775 149.158 49.012 149.078 48.0515V38.0337C149.161 37.1679 149.161 36.2961 149.078 35.4302C149.038 35.1287 148.931 34.84 148.764 34.5854C148.598 34.3307 148.376 34.1166 148.116 33.9587C147.393 33.7667 146.632 33.7667 145.909 33.9587H144.55V52.6359H145.965Z" fill="white"/>
<path d="M157.285 30.3931H167.982V33.9587H161.926V41.3164H166.68V44.5425H161.926V53.0321H168.038V56.2016H157.285V30.3931Z" fill="white"/>
<path d="M170.585 30.393H176.755C178.867 30.236 180.974 30.7725 182.754 31.9211C183.478 32.5787 184.035 33.3989 184.379 34.3141C184.724 35.2292 184.845 36.2132 184.735 37.1847C184.78 38.5378 184.549 39.8858 184.056 41.1466C183.554 42.1645 182.684 42.9536 181.622 43.3539L185.188 55.9185H180.49L177.434 44.2028H175.453V55.9185H170.812L170.585 30.393ZM176.698 41.3163C177.207 41.374 177.722 41.3232 178.21 41.1671C178.698 41.011 179.147 40.7532 179.528 40.4108C180.176 39.5522 180.479 38.482 180.377 37.4111C180.473 36.375 180.213 35.3371 179.641 34.468C179.284 34.1419 178.863 33.8932 178.406 33.7373C177.948 33.5815 177.463 33.522 176.981 33.5625H175.453V41.3163H176.698Z" fill="white"/>
<path d="M92.0845 72.0488H102.838V75.3315H96.7255V82.6892H101.536V85.9153H96.7255V94.4049H102.895V97.5744H92.0845V72.0488Z" fill="white"/>
<path d="M115.346 100.744C114.442 99.8851 113.626 98.937 112.912 97.9141H112.403C111.362 98.0248 110.31 97.8934 109.328 97.5302C108.346 97.1669 107.461 96.5816 106.743 95.82C105.494 93.9943 104.896 91.8013 105.045 89.5942V80.0292C104.895 77.8398 105.494 75.6645 106.743 73.8601C107.469 73.1087 108.355 72.5304 109.334 72.1678C110.314 71.8053 111.363 71.668 112.403 71.766C113.443 71.6638 114.493 71.7992 115.474 72.162C116.454 72.5247 117.339 73.1054 118.063 73.8601C119.332 75.6573 119.951 77.8332 119.817 80.0292V89.5942C119.817 93.4995 118.629 96.0464 116.252 97.1217C116.978 98.0685 117.836 98.9071 118.799 99.612L117.95 102.668C116.959 102.213 116.072 101.558 115.346 100.744ZM114.497 93.4995C114.905 92.6135 115.099 91.6442 115.063 90.6696V79.2368C115.099 78.2622 114.905 77.2929 114.497 76.407C114.264 76.0796 113.945 75.8222 113.576 75.6626C113.207 75.503 112.801 75.4473 112.403 75.5014C111.328 75.5014 110.648 75.7844 110.309 76.407C109.879 77.2855 109.684 78.2605 109.743 79.2368V90.5564C109.684 91.5327 109.879 92.5077 110.309 93.3863C110.518 93.7443 110.828 94.0322 111.201 94.2136C111.574 94.3949 111.992 94.4616 112.403 94.405C112.802 94.4657 113.21 94.4129 113.58 94.2528C113.95 94.0927 114.268 93.8316 114.497 93.4995Z" fill="white"/>
<path d="M125.703 96.9518C124.641 96.2898 123.857 95.2637 123.496 94.0653C123.022 92.5271 122.811 90.9196 122.873 89.3111V72.3318H127.401V90.1601C127.35 91.3143 127.523 92.4675 127.911 93.556C128.141 93.9183 128.458 94.2167 128.834 94.4234C129.21 94.6302 129.632 94.7386 130.061 94.7386C130.49 94.7386 130.913 94.6302 131.289 94.4234C131.665 94.2167 131.982 93.9183 132.212 93.556C132.6 92.4675 132.773 91.3143 132.721 90.1601V72.0488H137.193V89.0281C137.255 90.6366 137.044 92.2441 136.57 93.7823C136.209 94.9807 135.425 96.0068 134.363 96.6688C133.007 97.3011 131.529 97.6288 130.033 97.6288C128.537 97.6288 127.059 97.3011 125.703 96.6688V96.9518Z" fill="white"/>
<path d="M144.551 72.0488H149.475L154.625 97.5744H150.267L149.305 91.9146H144.834L143.815 97.5744H139.4L144.551 72.0488ZM148.795 88.7451L147.154 78.0482L145.4 88.7451H148.795Z" fill="white"/>
<path d="M157.002 72.0488H161.643V94.4049H167.812V97.5744H157.002V72.0488Z" fill="white"/>
<path d="M170.246 72.0488H174.83V97.5744H170.246V72.0488Z" fill="white"/>
<path d="M181.113 75.5013H176.868V72.0488H189.942V75.5013H185.754V97.5744H181.113V75.5013Z" fill="white"/>
<path d="M195.375 87.8396L190.225 72.0488H194.526L197.696 82.1798L200.639 72.0488H204.94L199.79 87.8396V97.5744H195.375V87.8396Z" fill="white"/>
<path d="M255.312 132.212H211.619C211.468 132.212 211.325 132.272 211.218 132.378C211.112 132.484 211.053 132.628 211.053 132.778V147.154C211.053 147.304 211.112 147.448 211.218 147.554C211.325 147.66 211.468 147.72 211.619 147.72H228.994L209.694 167.02C202.757 161.62 194.669 157.891 186.057 156.122C177.446 154.353 168.543 154.593 160.039 156.822C151.535 159.051 143.659 163.209 137.022 168.974C130.385 174.739 125.166 181.956 121.769 190.065C118.373 198.173 116.89 206.955 117.437 215.73C117.983 224.504 120.544 233.034 124.921 240.659C129.297 248.283 135.372 254.796 142.673 259.693C149.974 264.59 158.305 267.739 167.02 268.896V285.875H149.757C149.617 285.874 149.481 285.926 149.376 286.02C149.271 286.114 149.205 286.244 149.191 286.384V301.949C149.191 302.099 149.251 302.243 149.357 302.349C149.463 302.455 149.607 302.515 149.757 302.515H167.02V318.984C167.011 319.061 167.019 319.139 167.044 319.211C167.069 319.284 167.111 319.35 167.165 319.405C167.22 319.459 167.286 319.501 167.359 319.526C167.431 319.551 167.509 319.56 167.586 319.55H183.093C183.17 319.56 183.247 319.551 183.32 319.526C183.393 319.501 183.459 319.459 183.514 319.405C183.568 319.35 183.61 319.284 183.635 319.211C183.66 319.139 183.668 319.061 183.659 318.984V302.345H200.639C200.789 302.345 200.933 302.285 201.039 302.179C201.145 302.073 201.205 301.929 201.205 301.779V286.214C201.191 286.074 201.125 285.945 201.02 285.85C200.915 285.756 200.779 285.704 200.639 285.705H183.659V268.726C193.217 267.154 202.219 263.181 209.822 257.18C217.425 251.18 223.38 243.347 227.13 234.417C230.88 225.486 232.301 215.75 231.261 206.12C230.221 196.49 226.754 187.282 221.184 179.358L240.2 160.285V176.528C240.2 176.678 240.26 176.822 240.366 176.928C240.472 177.034 240.616 177.094 240.766 177.094H255.312C255.462 177.094 255.606 177.034 255.712 176.928C255.818 176.822 255.878 176.678 255.878 176.528V132.778C255.865 132.632 255.801 132.496 255.698 132.392C255.594 132.289 255.458 132.225 255.312 132.212ZM174.377 254.35C166.038 254.35 157.886 251.877 150.952 247.244C144.018 242.611 138.613 236.025 135.422 228.321C132.23 220.616 131.395 212.138 133.022 203.959C134.649 195.779 138.665 188.266 144.562 182.369C150.459 176.472 157.972 172.457 166.151 170.83C174.331 169.203 182.809 170.038 190.513 173.229C198.218 176.42 204.803 181.825 209.436 188.759C214.07 195.693 216.543 203.845 216.543 212.185C216.543 223.368 212.1 234.092 204.193 242C196.285 249.908 185.56 254.35 174.377 254.35Z" fill="white"/>
<path d="M200.129 194.922H149.191C149.051 194.922 148.915 194.973 148.81 195.068C148.705 195.162 148.64 195.292 148.625 195.432V207.77C148.64 207.91 148.705 208.04 148.81 208.134C148.915 208.228 149.051 208.28 149.191 208.279H200.129C200.27 208.28 200.406 208.228 200.511 208.134C200.615 208.04 200.681 207.91 200.695 207.77V195.432C200.681 195.292 200.615 195.162 200.511 195.068C200.406 194.973 200.27 194.922 200.129 194.922Z" fill="white"/>
<path d="M200.129 216.995H149.191C149.051 216.995 148.915 217.046 148.81 217.141C148.705 217.235 148.64 217.365 148.625 217.505V229.9C148.64 230.04 148.705 230.17 148.81 230.264C148.915 230.358 149.051 230.41 149.191 230.409H200.129C200.27 230.41 200.406 230.358 200.511 230.264C200.615 230.17 200.681 230.04 200.695 229.9V217.505C200.681 217.365 200.615 217.235 200.511 217.141C200.406 217.046 200.27 216.995 200.129 216.995Z" fill="white"/>
</g>
<defs>
<clipPath id="clip0_50_1111">
<rect width="350" height="350" fill="white"/>
</clipPath>
</defs>
</svg>
