<svg width="350" height="350" viewBox="0 0 350 350" fill="none" xmlns="http://www.w3.org/2000/svg">
<g clip-path="url(#clip0_50_1133)">
<path d="M350 0H0V350H350V0Z" fill="#FDB714"/>
<path d="M46.8397 40.1807H28.7246V30.4177H59.3115V38.7699L45.1467 97.1784H32.8442L46.8397 40.1807Z" fill="white"/>
<path d="M91.5351 30.4177H96.5012L101.58 55.9256H97.2349L96.2191 50.0001H91.8173L90.745 55.9256H86.3997L91.5351 30.4177ZM95.824 47.3477L94.0746 36.6254L92.3252 47.3477H95.824Z" fill="white"/>
<path d="M103.555 30.4177H114.052V33.8602H108.409V41.0272H112.867V44.3003H108.07V55.9256H103.442L103.555 30.4177Z" fill="white"/>
<path d="M115.914 30.4177H126.411V33.8602H120.768V41.0272H125.564V44.3003H120.768V55.9256H116.14L115.914 30.4177Z" fill="white"/>
<path d="M129.797 54.1196C128.551 52.2992 127.955 50.1125 128.104 47.9119V38.3182C127.954 36.1352 128.551 33.9662 129.797 32.167C130.53 31.4307 131.414 30.8626 132.389 30.502C133.363 30.1415 134.404 29.9971 135.44 30.079C136.477 29.9893 137.52 30.1301 138.496 30.4911C139.471 30.8521 140.355 31.4244 141.084 32.167C142.329 33.9662 142.926 36.1352 142.776 38.3182V47.9119C142.925 50.1125 142.329 52.2992 141.084 54.1196C139.521 55.485 137.516 56.2374 135.44 56.2374C133.365 56.2374 131.36 55.485 129.797 54.1196ZM137.585 51.8622C137.969 50.9534 138.142 49.9695 138.093 48.9841V37.246C138.159 36.2962 137.984 35.3449 137.585 34.4808C137.246 33.8036 136.569 33.5214 135.497 33.5214C134.424 33.5214 133.747 33.5214 133.409 34.4808C132.974 35.3346 132.779 36.2902 132.844 37.246V48.9841C132.775 49.9765 132.97 50.9694 133.409 51.8622C133.63 52.2038 133.944 52.4753 134.313 52.6452C134.683 52.8151 135.093 52.8763 135.497 52.8216C135.861 52.8241 136.221 52.7381 136.546 52.571C136.87 52.404 137.149 52.1608 137.359 51.8622H137.585Z" fill="white"/>
<path d="M145.429 30.4176H151.58C153.687 30.261 155.787 30.796 157.562 31.9413C158.284 32.5969 158.839 33.4148 159.183 34.3273C159.526 35.2398 159.648 36.2208 159.537 37.1896C159.582 38.5387 159.352 39.8828 158.86 41.1399C158.356 42.1731 157.463 42.9645 156.377 43.3408L159.989 55.9255H155.305L152.37 44.2438H150.169V55.9255H145.542L145.429 30.4176ZM151.524 41.3092C152.031 41.3632 152.544 41.3108 153.03 41.1553C153.516 40.9998 153.964 40.7447 154.345 40.4063C154.992 39.5502 155.294 38.4831 155.192 37.4153C155.258 36.3846 155.002 35.3589 154.458 34.4808C154.078 34.1883 153.639 33.9814 153.172 33.8743C152.704 33.7671 152.219 33.7623 151.749 33.86H150.056V41.3092H151.524Z" fill="white"/>
<path d="M162.472 30.4176H168.454C170.11 30.321 171.767 30.5908 173.307 31.2076C174.451 31.7213 175.358 32.6487 175.846 33.8036C176.37 35.2497 176.619 36.7808 176.58 38.3182V47.6297C176.616 49.2223 176.368 50.8085 175.846 52.3137C175.344 53.4684 174.47 54.4219 173.363 55.0225C171.889 55.6695 170.289 55.9781 168.679 55.9255H162.472V30.4176ZM168.51 52.6523C169.297 52.7231 170.087 52.5454 170.767 52.1444C171.197 51.7938 171.512 51.3219 171.67 50.79C171.747 49.851 171.747 48.9073 171.67 47.9683V38.0361C171.784 37.1745 171.784 36.3017 171.67 35.4401C171.614 35.1744 171.505 34.9226 171.35 34.6997C171.195 34.4768 170.997 34.2872 170.767 34.1422C170.064 33.8062 169.288 33.6511 168.51 33.6907H167.156V52.6523H168.51Z" fill="white"/>
<path d="M182.844 30.4177H187.81L192.889 55.9256H188.6L187.585 50.0001H183.126L182.111 55.9256H177.709L182.844 30.4177ZM187.077 47.3477L185.327 36.6254L183.634 47.3477H187.077Z" fill="white"/>
<path d="M194.808 30.4176H201.129C203.114 30.2568 205.096 30.7525 206.772 31.8285C207.476 32.4345 208.019 33.2048 208.354 34.0711C208.688 34.9374 208.804 35.8729 208.691 36.7946C208.691 40.0113 207.506 41.8172 205.023 42.438C207.957 43.0023 209.424 45.1468 209.424 48.7585C209.53 49.7686 209.429 50.7895 209.128 51.7596C208.828 52.7296 208.333 53.6285 207.675 54.4018C206.929 55.111 206.038 55.6498 205.064 55.9811C204.09 56.3124 203.055 56.4282 202.032 56.3206H194.808V30.4176ZM201.072 40.8014C201.571 40.8658 202.078 40.8182 202.557 40.662C203.035 40.5058 203.473 40.245 203.837 39.8985C204.417 39.0571 204.677 38.0365 204.571 37.0204C204.627 36.5341 204.57 36.0415 204.404 35.5812C204.237 35.1209 203.966 34.7056 203.612 34.368C202.622 33.8581 201.494 33.68 200.395 33.8601H199.492V40.8014H201.072ZM201.072 52.6524C201.598 52.7115 202.129 52.6508 202.628 52.4749C203.126 52.2989 203.578 52.0123 203.95 51.6366C204.562 50.6811 204.84 49.55 204.74 48.4199C204.865 47.2777 204.607 46.1266 204.007 45.1468C203.645 44.7538 203.196 44.4519 202.696 44.2656C202.196 44.0792 201.659 44.0138 201.129 44.0745H199.492V52.6524H201.072Z" fill="white"/>
<path d="M211.738 30.4177H216.366V52.9911H222.573V56.2078H211.738V30.4177Z" fill="white"/>
<path d="M224.379 30.4177H235.102V33.8602H229.007V41.1965H233.804V44.4132H229.007V52.8782H235.158V56.0949H224.379V30.4177Z" fill="white"/>
<path d="M248.307 30.4177H253.273L258.352 55.9256H253.95L252.822 50.0001H248.307L247.291 55.9256H242.889L248.307 30.4177ZM252.54 47.3477L250.79 36.6254L249.097 47.3477H252.54Z" fill="white"/>
<path d="M260.045 30.4177H263.318L269.526 45.1468V30.4177H273.363V55.9256H270.26L264.052 40.6322V55.9256H260.045V30.4177Z" fill="white"/>
<path d="M276.524 30.4176H282.506C284.162 30.321 285.819 30.5908 287.359 31.2076C287.923 31.4556 288.433 31.8126 288.859 32.2581C289.285 32.7036 289.619 33.2288 289.842 33.8036C290.411 35.2386 290.68 36.7751 290.632 38.3182V47.6297C290.681 49.228 290.413 50.8201 289.842 52.3137C289.386 53.4797 288.524 54.4417 287.415 55.0225C285.919 55.6617 284.302 55.9697 282.675 55.9255H276.524V30.4176ZM282.562 52.6523C283.348 52.7121 284.135 52.5352 284.819 52.1444C285.288 51.8197 285.628 51.3402 285.779 50.79C285.89 49.8528 285.89 48.9056 285.779 47.9683V38.0361C285.892 37.1745 285.892 36.3017 285.779 35.4401C285.723 35.1671 285.608 34.9095 285.442 34.6854C285.277 34.4612 285.064 34.2758 284.819 34.1422C284.123 33.8567 283.364 33.7594 282.618 33.86H281.264V52.6523H282.562Z" fill="white"/>
<path d="M88.9956 95.9368C87.7577 94.0917 87.1627 91.8901 87.3026 89.6726V80.3047C87.1584 78.0771 87.7319 75.8619 88.9392 73.9842C89.6388 73.1973 90.5151 72.5875 91.4961 72.2049C92.4771 71.8223 93.5348 71.6778 94.5825 71.7833C95.5629 71.6787 96.5543 71.7969 97.4826 72.1292C98.411 72.4614 99.2522 72.9991 99.9437 73.702C101.078 75.2319 101.656 77.1036 101.58 79.0067V81.1512H97.0656V79.0067C97.1336 78.2935 97.1336 77.5755 97.0656 76.8623C97.0108 76.3884 96.7911 75.9489 96.4448 75.6207C95.9872 75.2429 95.3993 75.0604 94.8082 75.1128C94.5023 75.0835 94.1936 75.1185 93.902 75.2157C93.6104 75.3129 93.3424 75.4701 93.1152 75.6772C92.7232 76.0316 92.4643 76.5096 92.3816 77.0316C92.3121 77.7824 92.3121 78.5381 92.3816 79.2889V90.5756C92.2913 91.6419 92.4861 92.7131 92.9459 93.6794C93.1527 94.0214 93.4557 94.2948 93.817 94.4655C94.1784 94.6361 94.5821 94.6964 94.9775 94.6388C95.5407 94.6767 96.0995 94.517 96.5577 94.1873C96.913 93.8132 97.1487 93.3417 97.2349 92.8329C97.2735 92.081 97.2735 91.3275 97.2349 90.5756V88.3182H101.58V90.2934C101.679 92.296 101.124 94.2765 100 95.9368C99.3299 96.674 98.4948 97.2423 97.5631 97.5954C96.6314 97.9485 95.6294 98.0763 94.6389 97.9684C93.6042 98.1087 92.5509 97.9973 91.5685 97.6436C90.586 97.2899 89.7034 96.7044 88.9956 95.9368Z" fill="white"/>
<path d="M104.12 72.0654H108.747V94.6388H114.955V97.7991H104.12V72.0654Z" fill="white"/>
<path d="M116.761 72.0654H127.483V75.3386H121.388V82.6749H126.185V85.948H121.388V94.4131H127.54V97.5733H116.761V72.0654Z" fill="white"/>
<path d="M133.409 72.0654H138.375L143.51 97.5733H139.165L138.149 91.93H133.747L132.675 97.5733H128.33L133.409 72.0654ZM137.641 88.9955L135.948 78.3295L134.199 88.9955H137.641Z" fill="white"/>
<path d="M145.429 72.0654H148.646L154.853 86.6252V72.0654H158.691V97.5733H155.643L149.379 82.3363V97.5733H145.429V72.0654Z" fill="white"/>
<path d="M168.962 72.0654H179.684V75.3386H173.589V82.6749H178.386V85.948H173.589V94.4131H179.74V97.5733H168.962V72.0654Z" fill="white"/>
<path d="M181.828 72.0654H185.045L191.253 86.6252V72.0654H195.09V97.5733H191.874L185.61 82.3363V97.5733H181.659L181.828 72.0654Z" fill="white"/>
<path d="M198.364 72.0654H209.086V75.3386H203.16V82.6749H207.957V85.948H203.16V94.4131H209.312V97.5733H198.364V72.0654Z" fill="white"/>
<path d="M211.23 72.0655H217.382C219.488 71.909 221.588 72.4439 223.363 73.5892C224.085 74.2449 224.64 75.0627 224.984 75.9752C225.327 76.8877 225.449 77.8688 225.339 78.8375C225.389 80.187 225.158 81.5321 224.661 82.7879C224.161 83.8029 223.294 84.5897 222.235 84.9888L225.734 97.5734H221.05L218.002 85.8917H215.801V97.5734H211.174L211.23 72.0655ZM217.325 83.0136C218.347 83.0901 219.359 82.7663 220.147 82.1107C220.783 81.2498 221.084 80.1865 220.993 79.1197C221.018 78.0696 220.701 77.0399 220.09 76.1852C219.739 75.8331 219.313 75.5642 218.845 75.3982C218.376 75.2322 217.876 75.1733 217.382 75.2258H215.689V83.0136H217.325Z" fill="white"/>
<path d="M229.458 95.9368C228.269 93.9887 227.698 91.7259 227.822 89.4469V80.5869C227.675 78.27 228.247 75.9644 229.458 73.9842C230.158 73.1973 231.034 72.5875 232.015 72.2049C232.996 71.8223 234.054 71.6778 235.101 71.7833C236.122 71.6484 237.159 71.7458 238.136 72.0683C239.114 72.3908 240.005 72.93 240.745 73.6456C241.98 75.2542 242.564 77.269 242.381 79.2889V80.5869H237.98V79.0068C238.051 78.256 238.051 77.5001 237.98 76.7494C237.792 76.2782 237.455 75.8817 237.02 75.6207C236.537 75.2988 235.963 75.1405 235.384 75.1693C234.751 75.1377 234.129 75.3384 233.634 75.7336C233.25 76.1393 232.994 76.6499 232.901 77.2009C232.829 77.9705 232.829 78.745 232.901 79.5147V90.2934C232.821 91.3958 233.015 92.5007 233.465 93.5101C233.69 93.8816 234.017 94.1804 234.407 94.3705C234.798 94.5607 235.235 94.6343 235.666 94.5824C236.102 94.6218 236.54 94.5366 236.93 94.3368C237.319 94.137 237.644 93.8308 237.867 93.4537C238.314 92.3838 238.507 91.2248 238.431 90.0677V87.6975H235.722V84.6501H242.664V97.5733H239.278L238.939 95.0903C238.632 95.9656 238.046 96.7158 237.271 97.2256C236.496 97.7354 235.575 97.9766 234.65 97.9119C233.688 98.0584 232.704 97.9535 231.794 97.6074C230.885 97.2613 230.08 96.6858 229.458 95.9368Z" fill="white"/>
<path d="M248.589 87.8668L243.454 72.0654H247.799L250.959 82.167L253.95 72.0654H258.183L253.104 87.8668V97.5733H248.645L248.589 87.8668Z" fill="white"/>
<path d="M174.944 170.485C164.737 170.474 154.757 173.491 146.266 179.155C137.775 184.818 131.155 192.873 127.244 202.301C123.333 211.728 122.307 222.104 124.295 232.114C126.284 242.125 131.198 251.321 138.415 258.538C145.632 265.755 154.828 270.669 164.838 272.657C174.849 274.646 185.225 273.619 194.652 269.709C204.08 265.798 212.135 259.178 217.798 250.687C223.461 242.196 226.479 232.215 226.467 222.009C226.467 208.344 221.039 195.239 211.376 185.576C201.714 175.914 188.609 170.485 174.944 170.485ZM171.106 190.858C171.189 189.889 171.627 188.985 172.335 188.319C173.043 187.652 173.972 187.27 174.944 187.246C175.916 187.27 176.845 187.652 177.553 188.319C178.261 188.985 178.698 189.889 178.781 190.858V208.804C178.697 209.767 178.258 210.665 177.548 211.322C176.839 211.979 175.911 212.349 174.944 212.359C173.977 212.349 173.048 211.979 172.339 211.322C171.63 210.665 171.19 209.767 171.106 208.804V190.858ZM174.944 248.307C168.55 248.282 162.377 245.972 157.536 241.795C152.696 237.618 149.508 231.849 148.548 225.528C147.587 219.207 148.918 212.751 152.299 207.325C155.68 201.899 160.889 197.86 166.987 195.937V205.926C163.488 207.712 160.693 210.624 159.051 214.193C157.409 217.761 157.016 221.778 157.935 225.598C158.853 229.417 161.031 232.816 164.116 235.247C167.202 237.678 171.016 239 174.944 239C178.872 239 182.686 237.678 185.771 235.247C188.856 232.816 191.034 229.417 191.953 225.598C192.872 221.778 192.478 217.761 190.836 214.193C189.194 210.624 186.399 207.712 182.901 205.926V196.05C188.915 198.035 194.033 202.086 197.345 207.484C200.658 212.882 201.953 219.279 200.999 225.54C200.046 231.801 196.906 237.523 192.137 241.691C187.367 245.858 181.276 248.202 174.944 248.307Z" fill="white"/>
<path d="M115.971 221.558C115.946 220.496 115.528 219.481 114.799 218.71C114.069 217.938 113.079 217.465 112.02 217.382H89.447C88.3783 217.452 87.3745 217.919 86.633 218.692C85.8916 219.465 85.4661 220.487 85.4402 221.558C85.451 222.644 85.8684 223.687 86.61 224.481C87.3517 225.275 88.3638 225.762 89.447 225.847H112.02C113.093 225.749 114.092 225.256 114.822 224.463C115.552 223.671 115.961 222.635 115.971 221.558Z" fill="white"/>
<path d="M264.786 221.558C264.774 220.492 264.36 219.47 263.628 218.696C262.896 217.922 261.898 217.453 260.835 217.382H238.262C237.203 217.465 236.213 217.938 235.484 218.71C234.754 219.481 234.336 220.496 234.312 221.558C234.321 222.635 234.731 223.671 235.46 224.463C236.19 225.256 237.189 225.749 238.262 225.847H260.835C261.913 225.761 262.919 225.272 263.651 224.477C264.384 223.681 264.789 222.639 264.786 221.558Z" fill="white"/>
<path d="M174.943 311.287C176.015 311.276 177.043 310.865 177.827 310.133C178.61 309.402 179.091 308.405 179.176 307.336V284.763C179.176 283.64 178.73 282.564 177.936 281.77C177.143 280.976 176.066 280.531 174.943 280.531C173.821 280.531 172.744 280.976 171.951 281.77C171.157 282.564 170.711 283.64 170.711 284.763V307.336C170.808 308.4 171.293 309.39 172.073 310.119C172.854 310.848 173.876 311.263 174.943 311.287Z" fill="white"/>
<path d="M252.991 266.14C253.501 265.198 253.644 264.101 253.394 263.059C253.144 262.018 252.518 261.105 251.637 260.497L232.054 249.21C231.088 248.799 230.004 248.756 229.008 249.091C228.013 249.426 227.174 250.114 226.653 251.025C226.131 251.937 225.961 253.008 226.177 254.036C226.392 255.064 226.978 255.978 227.822 256.603L247.404 267.889C248.385 268.368 249.511 268.459 250.557 268.145C251.602 267.832 252.491 267.136 253.047 266.196" fill="white"/>
<path d="M130.587 299.436C131.529 299.945 132.626 300.089 133.668 299.839C134.709 299.589 135.622 298.963 136.23 298.081L147.517 278.499C147.791 278.014 147.967 277.479 148.035 276.925C148.102 276.372 148.06 275.811 147.911 275.274C147.761 274.736 147.508 274.234 147.164 273.795C146.821 273.356 146.394 272.989 145.908 272.715C145.423 272.44 144.888 272.264 144.335 272.197C143.782 272.129 143.22 272.171 142.683 272.321C142.146 272.47 141.644 272.724 141.204 273.067C140.765 273.411 140.398 273.837 140.124 274.323L128.837 293.905C128.345 294.884 128.247 296.014 128.562 297.064C128.876 298.113 129.581 299.002 130.53 299.549" fill="white"/>
<path d="M220.09 299.097C221.02 298.532 221.707 297.643 222.02 296.6C222.333 295.558 222.248 294.437 221.783 293.454L210.497 273.871C209.935 272.898 209.011 272.188 207.926 271.897C206.841 271.606 205.685 271.758 204.712 272.319C203.739 272.881 203.029 273.805 202.738 274.89C202.447 275.975 202.599 277.131 203.16 278.104L214.447 297.686C215.047 298.577 215.955 299.215 216.998 299.475C218.04 299.736 219.142 299.601 220.09 299.097Z" fill="white"/>
<path d="M97.4041 266.309C97.9505 267.259 98.8396 267.963 99.889 268.278C100.938 268.593 102.068 268.494 103.047 268.002L122.63 256.716C123.384 256.071 123.891 255.184 124.065 254.206C124.239 253.229 124.068 252.222 123.582 251.356C123.096 250.491 122.325 249.821 121.4 249.46C120.475 249.1 119.454 249.071 118.51 249.379L98.9278 260.666C98.0454 261.274 97.4229 262.191 97.1826 263.236C96.9424 264.28 97.1019 265.377 97.6298 266.309" fill="white"/>
<path d="M174.943 162.415C176.019 162.418 177.055 162.011 177.841 161.277C178.627 160.543 179.104 159.538 179.176 158.465V135.892C179.091 134.824 178.61 133.826 177.827 133.095C177.043 132.364 176.015 131.952 174.943 131.941C173.876 131.965 172.854 132.38 172.073 133.109C171.293 133.838 170.808 134.828 170.711 135.892V158.465C170.795 159.533 171.277 160.531 172.06 161.262C172.843 161.993 173.872 162.405 174.943 162.415Z" fill="white"/>
<path d="M123.758 192.212C124.286 191.28 124.446 190.183 124.206 189.138C123.965 188.094 123.343 187.177 122.461 186.569L102.878 175.282C101.897 174.804 100.771 174.713 99.7257 175.026C98.6801 175.34 97.7908 176.036 97.2348 176.975C96.7497 177.923 96.6196 179.012 96.868 180.047C97.1164 181.083 97.7269 181.995 98.5892 182.619L118.172 193.905C119.15 194.397 120.281 194.496 121.33 194.181C122.379 193.866 123.268 193.162 123.815 192.212" fill="white"/>
<path d="M204.515 170.259C205.457 170.769 206.554 170.912 207.596 170.662C208.637 170.413 209.55 169.787 210.158 168.905L221.445 149.323C221.999 148.342 222.14 147.182 221.839 146.097C221.537 145.013 220.817 144.092 219.836 143.538C218.856 142.984 217.696 142.843 216.611 143.144C215.526 143.446 214.606 144.166 214.052 145.147L202.765 164.729C202.273 165.708 202.175 166.838 202.489 167.887C202.804 168.937 203.509 169.826 204.458 170.372" fill="white"/>
<path d="M145.655 170.316C146.594 169.76 147.29 168.871 147.604 167.825C147.917 166.78 147.826 165.654 147.348 164.673L136.061 145.09C135.461 144.199 134.548 143.565 133.503 143.314C132.458 143.063 131.357 143.214 130.418 143.736C129.478 144.292 128.782 145.181 128.469 146.227C128.155 147.273 128.246 148.398 128.725 149.379L140.011 168.905C140.62 169.787 141.532 170.413 142.574 170.663C143.615 170.913 144.712 170.769 145.655 170.26" fill="white"/>
<path d="M226.411 191.874C226.957 192.823 227.846 193.528 228.896 193.843C229.945 194.157 231.075 194.059 232.054 193.567L251.636 182.28C252.609 181.719 253.319 180.794 253.61 179.709C253.901 178.624 253.75 177.468 253.188 176.496C252.627 175.523 251.702 174.813 250.618 174.522C249.533 174.231 248.377 174.382 247.404 174.944L227.822 186.23C226.939 186.839 226.317 187.755 226.076 188.8C225.836 189.844 225.996 190.941 226.524 191.874" fill="white"/>
</g>
<defs>
<clipPath id="clip0_50_1133">
<rect width="350" height="350" fill="white"/>
</clipPath>
</defs>
</svg>
