<svg width="350" height="350" viewBox="0 0 350 350" fill="none" xmlns="http://www.w3.org/2000/svg">
<g clip-path="url(#clip0_50_1244)">
<path d="M350 0H0V350H350V0Z" fill="#8F1838"/>
<path d="M27.3901 85.0955C27.3136 81.746 27.9862 78.4218 29.3587 75.3655C30.5067 72.7723 32.4856 70.6351 34.9829 69.2912C32.8862 67.6989 31.1912 65.6379 30.0336 63.2732C28.7211 60.4396 28.0857 57.3396 28.1776 54.2181C27.8916 49.5422 29.4459 44.9399 32.5083 41.3947C34.1793 39.8225 36.1534 38.6076 38.3099 37.8243C40.4664 37.041 42.76 36.7058 45.0504 36.839C47.3222 36.6729 49.6034 36.9878 51.7452 37.7631C53.8869 38.5384 55.8411 39.7567 57.4801 41.3385C60.5333 44.8029 62.1081 49.3254 61.8671 53.9369C61.9903 57.164 61.3747 60.3765 60.0673 63.3295C58.9988 65.7023 57.332 67.7566 55.2304 69.2912C57.7587 70.6744 59.7419 72.8758 60.8547 75.5342C62.2228 78.7306 62.8939 82.1818 62.8232 85.6579C63.1494 90.847 61.6359 95.985 58.5488 100.169C56.8104 101.993 54.6855 103.404 52.3303 104.3C49.975 105.195 47.4491 105.552 44.938 105.343C33.2394 105.343 27.3901 98.5938 27.3901 85.0955ZM49.8873 92.9695C50.5578 90.5748 50.8053 88.0815 50.6185 85.6017C50.7075 82.9498 50.3267 80.3031 49.4936 77.7839C49.2055 76.8807 48.6214 76.1008 47.8357 75.5702C47.05 75.0396 46.1084 74.7892 45.1629 74.8593C44.2192 74.7991 43.2822 75.0535 42.4986 75.5827C41.715 76.1119 41.1289 76.8861 40.8322 77.7839C40.0049 80.3045 39.6242 82.9501 39.7074 85.6017C39.6479 88.1046 40.0286 90.5984 40.8322 92.9695C41.1204 93.8728 41.7044 94.6526 42.4901 95.1832C43.2759 95.7138 44.2174 95.9643 45.1629 95.8942C46.1267 95.9909 47.0945 95.7531 47.9036 95.2205C48.7127 94.6879 49.3139 93.8931 49.6061 92.9695H49.8873ZM50.281 54.2181C50.3587 52.2745 49.9529 50.342 49.0999 48.5938C48.7765 47.9352 48.2706 47.3836 47.6423 47.0046C47.014 46.6257 46.29 46.4354 45.5566 46.4566C44.8164 46.4383 44.086 46.6291 43.4493 47.0071C42.8125 47.3852 42.2954 47.9351 41.9571 48.5938C41.0636 50.3295 40.6372 52.2677 40.7197 54.2181C40.7197 61.0798 42.2945 64.5106 45.5566 64.5106C48.8187 64.5106 49.9998 61.0798 49.9998 54.2181H50.281Z" fill="white"/>
<path d="M88.2451 37.5702H94.2631C95.9179 37.4918 97.5695 37.7799 99.1 38.4139C100.222 38.9049 101.109 39.8123 101.575 40.9448C102.139 42.3955 102.407 43.9445 102.362 45.5005V54.8368C102.411 56.4296 102.144 58.0164 101.575 59.505C101.116 60.6822 100.233 61.6452 99.1 62.2046C97.6409 62.8815 96.0381 63.1905 94.4319 63.1045H88.2451V37.5702ZM94.3194 60.0674C95.0853 60.1298 95.8517 59.9529 96.5128 59.5612C96.7575 59.3818 96.9633 59.1549 97.1179 58.8939C97.2726 58.6329 97.3729 58.3434 97.4127 58.0427C97.4973 57.0884 97.4973 56.1285 97.4127 55.1743V44.9943C97.4945 44.1338 97.4945 43.2676 97.4127 42.4071C97.3472 42.1388 97.2289 41.8863 97.0647 41.6642C96.9005 41.4421 96.6938 41.2549 96.4566 41.1135C95.7784 40.7713 95.0213 40.616 94.2631 40.6636H92.857V59.6175L94.3194 60.0674Z" fill="white"/>
<path d="M104.949 37.5703H115.635V40.8886H109.561V48.2002H114.342V51.4623H109.561V59.8988H115.748V63.1046H104.949V37.5703Z" fill="white"/>
<path d="M118.842 61.2484C117.66 59.3678 117.09 57.1671 117.21 54.9492V45.8379C117.042 43.5624 117.614 41.2934 118.842 39.3699C119.536 38.582 120.409 37.9718 121.387 37.5902C122.366 37.2086 123.421 37.0667 124.466 37.1764C125.443 37.0722 126.431 37.1901 127.356 37.5212C128.281 37.8523 129.12 38.3882 129.809 39.0887C131.005 40.7071 131.566 42.7086 131.384 44.713V46.8502H126.884V44.6005C126.952 43.8897 126.952 43.1741 126.884 42.4633C126.833 41.9737 126.615 41.5168 126.266 41.1697C125.784 40.8488 125.212 40.6911 124.635 40.7198C124.055 40.6553 123.472 40.8188 123.011 41.1755C122.549 41.5323 122.244 42.0546 122.16 42.632C122.088 43.3802 122.088 44.1335 122.16 44.8817V56.1303C122.101 57.2096 122.293 58.2878 122.722 59.2799C122.952 59.611 123.266 59.8744 123.632 60.0426C123.998 60.2108 124.403 60.2776 124.803 60.2361C125.086 60.2606 125.371 60.2284 125.642 60.1415C125.912 60.0546 126.162 59.9147 126.378 59.7299C126.732 59.357 126.967 58.8871 127.053 58.38C127.119 57.6504 127.119 56.9163 127.053 56.1866V53.6556H131.552V55.6804C131.663 57.6776 131.109 59.6553 129.978 61.3047C129.31 62.0394 128.477 62.6058 127.549 62.9577C126.62 63.3096 125.622 63.437 124.635 63.3294C123.573 63.4762 122.491 63.3636 121.482 63.0012C120.473 62.6388 119.567 62.0374 118.842 61.2484Z" fill="white"/>
<path d="M133.802 37.5703H144.488V40.8886H138.414V48.2002H143.251V51.4623H138.414V59.8988H144.601V63.1046H133.802V37.5703Z" fill="white"/>
<path d="M146.232 37.5703H149.494L155.681 52.1372V37.5703H159.562V63.1046H156.468L150.45 47.8628V63.1046H146.232V37.5703Z" fill="white"/>
<path d="M165.298 41.0011H161.08V37.5703H174.353V41.0011H170.135V63.1046H165.523L165.298 41.0011Z" fill="white"/>
<path d="M181.271 37.5703H185.152L187.289 54.1057L189.932 37.6266H193.082L195.782 54.1057L197.863 37.5703H201.743L198.144 63.1046H194.376L191.563 46.2317L188.751 63.1046H184.871L181.271 37.5703Z" fill="white"/>
<path d="M204.949 61.305C203.708 59.4908 203.114 57.3115 203.262 55.1183V45.5008C203.113 43.3251 203.708 41.1634 204.949 39.3703C205.678 38.6333 206.559 38.0651 207.531 37.7055C208.502 37.346 209.541 37.2039 210.574 37.2893C211.607 37.1919 212.65 37.3284 213.623 37.6887C214.597 38.0489 215.477 38.6236 216.198 39.3703C217.485 41.1438 218.102 43.3155 217.942 45.5008V55.1183C218.074 57.318 217.459 59.4979 216.198 61.305C215.485 62.0651 214.607 62.6527 213.633 63.023C212.658 63.3933 211.612 63.5367 210.574 63.4423C209.535 63.5453 208.486 63.4059 207.51 63.0351C206.534 62.6642 205.658 62.072 204.949 61.305ZM212.711 59.0553C213.115 58.1546 213.307 57.1734 213.273 56.1869V44.4321C213.344 43.4792 213.149 42.5253 212.711 41.6762C212.374 41.0013 211.699 40.7201 210.63 40.7201C209.561 40.7201 208.887 40.7201 208.549 41.6762C208.116 42.5272 207.922 43.4796 207.987 44.4321V56.2432C207.918 57.2322 208.112 58.2217 208.549 59.1116C208.769 59.4519 209.082 59.7226 209.451 59.8919C209.819 60.0612 210.228 60.1222 210.63 60.0677C211.037 60.1097 211.447 60.0371 211.815 59.8583C212.183 59.6794 212.493 59.4013 212.711 59.0553Z" fill="white"/>
<path d="M220.585 37.5703H226.715C228.865 37.4927 230.98 38.1252 232.733 39.3701C233.46 40.0322 234.021 40.8552 234.373 41.7733C234.725 42.6913 234.857 43.6789 234.758 44.657C234.787 46.0055 234.538 47.3456 234.027 48.594C233.79 49.102 233.454 49.5576 233.039 49.9342C232.623 50.3108 232.137 50.6009 231.608 50.7874L235.152 63.3859H230.596L227.559 51.6873H224.972V63.3859H220.36L220.585 37.5703ZM226.715 48.8189C227.225 48.8618 227.737 48.7989 228.221 48.6344C228.705 48.4699 229.15 48.2072 229.527 47.8628C229.924 47.4244 230.225 46.9074 230.409 46.3454C230.593 45.7834 230.657 45.189 230.596 44.6007C230.662 43.5735 230.407 42.5512 229.865 41.6761C229.51 41.3353 229.083 41.0777 228.616 40.9221C228.15 40.7664 227.654 40.7166 227.165 40.7762H224.972V48.5377L226.715 48.8189Z" fill="white"/>
<path d="M237.458 37.5703H241.845V48.8189L246.907 37.5703H251.35L246.457 48.8189L252.081 62.9921H247.469L243.195 51.4061L241.845 53.4308V63.1046H237.233L237.458 37.5703Z" fill="white"/>
<path d="M264.005 37.5703H269.01L274.128 63.1046H269.966L268.954 57.1991H264.342L263.33 63.1046H258.718L264.005 37.5703ZM268.279 54.4432L266.536 43.7008L264.792 54.4432H268.279Z" fill="white"/>
<path d="M275.59 37.5703H278.852L285.095 52.1372V37.5703H288.92V63.1046H285.827L279.809 47.8628V63.1046H275.59V37.5703Z" fill="white"/>
<path d="M292.463 37.5702H298.088C299.742 37.4918 301.394 37.7799 302.925 38.4139C304.048 38.9211 304.948 39.8211 305.456 40.9448C305.999 42.3998 306.248 43.9484 306.187 45.5005V54.8368C306.251 56.4257 306.002 58.0118 305.456 59.505C304.955 60.6558 304.084 61.606 302.981 62.2046C301.52 62.8751 299.918 63.1837 298.313 63.1045H292.463V37.5702ZM298.538 60.0674C299.322 60.1379 300.109 59.9609 300.787 59.5612C301.246 59.1674 301.562 58.6338 301.687 58.0427C301.765 57.0881 301.765 56.1288 301.687 55.1743V44.9943C301.797 44.1354 301.797 43.266 301.687 42.4071C301.641 42.1387 301.537 41.8836 301.381 41.6601C301.226 41.4365 301.023 41.2499 300.787 41.1135C300.087 40.7787 299.313 40.6241 298.538 40.6636H297.188V59.6175L298.538 60.0674Z" fill="white"/>
<path d="M88.2451 79.2466H98.9313V82.5649H92.857V89.989H97.6377V93.2511H92.857V101.688H98.9875V104.893H88.2451V79.2466Z" fill="white"/>
<path d="M102.306 102.925C101.124 101.044 100.555 98.8432 100.675 96.6253V87.514C100.531 85.2761 101.102 83.0504 102.306 81.1585C103.001 80.3706 103.874 79.7603 104.852 79.3787C105.83 78.9971 106.886 78.8553 107.931 78.965C108.908 78.8608 109.896 78.9787 110.821 79.3098C111.746 79.6409 112.584 80.1767 113.274 80.8773C114.47 82.4957 115.03 84.4972 114.848 86.5016V88.6388H110.349V86.4453C110.417 85.7345 110.417 85.0189 110.349 84.3081C110.298 83.8185 110.079 83.3616 109.73 83.0145C109.249 82.6936 108.677 82.5359 108.099 82.5646C107.519 82.5001 106.937 82.6636 106.475 83.0204C106.014 83.3772 105.708 83.8994 105.625 84.4768C105.553 85.225 105.553 85.9784 105.625 86.7266V97.9751C105.565 99.0544 105.758 100.133 106.187 101.125C106.416 101.456 106.731 101.719 107.097 101.887C107.463 102.056 107.867 102.122 108.268 102.081C108.839 102.124 109.404 101.942 109.843 101.575C110.197 101.202 110.432 100.732 110.518 100.225C110.583 99.4952 110.583 98.7611 110.518 98.0314V95.6129H115.017V97.6377C115.128 99.6349 114.574 101.613 113.442 103.262C112.774 103.997 111.942 104.563 111.014 104.915C110.085 105.267 109.086 105.394 108.099 105.287C107.014 105.4 105.917 105.243 104.907 104.831C103.896 104.419 103.003 103.764 102.306 102.925Z" fill="white"/>
<path d="M118.729 102.981C117.487 101.167 116.893 98.9873 117.041 96.7941V87.1765C116.893 85.0008 117.488 82.8391 118.729 81.0461C119.457 80.3091 120.338 79.7409 121.31 79.3813C122.282 79.0218 123.32 78.8797 124.353 78.9651C125.387 78.8677 126.429 79.0042 127.402 79.3644C128.376 79.7247 129.256 80.2994 129.977 81.0461C131.264 82.8196 131.882 84.9913 131.721 87.1765V96.7941C131.853 98.9938 131.239 101.174 129.977 102.981C129.264 103.741 128.387 104.328 127.412 104.699C126.437 105.069 125.391 105.212 124.353 105.118C123.314 105.221 122.266 105.082 121.29 104.711C120.314 104.34 119.437 103.748 118.729 102.981ZM126.49 100.731C126.894 99.8304 127.087 98.8492 127.053 97.8627V86.1079C127.123 85.155 126.929 84.2011 126.49 83.352C126.153 82.6771 125.478 82.3959 124.409 82.3959C123.341 82.3959 122.666 82.3959 122.328 83.352C121.895 84.203 121.701 85.1554 121.766 86.1079V97.8627C121.697 98.8517 121.891 99.8412 122.328 100.731C122.549 101.071 122.861 101.342 123.23 101.511C123.598 101.681 124.007 101.742 124.409 101.687C124.811 101.735 125.217 101.671 125.585 101.502C125.952 101.334 126.265 101.067 126.49 100.731Z" fill="white"/>
<path d="M134.533 79.2466H137.795L144.038 93.8135V79.2466H147.863V104.781H144.769L138.526 89.539V104.781H134.533V79.2466Z" fill="white"/>
<path d="M152.362 102.981C151.121 101.167 150.526 98.9874 150.675 96.7941V87.1766C150.526 85.0009 151.121 82.8392 152.362 81.0461C153.94 79.7283 155.931 79.0063 157.986 79.0063C160.042 79.0063 162.033 79.7283 163.611 81.0461C164.852 82.8392 165.447 85.0009 165.298 87.1766V96.7941C165.458 98.9968 164.841 101.186 163.554 102.981C161.997 104.342 159.998 105.092 157.93 105.092C155.862 105.092 153.864 104.342 152.306 102.981H152.362ZM160.124 100.731C160.561 99.8413 160.755 98.8517 160.686 97.8628V86.108C160.753 85.1614 160.578 84.2133 160.18 83.3521C159.95 83.0071 159.628 82.7342 159.249 82.565C158.871 82.3958 158.453 82.3372 158.043 82.3959C157.64 82.3343 157.229 82.3921 156.859 82.562C156.489 82.7319 156.177 83.0066 155.962 83.3521C155.529 84.2031 155.334 85.1554 155.399 86.108V97.8628C155.331 98.8517 155.525 99.8413 155.962 100.731C156.187 101.067 156.5 101.334 156.867 101.502C157.235 101.671 157.641 101.735 158.043 101.687C158.444 101.742 158.854 101.681 159.222 101.511C159.59 101.342 159.903 101.072 160.124 100.731Z" fill="white"/>
<path d="M168.729 79.2466H173.566L177.165 96.9631L180.934 79.2466H185.602L186.052 104.781H182.565L182.227 87.0644L178.571 104.781H175.759L172.104 87.0081L171.766 104.781H168.167L168.729 79.2466Z" fill="white"/>
<path d="M189.201 79.2466H193.813V104.781H189.201V79.2466Z" fill="white"/>
<path d="M198.369 102.925C197.202 101.042 196.669 98.8335 196.851 96.6254V87.514C196.678 85.2736 197.251 83.039 198.482 81.1586C199.173 80.3669 200.046 79.7541 201.025 79.3722C202.004 78.9903 203.061 78.8506 204.106 78.9651C205.083 78.865 206.07 78.9847 206.994 79.3156C207.919 79.6465 208.758 80.1801 209.449 80.8773C210.622 82.507 211.18 84.4997 211.024 86.5016V88.6389H206.524V86.4454C206.563 85.7335 206.563 85.02 206.524 84.3082C206.428 83.8211 206.194 83.3721 205.849 83.0146C205.376 82.6776 204.798 82.5183 204.218 82.5646C203.614 82.5259 203.015 82.7055 202.531 83.0708C202.146 83.4515 201.891 83.9433 201.8 84.4769C201.728 85.2251 201.728 85.9784 201.8 86.7266V97.9752C201.713 99.056 201.907 100.141 202.362 101.125C202.587 101.447 202.892 101.705 203.247 101.873C203.603 102.04 203.996 102.112 204.387 102.081C204.976 102.133 205.562 101.951 206.018 101.575C206.372 101.202 206.607 100.732 206.693 100.225C206.73 99.4942 206.73 98.7621 206.693 98.0315V95.613H211.193V97.6378C211.279 99.6322 210.727 101.602 209.618 103.262C208.95 103.997 208.118 104.563 207.189 104.915C206.26 105.267 205.262 105.394 204.275 105.287C203.171 105.419 202.052 105.272 201.02 104.859C199.989 104.446 199.077 103.781 198.369 102.925Z" fill="white"/>
<path d="M221.71 102.869C220.533 100.905 219.984 98.6287 220.135 96.3444V87.7955C219.954 85.4835 220.526 83.175 221.766 81.2151C222.445 80.4056 223.314 79.7766 224.296 79.3841C225.277 78.9916 226.34 78.8478 227.39 78.9653C228.412 78.8253 229.452 78.9251 230.428 79.2571C231.404 79.589 232.29 80.1438 233.014 80.8776C234.271 82.4701 234.874 84.4809 234.702 86.5019V87.8517H230.034V86.3894C230.135 85.6618 230.135 84.9236 230.034 84.1959C229.964 83.716 229.725 83.2769 229.359 82.9586C228.867 82.6132 228.269 82.4537 227.671 82.5087C227.358 82.4783 227.041 82.5126 226.741 82.6093C226.441 82.706 226.165 82.8632 225.928 83.0711C225.497 83.4065 225.166 83.854 224.972 84.3647C224.901 85.1317 224.901 85.9036 224.972 86.6706V97.3006C224.912 98.4219 225.125 99.5409 225.59 100.563C225.794 100.939 226.108 101.243 226.49 101.434C226.873 101.625 227.305 101.694 227.728 101.631C228.162 101.671 228.599 101.586 228.987 101.387C229.376 101.187 229.699 100.882 229.921 100.506C230.417 99.4344 230.63 98.2533 230.54 97.0756V94.7134H227.84V91.7887H234.758V104.725H231.721L231.383 102.25C231.07 103.117 230.484 103.859 229.713 104.366C228.943 104.873 228.029 105.117 227.109 105.062C226.096 105.195 225.066 105.062 224.12 104.678C223.173 104.293 222.343 103.67 221.71 102.869Z" fill="white"/>
<path d="M237.514 79.2462H243.645C245.762 79.086 247.875 79.619 249.663 80.7647C250.379 81.4323 250.93 82.2577 251.272 83.1754C251.614 84.0932 251.737 85.078 251.631 86.0516C251.681 87.3964 251.451 88.737 250.956 89.9886C250.437 91.0184 249.556 91.8197 248.482 92.2383L252.081 104.78H247.469L244.376 93.0819H242.182V104.78H237.57L237.514 79.2462ZM243.645 89.9886C244.154 90.0314 244.667 89.9686 245.151 89.804C245.634 89.6395 246.079 89.3768 246.457 89.0324C247.086 88.1738 247.367 87.1089 247.244 86.0516C247.339 85.0219 247.082 83.9906 246.513 83.1269C246.174 82.7802 245.758 82.518 245.299 82.3617C244.839 82.2054 244.35 82.1593 243.87 82.227H242.126V89.9886H243.645Z" fill="white"/>
<path d="M255.849 102.981C254.608 101.167 254.014 98.9875 254.162 96.7943V87.1767C254.013 85.001 254.608 82.8393 255.849 81.0462C257.422 79.7179 259.415 78.9893 261.474 78.9893C263.533 78.9893 265.525 79.7179 267.098 81.0462C268.339 82.8393 268.934 85.001 268.785 87.1767V96.7943C268.934 98.9875 268.339 101.167 267.098 102.981C266.382 103.738 265.504 104.323 264.53 104.693C263.556 105.063 262.512 105.208 261.474 105.118C260.435 105.221 259.386 105.082 258.41 104.711C257.434 104.34 256.558 103.748 255.849 102.981ZM263.611 100.731C264.071 99.8438 264.321 98.8624 264.342 97.8629V86.1081C264.409 85.1615 264.234 84.2134 263.836 83.3522C263.621 83.0068 263.309 82.7321 262.939 82.5621C262.569 82.3922 262.157 82.3344 261.755 82.3961C260.686 82.3961 259.955 82.3961 259.618 83.3522C259.234 84.2182 259.061 85.1624 259.111 86.1081V97.8629C259.062 98.8449 259.235 99.8255 259.618 100.731C259.882 101.03 260.206 101.27 260.57 101.434C260.933 101.598 261.328 101.683 261.727 101.683C262.126 101.683 262.52 101.598 262.884 101.434C263.247 101.27 263.572 101.03 263.836 100.731H263.611Z" fill="white"/>
<path d="M270.754 79.2464H274.635L276.716 95.6131L279.359 79.1339H282.509L285.265 95.6131L287.346 79.0776H291.17L287.627 104.612H283.859L280.99 87.7391L278.178 104.612H274.353L270.754 79.2464Z" fill="white"/>
<path d="M295.951 82.6774H291.732V79.2466H304.781V82.6774H300.619V104.781H295.951V82.6774Z" fill="white"/>
<path d="M306.299 79.2466H310.911V89.989H316.086V79.3028H320.585V104.837H316.086V93.2511H310.911V104.781H306.299V79.2466Z" fill="white"/>
<path d="M241.845 179.359L206.074 213.105C205.335 213.707 204.762 214.488 204.408 215.374C204.053 216.259 203.93 217.22 204.05 218.166V313.723C204.049 314.265 204.261 314.786 204.639 315.175C205.017 315.564 205.532 315.79 206.074 315.804H242.97C243.517 315.79 244.038 315.566 244.425 315.179C244.813 314.792 245.036 314.271 245.051 313.723V179.977C245.051 178.853 244.151 176.828 241.845 179.134" fill="white"/>
<path d="M138.751 223.678L103.037 257.424C102.299 258.043 101.724 258.833 101.361 259.725C100.998 260.617 100.859 261.584 100.956 262.542V313.498C100.97 314.046 101.194 314.567 101.581 314.954C101.969 315.341 102.49 315.565 103.037 315.579H139.932C140.475 315.565 140.99 315.339 141.368 314.95C141.746 314.562 141.957 314.041 141.957 313.498V224.522C141.957 223.397 141.057 221.316 138.751 223.678Z" fill="white"/>
<path d="M257.93 138.133C257.99 138.01 258.021 137.875 258.021 137.739C258.021 137.602 257.99 137.468 257.93 137.345C257.733 137.196 257.501 137.099 257.256 137.064H256.806L229.415 143.251H228.909L228.403 143.532C228.295 143.627 228.209 143.744 228.15 143.875C228.091 144.006 228.06 144.148 228.06 144.291C228.06 144.435 228.091 144.577 228.15 144.708C228.209 144.839 228.295 144.955 228.403 145.05V145.332L234.646 151.856L172.779 213.723L144.151 185.039C143.982 184.907 143.775 184.835 143.56 184.835C143.346 184.835 143.138 184.907 142.97 185.039L134.983 192.801L89.0328 238.695C88.9005 238.863 88.8286 239.071 88.8286 239.286C88.8286 239.5 88.9005 239.708 89.0328 239.876L96.963 247.469C97.0317 247.552 97.1176 247.618 97.2148 247.664C97.312 247.709 97.4181 247.733 97.5255 247.733C97.6329 247.733 97.7389 247.709 97.8361 247.664C97.9333 247.618 98.0193 247.552 98.0879 247.469L143.42 202.475L164.23 223.284L171.991 231.046C172.149 231.201 172.361 231.287 172.582 231.287C172.803 231.287 173.015 231.201 173.172 231.046L243.588 160.574L250.169 167.154C250.367 167.34 250.628 167.443 250.9 167.443C251.172 167.443 251.433 167.34 251.631 167.154C251.697 166.934 251.697 166.699 251.631 166.479L257.649 138.358L257.93 138.133Z" fill="white"/>
<path d="M190.438 229.64L173.116 247.075C172.97 247.21 172.779 247.284 172.581 247.284C172.383 247.284 172.192 247.21 172.047 247.075L156.355 231.046C153.487 228.178 152.868 230.484 152.868 231.609V313.723C152.868 314.266 153.079 314.787 153.458 315.175C153.836 315.564 154.351 315.79 154.893 315.804H191.845C192.387 315.79 192.902 315.564 193.28 315.175C193.658 314.787 193.869 314.266 193.869 313.723V230.259C193.869 229.134 192.969 227.109 190.438 229.64Z" fill="white"/>
</g>
<defs>
<clipPath id="clip0_50_1244">
<rect width="350" height="350" fill="white"/>
</clipPath>
</defs>
</svg>
