<svg width="350" height="350" viewBox="0 0 350 350" fill="none" xmlns="http://www.w3.org/2000/svg">
<g clip-path="url(#clip0_50_1279)">
<path d="M350 0H0V350H350V0Z" fill="#F36E24"/>
<path d="M32.4817 93.8235C29.5401 90.2318 28.0466 85.6705 28.2942 81.0345V80.0725H40.5173C40.356 82.2491 40.6847 84.4342 41.4793 86.467C41.8712 87.1339 42.4498 87.6715 43.1437 88.0134C43.8375 88.3553 44.6163 88.4866 45.3839 88.391C45.9537 88.4231 46.5235 88.328 47.052 88.1127C47.5805 87.8974 48.0545 87.5672 48.4397 87.1461C49.2675 85.9346 49.7737 84.5326 49.911 83.0717C50.2276 80.3486 50.3599 77.6073 50.3071 74.8664V67.906C49.5255 69.2168 48.3315 70.2317 46.9118 70.792C45.2307 71.5041 43.4177 71.8512 41.5925 71.8106C39.4458 71.9449 37.3034 71.4885 35.3979 70.4908C33.4924 69.4932 31.8967 67.9925 30.7841 66.1517C28.325 61.7539 27.1486 56.7546 27.3888 51.7217C27.3888 36.6314 33.3872 29.0863 45.3839 29.0863C47.9343 28.8847 50.4959 29.2928 52.8574 30.2767C55.2189 31.2607 57.3125 32.7923 58.9652 34.7451C62.2146 39.4879 63.7515 45.1962 63.3225 50.9294V75.2625C63.6951 81.1873 62.3176 87.091 59.3613 92.239C57.7029 94.3296 55.5383 95.9622 53.0725 96.9822C50.6067 98.0022 47.9213 98.3758 45.2707 98.0677C42.9609 98.2913 40.6298 98.0292 38.4273 97.2983C36.2248 96.5674 34.1996 95.3838 32.4817 93.8235ZM50.3071 59.1914V48.5527C50.4077 46.2031 50.0423 43.8567 49.2319 41.6489C48.9554 40.8401 48.4137 40.1484 47.6946 39.6861C46.9756 39.2239 46.1214 39.0182 45.2707 39.1024C44.3909 39.0313 43.5139 39.2693 42.7908 39.7755C42.0677 40.2816 41.5438 41.0243 41.3095 41.8753C40.5029 44.8213 40.1968 47.882 40.4041 50.9294C40.3828 53.121 40.4773 55.3121 40.6871 57.4937C40.7885 58.805 41.2594 60.0607 42.0452 61.1154C42.4642 61.5329 42.9714 61.8512 43.5296 62.0471C44.0878 62.2429 44.6827 62.3113 45.2707 62.2471C46.3099 62.2493 47.3295 61.9653 48.2179 61.4263C49.1063 60.8872 49.8291 60.114 50.3071 59.1914Z" fill="white"/>
<path d="M78.1487 55.457V29.9355H82.7889V55.457H78.1487Z" fill="white"/>
<path d="M84.8828 55.457V29.9355H88.1649L94.5029 44.4788V29.9355H98.3509V55.457H95.2951L89.0138 40.2347V55.457H84.8828Z" fill="white"/>
<path d="M100.615 55.457V29.9355H106.613C108.278 29.8567 109.94 30.1465 111.479 30.7844C112.612 31.3016 113.503 32.2332 113.969 33.3874C114.513 34.8128 114.764 36.3334 114.705 37.8579V47.195C114.761 48.7747 114.511 50.3503 113.969 51.8353C113.512 53.0045 112.648 53.9691 111.536 54.5515C110.048 55.2329 108.417 55.5436 106.783 55.457H100.615ZM105.255 52.2314H106.669C107.483 52.2859 108.293 52.0883 108.99 51.6655C109.467 51.2201 109.769 50.6174 109.838 49.9679C109.908 49.0827 109.908 48.1934 109.838 47.3082V37.575C109.913 36.7467 109.913 35.9134 109.838 35.0851C109.65 34.6126 109.312 34.215 108.876 33.9533C108.171 33.6165 107.393 33.4609 106.613 33.5006H105.255V52.2314Z" fill="white"/>
<path d="M123.533 55.7965C121.994 55.8905 120.461 55.5367 119.119 54.7779C118.066 54.0558 117.288 52.9988 116.912 51.7787C116.493 50.2882 116.302 48.7427 116.346 47.195V30.2185H120.873V47.7609C120.813 48.4953 120.813 49.2335 120.873 49.9679C120.902 50.6048 121.164 51.2088 121.609 51.6655C122.088 52.103 122.714 52.3454 123.363 52.3454C124.012 52.3454 124.638 52.103 125.117 51.6655C125.515 51.1787 125.77 50.591 125.853 49.9679C125.913 49.2335 125.913 48.4953 125.853 47.7609V29.9355H130.323V47.195C130.367 48.7427 130.176 50.2882 129.757 51.7787C129.396 52.9907 128.639 54.0466 127.607 54.7779C126.36 55.4651 124.956 55.8162 123.533 55.7965Z" fill="white"/>
<path d="M139.151 55.7964C137.81 55.8542 136.478 55.5409 135.303 54.8909C134.275 54.2891 133.463 53.3781 132.983 52.2879C132.394 50.9499 132.086 49.5055 132.078 48.0437L136.095 47.2515C136.11 48.1292 136.224 49.0025 136.435 49.8546C136.595 50.5024 136.905 51.1034 137.34 51.6088C137.559 51.8166 137.816 51.9787 138.098 52.0856C138.38 52.1925 138.68 52.242 138.981 52.2313C139.282 52.2641 139.585 52.2188 139.863 52.0998C140.14 51.9808 140.383 51.7922 140.566 51.5522C140.925 51.0399 141.104 50.423 141.075 49.798C141.097 48.8327 140.82 47.8842 140.283 47.0817C139.701 46.2963 139.037 45.5754 138.302 44.9314L135.077 42.1019C134.217 41.4067 133.489 40.5634 132.926 39.612C132.347 38.5163 132.074 37.2849 132.134 36.047C132.079 35.1931 132.207 34.3373 132.509 33.537C132.812 32.7367 133.282 32.0103 133.888 31.4067C134.951 30.5871 136.202 30.0486 137.528 29.8408C138.853 29.6331 140.209 29.763 141.471 30.2183C142.232 30.5305 142.882 31.0625 143.339 31.7462C143.854 32.3944 144.221 33.1477 144.414 33.9532C144.652 34.8035 144.803 35.6756 144.867 36.5563L140.905 37.2919C140.85 36.5705 140.756 35.8527 140.623 35.1415C140.549 34.7108 140.374 34.3036 140.113 33.9532C139.918 33.7496 139.679 33.5928 139.414 33.4948C139.15 33.3968 138.866 33.3601 138.585 33.3873C138.287 33.3738 137.99 33.4278 137.715 33.5454C137.441 33.663 137.197 33.8411 137.001 34.0664C136.63 34.5542 136.431 35.1512 136.435 35.764C136.426 36.5187 136.622 37.2617 137.001 37.9144C137.427 38.5497 137.942 39.1212 138.529 39.612L141.698 42.3849C142.764 43.2704 143.681 44.3212 144.414 45.4972C145.185 46.797 145.577 48.2868 145.546 49.798C145.56 50.941 145.287 52.0693 144.753 53.0801C144.192 53.9906 143.414 54.7487 142.49 55.2871C141.434 55.7239 140.289 55.8987 139.151 55.7964Z" fill="white"/>
<path d="M149.167 55.457V33.3874H145.093V29.9355H157.825V33.3874H153.864V55.457H149.167Z" fill="white"/>
<path d="M158.448 55.457V29.9356H164.672C166.149 29.9107 167.62 30.1208 169.03 30.558C170.162 30.8985 171.129 31.6439 171.746 32.6518C172.421 33.8787 172.735 35.2717 172.651 36.6696C172.653 37.6012 172.558 38.5304 172.369 39.4424C172.224 40.2087 171.894 40.9278 171.407 41.5362C170.907 42.1373 170.265 42.6041 169.539 42.8943L173.104 55.457H168.407L165.352 43.7432H163.201V55.457H158.448ZM163.088 40.8572H164.559C165.295 40.8662 166.025 40.7316 166.71 40.461C167.237 40.1842 167.64 39.7198 167.841 39.1595C168.09 38.4513 168.206 37.7029 168.181 36.9526C168.296 35.9187 168.099 34.8741 167.615 33.9534C167.263 33.6003 166.836 33.3307 166.366 33.1642C165.896 32.9978 165.395 32.9387 164.899 32.9914H163.201L163.088 40.8572Z" fill="white"/>
<path d="M177.801 55.457V45.7237L172.652 29.9355H177.009L180.178 40.0649L183.12 29.9355H187.365L182.272 45.7237V55.457H177.801Z" fill="white"/>
<path d="M187.591 59.7573L187.195 58.1728C187.746 58.0179 188.238 57.7028 188.61 57.2674C189.04 56.7648 189.262 56.1173 189.232 55.4565H186.742V51.2124H190.93V55.0604C191.011 56.1904 190.69 57.3126 190.024 58.2294C189.426 59.0173 188.561 59.5604 187.591 59.7573Z" fill="white"/>
<path d="M198.795 55.457V29.9355H203.379V55.457H198.795Z" fill="white"/>
<path d="M205.643 55.457V29.9355H208.925L215.036 44.4788V29.9355H218.828V55.457H215.772L209.547 40.2347V55.457H205.643Z" fill="white"/>
<path d="M221.205 55.457V29.9355H224.43L230.655 44.4788V29.9355H234.503V55.457H231.391L225.166 40.2347V55.457H221.205Z" fill="white"/>
<path d="M243.67 55.7965C242.169 55.8718 240.677 55.5185 239.37 54.7779C238.294 54.1033 237.477 53.0869 237.049 51.8919C236.568 50.4517 236.339 48.9395 236.37 47.4214V37.8579C236.338 36.3583 236.568 34.8647 237.049 33.444C237.488 32.27 238.304 31.2748 239.37 30.6146C240.725 29.9824 242.203 29.6548 243.699 29.6548C245.194 29.6548 246.672 29.9824 248.028 30.6146C249.093 31.2748 249.909 32.27 250.348 33.444C250.829 34.8647 251.059 36.3583 251.027 37.8579V47.478C251.059 48.9776 250.829 50.4712 250.348 51.8919C249.92 53.0869 249.103 54.1033 248.028 54.7779C246.701 55.5231 245.19 55.8764 243.67 55.7965ZM243.67 52.3446C244.271 52.3903 244.87 52.2307 245.368 51.8919C245.765 51.5163 246.024 51.018 246.104 50.4772C246.193 49.839 246.193 49.1913 246.104 48.5532V36.7827C246.193 36.1445 246.193 35.4969 246.104 34.8587C246.022 34.3509 245.761 33.8891 245.368 33.5572C244.892 33.1695 244.281 32.9863 243.67 33.0479C243.062 33.0089 242.459 33.1896 241.973 33.5572C241.6 33.9054 241.343 34.3598 241.237 34.8587C241.176 35.4986 241.176 36.1429 241.237 36.7827V48.5532C241.176 49.193 241.176 49.8373 241.237 50.4772C241.316 51.018 241.575 51.5163 241.973 51.8919C242.478 52.2155 243.071 52.3738 243.67 52.3446Z" fill="white"/>
<path d="M256.629 55.457L251.479 29.9355H255.61L258.949 47.9873L262.118 29.9355H266.362L261.213 55.457H256.629Z" fill="white"/>
<path d="M265.061 55.457L270.21 29.9355H275.19L280.283 55.457H275.982L274.964 49.7981H270.493L269.474 55.457H265.061ZM270.719 46.6292H274.171L272.417 35.8773L270.719 46.6292Z" fill="white"/>
<path d="M282.547 55.457V33.3874H278.472V29.9355H291.205V33.3874H287.187V55.457H282.547Z" fill="white"/>
<path d="M291.997 55.457V29.9355H296.637V55.457H291.997Z" fill="white"/>
<path d="M305.861 55.7965C304.36 55.8718 302.868 55.5185 301.56 54.7779C300.485 54.1033 299.668 53.0869 299.24 51.8919C298.759 50.4517 298.529 48.9395 298.561 47.4214V37.8579C298.529 36.3583 298.759 34.8647 299.24 33.444C299.679 32.27 300.495 31.2748 301.56 30.6146C302.916 29.9824 304.393 29.6548 305.889 29.6548C307.385 29.6548 308.863 29.9824 310.218 30.6146C311.284 31.2748 312.1 32.27 312.538 33.444C313.02 34.8647 313.249 36.3583 313.217 37.8579V47.478C313.249 48.9776 313.02 50.4712 312.538 51.8919C312.111 53.0869 311.293 54.1033 310.218 54.7779C308.892 55.5231 307.381 55.8764 305.861 55.7965ZM305.861 52.3446C306.462 52.3903 307.06 52.2307 307.559 51.8919C307.956 51.5163 308.215 51.018 308.294 50.4772C308.384 49.839 308.384 49.1913 308.294 48.5532V36.7827C308.384 36.1445 308.384 35.4969 308.294 34.8587C308.213 34.3509 307.952 33.8891 307.559 33.5572C307.082 33.1695 306.472 32.9863 305.861 33.0479C305.252 33.0089 304.65 33.1896 304.163 33.5572C303.791 33.9054 303.534 34.3598 303.428 34.8587C303.367 35.4986 303.367 36.1429 303.428 36.7827V48.5532C303.367 49.193 303.367 49.8373 303.428 50.4772C303.507 51.018 303.766 51.5163 304.163 51.8919C304.668 52.2155 305.262 52.3738 305.861 52.3446Z" fill="white"/>
<path d="M315.028 55.457V29.9355H318.254L324.479 44.4788V29.9355H328.213V55.457H325.101L318.876 40.2347V55.457H315.028Z" fill="white"/>
<path d="M76.7341 97.1625L81.8837 71.6411H86.8635L91.9564 97.1625H87.5991L86.6371 91.2207H82.1666L81.148 97.1625H76.7341ZM82.393 88.2781H85.9015L84.1472 77.5829L82.393 88.2781Z" fill="white"/>
<path d="M93.1448 97.1625V71.6411H96.2006L102.425 86.1844V71.6411H106.273V97.1625H103.161L96.9362 81.8836V97.1625H93.1448Z" fill="white"/>
<path d="M109.103 97.1625V71.6411H115.101C116.766 71.5622 118.428 71.8521 119.968 72.4899C121.1 73.0072 121.991 73.9388 122.458 75.093C123.002 76.5183 123.252 78.039 123.193 79.5635V88.9006C123.249 90.4618 122.999 92.0189 122.458 93.4843C121.998 94.6841 121.111 95.6717 119.968 96.2571C118.491 96.9115 116.885 97.2212 115.271 97.1625H109.103ZM113.743 93.8804H115.158C115.973 93.9551 116.789 93.7559 117.478 93.3145C117.966 92.9003 118.271 92.3108 118.327 91.6734C118.391 90.788 118.391 89.8992 118.327 89.0138V79.224C118.395 78.3954 118.395 77.5626 118.327 76.7341C118.271 76.4527 118.156 76.1863 117.991 75.9523C117.825 75.7182 117.612 75.5218 117.365 75.3759C116.682 75.0316 115.921 74.8753 115.158 74.9232H113.743V93.8804Z" fill="white"/>
<path d="M131.964 97.1625V71.6411H136.548V97.1625H131.964Z" fill="white"/>
<path d="M139.264 97.1625V71.6411H142.49L148.715 86.1844V71.6411H152.789V97.1625H149.677L143.452 81.8836V97.1625H139.264Z" fill="white"/>
<path d="M155.222 97.1625V71.6411H165.691V74.8101H160.032V82.2798H164.786V85.5053H160.032V97.1625H155.222Z" fill="white"/>
<path d="M166.88 97.1627V71.6412H172.991C174.465 71.5961 175.936 71.7871 177.349 72.2071C178.449 72.6073 179.398 73.3388 180.065 74.3009C180.753 75.5451 181.086 76.9546 181.027 78.3753C181.119 79.2973 181.119 80.2261 181.027 81.1481C180.846 81.9021 180.519 82.6134 180.065 83.2419C179.566 83.8557 178.896 84.3085 178.141 84.5434L181.706 97.1627H177.066L173.953 85.4489H171.859V97.1627H166.88ZM171.576 82.5062H172.991C173.729 82.5496 174.467 82.4137 175.142 82.1101C175.415 81.9956 175.661 81.826 175.866 81.6117C176.07 81.3975 176.228 81.1433 176.33 80.8652C176.579 80.1569 176.694 79.4086 176.669 78.6582C176.757 77.6408 176.498 76.6237 175.934 75.7722C175.595 75.4168 175.179 75.145 174.717 74.978C174.256 74.8111 173.762 74.7536 173.274 74.8102H171.576V82.5062Z" fill="white"/>
<path d="M182.045 97.1625L187.138 71.6411H192.401L197.494 97.1625H193.193L192.175 91.2207H187.761L186.685 97.1625H182.045ZM187.704 88.2781H191.156L189.458 77.5829L187.704 88.2781Z" fill="white"/>
<path d="M204.85 97.5022C203.512 97.5329 202.187 97.2212 201.002 96.5968C199.965 95.9802 199.152 95.0483 198.682 93.9371C198.11 92.594 197.802 91.1528 197.777 89.693L201.795 88.9007C201.833 89.7765 201.947 90.6474 202.134 91.5038C202.275 92.1707 202.609 92.7811 203.096 93.258C203.295 93.4764 203.541 93.6461 203.816 93.754C204.091 93.862 204.386 93.9053 204.681 93.8805C204.989 93.9125 205.301 93.8671 205.587 93.7486C205.874 93.63 206.126 93.442 206.322 93.2014C206.63 92.6895 206.787 92.101 206.774 91.5038C206.824 90.5254 206.567 89.5559 206.039 88.731C205.45 87.9508 204.765 87.2474 204.002 86.6372L200.776 83.8078C199.933 83.0525 199.208 82.175 198.626 81.2047C198.073 80.0994 197.801 78.875 197.833 77.6396C197.754 76.7837 197.871 75.921 198.175 75.117C198.479 74.313 198.962 73.5888 199.588 72.9993C200.242 72.4225 201.004 71.9805 201.829 71.6989C202.654 71.4173 203.527 71.3015 204.398 71.3583C205.421 71.3268 206.441 71.4999 207.397 71.8676C208.18 72.2715 208.859 72.8528 209.377 73.5652C209.841 74.2577 210.185 75.0227 210.396 75.8288C210.666 76.6715 210.818 77.5475 210.849 78.4318L206.888 79.1109C206.95 78.3955 206.95 77.676 206.888 76.9605C206.803 76.4162 206.568 75.9065 206.209 75.4892C205.779 75.1379 205.235 74.9567 204.681 74.9799C204.374 74.9619 204.066 75.0136 203.782 75.1312C203.498 75.2488 203.244 75.4293 203.04 75.659C202.689 76.1539 202.51 76.7503 202.53 77.3567C202.503 78.0882 202.68 78.813 203.04 79.4504C203.481 80.0913 203.993 80.6799 204.567 81.2047L207.793 83.9775C208.826 84.88 209.722 85.9285 210.453 87.0899C211.23 88.3872 211.622 89.8787 211.584 91.3906C211.599 92.5156 211.326 93.6258 210.792 94.6162C210.248 95.5551 209.468 96.3354 208.529 96.8797C207.383 97.4208 206.11 97.6362 204.85 97.5022Z" fill="white"/>
<path d="M215.319 97.1625V75.0364H211.245V71.6411H223.977V75.0364H219.959V97.1625H215.319Z" fill="white"/>
<path d="M225.052 97.1625V71.6411H231.164C232.656 71.5966 234.146 71.7876 235.578 72.207C236.673 72.5891 237.609 73.326 238.238 74.3007C238.926 75.5449 239.259 76.9545 239.2 78.3751C239.198 79.3065 239.104 80.2355 238.917 81.1479C238.76 81.9102 238.431 82.6264 237.955 83.2417C237.466 83.8419 236.819 84.2928 236.087 84.5432L239.652 97.1625H234.955L232.013 85.4487H229.749V97.1625H225.052ZM229.749 82.5061H231.164C231.92 82.5435 232.675 82.408 233.371 82.1099C233.894 81.8558 234.299 81.41 234.503 80.865C234.752 80.1568 234.867 79.4084 234.842 78.658C234.93 77.6406 234.67 76.6235 234.107 75.772C233.768 75.4167 233.352 75.1448 232.89 74.9779C232.429 74.8109 231.935 74.7535 231.447 74.81H229.749V82.5061Z" fill="white"/>
<path d="M248.424 97.5021C246.878 97.596 245.339 97.2213 244.01 96.4269C242.947 95.753 242.179 94.7016 241.859 93.4843C241.427 91.9954 241.217 90.4508 241.237 88.9006V71.6411H245.764V89.4099C245.703 90.1632 245.703 90.9202 245.764 91.6735C245.844 92.2973 246.099 92.8858 246.5 93.3711C246.727 93.5997 247.002 93.7743 247.306 93.882C247.609 93.9897 247.933 94.0279 248.254 93.9936C248.574 94.0321 248.9 93.996 249.204 93.888C249.508 93.78 249.783 93.6031 250.008 93.3711C250.408 92.8858 250.663 92.2973 250.744 91.6735C250.804 90.9202 250.804 90.1632 250.744 89.4099V71.6411H255.271V88.9006C255.29 90.4508 255.081 91.9954 254.648 93.4843C254.329 94.7016 253.561 95.753 252.498 96.4269C251.271 97.1689 249.857 97.5421 248.424 97.5021Z" fill="white"/>
<path d="M264.891 97.502C263.264 97.564 261.659 97.1083 260.307 96.2005C259.272 95.4602 258.499 94.4099 258.1 93.2013C257.667 91.7707 257.457 90.282 257.478 88.7874V79.8464C257.462 78.315 257.672 76.7897 258.1 75.3194C258.488 74.1201 259.264 73.0845 260.307 72.3767C261.654 71.6298 263.183 71.2768 264.721 71.3582C266.148 71.2816 267.571 71.5739 268.852 72.207C269.856 72.7903 270.619 73.7135 271.002 74.8101C271.431 76.0471 271.641 77.349 271.625 78.6581V80.8084H267.154V78.6015C267.154 77.9224 267.154 77.2434 267.154 76.6775C267.124 76.1463 266.903 75.6439 266.532 75.2628C266.31 75.0666 266.049 74.9198 265.766 74.832C265.483 74.7442 265.185 74.7174 264.891 74.7535C264.263 74.6949 263.636 74.8769 263.137 75.2628C262.738 75.6827 262.481 76.217 262.401 76.7906C262.338 77.4871 262.338 78.1879 262.401 78.8844V90.2021C262.331 90.955 262.331 91.7128 262.401 92.4657C262.518 93.0029 262.818 93.4829 263.25 93.8238C263.711 94.1502 264.27 94.3098 264.834 94.2765C265.132 94.305 265.433 94.2693 265.716 94.1716C265.999 94.074 266.258 93.9168 266.475 93.7106C266.826 93.2937 267.042 92.7811 267.098 92.2393C267.132 91.5607 267.132 90.8807 267.098 90.2021V87.9386H271.625V89.9758C271.662 91.3416 271.451 92.7029 271.002 93.9936C270.627 95.1074 269.89 96.0636 268.909 96.7098C267.673 97.3549 266.278 97.6299 264.891 97.502Z" fill="white"/>
<path d="M276.378 97.1625V75.0364H272.304V71.6411H285.036V75.0364H281.019V97.1625H276.378Z" fill="white"/>
<path d="M293.129 97.5021C291.521 97.552 289.937 97.0969 288.601 96.2005C287.539 95.5266 286.77 94.4753 286.451 93.2579C286.019 91.7691 285.809 90.2245 285.829 88.6743V71.6411H290.356V89.4099C290.295 90.1632 290.295 90.9202 290.356 91.6735C290.436 92.2973 290.691 92.8858 291.091 93.3711C291.318 93.5997 291.594 93.7743 291.898 93.882C292.201 93.9897 292.525 94.0279 292.846 93.9936C293.166 94.0321 293.491 93.996 293.796 93.888C294.1 93.78 294.375 93.6031 294.6 93.3711C295 92.8858 295.255 92.2973 295.336 91.6735C295.396 90.9202 295.396 90.1632 295.336 89.4099V71.6411H299.863V88.9006C299.882 90.4508 299.672 91.9954 299.24 93.4843C298.921 94.7016 298.153 95.753 297.09 96.4269C295.896 97.1481 294.523 97.5206 293.129 97.5021Z" fill="white"/>
<path d="M302.749 97.1627V71.6413H308.86C310.333 71.5999 311.804 71.7909 313.217 72.2071C314.318 72.6073 315.267 73.3388 315.934 74.3009C316.602 75.5507 316.915 76.9599 316.839 78.3753C316.866 79.308 316.771 80.2402 316.556 81.1481C316.4 81.9104 316.071 82.6266 315.594 83.2419C315.106 83.8421 314.459 84.293 313.727 84.5434L317.292 97.1627H312.652L309.539 85.4489H307.389V97.1627H302.749ZM307.389 82.5063H308.86C309.598 82.5452 310.335 82.4095 311.01 82.1101C311.534 81.856 311.939 81.4102 312.142 80.8652C312.391 80.1569 312.506 79.4086 312.482 78.6582C312.557 77.6493 312.32 76.6416 311.803 75.7722C311.453 75.4158 311.026 75.1439 310.556 74.9772C310.085 74.8105 309.583 74.7534 309.086 74.8102H307.389V82.5063Z" fill="white"/>
<path d="M319.103 97.1625V71.6411H329.855V74.9232H323.8V82.2232H328.553V85.5053H323.8V93.937H329.911V97.1625H319.103Z" fill="white"/>
<path d="M264.834 230.315L223.015 206.209V157.939C223.022 157.435 222.895 156.939 222.646 156.502C222.397 156.064 222.037 155.701 221.601 155.449L178.367 130.493C177.937 130.245 177.449 130.114 176.952 130.114C176.456 130.114 175.968 130.245 175.537 130.493L132.304 155.449C131.876 155.709 131.521 156.074 131.273 156.51C131.026 156.946 130.893 157.438 130.889 157.939V206.209L89.1268 230.315C88.6842 230.564 88.3151 230.926 88.0568 231.363C87.7984 231.8 87.66 232.298 87.6555 232.805V282.943C87.6582 283.443 87.7965 283.934 88.0555 284.362C88.3146 284.791 88.6848 285.141 89.1268 285.376L132.304 310.332C132.746 310.601 133.257 310.739 133.775 310.728C134.275 310.731 134.765 310.594 135.19 310.332L176.952 286.225L218.771 310.332C219.197 310.592 219.687 310.729 220.186 310.729C220.685 310.729 221.174 310.592 221.601 310.332L264.834 285.376C265.27 285.138 265.632 284.786 265.881 284.357C266.131 283.928 266.258 283.439 266.249 282.943V232.805C266.256 232.302 266.128 231.806 265.88 231.368C265.631 230.931 265.27 230.567 264.834 230.315ZM174.293 277.737L139.604 257.761L174.123 237.672L174.293 277.737ZM214.47 207.85L179.838 227.826V187.817L214.47 207.85ZM174.123 227.826L139.434 207.85L174.123 187.817V227.826ZM182.668 232.805L220.186 211.132L257.704 232.805L220.186 254.649L182.668 232.805ZM217.356 202.927L182.668 182.894L217.356 162.862V202.927ZM171.293 182.894L136.605 202.927V162.862L171.293 182.894ZM130.889 302.692L93.371 281.075V237.672L130.889 259.345V302.692ZM136.548 302.692V262.684L171.293 282.943L136.548 302.692ZM260.307 281.075L222.789 302.692V259.402L260.307 237.672V281.075Z" fill="white"/>
</g>
<defs>
<clipPath id="clip0_50_1279">
<rect width="350" height="350" fill="white"/>
</clipPath>
</defs>
</svg>
