<svg width="536" height="430" viewBox="0 0 536 430" fill="none" xmlns="http://www.w3.org/2000/svg">
<path d="M96.8672 229.696H85.2012V427.975H96.8672V229.696Z" fill="#FFBE21"/>
<path d="M96.8719 232.422H85.2012" stroke="#A15842" stroke-width="4" stroke-miterlimit="10"/>
<path d="M32.2625 388.189C33.4442 384.8 35.6511 381.862 38.5773 379.784C41.5034 377.705 45.0037 376.588 48.593 376.588C52.1823 376.588 55.6826 377.705 58.6087 379.784C61.5348 381.862 63.7418 384.8 64.9235 388.189C66.0514 384.953 68.1149 382.126 70.8524 380.065C73.5899 378.004 76.8779 376.803 80.2992 376.613C78.7717 373.891 76.9529 371.343 74.8747 369.013L68.5952 361.95C66.643 359.756 65.4135 357.014 65.0736 354.096C64.7337 351.179 65.2998 348.228 66.6952 345.643L72.0247 335.74C70.5285 337.245 61.8787 345.344 48.7497 345.344C35.6207 345.344 26.971 337.245 25.4747 335.74H25.451L30.7852 345.643C32.1745 348.233 32.7319 351.188 32.3818 354.106C32.0316 357.024 30.7908 359.763 28.8282 361.95L22.5535 368.985C20.4715 371.314 18.6479 373.862 17.1147 376.585C20.4993 376.82 23.7399 378.046 26.4333 380.11C29.1266 382.173 31.1537 384.982 32.2625 388.189Z" fill="#4756DF"/>
<path d="M81.2539 398.197C77.6636 398.198 74.1625 399.316 71.2362 401.396C68.31 403.476 66.1037 406.416 64.9234 409.806C63.7439 406.415 61.5378 403.475 58.6114 401.394C55.685 399.314 52.1835 398.196 48.5929 398.196C45.0023 398.196 41.5007 399.314 38.5743 401.394C35.6479 403.475 33.4419 406.415 32.2624 409.806C30.8341 405.708 27.9183 402.297 24.0929 400.248C20.2676 398.199 15.812 397.662 11.6094 398.744C11.8507 409.705 16.2682 420.161 23.9594 427.975H73.4496C81.1253 420.178 85.5415 409.748 85.7996 398.81C84.3185 398.404 82.7897 398.198 81.2539 398.197V398.197Z" fill="#4756DF"/>
<path d="M48.7118 345.363C61.8408 345.363 70.4905 337.264 71.9868 335.758H25.4368C26.933 337.25 35.5828 345.363 48.7118 345.363Z" fill="#30242A"/>
<path d="M32.2626 409.806C33.4421 406.415 35.6482 403.475 38.5746 401.394C41.501 399.314 45.0025 398.196 48.5931 398.196C52.1837 398.196 55.6853 399.314 58.6116 401.394C61.538 403.475 63.7441 406.415 64.9236 409.806C66.3638 405.665 69.3235 402.225 73.2037 400.184C77.084 398.142 81.5949 397.651 85.8236 398.81C86.0188 391.049 84.1134 383.38 80.3089 376.613C76.8875 376.803 73.5995 378.004 70.862 380.065C68.1246 382.126 66.061 384.953 64.9331 388.189C63.7514 384.8 61.5445 381.862 58.6183 379.784C55.6922 377.705 52.1919 376.588 48.6026 376.588C45.0133 376.588 41.513 377.705 38.5869 379.784C35.6608 381.862 33.4538 384.8 32.2721 388.189C31.1565 384.99 29.1264 382.19 26.4336 380.135C23.7408 378.079 20.5039 376.86 17.1244 376.628C13.3368 383.371 11.4352 391.011 11.6191 398.744C15.8217 397.662 20.2773 398.199 24.1027 400.248C27.928 402.297 30.8438 405.708 32.2721 409.806H32.2626Z" fill="#3EC1F3"/>
<path d="M52.1602 344.004C53.1102 338.19 57.4279 315.144 68.2864 302.618" stroke="#30242A" stroke-width="4" stroke-miterlimit="10" stroke-linecap="round"/>
<path d="M47.1489 344.171C47.0776 337.568 46.3984 305.149 39.9526 285.807" stroke="#30242A" stroke-width="4" stroke-miterlimit="10" stroke-linecap="round"/>
<path d="M75.7183 321.487C85.239 317.298 92.193 312.165 91.2506 310.023C90.3082 307.882 81.8261 309.541 72.3054 313.731C62.7847 317.92 55.8307 323.052 56.7731 325.194C57.7155 327.336 66.1976 325.676 75.7183 321.487Z" fill="#30242A"/>
<path d="M75.7126 262.556C79.1354 257.928 80.6021 253.21 78.9887 252.016C77.3753 250.823 73.2926 253.606 69.8698 258.234C66.4471 262.861 64.9803 267.58 66.5937 268.773C68.2072 269.967 72.2899 267.183 75.7126 262.556Z" fill="#30242A"/>
<path d="M24.166 324.776C36.5776 322.899 46.3705 319.601 46.039 317.409C45.7075 315.217 35.3772 314.962 22.9656 316.839C10.554 318.716 0.76115 322.015 1.09263 324.207C1.42411 326.398 11.7544 326.654 24.166 324.776Z" fill="#30242A"/>
<path d="M15.495 292.4V292.434C17.3288 293.459 18.712 295.134 19.3717 297.129C20.0314 299.124 19.9199 301.294 19.059 303.21C18.1982 305.127 16.6505 306.652 14.7211 307.484C12.7917 308.316 10.6207 308.395 8.63599 307.705V307.733C19.0385 312.407 29.0182 312.764 30.9182 308.531C32.8182 304.299 25.9022 297.074 15.495 292.4Z" fill="#FF7235"/>
<path d="M46.2514 258.524C44.0379 257.949 41.1594 261.298 39.0551 266.48C36.5234 260.186 32.8516 255.973 30.3769 256.79C27.9021 257.607 27.4604 263.174 29.1751 269.738C24.3966 266.831 20.0931 265.853 18.6539 267.634C16.8204 269.904 20.3544 275.794 26.5484 280.796C28.3106 282.232 30.2066 283.495 32.2104 284.568C32.5519 283.211 33.227 281.961 34.1744 280.932C35.1217 279.902 36.3112 279.125 37.6349 278.672C38.9586 278.219 40.3745 278.104 41.754 278.337C43.1335 278.571 44.4329 279.145 45.5341 280.008C46.4625 278.01 47.2035 275.93 47.7476 273.795C49.7474 266.095 49.0776 259.255 46.2514 258.524Z" fill="#FF7235"/>
<path d="M94.5397 293.488C93.8557 291.303 89.4904 290.638 83.9804 291.588C87.9799 286.111 89.6139 280.768 87.6142 279.1C85.6144 277.433 80.6507 280.003 75.9862 284.929C75.9292 279.333 74.4804 275.163 72.2099 274.882C69.3172 274.526 66.1822 280.644 65.2132 288.539C64.9261 290.796 64.8561 293.075 65.0042 295.346C66.3368 294.916 67.7557 294.827 69.1317 295.085C70.5077 295.344 71.7972 295.943 72.8829 296.827C73.9686 297.711 74.816 298.852 75.348 300.148C75.88 301.443 76.0798 302.85 75.9292 304.242C78.1168 303.965 80.2745 303.488 82.3749 302.817C89.9607 300.456 95.4089 296.272 94.5397 293.488Z" fill="#FF7235"/>
<path d="M72.9462 296.875C71.8599 295.969 70.5621 295.352 69.1736 295.082C67.785 294.812 66.3507 294.898 65.0042 295.331C65.2749 299.088 66.2249 301.981 67.6547 303.031C68.9894 304.266 72.0769 304.679 75.9197 304.228C76.0695 302.852 75.8763 301.461 75.3575 300.178C74.8386 298.895 74.0102 297.76 72.9462 296.875V296.875Z" fill="#30242A"/>
<path d="M37.7202 278.645C36.3771 279.088 35.1678 279.863 34.2045 280.898C33.2412 281.934 32.5552 283.196 32.2102 284.568C35.5352 286.325 38.4897 287.038 40.1522 286.392C41.905 285.917 43.8857 283.508 45.534 280.008C44.4453 279.153 43.1619 278.582 41.7985 278.344C40.4351 278.106 39.034 278.209 37.7202 278.645V278.645Z" fill="#30242A"/>
<path d="M16.4213 306.503C15.5281 306.005 14.8545 305.19 14.5339 304.219C14.2134 303.247 14.2692 302.191 14.6904 301.259C15.1116 300.327 15.8674 299.588 16.8081 299.186C17.7489 298.785 18.806 298.752 19.7701 299.093C19.6585 297.719 19.2102 296.393 18.4645 295.233C17.7189 294.074 16.699 293.115 15.4951 292.443L8.62183 307.705C9.9209 308.159 11.3115 308.286 12.6714 308.077C14.0314 307.867 15.319 307.327 16.4213 306.503Z" fill="#F5EBDD"/>
<path d="M14.6732 301.264C14.2589 302.196 14.2085 303.249 14.5321 304.216C14.8556 305.183 15.5296 305.994 16.4212 306.489C17.5628 305.64 18.4694 304.514 19.0553 303.218C19.6412 301.921 19.8871 300.497 19.7699 299.079C18.8013 298.734 17.7383 298.768 16.7933 299.173C15.8483 299.578 15.0911 300.325 14.6732 301.264V301.264Z" fill="#4856DF"/>
<path d="M328.582 308.93H207.775L209.817 300.827H262.846L283.072 221.73C285.827 210.956 292.091 201.406 300.875 194.585C309.659 187.765 320.463 184.063 331.584 184.062C358.796 184.062 378.708 209.712 371.959 236.075L359.461 284.948C357.707 291.806 353.721 297.886 348.129 302.228C342.538 306.571 335.661 308.929 328.582 308.93Z" fill="#FFB7D5"/>
<path d="M208.711 383.786V392.364H285.703V383.786H208.711Z" fill="#A15842"/>
<path d="M298.386 423.368L278.36 304.166H216.05L196.024 423.368C195.929 423.935 195.959 424.515 196.112 425.069C196.265 425.624 196.536 426.138 196.908 426.576C197.279 427.015 197.742 427.367 198.264 427.609C198.785 427.85 199.353 427.975 199.928 427.975V427.975C200.831 427.974 201.707 427.665 202.41 427.098C203.113 426.531 203.602 425.741 203.795 424.859L230.024 304.166H264.405L290.625 424.859C290.817 425.742 291.305 426.532 292.008 427.099C292.712 427.666 293.588 427.975 294.491 427.975V427.975C295.065 427.974 295.632 427.848 296.152 427.606C296.673 427.364 297.134 427.011 297.505 426.573C297.876 426.134 298.146 425.621 298.298 425.067C298.451 424.514 298.48 423.934 298.386 423.368V423.368Z" fill="#A15842"/>
<path d="M272.494 383.786V392.364H349.486V383.786H272.494Z" fill="#FFBE21"/>
<path d="M362.169 423.368L342.124 304.166H279.837L259.811 423.368C259.717 423.935 259.747 424.515 259.899 425.069C260.052 425.624 260.324 426.138 260.695 426.576C261.067 427.015 261.53 427.367 262.051 427.609C262.573 427.85 263.141 427.975 263.716 427.975V427.975C264.618 427.975 265.494 427.666 266.197 427.099C266.899 426.532 267.386 425.741 267.577 424.859L293.797 304.166H328.183L354.403 424.859C354.595 425.743 355.084 426.534 355.788 427.101C356.493 427.668 357.37 427.976 358.274 427.975V427.975C358.848 427.974 359.415 427.848 359.935 427.606C360.456 427.364 360.917 427.011 361.288 426.573C361.658 426.134 361.929 425.621 362.081 425.067C362.234 424.514 362.263 423.934 362.169 423.368V423.368Z" fill="#FFBE21"/>
<path d="M299.236 284.948L306.874 255.075H256.253C246.327 255.075 236.682 258.38 228.841 264.467C221 270.554 215.409 279.079 212.948 288.695L207.775 308.93H268.352C275.432 308.93 282.31 306.572 287.902 302.23C293.494 297.887 297.482 291.807 299.236 284.948V284.948Z" fill="#FFB7D5"/>
<path d="M211.067 300.034H275.334" stroke="#A15842" stroke-width="4" stroke-linecap="round" stroke-linejoin="round"/>
<path d="M263.074 299.735L274.337 255.702" stroke="#A15842" stroke-width="4" stroke-linecap="round" stroke-linejoin="round"/>
<path d="M366.349 254.054H335.949" stroke="#A15842" stroke-width="4" stroke-linecap="round" stroke-linejoin="round"/>
<path d="M372.049 232.679H333.099" stroke="#A15842" stroke-width="4" stroke-linecap="round" stroke-linejoin="round"/>
<path d="M230.171 223.027C230.171 223.027 192.062 233.406 175.874 241.504C149.184 254.847 149.274 263.653 133 312.954C117.976 358.516 116.323 380.599 95.5989 381.473C79.7767 382.138 74.5897 387.315 72.0247 394.412L134.634 424.118C135.352 424.458 136.172 424.51 136.927 424.265C137.682 424.019 138.315 423.494 138.696 422.798V422.798C139.083 422.085 139.178 421.25 138.959 420.469C138.739 419.688 138.224 419.024 137.522 418.618L136.207 417.858C142.025 410.809 153.25 395.789 164.441 372.975L171.566 376.3C171.566 376.3 183.075 361.342 184.899 344.375C187.274 322.463 185.849 307.696 195.857 299.122L312.565 223.008L230.171 223.027Z" fill="#FF7235"/>
<path d="M89.4478 384.992C90.6875 382.413 97.575 366.7 101.537 368.6C106.69 371.07 93.3143 386.845 93.3143 386.845L89.4478 384.992Z" fill="#30242A"/>
<path d="M72.02 394.635L134.63 424.336C135.355 424.682 136.185 424.734 136.947 424.481C137.71 424.227 138.344 423.689 138.718 422.978C139.091 422.267 139.175 421.439 138.951 420.668C138.728 419.896 138.214 419.241 137.518 418.841L136.202 418.081L136.335 417.919L93.3 397.603C93.9449 395.817 94.3971 393.967 94.649 392.084C101.09 393.2 114.124 394.402 114.191 389.03C114.262 384.023 100.026 386.032 94.8248 387.448C94.7127 385.524 94.3387 383.624 93.7133 381.8C79.3635 382.788 74.4805 387.823 72.02 394.635Z" fill="#30242A"/>
<path d="M175.874 241.504C172.877 243 170.221 244.44 167.842 245.884L164.189 257.583L178.249 247.679L191.212 258.015L186.433 243.846L201.115 237.12L189.768 235.695C185.037 237.383 180.399 239.322 175.874 241.504V241.504Z" fill="#FFB7D5"/>
<path d="M217.299 235.415L216.349 241.604L222.543 239.224L217.299 235.415Z" fill="#FFB7D5"/>
<path d="M181.574 266.375L172.525 278.284L159.662 272.094L167.281 284.953L155.373 294.956L170.616 293.051L175.86 310.679L181.099 293.051L197.772 288.287L181.574 281.618V266.375Z" fill="#FFB7D5"/>
<path d="M130.702 357.3L131.813 354.127L147.013 353.319L134.663 344.912L140.164 331.74L127.723 340.033L125.348 337.469C123.448 343.724 121.767 349.296 120.123 354.193H120.199C120.38 353.656 120.56 353.115 120.741 352.564L130.702 357.3Z" fill="#FFB7D5"/>
<path d="M130.701 357.3L120.726 352.583C120.546 353.134 120.365 353.676 120.185 354.212C114.157 372.167 108.666 381.145 95.6085 381.696C94.9672 381.696 94.3497 381.757 93.7417 381.8C94.3671 383.624 94.7411 385.524 94.8532 387.448C100.078 386.023 114.29 384.023 114.219 389.03C114.143 394.402 101.118 393.2 94.6775 392.084C94.4209 393.967 93.9639 395.817 93.3142 397.603L136.349 417.919C142.201 410.794 153.33 395.851 164.436 373.226L130.701 357.3Z" fill="#EAA58B"/>
<path d="M168.711 321.157L167.286 334.02L153.948 333.545L165.381 342.123L161.106 357.366L172.549 347.358L182.833 354.217C183.118 353.308 183.379 352.388 183.616 351.457L179.674 341.639L185.782 334.946C185.882 333.702 185.977 332.476 186.067 331.284L175.399 333.065L168.711 321.157Z" fill="#FFB7D5"/>
<path d="M139 294.419C137.798 298.134 136.506 302.166 135.081 306.551L147.754 307.325L139 294.419Z" fill="#FFB7D5"/>
<path d="M183.75 410.462C183.949 407.612 184.571 390.464 188.951 390.773C194.651 391.172 188.025 410.761 188.025 410.761L183.75 410.462Z" fill="#30242A"/>
<path d="M289.242 223.725C289.242 223.725 241.604 232.56 215.403 243.513C188.951 254.576 189.207 274.222 193.967 327.588C198.242 375.364 205.88 398.563 190.167 405.707C175.755 412.262 170.749 420.48 171.433 427.994H242.374C242.774 427.994 243.17 427.915 243.539 427.762C243.909 427.609 244.244 427.385 244.527 427.102C244.81 426.82 245.034 426.484 245.187 426.114C245.34 425.745 245.419 425.349 245.419 424.949V424.949C245.419 424.142 245.098 423.367 244.527 422.796C243.956 422.225 243.181 421.904 242.374 421.904H241.177C243.414 414.585 246.658 400.297 247.105 376.651H255.902C255.902 376.651 260.424 355.751 255.427 337.112C250.202 317.585 245.423 314.25 242.569 300.912H285.257C317.856 300.912 342.257 270.759 335.165 238.944C332.952 229.002 329.741 223.744 329.741 223.744L289.242 223.725Z" fill="#FF7235"/>
<path d="M259.707 251.608L250.962 262.608L237.344 257.93L245.414 271.14L234.936 285.432L248.749 279.713L256.448 293.906L257.322 278.283L270.66 275.429L259.232 268.28L259.707 251.608Z" fill="#FFB7D5"/>
<path d="M240.678 336.528L248.753 349.738L238.275 364.031L252.088 358.331L257.208 367.769C257.959 360.435 258.329 349.586 255.935 339.169L254.301 341.226L240.678 336.528Z" fill="#FFB7D5"/>
<path d="M205.063 376.632L204.45 369.27L219.916 363.304L205.276 360.268L206.891 344.199L197.391 356.63L197.106 356.511C198.018 364.182 198.816 370.885 199.263 376.684V376.632H205.063Z" fill="#FFB7D5"/>
<path d="M242.374 421.886H241.177C243.414 414.566 246.658 400.278 247.105 376.632H199.249V376.675C199.287 377.15 199.32 377.625 199.353 378.1C199.353 378.143 199.353 378.19 199.353 378.233C200.346 393.077 198.726 401.76 190.148 405.66C175.736 412.215 170.73 420.432 171.414 427.946H242.374C243.181 427.946 243.956 427.626 244.527 427.055C245.098 426.484 245.419 425.709 245.419 424.902C245.419 424.094 245.098 423.32 244.527 422.749C243.956 422.178 243.181 421.857 242.374 421.857V421.886Z" fill="#EAA58B"/>
<path d="M305.891 224.955L284.008 226.893L286.288 235.69L272.29 243.157L289.727 245.489L295.626 258.557L301.692 245.024L319.428 242.221L304.024 234.289L305.891 224.955Z" fill="#FFB7D5"/>
<path d="M201.59 286.857L206.815 270.185L222.058 272.56L210.15 262.081L218.7 252.078L202.982 257.778L200.469 253.47C196.427 258.048 193.986 263.734 192.679 271.044L195.358 271.13L201.59 286.857Z" fill="#FFB7D5"/>
<path d="M242.374 234.555C239.158 235.448 235.957 236.384 232.831 237.348L245.424 245.898L242.374 234.555Z" fill="#FFB7D5"/>
<path d="M221.597 311.628L214.928 297.815L211.594 313.058L199.211 312.108L210.639 322.112L203.495 338.784L215.897 327.223L226.176 339.074L223.027 321.157L233.506 307.344L221.597 311.628Z" fill="#FFB7D5"/>
<path d="M193.321 416.314C199.619 414.575 211.912 410.101 209.689 405.213C207.618 400.653 195.601 408.538 191.501 412.048C190.467 410.15 189.145 408.423 187.583 406.928C175.147 413.26 170.782 420.926 171.433 427.975H242.374C243.181 427.975 243.956 427.654 244.527 427.083C245.098 426.512 245.419 425.738 245.419 424.93V424.93C245.419 424.123 245.098 423.348 244.527 422.777C243.956 422.206 243.181 421.886 242.374 421.886H194.446C194.268 419.994 193.891 418.126 193.321 416.314V416.314Z" fill="#30242A"/>
<path d="M242.374 301.962L230.109 301.791" stroke="#A15842" stroke-width="4" stroke-miterlimit="10" stroke-linecap="round"/>
<path d="M251.494 232.474C238.788 235.714 225.207 239.69 214.919 243.984C192.974 253.175 189.416 268.261 191.549 303.639" stroke="#A15842" stroke-width="4" stroke-miterlimit="10" stroke-linecap="round"/>
<path d="M412.747 229.696H401.081V427.975H412.747V229.696Z" fill="#FFBE21"/>
<path d="M412.747 232.422H401.081" stroke="#A15842" stroke-width="4" stroke-miterlimit="10"/>
<path d="M243.509 80.598C236.859 79.648 221.626 86.7968 221.123 100.928C220.619 115.059 233.235 119.6 235.254 120.612L264.528 116.066L266.547 83.7663L243.509 80.598Z" fill="#A15842"/>
<path d="M295.227 45.505C307.793 45.505 317.98 35.3184 317.98 22.7525C317.98 10.1866 307.793 0 295.227 0C282.661 0 272.475 10.1866 272.475 22.7525C272.475 35.3184 282.661 45.505 295.227 45.505Z" fill="#A15842"/>
<path d="M280.469 38.399C281.856 39.0402 270.176 11.324 264.214 15.6465C258.605 19.7267 273.425 35.15 280.469 38.399Z" fill="#30242A"/>
<path d="M281.115 40.0947C282.388 41.6147 312.189 31.1885 308.066 25.175C304.124 19.3895 279.842 38.57 281.115 40.0947Z" fill="#30242A"/>
<path d="M320.678 116.323C320.678 116.323 340.685 99.6502 327.803 81.073C319.604 69.2312 297.313 73.948 297.313 73.948C297.854 67.4452 299.621 48.7112 285.533 38.418C271.444 28.1247 253.57 33.5445 247.058 41.667C240.545 49.7895 242.184 64.9657 240.018 75.8005C237.852 86.6352 239.296 94.0025 245.975 97.47C252.05 100.624 259.199 98.7192 259.199 98.7192L258.439 110.152C258.439 110.152 244.664 110.67 236.223 113.724C215.883 121.087 180.149 171.579 180.149 171.579C157.762 170.629 136.801 169.679 136.801 169.679L147.759 202.074C147.759 202.074 175.385 211.123 195.392 205.874C215.689 200.559 234.931 172.054 234.931 172.054L241.581 191.107L230.148 223.022H329.708L313.035 193.486C315.918 167.295 320.678 116.323 320.678 116.323Z" fill="#EAA58B"/>
<path d="M288.687 108.965L262.562 156.337L251.874 110.627C247.176 111.102 240.916 112.024 236.27 113.705C215.883 121.087 180.149 171.579 180.149 171.579C157.762 170.629 136.801 169.679 136.801 169.679L147.759 202.074C147.759 202.074 175.385 211.123 195.392 205.874C215.689 200.559 234.931 172.054 234.931 172.054L241.581 191.107L230.148 223.022H329.707L313.035 193.491C315.885 167.29 320.635 116.318 320.635 116.318C316.224 113.633 311.395 111.706 306.347 110.618C300.661 109.335 294.41 110.1 288.687 108.965Z" fill="#4756DF"/>
<path d="M153.392 219.692H235.89L217.133 160.45C216.581 158.704 215.488 157.18 214.011 156.097C212.534 155.015 210.751 154.432 208.92 154.432H139.199C137.845 154.431 136.509 154.75 135.3 155.362C134.092 155.975 133.045 156.864 132.245 157.957C131.445 159.05 130.914 160.317 130.695 161.654C130.477 162.991 130.576 164.36 130.987 165.652L146.491 214.643C146.956 216.109 147.875 217.388 149.116 218.296C150.357 219.204 151.855 219.693 153.392 219.692V219.692Z" fill="#30242A"/>
<path d="M165.685 181.231C167.875 178.239 177.807 186.143 178.539 186.794C178.919 186.143 184.091 178.244 187.882 181.231C191.174 183.825 183.939 195.41 182.016 198.365C181.935 198.454 181.837 198.526 181.726 198.575C181.616 198.624 181.497 198.649 181.377 198.649C181.256 198.649 181.137 198.624 181.027 198.575C180.917 198.526 180.819 198.454 180.738 198.365C177.228 195.41 163.785 183.825 165.685 181.231Z" fill="#A15842"/>
<path d="M177.72 183.235C178.549 182.977 178.581 180.711 177.791 178.173C177 175.636 175.688 173.789 174.859 174.047C174.029 174.305 173.998 176.571 174.788 179.108C175.579 181.646 176.891 183.493 177.72 183.235Z" fill="#A15842"/>
<path d="M283.794 213.023C284.033 213.79 284.088 214.601 283.956 215.393C283.824 216.185 283.507 216.934 283.032 217.581C282.557 218.228 281.936 218.755 281.221 219.118C280.505 219.482 279.714 219.672 278.911 219.673H153.392C151.855 219.674 150.357 219.185 149.116 218.277C147.875 217.369 146.956 216.09 146.491 214.624L145.978 213.004L283.794 213.023Z" fill="#30242A"/>
<path d="M432.849 219.692H65.0991V231.601H432.849V219.692Z" fill="#FFBE21"/>
<path d="M359.457 284.948L367.095 255.075H322.54C312.614 255.075 302.97 258.38 295.13 264.467C287.29 270.555 281.699 279.079 279.239 288.695L274.061 308.93H328.568C335.648 308.93 342.527 306.573 348.12 302.23C353.713 297.888 357.702 291.807 359.457 284.948V284.948Z" fill="#FFB7D5"/>
<path d="M275.116 301.098L273.354 308.546" stroke="#A15842" stroke-width="4" stroke-linecap="round" stroke-linejoin="round"/>
<path d="M132.83 171.394C127.286 174.164 124.517 178.781 124.517 182.015C124.517 186.737 129.324 187.625 129.324 187.625C129.324 187.625 125.738 193.263 131.975 195.909C131.975 195.909 131.975 201.714 137.784 201.714C137.784 201.714 137.014 206.24 143.075 206.668C149.136 207.095 155.373 203.932 155.9 201.885C156.504 199.467 154.874 197.443 150.476 196.802C150.476 196.802 156.413 194.028 155.473 190.527C154.532 187.027 150.519 187.107 150.519 187.107C150.519 187.107 154.361 184.804 152.309 181.407C150.257 178.011 146.334 179.189 146.334 179.189C146.334 179.189 147.36 176.814 145.564 175.004C143.427 172.867 134.236 175.565 134.236 175.565L132.83 171.394Z" fill="#EAA58A"/>
<path d="M137.826 201.937C142.828 200.738 147.681 198.985 152.295 196.712" stroke="#A15842" stroke-width="4" stroke-miterlimit="10" stroke-linecap="round"/>
<path d="M131.96 195.881C138.895 193.979 145.516 191.078 151.616 187.269" stroke="#A15842" stroke-width="4" stroke-miterlimit="10" stroke-linecap="round"/>
<path d="M128.849 188.299C135.276 186.398 141.347 183.457 146.823 179.593" stroke="#A15842" stroke-width="4" stroke-miterlimit="10" stroke-linecap="round"/>
<path d="M327.826 81.073C319.628 69.2312 297.336 73.948 297.336 73.948C297.878 67.4452 299.645 48.7112 285.556 38.418C271.468 28.1247 253.593 33.5445 247.081 41.667C244.431 44.992 243.134 49.4665 242.379 54.3495C246.701 55.0762 253.042 53.5895 253.042 53.5895C261.711 63.3412 269.477 64.8897 269.477 64.8897C275.543 58.824 286.183 59.0235 287.912 68.2147C289.708 77.7575 274.465 82.0467 274.465 82.0467C274.465 82.0467 273.04 99.1942 280.64 105.388C282.972 107.237 285.73 108.473 288.663 108.984C294.363 110.119 300.637 109.354 306.366 110.627C311.414 111.716 316.243 113.642 320.654 116.327C322.394 114.794 323.985 113.099 325.404 111.264C330.401 104.927 336.376 93.423 327.826 81.073Z" fill="#A15842"/>
<path d="M262.086 50.1125C259.236 52.4875 255.911 53.9125 252.083 54.8625" stroke="#EAA58B" stroke-width="4" stroke-miterlimit="10" stroke-linecap="round"/>
<path d="M259.042 99.788C261.254 99.0501 263.387 98.0955 265.411 96.938" stroke="#A15842" stroke-width="4" stroke-miterlimit="10" stroke-linecap="round"/>
<path d="M275.049 72.466L279.381 69.7585" stroke="#A15842" stroke-width="4" stroke-miterlimit="10" stroke-linecap="round"/>
<path d="M250.192 85.1817C251.09 85.7375 254.467 86.1698 255.807 83.5905" stroke="#A15842" stroke-width="4" stroke-miterlimit="10" stroke-linecap="round"/>
<path d="M259.018 72.9933C259.915 72.9933 260.643 72.266 260.643 71.3688C260.643 70.4716 259.915 69.7443 259.018 69.7443C258.121 69.7443 257.394 70.4716 257.394 71.3688C257.394 72.266 258.121 72.9933 259.018 72.9933Z" fill="#30242A"/>
<path d="M245.552 70.8415C246.449 70.8415 247.176 70.1142 247.176 69.217C247.176 68.3198 246.449 67.5925 245.552 67.5925C244.655 67.5925 243.927 68.3198 243.927 69.217C243.927 70.1142 244.655 70.8415 245.552 70.8415Z" fill="#30242A"/>
<path d="M250.126 75.4918C249.803 76.513 249.523 77.6245 249.708 77.995C249.963 78.4645 250.349 78.8492 250.82 79.1018" stroke="#A15842" stroke-width="4" stroke-miterlimit="10" stroke-linecap="round"/>
<path d="M277.087 88.3832C280.23 88.3832 282.777 85.8355 282.777 82.6927C282.777 79.55 280.23 77.0023 277.087 77.0023C273.944 77.0023 271.396 79.55 271.396 82.6927C271.396 85.8355 273.944 88.3832 277.087 88.3832Z" fill="#F5EBDD"/>
<path d="M249.712 70.1303C250.696 65.0703 247.802 60.2499 243.246 59.3636C238.691 58.4774 234.2 61.8608 233.216 66.9208C232.231 71.9808 235.126 76.8012 239.681 77.6875C244.236 78.5738 248.727 75.1903 249.712 70.1303Z" stroke="#30242A" stroke-width="4" stroke-miterlimit="10" stroke-linecap="round"/>
<path d="M270.351 72.661C271.335 67.601 268.44 62.7805 263.885 61.8943C259.33 61.008 254.839 64.3915 253.855 69.4515C252.87 74.5115 255.765 79.3319 260.32 80.2182C264.875 81.1044 269.366 77.721 270.351 72.661Z" stroke="#30242A" stroke-width="4" stroke-miterlimit="10" stroke-linecap="round"/>
<path d="M250.102 69.3643L253.385 69.7158" stroke="#30242A" stroke-width="4" stroke-miterlimit="10" stroke-linecap="round"/>
<path d="M298.424 74.575L297.479 80.655" stroke="#30242A" stroke-width="4" stroke-miterlimit="10" stroke-linecap="round"/>
<path d="M229.696 159.671L234.294 173.052" stroke="#30242A" stroke-width="4" stroke-linecap="round" stroke-linejoin="round"/>
<path d="M253.988 190.157H241.899" stroke="#30242A" stroke-width="4" stroke-linecap="round" stroke-linejoin="round"/>
<path d="M263.516 155.862L267.326 174.439V191.586" stroke="#30242A" stroke-width="4" stroke-linecap="round" stroke-linejoin="round"/>
<path d="M238.18 113.292L245.414 129.661L236.84 128.711L267.326 174.439" stroke="#30242A" stroke-width="4" stroke-linecap="round" stroke-linejoin="round"/>
<path d="M308.665 111.345L296.386 128.711L307.819 127.756L265.896 164.91" stroke="#30242A" stroke-width="4" stroke-linecap="round" stroke-linejoin="round"/>
<path d="M315.049 169.575L305.915 156.817" stroke="#30242A" stroke-width="4" stroke-linecap="round" stroke-linejoin="round"/>
<path d="M325.618 216.6C320.644 214.942 311.719 211.741 306.337 208.525" stroke="#30242A" stroke-width="4" stroke-linecap="round" stroke-linejoin="round"/>
<path d="M188.438 98.4057C193.598 98.4057 197.781 94.2226 197.781 89.0625C197.781 83.9024 193.598 79.7192 188.438 79.7192C183.278 79.7192 179.094 83.9024 179.094 89.0625C179.094 94.2226 183.278 98.4057 188.438 98.4057Z" fill="#FFB7D5"/>
<path d="M160.514 51.8797L155.074 45.3204C154.236 44.3107 152.739 44.171 151.729 45.0084L151.612 45.1054C150.603 45.9427 150.463 47.44 151.3 48.4496L156.74 55.0089C157.578 56.0186 159.075 56.1582 160.085 55.3209L160.202 55.2239C161.211 54.3866 161.351 52.8893 160.514 51.8797Z" fill="#4756DF"/>
<path d="M170.298 59.85L164.826 53.2475L66.4674 134.805C65.6096 135.517 65.0697 136.54 64.9664 137.65C64.863 138.76 65.2047 139.866 65.9164 140.723L66.0256 140.856C66.3777 141.281 66.8099 141.632 67.2977 141.89C67.7855 142.147 68.3192 142.306 68.8683 142.357C69.4175 142.408 69.9714 142.351 70.4983 142.188C71.0252 142.025 71.5149 141.76 71.9394 141.407L102.691 115.9V205.404H111.274V108.775L170.298 59.85Z" fill="#3EC1F3"/>
<path d="M154.447 61.75L157.188 65.075C158.142 66.2286 158.868 67.5538 159.325 68.9795" stroke="#4756DF" stroke-width="4" stroke-miterlimit="10"/>
<path d="M106.98 117.881C113.163 117.881 118.176 112.868 118.176 106.685C118.176 100.502 113.163 95.4893 106.98 95.4893C100.797 95.4893 95.7842 100.502 95.7842 106.685C95.7842 112.868 100.797 117.881 106.98 117.881Z" fill="#4756DF"/>
<path d="M106.98 110.989C109.357 110.989 111.284 109.062 111.284 106.685C111.284 104.308 109.357 102.382 106.98 102.382C104.603 102.382 102.677 104.308 102.677 106.685C102.677 109.062 104.603 110.989 106.98 110.989Z" fill="#3EC1F3"/>
<path d="M196.109 83.7567L181.788 95.5937" stroke="#A15842" stroke-width="4" stroke-miterlimit="10"/>
<path d="M177.556 58.653C174.544 58.2992 171.785 56.7988 169.851 54.4635L166.051 49.8703C164.708 48.2533 162.778 47.2355 160.685 47.0405C158.592 46.8454 156.507 47.4891 154.889 48.83V48.83C154.087 49.4943 153.425 50.3098 152.939 51.2301C152.454 52.1503 152.154 53.1573 152.057 54.1934C151.961 55.2295 152.069 56.2746 152.376 57.2688C152.684 58.263 153.184 59.1869 153.848 59.9878L157.648 64.5953C159.574 66.9239 160.531 69.903 160.323 72.9173L159.373 86.8063C158.902 93.602 160.627 100.369 164.294 106.11L165.51 108.01L211.076 70.2145L209.442 68.6803C204.483 64.0141 198.155 61.0651 191.392 60.268L177.556 58.653Z" fill="#3EC1F3"/>
<path d="M111.274 205.404H102.691L90.0034 208.862C87.6279 209.51 85.5314 210.922 84.037 212.879C82.5427 214.836 81.7333 217.23 81.7336 219.692H132.226C132.226 217.229 131.416 214.835 129.921 212.878C128.426 210.92 126.328 209.51 123.952 208.862L111.274 205.404Z" fill="#3EC1F3"/>
<path d="M202.431 63.4932L160.731 97.9592" stroke="#4756DF" stroke-width="4" stroke-miterlimit="10" stroke-linecap="round"/>
<path d="M102.482 204.421H111.274" stroke="#4756DF" stroke-width="4" stroke-miterlimit="10" stroke-linecap="round"/>
<path d="M83.4009 213.755H130.274" stroke="#4756DF" stroke-width="4" stroke-miterlimit="10" stroke-linecap="round"/>
<path d="M353.553 342.233C354.503 334.158 354.028 316.032 343.549 302.219C333.07 288.406 347.349 294.144 351.624 297.944C358.464 304.024 364.487 309.852 369.726 329.384L353.553 342.233Z" fill="#30242A"/>
<path d="M480.078 427.975H536V426.146C535.999 423.568 534.974 421.096 533.151 419.274C531.327 417.452 528.855 416.428 526.277 416.428H479.789L480.078 427.975Z" fill="#A15842"/>
<path d="M343.663 374.585L355.457 427.975H377.374V424.65C377.374 422.506 376.524 420.45 375.01 418.932C373.496 417.414 371.442 416.558 369.299 416.551V416.551C369.299 416.551 380.252 408.338 386.921 400.24C386.921 400.24 398.354 414.171 414.552 411.787L415.725 417.487C416.335 420.445 417.946 423.103 420.286 425.014C422.626 426.924 425.553 427.97 428.574 427.975H481.693C505.253 427.975 516.843 424.379 517.508 410.965C517.529 410.454 517.446 409.943 517.264 409.464C517.082 408.986 516.805 408.549 516.45 408.179C516.095 407.81 515.67 407.517 515.198 407.316C514.727 407.116 514.22 407.013 513.708 407.013H498.879C498.267 407.014 497.663 406.877 497.112 406.613C496.56 406.349 496.075 405.965 495.691 405.488L489.379 397.656C487.507 395.338 485.01 393.606 482.184 392.665C479.357 391.725 476.32 391.615 473.433 392.35L460.736 395.594C460.736 395.594 438.24 363.266 417.863 340.813C398.388 319.376 361.756 317.063 347.325 344.983C342.686 354.12 341.39 364.593 343.663 374.585V374.585Z" fill="#A15842"/>
<path d="M476.454 427.975V426.146C476.454 424.87 476.203 423.605 475.714 422.426C475.225 421.247 474.509 420.175 473.606 419.273C472.703 418.37 471.631 417.654 470.451 417.166C469.272 416.678 468.007 416.427 466.731 416.428H460.257" stroke="#30242A" stroke-width="4" stroke-miterlimit="10"/>
<path d="M387.805 400.62C391.13 396.663 402.477 382.095 401.665 367.845C400.796 352.597 391.662 344.503 391.662 344.503" stroke="#30242A" stroke-width="4" stroke-miterlimit="10" stroke-linecap="round"/>
<path d="M411.669 391.656C411.669 391.656 412.277 402.928 413.497 411.345" stroke="#30242A" stroke-width="4" stroke-miterlimit="10" stroke-linecap="round"/>
<path d="M365.94 423.097V427.5" stroke="#30242A" stroke-width="4" stroke-miterlimit="10" stroke-linecap="round"/>
<path d="M371.18 423.097V427.5" stroke="#30242A" stroke-width="4" stroke-miterlimit="10" stroke-linecap="round"/>
<path d="M465.976 423.097V427.5" stroke="#30242A" stroke-width="4" stroke-miterlimit="10" stroke-linecap="round"/>
<path d="M471.215 423.097V427.5" stroke="#30242A" stroke-width="4" stroke-miterlimit="10" stroke-linecap="round"/>
<path d="M485.265 410.234C486.448 410.234 487.408 409.275 487.408 408.091C487.408 406.908 486.448 405.949 485.265 405.949C484.082 405.949 483.123 406.908 483.123 408.091C483.123 409.275 484.082 410.234 485.265 410.234Z" fill="#30242A"/>
<path d="M473.575 392.307V392.25L460.717 395.575L473.414 392.331L473.575 392.307Z" fill="#30242A"/>
<path d="M441.931 416.642C438.207 418.542 432.944 422.261 433.381 427.894H454.063L458.409 421.04C459.119 419.919 460.101 418.996 461.264 418.355C462.426 417.715 463.732 417.379 465.059 417.378H466.441L473.528 392.45L473.424 392.34L460.727 395.585L448.572 411.155C446.782 413.444 444.516 415.316 441.931 416.642V416.642Z" fill="#30242A"/>
<path d="M411.726 352.45C411.726 352.45 405.973 372.362 424.551 379.881C433.97 383.681 441.793 380.798 447.223 377.031C439.019 366.106 428.165 352.198 417.858 340.836C415.273 337.993 412.369 335.457 409.203 333.279C406.391 337.107 403.313 346.579 411.726 352.45Z" fill="#EAA58B"/>
<path d="M364.273 366.89C368.615 366.89 372.135 363.37 372.135 359.029C372.135 354.687 368.615 351.167 364.273 351.167C359.932 351.167 356.412 354.687 356.412 359.029C356.412 363.37 359.932 366.89 364.273 366.89Z" fill="#EAA58B"/>
<path d="M513.727 407.013H510.877C510.72 407.808 510.741 408.628 510.938 409.413C511.135 410.199 511.504 410.931 512.017 411.558C512.531 412.184 513.176 412.69 513.908 413.037C514.64 413.385 515.439 413.566 516.249 413.568C516.584 413.568 516.918 413.536 517.247 413.473C517.392 412.644 517.486 411.806 517.527 410.965C517.548 410.454 517.465 409.943 517.283 409.464C517.101 408.986 516.824 408.549 516.469 408.179C516.115 407.81 515.689 407.517 515.217 407.316C514.746 407.116 514.239 407.013 513.727 407.013Z" fill="#30242A"/>
<path d="M525.042 423.097V427.391" stroke="#30242A" stroke-width="4" stroke-miterlimit="10" stroke-linecap="round"/>
<path d="M530.281 423.097V427.391" stroke="#30242A" stroke-width="4" stroke-miterlimit="10" stroke-linecap="round"/>
<path d="M496.295 427.405C507.942 426.232 514.886 423.078 517.408 416.366" stroke="#30242A" stroke-width="4" stroke-linecap="round" stroke-linejoin="round"/>
<path d="M306.39 177.493C300.528 176.968 294.634 176.903 288.762 177.298C280.364 177.987 269.074 180.186 264.537 182.381C260.001 184.575 242.63 192.323 247.309 194.921C251.584 197.296 260.552 193.724 260.552 193.724C260.552 193.724 251.603 201.951 250.064 205.395C248.525 208.838 253.612 210.772 253.612 210.772C254.952 216.652 260.946 214.125 260.946 214.125C264.723 222.157 285.124 204.753 285.124 204.753C289.978 205.258 294.879 205.051 299.673 204.141C299.673 204.141 302.257 205.589 306.404 207.603L306.39 177.493Z" fill="#EAA58A"/>
<path d="M357.357 217.787C395.466 199.685 340.224 132.05 320.678 116.323L309.724 160.626L323.537 179.678C317.486 178.633 311.7 177.916 306.39 177.493V207.603C318.483 213.484 343.896 224.2 357.357 217.787Z" fill="#4756DF"/>
<path d="M258.728 194.223C262.11 191.425 267.725 186.903 271.914 184.177" stroke="#A15842" stroke-width="4" stroke-miterlimit="10" stroke-linecap="round"/>
<path d="M276.531 190.86C266.798 197.163 257.93 205.585 253.541 209.993" stroke="#A15842" stroke-width="4" stroke-miterlimit="10" stroke-linecap="round"/>
<path d="M280.849 197.99C274.199 202.554 266.48 209.475 261.44 214.225" stroke="#A15842" stroke-width="4" stroke-miterlimit="10" stroke-linecap="round"/>
<path d="M395.182 195.429C395.902 195.43 396.592 195.717 397.101 196.226C397.611 196.736 397.897 197.426 397.899 198.146V198.55C397.897 199.27 397.611 199.961 397.101 200.47C396.592 200.979 395.902 201.266 395.182 201.267H381.183V195.429H395.182ZM395.182 191.629H377.896C377.829 191.629 377.761 191.643 377.699 191.669C377.636 191.695 377.58 191.733 377.532 191.781C377.484 191.829 377.447 191.886 377.421 191.949C377.396 192.012 377.383 192.079 377.383 192.147V204.568C377.383 204.704 377.437 204.835 377.534 204.931C377.63 205.027 377.76 205.081 377.896 205.081H395.182C396.039 205.081 396.887 204.912 397.679 204.584C398.47 204.255 399.189 203.774 399.795 203.167C400.4 202.561 400.88 201.841 401.207 201.048C401.533 200.256 401.7 199.407 401.699 198.55V198.132C401.699 196.404 401.012 194.746 399.79 193.524C398.568 192.302 396.91 191.615 395.182 191.615V191.629Z" fill="#3EC1F3"/>
<path d="M374.281 189.582C360.126 189.582 353.586 178.301 353.586 178.301L363.086 219.692H385.449L394.949 178.301C392.742 181.779 389.688 184.639 386.073 186.612C382.458 188.586 378.4 189.608 374.281 189.582Z" fill="#3EC1F3"/>
<path d="M374.281 189.582C378.405 189.612 382.468 188.593 386.089 186.619C389.71 184.646 392.768 181.783 394.977 178.301H353.586C353.586 178.301 360.126 189.582 374.281 189.582Z" fill="#30242A"/>
</svg>
